<svg id="레이어_1" data-name="레이어 1" xmlns="http://www.w3.org/2000/svg" viewBox="0 0 375 375"><defs><style>.cls-1{fill:#fefefe;}.cls-2{fill:#333632;}.cls-3{fill:#020202;}.cls-4{fill:#010101;}.cls-5{fill:#030303;}.cls-6{fill:#353834;}.cls-7{fill:#a0a0a0;}.cls-8{fill:#4b4e4a;}.cls-9{fill:#dbdbdb;}.cls-10{fill:#fafafa;}.cls-11{fill:#fff;}</style></defs><path class="cls-1" d="M596.69,311.43q0,92,.08,184.06c0,2.56-.51,3.06-3.07,3.06q-184.44-.12-368.87,0c-2.56,0-3.07-.5-3.06-3.06q.12-184.44,0-368.87c0-2.56.5-3.07,3.06-3.07q184.44.12,368.87,0c2.56,0,3.07.5,3.07,3.07Q596.62,219,596.69,311.43Z" transform="translate(-221.77 -123.55)"/><path class="cls-2" d="M534.47,340.68q-16.59-14.25-33.17-28.49c-6.22-5.37-12.36-10.83-18.59-16.21-2.23-1.92-4.52-2.59-7.46-.94-3.76,2.1-6.4-.49-8.58-3.11-5.11-6.13-10.06-12.37-15.06-18.59-5.93-7.37-11.74-14.84-17.78-22.13-4.63-5.58-8.67-5.62-13.77-.44-4,4.08-8,8.22-12,12.34-4.17,4.32-4.7,7.83-1.86,13.13,2.44,4.57,6.09,8.14,9.73,11.74,1.88,1.87,4.81,3.68,3.91,6.68-1,3.37-4.76,2.91-7.4,3.15a78.64,78.64,0,0,1-13.81-.06c-2.5-.22-4.44-.19-5.72,2.14a5.87,5.87,0,0,0,.88,7.23c4.12,4.67,8.33,9.27,12.42,14a52.14,52.14,0,0,1,7.08,10c.47.91,1.46,2,.36,3.05-.91.85-2.08.45-3.17.06-6.6-2.37-12.43-6.18-18.32-9.87s-11.17-7.87-18-9.48a15.31,15.31,0,0,0-3.29-.5c-3-.05-3.71,1.48-2.71,4.09a29,29,0,0,0,3.69,6.46,65.64,65.64,0,0,1,6.53,10.41c.53,1.15,1.23,2.51.27,3.46s-2.33.38-3.49-.11a78.16,78.16,0,0,1-15-8.93c-6-4.27-12.33-7.39-19.95-7.15-5.42.18-10.08,2.3-14.56,5.11-10,6.26-20.08,12.38-30.54,17.85-2.25,1.18-4.51,2.52-7.61,2.5,1.45-3.25,3.71-5.35,5.94-7.42a543.61,543.61,0,0,1,44.39-36.59c3.38-2.53,6.69-5.2,10.25-7.48,2-1.29,1.61-2.14.44-3.66-6.12-8-12.12-16.11-18.24-24.13-2.47-3.24-4.75-3.68-7.94-1.22a50,50,0,0,0-9.8,9.69c-3.08,4.17-2.45,8.18,1.62,11.45,3.79,3,7.7,5.95,10.89,9.66.94,1.1,2.29,2.33,1.45,3.9s-2.38.56-3.7.43a40.44,40.44,0,0,1-9.72-2.4,18.42,18.42,0,0,0-8.1-.75c-2,.2-4.24.45-5.1,2.51s.74,3.86,2.12,5.21a26.53,26.53,0,0,1,6.38,10.39c1,2.92.05,4-3,3.57a25.29,25.29,0,0,1-10.88-4.55c-2.12-1.49-4.17-3.13-6.68-4-2.78-1-4.35-.06-4.53,2.88-.14,2.23.07,4.48,0,6.72-.08,2.64-1.53,2.87-3.44,1.64a13.2,13.2,0,0,1-3.11-2.65c-2.87-3.54-6.52-3.7-10.49-2.67-6.8,1.77-12.92,5.05-18.82,8.76-4.58,2.88-9.08,5.9-14.4,9.37,1.35-3.3,3.39-5,5-6.91,9.52-11.37,18.93-22.85,30.37-32.43A41.23,41.23,0,0,1,278,291c3.47-1.52,6.71-2.1,9.22,2.15,6.26-7.49,12.33-14.73,18.37-22,4.38-5.27,8.71-10.57,13.08-15.84a23.57,23.57,0,0,1,2.1-2.14c3.81-3.48,6.94-3.27,10.11.77q10.28,13.06,20.48,26.18c1.92,2.45,3.94,4.83,5.74,7.36,1.2,1.68,2,1.57,3.44.19,2.49-2.38,5.29-5.86,8.83-4.58,4.55,1.63,5.56-1.39,7.42-3.76Q398.1,252.2,419.37,225c1.38-1.76,2.48-3.74,3.91-5.45,2.11-2.51,4.57-2.38,6.49.28,14,19.41,29.49,37.6,44,56.57,1.74,2.26,3.14,3.54,6.3,2.14,4-1.79,7.21.57,9.7,3.57,1.4,1.67,2.14,1.66,3.54,0,6.66-8.07,13.46-16,20.18-24,4-4.82,5.37-4.69,8.67.54,7.11,11.25,14.34,22.42,21.49,33.64a3.76,3.76,0,0,0,3.87,2.13c3.18-.24,5.62,1.14,7.52,3.9,7.75,11.27,15.65,22.43,23.53,33.59a2.88,2.88,0,0,1,.67,2.88c-2.72-2.92-5.21-5.65-7.77-8.32q-9.94-10.41-20-20.76c-2.11-2.17-4.29-4.27-7.8-2.42-1.68.89-2-1-2.64-1.86-6.28-8.66-12.51-17.36-18.79-26a17,17,0,0,0-2.65-3.13c-2-1.75-4.23-2-6.24.17-3,3.3-6.13,6.55-9,10-2.23,2.61-1.92,5.48-.15,8.27,2,3.15,5.15,5,8.11,7.06,1.29.9,3.52,1.68,3,3.31-.52,1.79-2.87,1.49-4.59,1.53s-3.64,0-6.45,0c3.12,2.56,5.52,4.42,7.78,6.43,2.93,2.62,5.36,5.58,5.49,9.8,0,1.61,1,2.73,2,3.86,5.23,5.79,10.42,11.62,15.63,17.44C535.3,340.59,535.21,341.05,534.47,340.68Z" transform="translate(-221.77 -123.55)"/><path d="M469.34,192.45c2.71,1.8,5.52,3.41,8,5.4,2.1,1.67,5.74,2.72,5.92,5.05.16,2-2.69,4.18-4.18,6.3-2.07,2.94-4.14,5.88-6.15,8.86-.78,1.15-1.34,1.91-2.88.75-4-3-8-5.79-12.14-8.59-1.08-.74-1.19-1.28-.42-2.32,3.44-4.71,6.81-9.46,10.22-14.19C468.15,193.14,468.41,192.33,469.34,192.45Z" transform="translate(-221.77 -123.55)"/><path class="cls-3" d="M430.06,196.93c.91,4.44-.91,5.21-4.74,5.08-3.56-.13-7.18-.71-10.79,0-2.18.4-3.37-.44-3.28-3.1.21-5.6.13-11.21,0-16.81-.11-3.34,2.17-2.17,3.78-2.28s3.19-.31,3,2.34c-.31,4-.18,8-.34,12-.08,2.16.53,3.11,2.95,2.91C423.67,196.73,426.79,196.93,430.06,196.93Z" transform="translate(-221.77 -123.55)"/><path class="cls-4" d="M436.23,188.57c0,6.34,0,12.69,0,19,0,1.49-.29,2.43-1.95,2.42-1.92,0-1.68-1.37-1.66-2.63.05-4.73,0-9.46.16-14.18.07-2.12-.28-3.41-2.79-3-1.5.25-2.59.11-2.5-2,.07-1.8.32-2.88,2.42-2.52,2.34.41,3-.67,2.92-2.92-.16-4.11-.06-8.22,0-12.32,0-1.49-.71-3.35,2.07-3.33s1.72,1.93,1.73,3.16c.08,6.09,0,12.19,0,18.29Z" transform="translate(-221.77 -123.55)"/><path class="cls-4" d="M473.84,230.48A12.21,12.21,0,0,1,472,229.1c-.82-.9,0-1.62.48-2.28,2.06-3.09,4.21-6.13,6.26-9.23.81-1.24,2.35-2.57,0-3.92-1.24-.72-.12-1.41.24-2.06s1.09-1.82,2-1.1c2.22,1.84,2.84.06,3.86-1.34,3.13-4.3,6.36-8.54,9.53-12.83.63-.86,1-2.05,2.41-.89,1.23,1,1.82,1.75.65,3.32-3.92,5.26-7.67,10.65-11.53,16-3.28,4.51-6.61,9-10,13.44C475.27,229,474.58,229.64,473.84,230.48Z" transform="translate(-221.77 -123.55)"/><path class="cls-4" d="M390.66,214.94c.19.86-.62,1-1,1.26-5.47,3.87-11,7.67-16.46,11.56-1.4,1-2.13.64-3-.65-1.91-2.9-3.83-5.82-6-8.56-1.14-1.45-.68-2.17.63-2.8s2.27-2.8,4-.69c.31.38.58.8.86,1.21,4.05,6,4,6,10.1,1.81,2.45-1.68,5-3.28,7.41-5S389.77,213.82,390.66,214.94Z" transform="translate(-221.77 -123.55)"/><path class="cls-3" d="M365.16,188.93c.34,1.7,1.16,3.43.92,5-.58,3.78,1.62,5.23,4.46,6.5,1.06.47,2.48.7,2.3,2.44s-.85,3-2.83,2.08c-3.76-1.65-4.93.21-5.25,3.58-.24,2.59-.88,4.88-4.4,4.15-1.23-.26-1.56-.62-1.28-2,1.19-5.84,2.16-11.71,1.86-17.72C360.83,190.89,361,190.88,365.16,188.93Z" transform="translate(-221.77 -123.55)"/><path class="cls-5" d="M378.55,191.77c-.08.32-.05.63-.19.73-4.13,2.87-.2,4.8.84,7a9.46,9.46,0,0,0,1.44,2.16c.81.93.48,1.44-.43,2s-1.37.84-2.1-.22q-6.72-9.8-13.6-19.48c-.9-1.27-.2-1.62.64-2.29,1.17-.93,1.75-.32,2.36.6,1.51,2.27,3.14,4.46,4.49,6.81.89,1.54,1.63,1.87,3.1.73C377.76,187.8,377.52,190.93,378.55,191.77Z" transform="translate(-221.77 -123.55)"/><path class="cls-6" d="M427.46,298.78a26.48,26.48,0,0,1,14.06,8.39c.86,1,1.79,2.45.8,3.68-.8,1-2.09-.09-3-.45-4.92-2-9.77-4.2-13.49-8.16-.6-.64-1.62-1.43-1-2.54A2.32,2.32,0,0,1,427.46,298.78Z" transform="translate(-221.77 -123.55)"/><path class="cls-7" d="M505.8,333.54c-1.51-1.54-1.19-2.39-.05-3.18C506.86,331.28,506,332.17,505.8,333.54Z" transform="translate(-221.77 -123.55)"/><path class="cls-8" d="M534.47,340.68l.82-.66c.94.2,1.82,1.1,1.28,1.65C535.62,342.65,535,341.41,534.47,340.68Z" transform="translate(-221.77 -123.55)"/><path class="cls-9" d="M493.74,326a1.85,1.85,0,0,1,2.06.69c-.15.13-.3.35-.46.36A1.64,1.64,0,0,1,493.74,326Z" transform="translate(-221.77 -123.55)"/><path class="cls-10" d="M474.84,203.87c-1.47,2.66-3,5.35-5.32,7.13-1.26.95-2.42-1.22-3.64-1.94s-.14-1.5.26-2.1c1.17-1.75,2.47-3.42,3.69-5.13.61-.86,1.23-1.71,2.37-.79S474.62,202.32,474.84,203.87Z" transform="translate(-221.77 -123.55)"/><rect class="cls-11" x="269.04" y="202.06" width="16.6" height="10.47"/></svg>