<svg width="135" height="150" viewBox="0 0 135 150" fill="none" xmlns="http://www.w3.org/2000/svg">
<path fill-rule="evenodd" clip-rule="evenodd" d="M2.00156 68.8008V68.7008L2.50156 68.2008H2.70156L2.90156 68.1008L3.20156 67.8008H3.30156L3.60156 67.7008L3.70156 67.5008L4.10156 67.2008L4.40156 66.9008L4.30156 66.7008L4.20156 66.6008L4.10156 66.5008V66.4008V66.3008L4.20156 66.1008L4.10156 65.8008L4.20156 65.7008V65.5008L4.50156 64.9008L5.00156 64.8008L5.20156 64.6008L5.40156 64.2008L5.70156 64.1008L5.90156 63.7008L6.10156 63.6008H6.20156L6.40156 63.8008L6.50156 64.0008L6.70156 64.1008H7.00156L7.20156 64.0008L7.50156 63.8008L7.60156 63.5008L7.50156 63.2008L7.00156 62.9008V62.4008L6.80156 62.2008L6.70156 62.1008L6.60156 62.2008L6.50156 62.0008L6.70156 61.9008L6.80156 61.7008V61.4008H7.20156L7.50156 61.3008L7.60156 61.4008L7.80156 61.3008L8.00156 61.4008L8.50156 61.2008L8.60156 61.1008L8.70156 61.0008L8.90156 60.6008L9.00156 60.7008L9.20156 60.5008H9.50156H9.90156L10.0016 60.3008L10.2016 60.7008L10.4016 60.8008L10.9016 60.6008L11.0016 60.8008H11.2016L11.5016 60.6008L11.7016 60.7008L11.9016 61.3008L12.0016 61.4008L12.3016 61.5008V61.6008L12.5016 61.7008L12.7016 62.1008L13.1016 62.2008L13.2016 62.4008L13.4016 62.3008V62.0008L13.5016 61.8008L13.7016 61.5008L14.0016 61.3008V61.1008V61.0008L14.1016 60.8008H14.3016L14.5016 60.9008L14.8016 60.8008L14.9016 60.6008L14.8016 60.3008L14.6016 60.2008V60.0008V59.8008L14.4016 59.6008L14.1016 59.1008L14.0016 59.0008L13.6016 58.8008H13.4016L13.2016 58.6008L13.1016 58.3008L13.0016 58.1008L12.7016 57.9008L12.5016 58.0008L12.4016 57.8008L12.5016 57.6008L12.6016 57.4008L12.7016 56.8008L13.0016 56.7008L13.1016 56.4008H13.2016L13.1016 56.0008V55.8008L12.9016 55.9008L12.6016 55.6008L12.4016 55.3008L12.2016 55.1008L12.0016 55.0008L11.8016 54.8008L11.6016 54.6008L11.5016 54.4008L11.3016 54.2008L11.1016 54.1008L10.9016 54.0008H10.6016L10.3016 53.8008H10.1016H9.90156L9.70156 53.7008L9.40156 53.5008L9.10156 53.3008L8.90156 53.0008L9.00156 52.7008L8.70156 52.3008H8.50156L8.30156 52.2008H8.10156L7.80156 52.4008L7.60156 52.3008L7.20156 52.2008H6.90156H6.70156L6.60156 52.1008L6.80156 51.6008L6.70156 51.3008V51.1008V51.0008L6.80156 50.6008L7.00156 50.2008V50.0008L6.90156 49.8008V49.7008V49.3008L6.50156 49.0008H6.30156L6.10156 48.8008L5.70156 49.0008L5.30156 48.8008L4.70156 48.9008L4.50156 48.8008L4.30156 48.7008L4.10156 48.6008V48.4008L4.00156 48.2008L4.20156 47.8008L4.40156 47.7008L4.50156 47.4008L4.30156 47.0008L4.50156 46.7008L4.30156 46.4008L4.50156 46.2008L4.20156 46.0008L4.30156 45.7008L4.10156 45.6008L4.00156 45.5008L3.80156 45.3008H3.60156L3.40156 45.0008H3.30156L3.10156 45.1008L2.90156 45.0008L2.70156 44.8008H2.50156L2.40156 44.6008V44.4008L2.50156 44.2008L2.80156 43.9008L2.90156 43.7008L3.10156 43.6008L3.20156 43.5008V43.1008L3.40156 42.9008V42.8008L3.60156 42.5008V42.4008L3.70156 42.2008L3.80156 41.9008L3.60156 41.7008L3.30156 41.2008L3.20156 40.9008V40.8008L3.00156 40.3008L3.10156 40.2008L3.40156 40.3008L3.80156 40.2008L3.90156 40.3008H4.10156H4.30156V40.2008L4.70156 40.1008H4.80156L4.90156 39.8008L5.00156 39.7008H5.20156H5.30156V39.6008L5.60156 39.4008L5.70156 39.5008H6.00156V39.4008L6.30156 39.3008L6.50156 39.1008L6.80156 38.8008L6.90156 38.9008L7.10156 38.6008H7.40156L7.60156 38.5008L7.50156 38.2008L7.60156 38.0008L7.80156 37.8008H7.90156L8.10156 37.5008H8.50156L8.70156 37.7008L8.80156 37.8008L8.90156 38.1008L9.20156 37.9008H9.30156L9.60156 38.0008L9.80156 37.8008L10.0016 37.9008H10.1016H10.3016L10.4016 38.0008H10.6016L10.7016 37.9008L10.9016 37.6008V37.3008V37.1008V36.9008L11.0016 36.8008L11.3016 36.7008H11.5016L11.6016 36.6008V36.4008L11.8016 36.1008L12.1016 36.0008L12.4016 36.1008H12.6016H12.8016L13.0016 35.7008L13.1016 35.6008L13.0016 35.4008H12.8016L12.7016 35.1008L12.6016 35.0008V34.8008L12.2016 34.4008H12.1016L12.0016 34.2008L11.6016 34.0008L11.5016 33.7008L11.6016 33.5008L11.8016 33.4008L11.9016 33.2008L12.1016 32.9008L12.2016 32.6008V32.2008L12.4016 32.1008L12.5016 32.0008L12.7016 32.1008L12.8016 32.0008L12.9016 31.9008L13.1016 32.0008L13.5016 32.1008L13.6016 32.0008V32.1008L13.9016 31.9008L14.1016 31.8008L14.3016 31.9008L14.7016 31.7008L14.8016 31.4008L15.0016 31.3008L15.1016 31.5008L15.2016 31.4008L15.4016 31.5008H15.8016L16.0016 31.4008L16.2016 31.2008L16.4016 31.1008L16.5016 30.8008L16.7016 30.6008L16.8016 30.4008H17.2016L17.4016 30.5008L17.5016 30.4008L17.6016 30.1008V29.8008L17.8016 29.6008L18.2016 29.3008L18.5016 29.4008L18.6016 29.0008V28.6008V28.3008L18.4016 28.1008L18.6016 27.6008L18.7016 27.4008L18.6016 27.3008V27.1008L18.4016 27.0008V26.8008L18.5016 26.6008L18.7016 26.3008L18.9016 26.1008L19.0016 25.9008L19.2016 25.8008L19.5016 25.7008L19.4016 25.5008L19.6016 25.4008L19.9016 25.5008L20.6016 25.4008L21.2016 25.5008L21.4016 25.4008L21.7016 25.7008L22.1016 25.9008L22.5016 26.0008L22.7016 25.9008L22.9016 25.8008L23.1016 25.9008H23.3016L23.5016 25.8008V25.5008L23.7016 25.1008L24.0016 24.9008L24.1016 24.8008H24.2016L24.4016 25.1008L24.9016 25.2008H25.3016L25.5016 25.1008L25.8016 25.6008L26.4016 25.7008L27.4016 26.4008H27.6016L27.9016 26.6008L27.8016 26.8008L27.9016 26.9008L28.2016 26.7008L28.6016 26.4008L28.9016 26.2008L29.2016 26.1008L29.1016 25.8008H29.0016L28.9016 25.4008L29.0016 25.1008L28.9016 25.0008L28.7016 24.7008L28.8016 24.4008L29.0016 24.1008L29.2016 23.9008V23.7008L29.4016 23.5008H29.5016L29.7016 23.3008L29.9016 22.9008L30.1016 22.8008H30.4016L30.8016 22.9008L31.0016 23.1008L31.2016 23.0008L31.3016 23.1008L31.6016 23.0008H31.8016L32.0016 23.3008L32.3016 23.4008L32.5016 23.6008V23.1008V22.7008L32.1016 22.0008V21.7008L32.2016 21.3008H32.5016V21.5008L33.3016 21.4008L33.9016 21.0008H34.0016L35.1016 20.3008L35.3016 19.9008L35.4016 19.4008V18.6008L35.5016 17.9008L35.2016 17.2008H35.4016L35.3016 16.9008L35.4016 16.7008V16.3008L35.6016 15.9008V15.6008L35.7016 15.1008V14.8008L35.4016 14.6008L35.2016 14.2008L35.0016 14.0008L34.8016 13.7008V13.5008V13.3008L35.2016 13.4008L35.3016 13.5008L35.4016 13.4008L35.8016 13.5008L35.9016 13.6008L36.1016 13.7008L36.2016 13.6008L36.4016 13.7008H36.5016L36.7016 13.8008L37.0016 14.2008L37.2016 14.1008L37.4016 14.3008V14.5008L37.6016 14.8008L37.7016 15.0008L38.0016 15.2008L38.4016 15.1008L38.8016 15.7008L39.1016 15.6008L39.5016 15.5008L39.8016 15.6008H40.1016L40.4016 15.7008L40.8016 15.4008L41.2016 15.1008L41.1016 14.6008L41.2016 14.2008L41.1016 13.8008L41.2016 13.6008L41.7016 13.5008L41.9016 13.3008L42.1016 12.7008V12.3008V11.9008L42.3016 11.6008L42.6016 11.3008L42.7016 10.9008L43.1016 10.3008L43.3016 10.1008L43.4016 9.80078L43.7016 9.70078L43.9016 9.90078H44.2016L44.3016 9.70078L44.4016 9.50078V9.10078V8.80078H44.6016V8.60078L44.8016 8.40078V8.00078V7.80078L44.9016 7.70078V7.30078L45.1016 7.00078L45.3016 6.70078L45.5016 6.50078L45.9016 6.40078V6.90078L46.1016 7.70078H46.3016L46.6016 9.30078L46.4016 9.40078L46.5016 10.0008L46.7016 10.1008L46.9016 10.9008L47.2016 11.6008L47.9016 12.7008L48.4016 13.2008L49.1016 13.7008L49.4016 14.0008L49.8016 14.3008L50.2016 14.6008L50.8016 14.3008H51.0016L51.1016 14.5008L51.4016 14.6008L51.9016 14.2008H52.1016L52.4016 14.3008H52.6016L52.9016 14.2008L53.2016 14.0008L53.8016 13.5008L54.1016 13.4008L54.3016 13.5008L54.7016 13.6008L55.3016 13.5008H55.6016L56.0016 13.4008L56.2016 12.7008L56.3016 12.5008L56.5016 12.6008V12.7008V13.0008V13.1008H56.9016L57.0016 13.2008L57.1016 13.1008V12.6008L57.2016 12.4008L57.6016 12.3008L58.0016 12.1008H58.2016L58.5016 12.2008L58.6016 12.4008L59.3016 12.5008L60.3016 13.1008L60.4016 13.3008L60.6016 13.9008L61.0016 13.6008V13.4008L61.2016 13.0008V12.6008L61.3016 12.5008L61.5016 12.0008L61.6016 11.8008L62.3016 11.5008L62.8016 12.0008L63.1016 12.2008L63.3016 12.0008L63.4016 11.6008L63.7016 11.2008L63.8016 10.8008L64.0016 10.7008V10.4008V10.0008L64.1016 9.70078L64.3016 9.50078V9.20078L64.2016 9.00078L64.0016 8.70078L63.9016 8.20078L63.8016 7.70078L63.9016 7.30078V7.10078L63.5016 6.10078L63.3016 5.50078L63.0016 5.20078L62.8016 5.10078V4.80078L63.0016 4.50078L63.5016 3.90078L64.0016 3.60078L64.2016 3.20078L64.5016 3.00078H64.7016H64.9016H65.1016L65.4016 2.20078L65.8016 2.10078H66.1016L66.5016 1.80078H66.9016L67.4016 1.30078L67.6016 1.00078H67.9016L68.3016 0.800781L68.6016 1.00078L68.9016 0.900781L69.3016 1.00078L69.4016 1.20078L69.8016 1.40078L70.2016 1.30078L70.4016 1.40078L70.9016 1.60078L71.2016 1.70078L71.3016 1.80078L71.7016 2.10078L71.6016 2.20078L71.8016 2.40078L72.0016 2.30078L72.2016 2.50078L72.1016 2.80078L72.3016 3.00078L72.2016 3.40078L72.3016 4.30078L72.5016 4.60078L73.0016 4.80078L73.2016 5.00078H73.6016L73.7016 5.30078L73.9016 5.40078V5.70078L74.1016 5.90078L74.2016 6.10078L74.1016 6.20078L73.9016 6.40078L73.6016 6.50078V6.80078L73.4016 6.90078V7.40078L73.2016 7.70078L73.3016 7.90078L73.4016 8.00078V8.70078L73.6016 8.80078L73.8016 8.90078L74.0016 9.10078L74.3016 9.20078L74.6016 9.00078L74.9016 9.20078H75.1016L75.3016 9.00078H75.6016L75.7016 8.80078L76.1016 8.70078L76.3016 8.60078L76.5016 8.70078L76.9016 8.60078L77.3016 8.50078L77.5016 8.70078L77.7016 8.50078L78.0016 8.60078L78.1016 8.40078L78.5016 8.20078L78.8016 7.90078H79.2016L80.2016 7.70078L80.6016 7.40078L81.1016 7.00078L81.0016 6.70078L81.3016 6.40078L81.4016 5.90078V5.40078L81.7016 5.20078L82.1016 4.90078L82.3016 4.80078L82.1016 4.50078V4.20078L82.5016 3.70078L82.7016 3.90078L82.9016 3.80078L83.0016 4.10078L83.2016 4.30078H83.3016H83.8016L84.0016 4.50078V4.80078L84.1016 5.20078L84.3016 5.30078L84.5016 5.20078L84.6016 5.40078H84.8016V5.70078L85.2016 6.00078L85.6016 5.90078L85.9016 6.10078L86.0016 6.30078L86.5016 6.00078L86.6016 5.80078L86.9016 5.60078V5.20078V4.90078L87.1016 4.70078L87.2016 4.50078L87.0016 4.20078V4.00078L87.3016 3.80078L87.5016 3.60078L87.9016 3.40078L89.1016 2.30078L89.5016 2.20078V2.10078L89.6016 2.00078H90.0016H90.3016V2.10078L90.5016 2.30078L90.7016 2.40078L91.0016 2.30078L90.9016 2.70078L91.0016 2.90078L91.3016 3.00078L91.5016 3.10078L91.7016 3.70078L91.8016 3.90078H92.0016L92.2016 4.40078L92.3016 4.60078L92.6016 4.70078L92.8016 4.50078L92.9016 4.40078L93.2016 4.30078L93.4016 4.50078L93.6016 4.60078H93.8016L94.1016 4.40078L94.4016 4.30078L94.6016 4.60078L94.7016 4.90078L94.9016 5.10078L95.3016 5.90078L95.5016 6.20078L95.8016 6.40078L95.9016 6.70078L96.1016 6.90078L96.3016 6.80078L96.6016 6.70078H97.0016H97.3016L97.4016 6.60078L97.6016 6.70078L97.7016 6.40078L98.1016 6.10078H98.4016L98.5016 6.00078L98.8016 5.90078H99.2016L99.5016 5.80078H99.8016L100.102 5.50078L100.302 5.30078L100.602 5.10078L100.902 5.00078L101.002 5.20078L101.402 5.50078V5.60078H101.702L101.802 5.80078L102.102 5.90078H102.402L102.302 6.20078L102.102 6.30078L102.002 6.60078V7.00078L101.902 7.50078L101.702 8.00078L101.502 8.10078H101.202L101.102 8.20078L101.202 8.40078L100.802 8.30078H100.402V8.70078L100.502 8.90078V9.10078H100.202V9.40078H99.9016V9.60078L99.7016 9.50078H99.4016L99.1016 9.80078L98.6016 9.90078L98.7016 10.3008L98.9016 10.7008L99.0016 11.2008L99.1016 11.6008H99.0016L98.6016 11.5008L98.3016 11.6008L98.0016 11.3008H97.7016H97.3016V11.2008H97.0016H96.8016V11.4008L96.6016 11.5008L96.5016 11.8008L96.3016 11.9008L96.2016 12.2008L96.3016 12.4008L96.0016 12.5008L95.7016 12.6008L95.8016 12.9008L95.9016 13.2008L96.3016 13.4008L96.4016 13.7008V14.1008L96.5016 14.2008L96.9016 14.4008V14.5008L97.3016 14.7008H97.6016L97.8016 15.0008L98.1016 15.1008L98.4016 15.2008L98.5016 15.4008L98.7016 15.8008H99.0016L99.1016 15.5008L99.5016 15.4008V15.1008L99.8016 14.9008L99.9016 14.7008L100.102 14.5008L100.702 14.1008L100.902 14.2008L101.202 14.1008H101.502L101.702 13.9008L101.602 13.7008L101.802 13.5008L102.102 13.8008L102.302 13.6008L102.502 13.1008L102.802 13.0008H103.002L103.102 13.2008L103.302 13.1008H103.502L103.802 13.0008H104.102L104.302 13.2008L104.602 13.6008V13.8008L104.902 13.9008L105.102 13.5008L105.302 13.1008L105.502 12.9008L105.602 13.1008V13.3008L105.702 13.4008L105.802 13.3008L106.002 13.4008L106.202 13.5008L106.502 13.6008L106.702 13.3008L107.202 13.0008L107.602 13.3008L107.902 13.2008L108.002 13.5008L108.102 13.8008L108.302 13.9008L108.502 14.1008L108.802 14.2008V14.6008L109.002 14.9008V15.1008L108.802 15.2008V15.4008V15.7008L108.702 15.9008L108.502 16.0008V16.1008L108.202 16.4008L108.602 16.5008L109.302 16.7008L109.402 16.8008L109.502 17.1008L109.802 17.3008L110.102 17.4008H110.302L110.502 17.5008L110.602 17.9008V18.1008L110.902 18.4008L110.802 18.6008L110.902 18.8008L110.802 19.1008L110.902 19.5008L111.002 19.6008L111.302 19.5008L111.602 19.4008V19.0008L112.102 18.7008V18.5008L112.402 18.6008L112.702 18.8008L113.002 19.1008L113.102 18.9008L113.302 18.5008L113.502 18.4008L114.102 18.5008L114.202 18.6008H114.402L114.602 18.5008L114.902 18.7008L115.202 18.6008L115.902 18.7008H116.102L116.202 18.5008H116.302L116.402 18.2008L116.602 18.1008L116.702 17.7008H116.902V17.4008L117.202 17.3008L117.302 17.0008L117.502 16.9008L117.802 16.7008L118.102 17.0008L118.402 17.2008L118.602 17.7008L118.702 18.0008L119.202 18.2008L119.502 18.8008L119.602 19.5008L119.402 20.0008L119.102 20.4008L119.402 20.3008L119.602 20.0008L119.802 19.9008L120.002 19.6008H120.202L120.402 19.4008L120.702 19.7008H121.102L121.202 19.9008H121.402L121.502 20.1008L121.602 20.6008L121.702 21.0008L121.902 21.1008L122.502 21.3008L122.902 21.4008L123.102 21.6008L123.402 21.5008L123.802 21.3008L124.002 21.1008L124.202 21.0008L124.502 21.3008H124.802L125.002 21.6008V21.8008L125.302 22.0008L125.502 22.1008H126.002L126.502 22.3008H126.902V22.5008H127.102L127.202 22.4008L127.302 22.2008L127.402 22.0008H127.702L127.902 21.9008V22.2008L128.002 22.4008H128.202L128.402 22.7008H128.502L128.702 22.3008L129.302 22.0008L129.502 21.8008V21.6008L129.902 21.5008L130.002 21.3008L130.202 21.8008L130.502 22.1008V22.2008V22.8008L131.002 23.1008L131.102 23.4008L131.402 23.2008L131.602 23.3008L132.002 23.4008L132.402 23.7008L132.602 24.0008H132.802L132.502 24.2008L132.302 24.4008H132.102L132.002 24.5008L131.802 25.2008L131.602 25.3008L131.402 25.7008L131.102 26.2008L131.002 26.4008V26.7008L130.802 26.8008L130.702 27.0008L130.802 27.3008L130.502 27.0008L130.302 26.6008L130.102 26.5008L130.002 26.4008L129.902 26.1008L129.802 25.9008H129.602L129.102 25.7008H128.802L128.502 25.5008L128.402 25.8008L128.502 26.0008L128.402 26.3008L128.302 26.7008L128.202 26.8008H127.902H127.002L126.902 26.7008H126.402L126.202 26.6008L126.002 27.0008L125.702 27.3008V27.4008V27.6008H125.502H125.302L125.202 27.5008L124.802 27.7008L124.602 28.0008L124.402 28.1008L124.602 28.3008L124.702 28.7008L125.002 28.9008L125.202 29.3008L125.102 29.9008L124.802 30.3008L124.602 30.5008H124.402L124.302 30.6008L124.202 30.9008L123.602 31.1008L123.502 31.4008L123.602 31.6008L123.502 31.8008L123.402 32.0008L123.002 32.3008L122.702 32.5008L122.402 32.7008L122.102 32.8008L121.902 32.9008H121.802L121.602 33.0008H121.402L120.902 32.9008L120.402 33.1008L120.302 33.2008L120.002 33.3008L119.602 33.5008V33.8008L119.402 34.1008L119.502 34.6008L119.202 34.8008L118.902 35.0008L118.802 35.4008L118.402 35.7008H118.202L118.102 35.8008L117.602 36.1008L117.002 36.3008L116.802 36.5008V36.9008L116.502 36.8008L116.002 36.9008L115.602 37.3008L115.202 37.6008L115.102 37.7008L115.002 37.8008L114.702 38.2008V38.4008V38.7008L114.602 38.8008L114.502 39.1008L114.402 39.4008V39.7008H114.002L113.702 40.0008H113.502L113.202 40.2008L113.002 40.3008L112.602 40.5008L112.802 41.1008V41.4008L113.002 41.7008L112.902 42.0008L112.802 42.4008L112.702 42.9008L112.602 43.0008L112.502 43.4008L112.402 43.7008L112.102 44.2008L111.802 44.4008L111.702 44.7008H111.402L111.302 44.9008L111.202 45.1008L111.302 45.5008L111.202 46.0008L111.102 46.1008L111.002 46.4008V46.6008L111.302 46.8008L111.702 46.7008L112.202 47.0008L112.402 47.1008V47.2008L112.702 47.6008H112.802L113.002 47.9008L113.202 48.0008L113.302 48.2008L113.202 48.4008V48.7008L113.102 48.9008L113.202 49.0008L113.102 49.3008V49.5008L113.202 49.6008L113.302 49.9008L113.202 50.1008L113.102 50.2008V50.5008L112.902 50.8008L112.702 50.9008V51.0008L112.502 51.3008L112.202 51.5008L111.902 51.7008L111.802 52.1008V52.3008V52.4008L111.602 53.0008L111.302 53.2008L111.202 53.4008L111.102 53.5008V53.8008L111.002 54.0008L110.702 54.2008L110.602 54.4008L110.102 54.3008L109.902 54.4008H109.702L109.402 54.3008H109.302H109.002H108.902L108.602 54.2008L108.002 53.9008L107.902 54.0008H107.402L107.302 54.1008L107.102 54.0008L106.902 54.1008L106.602 54.4008L106.502 54.5008L106.402 54.6008H106.302L106.002 54.9008V55.1008L105.802 55.3008L105.502 55.7008L105.302 55.6008L105.002 55.7008L104.702 55.5008L104.602 55.3008L104.402 55.2008L104.502 55.1008V55.0008V54.8008L104.402 54.7008L103.802 54.5008L103.602 54.3008L103.202 54.2008L102.902 54.0008H102.702L102.402 53.8008H102.202H102.002H101.702H101.602L101.102 54.0008L100.602 53.8008L100.502 53.4008V53.1008L100.202 52.8008L100.102 52.5008L99.9016 52.3008L99.5016 52.4008L99.4016 52.1008L99.2016 51.9008L99.0016 51.8008L98.7016 51.6008L98.5016 51.4008L98.4016 51.0008L98.2016 50.9008L98.1016 50.7008L97.9016 50.5008L97.7016 50.2008L97.4016 50.0008L97.3016 49.4008L97.4016 49.1008L97.2016 49.0008H96.9016H96.7016L96.6016 48.8008L96.2016 48.6008L96.1016 48.5008L96.0016 48.3008L95.7016 48.1008H95.6016L95.1016 47.9008H94.8016L94.5016 47.7008L94.4016 47.6008L94.1016 47.3008L93.9016 47.2008L93.7016 47.0008H93.6016L93.5016 47.3008L93.4016 47.5008V48.0008L92.9016 48.2008L92.8016 48.4008L92.9016 48.6008V48.9008L92.8016 49.1008L92.9016 49.6008L93.1016 49.8008V50.0008L92.3016 50.1008L92.0016 49.9008L91.8016 50.1008H91.4016L91.2016 49.9008H91.1016L90.9016 49.8008V50.4008L90.7016 50.8008V51.1008L90.8016 51.3008L91.0016 51.6008L90.9016 51.8008L91.0016 52.2008V52.4008L91.1016 52.9008L91.2016 53.2008V53.4008V53.9008L91.1016 54.1008L90.8016 54.2008L90.3016 54.1008L89.9016 53.9008L89.6016 53.8008L89.2016 53.7008H89.1016H88.9016L88.8016 53.6008L88.6016 53.7008L88.1016 53.6008H87.9016L87.7016 53.4008L87.2016 53.2008H87.0016L86.6016 53.1008L86.2016 53.3008H86.1016L85.7016 53.2008L85.6016 53.1008L85.3016 53.0008L85.2016 52.8008L84.7016 52.4008L84.4016 52.3008L84.3016 52.1008L84.2016 51.9008L84.1016 51.8008L83.9016 51.9008L83.7016 51.7008V51.5008H83.3016V51.8008L83.1016 51.9008L83.2016 52.3008L83.0016 52.5008L82.7016 52.7008H82.4016L82.1016 52.9008H81.7016V53.2008L81.2016 53.4008L81.0016 53.6008L80.9016 53.9008L81.0016 54.0008L80.9016 54.2008V54.5008L80.7016 54.6008V54.8008L80.6016 55.0008L80.5016 55.1008L80.2016 55.0008V54.9008L80.0016 55.0008L79.6016 55.2008L79.4016 55.3008L79.3016 55.4008V55.6008L79.4016 55.9008L79.3016 56.1008L78.9016 56.0008L78.8016 55.9008L78.4016 55.8008L78.5016 55.6008V55.4008V55.2008L78.3016 54.9008L77.8016 54.6008L77.7016 54.4008L77.4016 54.1008L77.2016 54.0008H77.0016V53.9008L76.8016 53.7008L76.5016 53.6008L76.4016 53.7008L76.2016 53.6008L76.1016 53.7008L76.0016 53.8008V54.1008L75.9016 54.4008V54.7008V54.9008L75.5016 55.1008V55.2008L75.6016 55.3008L75.7016 55.8008V55.9008V56.1008L75.6016 56.5008L75.4016 56.8008L75.2016 57.2008L75.0016 57.4008L74.9016 57.5008L74.6016 57.6008V57.7008L74.8016 58.1008L74.7016 58.2008V58.5008L74.6016 58.7008V59.2008L74.4016 59.5008H74.3016V59.8008L74.1016 60.0008L73.9016 60.4008L73.5016 60.9008L73.4016 61.2008L73.5016 61.4008V61.8008V61.9008L73.7016 62.2008L73.9016 62.4008L74.6016 63.2008H74.9016L75.3016 63.4008L75.4016 63.8008L75.7016 64.2008L75.9016 64.1008L76.1016 64.2008L76.2016 64.5008L76.5016 64.7008L76.6016 64.8008L77.0016 65.1008L76.9016 65.2008L77.0016 65.4008L77.2016 65.8008L77.3016 65.9008L77.4016 66.2008V66.4008L77.2016 66.8008L76.8016 66.7008L76.7016 66.8008L76.3016 66.7008H76.1016H75.7016L75.4016 66.8008H75.0016L74.6016 66.4008V66.3008L74.1016 65.9008L73.8016 65.8008L73.6016 65.7008L73.4016 65.4008H73.2016H72.9016L72.5016 64.9008L72.4016 64.6008L72.1016 64.4008L71.9016 64.5008L71.4016 64.2008H71.3016L71.1016 64.5008L71.0016 64.9008L70.9016 65.0008V65.3008H70.7016L70.6016 65.6008H70.5016L70.3016 65.5008H70.1016L69.7016 65.6008H69.5016H69.4016H69.0016V65.5008H68.8016L68.5016 65.3008L68.2016 65.0008L68.1016 64.8008H68.0016L67.9016 64.6008L67.7016 64.3008V64.2008L67.5016 64.0008H67.3016L67.1016 63.7008L66.9016 63.6008L66.8016 63.4008L66.7016 63.3008H66.6016L66.5016 63.5008L66.2016 63.7008V63.9008L66.1016 64.0008V64.1008L65.9016 64.3008L66.1016 64.6008L66.0016 64.7008L65.8016 65.1008V65.4008L65.4016 65.6008V65.8008V66.0008L65.5016 66.2008L65.4016 66.5008L65.5016 66.9008V67.0008H65.4016L65.2016 67.2008L64.9016 67.0008L64.6016 66.9008L64.5016 67.0008L64.1016 67.1008V67.0008L63.9016 66.9008L63.8016 67.2008V67.8008L63.9016 68.2008L63.8016 68.5008L63.5016 68.8008L63.4016 68.9008L63.1016 68.7008L62.9016 68.6008H62.5016L62.3016 68.4008L61.8016 68.5008H61.7016L61.5016 68.6008L61.2016 68.5008H60.6016L60.4016 68.4008L60.2016 68.3008L60.3016 68.6008H59.9016L59.6016 68.7008L59.4016 69.1008L59.0016 69.2008V69.7008H58.9016L58.7016 69.8008L58.6016 70.1008L58.8016 70.2008H59.0016V70.1008L59.2016 70.2008L59.4016 70.1008L59.6016 70.2008H59.7016L59.9016 69.8008H60.2016L60.4016 69.9008L60.7016 69.8008L60.9016 69.9008L61.0016 70.0008L61.3016 70.1008H61.5016L61.8016 70.2008L62.1016 70.3008H62.2016L62.1016 70.5008H62.2016L62.3016 70.9008H62.4016L62.6016 71.5008L62.8016 71.4008H62.9016H63.1016H63.3016L63.6016 71.5008V71.6008L63.9016 71.8008L63.8016 72.1008V72.3008V72.4008V72.8008V72.9008V73.2008L64.2016 73.3008L64.5016 73.5008V73.7008V74.1008L64.2016 74.4008L64.1016 74.7008V75.0008V75.2008L64.3016 75.6008L64.1016 75.7008L64.0016 76.3008V76.4008L63.8016 76.6008L64.0016 77.1008V77.3008L63.9016 77.4008L63.6016 77.6008H63.4016L63.2016 77.7008L63.1016 77.9008L63.2016 78.1008L63.1016 78.3008L63.2016 78.5008L63.1016 78.7008V79.1008H62.7016L62.3016 78.9008V78.6008L62.4016 78.0008L62.2016 77.7008L62.0016 77.4008L61.9016 77.2008L61.8016 77.0008L61.7016 76.6008L61.1016 76.3008L60.9016 76.4008L60.5016 76.5008L60.2016 76.2008H59.9016L59.7016 75.9008V75.6008V75.4008L59.8016 75.2008V74.9008V74.8008L59.4016 74.5008L59.1016 74.1008V73.9008L59.0016 73.3008L58.9016 72.7008L58.7016 72.6008L58.5016 72.7008L58.3016 72.9008V73.2008L58.2016 73.7008L58.1016 73.9008L58.0016 74.0008L57.9016 74.5008L57.7016 74.6008L57.6016 74.7008L57.4016 74.9008V75.2008L57.2016 75.5008L56.7016 75.6008L56.6016 75.5008L56.4016 75.6008L56.2016 75.4008V75.5008L56.0016 75.6008L55.8016 75.5008L55.6016 75.7008L55.8016 75.8008V76.2008L55.9016 76.3008L55.8016 76.5008V76.7008L56.0016 77.1008L56.1016 77.3008L56.3016 77.4008L56.6016 77.5008L56.7016 77.7008L56.8016 78.0008L56.5016 78.2008L56.3016 78.1008H56.0016L55.9016 78.2008L55.8016 78.3008H55.6016L55.1016 78.6008L54.9016 78.5008L54.8016 78.4008L54.4016 78.2008L54.3016 78.1008H54.0016V78.2008L53.8016 78.3008L53.4016 78.2008L53.2016 78.0008L53.1016 78.4008L53.0016 78.6008L52.6016 78.7008H52.4016L52.1016 78.9008L51.9016 79.2008L51.4016 79.4008H51.1016L51.0016 79.6008V80.0008L50.9016 80.2008V80.6008L51.1016 80.8008L51.2016 81.0008V81.1008L51.3016 81.4008L51.5016 81.5008L51.6016 81.6008L51.7016 81.8008L52.1016 82.0008H52.4016L52.5016 82.2008L52.8016 82.3008L52.9016 82.6008L53.0016 82.5008L53.1016 82.6008L53.2016 82.8008L53.4016 82.9008L53.6016 83.1008L53.8016 83.0008L53.9016 82.8008L54.1016 82.7008L54.3016 82.8008L54.6016 82.9008L54.7016 83.1008H55.2016L55.3016 83.3008L55.5016 83.2008L55.8016 83.1008V83.0008H56.3016L56.5016 83.3008L56.6016 83.2008L56.8016 83.3008H56.9016L57.2016 83.5008L57.3016 83.7008L57.5016 83.8008L57.7016 84.0008L57.8016 84.2008L58.0016 84.5008H58.1016L58.2016 84.8008L58.3016 85.0008L58.1016 85.6008V85.9008V86.1008L58.0016 86.4008L58.3016 86.6008V86.9008H58.2016L58.4016 87.1008L58.6016 87.3008H59.0016H59.2016V87.4008L59.4016 87.5008L59.7016 87.6008L60.0016 87.9008L60.2016 88.0008L60.4016 87.8008L60.7016 87.9008V88.0008L61.0016 88.2008V88.3008L60.9016 88.6008V88.9008L61.0016 89.1008L60.9016 89.3008L61.1016 89.5008V89.7008L61.0016 90.0008L61.2016 90.3008L61.4016 90.6008V90.8008L61.2016 91.0008L61.0016 91.1008L60.8016 91.3008V91.4008L60.5016 91.7008H60.3016L60.1016 92.0008L59.8016 92.1008L59.7016 92.3008L59.5016 92.4008L58.9016 92.3008V92.5008V92.8008L58.5016 93.0008L58.4016 93.5008L58.7016 93.8008H58.9016L59.1016 94.4008L58.9016 94.6008L59.0016 94.9008V95.0008V95.3008L58.7016 95.4008L58.9016 95.7008L59.1016 96.1008L59.0016 96.3008V96.5008L58.8016 96.7008L58.9016 96.9008L58.8016 97.2008L58.7016 97.3008L58.6016 97.6008H58.4016L58.3016 97.9008L58.2016 98.4008L58.3016 98.7008V99.0008V99.1008L58.4016 99.6008V99.9008H58.6016H58.7016L58.9016 100.101L59.1016 100.501V100.901L59.0016 101.001L58.8016 101.301V101.501H58.7016L58.5016 101.701V102.001L58.4016 102.101L58.3016 102.401L58.2016 102.601V102.801L57.9016 103.001L57.6016 103.101L57.4016 103.001L57.3016 103.501L57.4016 103.601V103.901L57.6016 104.201V104.301L57.7016 104.501L57.9016 104.401L58.1016 104.501H58.5016L58.6016 104.601L58.8016 105.001V105.201V105.401L59.0016 105.601H59.1016L59.3016 105.801L59.2016 106.001V106.301V106.501L59.0016 106.701L58.9016 106.801L59.4016 107.001V107.401L59.5016 107.801L59.8016 108.001L59.9016 108.201V108.601L59.7016 108.701L59.4016 108.801V109.201V109.401V109.501H59.2016L59.1016 109.801L59.0016 109.901L58.8016 110.001L58.6016 109.901L57.9016 110.101L58.0016 110.301L57.9016 110.701H57.8016L57.7016 110.901L57.6016 111.001L57.4016 111.101L57.2016 111.001L57.1016 111.201H57.0016L56.8016 111.401L56.7016 111.501L56.6016 111.601L56.4016 111.701L56.3016 111.501L56.2016 111.701V112.001L56.1016 112.201L56.2016 112.401L56.1016 112.901L55.8016 113.101L55.6016 113.201V113.301V113.501L55.5016 113.701L55.3016 113.801L55.2016 114.201L55.3016 114.501L55.6016 114.801V114.901L55.8016 115.301L55.7016 115.501L55.6016 115.701V116.101L55.7016 116.301L56.0016 116.601V116.901V117.001V117.201V117.401V117.701L56.1016 117.801V118.101L56.2016 118.201L56.1016 118.301L56.2016 118.401L56.3016 118.301L56.5016 118.101L56.6016 118.001H57.2016L57.4016 118.201L57.9016 118.001H58.0016L58.3016 118.101L58.8016 118.201L59.3016 118.401L59.4016 118.101L59.5016 117.901H59.6016L59.7016 117.601V117.301L59.8016 117.001V116.801L60.0016 116.201L60.2016 116.101L60.4016 115.901L60.6016 115.701L60.7016 115.401L60.9016 115.301L61.1016 115.101L61.3016 115.001V115.601H61.4016V116.201V116.501L61.5016 116.601L61.4016 116.701L61.5016 117.001L61.8016 117.301L62.1016 117.501L62.4016 117.601L62.9016 117.801H63.1016L63.2016 117.701L63.3016 117.801L63.7016 117.901L64.0016 118.201L64.1016 118.601L64.3016 118.701L64.4016 119.001L64.9016 119.201H65.3016L65.4016 119.701V119.801V119.901V120.301L65.5016 120.401H66.0016L66.3016 120.701L66.6016 121.001H66.8016L67.0016 120.801L67.1016 121.001L67.3016 121.201H67.5016L67.7016 120.901L68.1016 120.801L68.3016 120.701L68.4016 120.601L68.3016 120.501L68.1016 120.201L68.2016 120.001L68.4016 119.901L68.5016 119.701L68.6016 119.601L68.8016 119.701H69.0016L69.2016 119.601L69.3016 119.701L69.5016 119.601L69.6016 119.501V119.401L69.7016 119.201L70.0016 119.101H70.2016L70.4016 119.301L70.8016 118.901L71.2016 118.601H71.4016L71.8016 118.901V119.101H72.1016L72.3016 119.201L72.5016 119.101H72.9016V119.401L73.1016 119.501L73.3016 119.601L73.4016 119.801L73.6016 119.901L73.9016 120.101H74.5016L74.9016 120.401H74.8016V120.601L74.5016 121.001H74.2016L74.1016 121.101L73.9016 121.601L73.7016 121.701V122.001L73.5016 122.201L73.2016 122.401L73.4016 122.901L73.5016 123.001V123.201L73.7016 123.301L73.9016 123.401V123.601L74.1016 123.701L74.2016 123.801L74.1016 124.001L74.2016 124.201L74.1016 124.501L74.4016 125.001V125.101L74.9016 125.301L75.1016 125.201L75.2016 125.301L75.1016 125.901L75.2016 126.201V126.401L75.5016 126.801L75.7016 127.001H75.9016L76.2016 127.301L75.8016 127.201L75.3016 127.101L75.1016 127.201L74.9016 127.301L74.8016 127.501L74.6016 127.601H74.4016L74.2016 127.801H74.0016L73.8016 127.501V127.401L73.5016 127.101H73.4016L73.3016 126.901H73.1016L73.0016 126.601L72.8016 126.501L72.6016 126.401L72.2016 126.201L71.9016 126.101L71.8016 126.201L71.6016 126.101H71.3016L70.9016 126.301L70.6016 126.201V126.301H70.2016L70.1016 126.501L69.9016 126.701L69.8016 126.801L69.7016 127.001V127.101L69.4016 127.201L69.0016 127.101L68.8016 127.301H68.5016V127.401L68.6016 127.601L68.2016 128.001L68.1016 128.101L68.0016 128.601L68.2016 128.901L68.4016 129.201H68.5016V129.401L68.6016 129.701L68.8016 129.801L68.9016 129.901L68.8016 130.101L68.7016 130.401L68.8016 130.701L69.1016 130.901V131.101L69.4016 131.201V131.401V131.601V132.001L69.7016 132.201H69.9016L70.1016 132.501L69.9016 132.701L69.8016 132.801L69.5016 133.001L69.4016 133.201L69.2016 133.401V133.701L69.3016 133.801L69.1016 134.201L69.2016 134.401L69.1016 134.601L69.3016 135.001V135.201L69.2016 135.301V135.501L69.0016 135.801H68.8016L68.6016 136.101H68.4016L68.3016 136.201L68.2016 136.401L67.9016 136.601H67.5016L67.2016 136.801V137.301V137.501V137.801L67.3016 138.101L67.2016 138.301L67.1016 138.701L66.8016 139.101V139.401L66.6016 139.501L66.3016 139.601L66.4016 139.801L66.3016 140.101L66.4016 140.401L66.6016 140.701V141.001L66.7016 141.101L66.6016 141.401L66.7016 141.701V142.001V142.301L66.6016 142.701L66.3016 142.801L66.0016 142.901L65.8016 143.101L65.7016 143.301L65.6016 143.501L65.5016 143.801L65.3016 144.001V144.101L64.9016 144.201L64.8016 144.401L64.5016 144.501V144.601L64.2016 144.801H64.1016L63.8016 144.901L63.6016 144.801V144.701L63.3016 144.501H63.1016L62.8016 144.401H62.7016L62.4016 144.301L62.1016 144.701L61.9016 144.801H61.8016L61.7016 145.001L61.5016 145.301L61.3016 145.401L61.2016 145.701V146.101L61.1016 146.201L61.0016 146.301H60.7016L60.6016 146.501L60.2016 146.401L60.1016 146.501L59.8016 146.601L59.7016 146.701H59.5016V146.601H59.4016L59.3016 146.901V147.001V147.501L58.9016 148.001L58.7016 148.101L58.6016 148.201L58.5016 148.101H58.1016L58.0016 147.901H57.5016L57.4016 147.801L57.3016 147.501L57.1016 147.301V147.201L56.7016 146.901H56.6016L56.4016 146.401L56.3016 146.201L56.1016 146.101L55.7016 146.201L55.5016 146.301L55.3016 146.501L55.0016 146.601H54.7016L54.2016 146.701L54.0016 146.901H53.8016L53.6016 147.101H53.5016L53.3016 147.301H53.1016L53.0016 147.501H52.7016L52.2016 147.701H52.0016L51.8016 147.801L51.5016 147.701L51.2016 147.801L51.0016 148.001V148.101L50.8016 148.201L50.7016 148.301L50.6016 148.501L50.4016 148.601L50.2016 148.901L50.0016 149.101L49.6016 148.901H49.3016L48.8016 149.101L48.6016 149.201L48.3016 149.401H48.0016H47.7016L47.4016 149.201V149.001L47.5016 148.701L47.7016 148.401V148.201L47.6016 147.801H47.3016H47.2016L46.9016 148.001L46.6016 147.801L46.3016 147.401H46.0016L45.9016 147.501L45.7016 147.801L45.6016 147.901L45.5016 147.801L45.3016 147.401L45.1016 147.101L45.0016 147.001H44.7016H44.6016L44.3016 147.201L44.0016 147.001V147.201L43.5016 146.801L43.3016 146.701L42.8016 146.601L42.4016 146.701L42.1016 146.801L41.8016 146.601V146.501L41.7016 146.401L41.6016 146.301L41.4016 146.101V145.901L41.2016 145.601V145.201V145.101L41.3016 144.801L41.2016 144.601L41.3016 144.501L41.2016 144.001L40.9016 144.101L40.8016 143.901L40.6016 143.401L40.5016 143.501L40.3016 143.601L40.0016 143.801L39.9016 144.001L39.7016 144.201L39.2016 144.401L39.1016 144.601L38.8016 144.801L38.7016 144.901L39.0016 145.201L38.9016 145.601L39.1016 146.001L38.8016 146.201L38.6016 146.301L38.5016 146.201L38.3016 146.401L38.0016 146.201L37.9016 146.301V146.101L37.8016 145.901L37.9016 145.801L37.7016 145.501L37.6016 145.101L37.4016 144.601V144.501L37.3016 144.201L37.1016 144.101L36.8016 144.001V143.701L36.7016 143.501L36.3016 143.101L36.1016 143.001L35.8016 142.801H35.7016V142.601L35.5016 142.401L35.4016 142.201V141.701L35.2016 141.401V141.301V141.101L34.9016 140.901L34.7016 140.501L34.5016 140.401L34.4016 140.101H34.0016L33.8016 139.701V139.501V139.401L33.7016 138.601L33.8016 138.301L34.0016 138.101V138.001L33.8016 137.801L33.7016 137.701L33.4016 137.601L33.3016 137.301L33.2016 137.101L33.1016 136.901V136.801H32.9016L32.7016 137.001L32.6016 136.701L32.1016 136.301L32.0016 136.001H31.9016H31.7016V135.701L31.5016 135.601V135.501L31.3016 135.301V135.201L31.2016 135.101L31.1016 135.001L31.2016 134.801V134.701V134.501V134.201V133.901L31.3016 133.501L31.4016 133.401V133.301L31.5016 133.001L31.7016 132.701L31.9016 132.601L32.1016 132.101L32.3016 131.801L32.2016 131.501L32.3016 131.101L32.2016 130.901V130.801L32.0016 130.201H31.7016L31.5016 129.801L31.7016 129.501L31.6016 129.301L31.9016 129.001L31.8016 128.701L31.6016 128.201L31.4016 128.101L31.5016 127.801L31.4016 127.701L31.5016 127.601L31.7016 127.301L31.9016 127.201V126.801L32.1016 126.601V126.401L31.9016 126.201L32.0016 126.001L31.8016 125.901V125.701V125.601L32.0016 125.201L31.7016 124.901L31.4016 124.801V124.601L31.3016 124.501L31.2016 124.401V124.201H30.9016L30.8016 123.801L30.7016 123.601L30.5016 123.401H30.2016L30.1016 123.201L29.7016 123.401L29.3016 123.201L29.1016 123.301L28.7016 123.801L28.6016 123.901L28.4016 123.801H28.3016L28.1016 123.901H27.9016L27.8016 124.001H27.5016L27.4016 124.101L26.9016 124.201L26.8016 124.101V123.901L27.1016 123.301L27.2016 122.801V122.701L27.3016 122.601L27.1016 122.401H27.0016L26.7016 122.201H26.4016L26.2016 122.101L26.0016 121.801L25.9016 121.601L26.0016 121.201V121.101H25.7016L25.6016 121.301L25.4016 121.401H25.2016L25.1016 121.601H24.8016V121.801L24.2016 122.301L24.1016 122.401L23.9016 122.301H23.7016L23.5016 122.501L23.1016 122.601H22.8016V122.701L22.4016 122.601L21.8016 122.701L21.9016 122.301L21.8016 122.201V121.901V121.801H21.5016L21.4016 121.501L21.5016 121.401L21.4016 121.201V121.001L21.6016 120.801L21.5016 120.501L21.6016 120.301L21.4016 120.201L21.2016 120.101V119.901L21.4016 119.501V119.201L21.6016 119.001L21.4016 118.501L21.8016 118.201V118.101L22.0016 117.901L22.2016 117.801L22.3016 117.601L22.4016 117.401L22.3016 117.101V116.901L22.1016 116.701V116.501L21.7016 115.701V115.401L22.0016 115.201L22.1016 115.301V115.401L22.2016 115.301L22.3016 115.101L22.4016 114.901L22.5016 114.601L22.2016 114.201L22.1016 114.001L22.0016 113.901L22.1016 113.801L22.2016 113.701L22.4016 113.601L22.5016 113.501L22.4016 113.101L22.3016 113.001L22.5016 112.901L22.7016 112.501L22.9016 112.201L22.7016 111.901V111.501V111.301V111.001L22.6016 110.801V110.601L22.9016 110.401L23.0016 110.301L23.3016 110.201V110.001V109.801L23.4016 109.701L23.6016 109.801H23.8016L23.7016 109.701H23.9016L24.0016 109.501H24.2016L24.5016 109.201V109.001L24.7016 108.601L24.6016 108.401L24.7016 108.301L24.8016 108.101L24.9016 108.001V107.701L24.8016 107.401H25.0016L25.1016 107.201L25.2016 107.001L25.1016 106.701V106.501L24.9016 106.401L25.0016 106.001V105.801V105.401V105.101L24.9016 105.001L25.2016 104.701H25.3016L25.4016 104.501H25.6016L25.8016 104.301L25.7016 104.201L25.9016 104.101L26.2016 104.001L26.3016 103.901H26.7016V104.001L27.3016 103.901L27.5016 104.001H27.8016L28.0016 103.801L27.8016 103.501L27.6016 103.101L27.5016 102.801L27.3016 102.601L26.8016 102.401L26.6016 101.801L26.5016 101.501L26.6016 101.201L26.3016 101.001H26.1016L25.9016 101.201L25.5016 101.101H25.3016L25.2016 100.901H25.1016L24.9016 100.701V100.601L24.7016 100.801L24.5016 100.901L24.4016 101.001L24.2016 100.801H23.9016L23.7016 101.601L23.5016 102.401L23.4016 102.601L22.9016 102.501L22.7016 102.401L22.6016 102.001L22.1016 100.901L22.0016 100.501L21.6016 99.7008L21.5016 99.3008L21.7016 99.0008L22.0016 98.5008L22.3016 98.1008L22.6016 97.8008L22.9016 97.6008V97.3008V96.9008L22.6016 96.8008L22.3016 96.9008L21.4016 97.1008H21.2016L20.7016 96.9008L20.4016 96.4008V96.2008L20.7016 95.8008L20.8016 95.3008L21.0016 94.9008L21.1016 94.4008L21.0016 94.2008L20.7016 94.1008V94.2008L20.1016 94.4008L19.8016 94.6008L19.5016 94.9008L19.3016 95.2008L19.2016 95.7008L19.0016 96.6008L18.8016 97.0008L18.5016 97.3008L18.2016 97.5008H17.5016H17.2016L17.0016 97.3008L16.8016 97.1008L16.6016 96.8008L16.4016 96.6008H16.2016H15.9016H15.4016L14.7016 96.8008L13.9016 97.0008L13.3016 96.9008L13.1016 96.6008L13.0016 96.3008V95.9008V95.6008L13.1016 95.2008V94.8008L13.3016 94.5008L13.4016 94.1008V93.7008L13.3016 93.3008L13.1016 93.0008L12.7016 92.7008L12.6016 92.4008L13.0016 92.3008H13.2016L13.5016 92.2008H13.7016L14.0016 92.0008V91.8008L13.9016 91.6008V91.4008V91.3008L13.8016 91.0008L13.9016 90.5008L14.0016 90.4008L13.7016 90.1008L13.6016 89.8008V89.6008L13.3016 89.4008L13.1016 89.2008L13.5016 88.9008H13.9016L14.0016 88.8008L13.9016 88.3008V88.2008L13.8016 88.1008L13.6016 88.0008L13.5016 87.8008L13.6016 87.6008L13.5016 87.1008L13.3016 87.0008L13.1016 86.6008H13.0016L12.8016 86.7008H12.3016H12.0016L11.8016 86.6008H11.5016L11.4016 86.4008V85.9008L11.3016 85.8008H11.2016L11.1016 85.6008V85.4008L11.2016 85.2008L11.1016 85.0008L10.9016 84.7008L10.8016 84.6008H10.6016L10.5016 84.4008L10.8016 84.2008L10.9016 84.1008V83.9008L10.8016 83.8008H10.4016L10.8016 83.6008V83.5008V83.4008L10.6016 83.5008L9.90156 83.7008L9.80156 84.0008L9.70156 84.1008H9.60156L9.30156 84.2008V83.9008L9.20156 84.1008L8.80156 84.2008L8.60156 84.0008L8.40156 84.1008H8.30156L8.10156 83.9008H8.00156L7.80156 83.8008L7.70156 83.9008H7.50156L7.00156 84.1008H6.90156V83.8008L6.70156 83.5008L6.90156 83.2008L6.80156 83.1008L6.50156 82.9008V82.7008L6.40156 82.6008H6.30156L6.00156 82.5008L5.80156 82.3008V82.0008L5.40156 81.9008V81.7008H5.00156H4.10156H3.90156L3.70156 81.6008L3.60156 81.4008L3.40156 81.3008V81.2008L3.60156 81.0008L3.80156 80.6008V80.2008L4.00156 79.6008V79.5008L3.90156 79.2008L3.60156 78.9008L3.50156 78.6008L3.60156 78.2008L3.50156 78.0008L3.40156 77.9008V77.5008L3.30156 77.4008H3.10156L2.90156 77.2008L2.80156 76.9008L2.60156 76.6008V76.1008V76.0008V75.6008L2.70156 75.4008L2.60156 75.3008H2.40156H2.20156L2.10156 75.6008L1.50156 75.5008L1.40156 75.6008V75.4008L1.20156 75.2008L1.10156 74.8008L1.20156 74.6008L1.40156 74.8008L1.70156 74.6008V74.4008L1.90156 73.7008L2.10156 73.6008V73.5008V73.2008L2.40156 72.8008L2.30156 72.5008H2.50156H2.70156H2.80156H3.00156L3.10156 72.3008L3.30156 72.2008H3.50156V72.0008L3.70156 71.7008L3.80156 71.6008L4.00156 71.5008V71.2008V71.0008L3.90156 70.8008L4.00156 70.6008L4.20156 70.3008L4.10156 69.9008L4.00156 69.8008L3.90156 69.6008H3.70156L3.60156 69.4008L3.40156 69.5008V69.4008H3.00156L2.70156 69.2008L2.40156 69.1008L2.30156 69.0008L2.20156 68.9008L2.00156 68.8008Z" fill="white"/>
<path d="M11.6016 34.0008L12.0016 34.2008L12.1016 34.4008H12.2016L12.6016 34.8008V35.0008L12.7016 35.1008L12.8016 35.4008H13.0016L13.1016 35.6008L13.0016 35.7008L12.8016 36.1008H12.6016H12.4016L12.1016 36.0008L11.8016 36.1008L11.6016 36.4008V36.6008L11.5016 36.7008H11.3016L11.0016 36.8008L10.9016 36.9008V37.1008V37.3008V37.6008L10.7016 37.9008L10.6016 38.0008H10.4016L10.3016 37.9008H10.1016H10.0016L9.80156 37.8008L9.60156 38.0008L9.30156 37.9008H9.20156L8.90156 38.1008L8.80156 37.8008L8.70156 37.7008L8.50156 37.5008H8.10156L7.90156 37.8008H7.80156L7.60156 38.0008L7.50156 38.2008L7.60156 38.5008L7.40156 38.6008H7.10156L6.90156 38.9008L6.80156 38.8008L6.50156 39.1008L6.30156 39.3008L6.00156 39.4008V39.5008H5.70156L5.60156 39.4008L5.30156 39.6008V39.7008H5.20156H5.00156L4.90156 39.8008L4.80156 40.1008H4.70156L4.30156 40.2008V40.3008H4.10156H3.90156L3.80156 40.2008L3.40156 40.3008L3.10156 40.2008L3.00156 40.3008L3.20156 40.8008V40.9008L3.30156 41.2008L3.60156 41.7008L3.80156 41.9008L3.70156 42.2008L3.60156 42.4008V42.5008L3.40156 42.8008V42.9008L3.20156 43.1008V43.5008L3.10156 43.6008L2.90156 43.7008L2.80156 43.9008L2.50156 44.2008L2.40156 44.4008V44.6008L2.50156 44.8008H2.70156L2.90156 45.0008L3.10156 45.1008L3.30156 45.0008H3.40156L3.60156 45.3008H3.80156L4.00156 45.5008L4.10156 45.6008L4.30156 45.7008L4.20156 46.0008L4.50156 46.2008L4.30156 46.4008L4.50156 46.7008L4.30156 47.0008L4.50156 47.4008L4.40156 47.7008L4.20156 47.8008L4.00156 48.2008L4.10156 48.4008V48.6008L4.30156 48.7008L4.50156 48.8008L4.70156 48.9008L5.30156 48.8008L5.70156 49.0008L6.10156 48.8008L6.30156 49.0008H6.50156L6.90156 49.3008V49.7008V49.8008L7.00156 50.0008V50.2008L6.80156 50.6008L6.70156 51.0008V51.1008V51.3008L6.80156 51.6008L6.60156 52.1008L6.70156 52.2008H6.90156H7.20156L7.60156 52.3008L7.80156 52.4008L8.10156 52.2008H8.30156L8.50156 52.3008H8.70156L9.00156 52.7008L8.90156 53.0008L9.10156 53.3008L9.40156 53.5008L9.70156 53.7008L9.90156 53.8008H10.1016H10.3016L10.6016 54.0008H10.9016L11.1016 54.1008L11.3016 54.2008L11.5016 54.4008L11.6016 54.6008L11.8016 54.8008L12.0016 55.0008L12.2016 55.1008L12.4016 55.3008L12.6016 55.6008L12.9016 55.9008L13.1016 55.8008V56.0008L13.2016 56.4008H13.1016L13.0016 56.7008L12.7016 56.8008L12.6016 57.4008L12.5016 57.6008L12.4016 57.8008L12.5016 58.0008L12.7016 57.9008L13.0016 58.1008L13.1016 58.3008L13.2016 58.6008L13.4016 58.8008H13.6016L14.0016 59.0008L14.1016 59.1008L14.4016 59.6008L14.6016 59.8008V60.0008V60.2008L14.8016 60.3008L14.9016 60.6008L14.8016 60.8008L14.5016 60.9008L14.3016 60.8008H14.1016L14.0016 61.0008V61.1008V61.3008L13.7016 61.5008L13.5016 61.8008L13.4016 62.0008V62.3008L13.2016 62.4008L13.1016 62.2008L12.7016 62.1008L12.5016 61.7008L12.3016 61.6008V61.5008L12.0016 61.4008L11.9016 61.3008L11.7016 60.7008L11.5016 60.6008L11.2016 60.8008H11.0016L10.9016 60.6008L10.4016 60.8008L10.2016 60.7008L10.0016 60.3008L9.90156 60.5008H9.50156H9.20156L9.00156 60.7008L8.90156 60.6008L8.70156 61.0008L8.60156 61.1008L8.50156 61.2008L8.00156 61.4008L7.80156 61.3008L7.60156 61.4008L7.50156 61.3008L7.20156 61.4008H6.80156V61.7008L6.70156 61.9008L6.50156 62.0008L6.60156 62.2008L6.70156 62.1008L6.80156 62.2008L7.00156 62.4008V62.9008L7.50156 63.2008L7.60156 63.5008L7.50156 63.8008L7.20156 64.0008L7.00156 64.1008H6.70156L6.50156 64.0008L6.40156 63.8008L6.20156 63.6008H6.10156L5.90156 63.7008L5.70156 64.1008L5.40156 64.2008L5.20156 64.6008L5.00156 64.8008L4.50156 64.9008L4.20156 65.5008V65.7008L4.10156 65.8008L4.20156 66.1008L4.10156 66.3008V66.4008V66.5008L4.20156 66.6008L4.30156 66.7008L4.40156 66.9008L4.10156 67.2008L3.70156 67.5008L3.60156 67.7008L3.30156 67.8008H3.20156L2.90156 68.1008L2.70156 68.2008H2.50156L2.00156 68.7008V68.8008L2.20156 68.9008L2.30156 69.0008L2.40156 69.1008L2.70156 69.2008L3.00156 69.4008H3.40156V69.5008L3.60156 69.4008L3.70156 69.6008H3.90156L4.00156 69.8008L4.10156 69.9008L4.20156 70.3008L4.00156 70.6008L3.90156 70.8008L4.00156 71.0008V71.2008V71.5008L3.80156 71.6008L3.70156 71.7008L3.50156 72.0008V72.2008H3.30156L3.10156 72.3008L3.00156 72.5008H2.80156H2.70156H2.50156H2.30156L2.40156 72.8008L2.10156 73.2008V73.5008V73.6008L1.90156 73.7008L1.70156 74.4008V74.6008L1.40156 74.8008L1.20156 74.6008L1.10156 74.8008L1.20156 75.2008L1.40156 75.4008V75.6008L1.50156 75.5008L2.10156 75.6008L2.20156 75.3008H2.40156H2.60156L2.70156 75.4008L2.60156 75.6008V76.0008V76.1008V76.6008L2.80156 76.9008L2.90156 77.2008L3.10156 77.4008H3.30156L3.40156 77.5008V77.9008L3.50156 78.0008L3.60156 78.2008L3.50156 78.6008L3.60156 78.9008L3.90156 79.2008L4.00156 79.5008V79.6008L3.80156 80.2008V80.6008L3.60156 81.0008L3.40156 81.2008V81.3008L3.60156 81.4008L3.70156 81.6008L3.90156 81.7008H4.10156H5.00156H5.40156V81.9008L5.80156 82.0008V82.3008L6.00156 82.5008L6.30156 82.6008H6.40156L6.50156 82.7008V82.9008L6.80156 83.1008L6.90156 83.2008L6.70156 83.5008L6.90156 83.8008V84.1008H7.00156L7.50156 83.9008H7.70156L7.80156 83.8008L8.00156 83.9008H8.10156L8.30156 84.1008H8.40156L8.60156 84.0008L8.80156 84.2008L9.20156 84.1008L9.30156 83.9008V84.2008L9.60156 84.1008H9.70156L9.80156 84.0008L9.90156 83.7008L10.6016 83.5008L10.8016 83.4008V83.5008V83.6008L10.4016 83.8008H10.8016L10.9016 83.9008V84.1008L10.8016 84.2008L10.5016 84.4008L10.6016 84.6008H10.8016L10.9016 84.7008L11.1016 85.0008L11.2016 85.2008L11.1016 85.4008V85.6008L11.2016 85.8008H11.3016L11.4016 85.9008V86.4008L11.5016 86.6008H11.8016L12.0016 86.7008H12.3016H12.8016L13.0016 86.6008H13.1016L13.3016 87.0008L13.5016 87.1008L13.6016 87.6008L13.5016 87.8008L13.6016 88.0008L13.8016 88.1008L13.9016 88.2008V88.3008L14.0016 88.8008L13.9016 88.9008H13.5016L13.1016 89.2008L13.3016 89.4008L13.6016 89.6008V89.8008L13.7016 90.1008L14.0016 90.4008L13.9016 90.5008L13.8016 91.0008L13.9016 91.3008V91.4008V91.6008L14.0016 91.8008V92.0008L13.7016 92.2008H13.5016L13.2016 92.3008H13.0016L12.6016 92.4008L12.7016 92.7008L13.1016 93.0008L13.3016 93.3008L13.4016 93.7008V94.1008L13.3016 94.5008L13.1016 94.8008V95.2008L13.0016 95.6008V95.9008V96.3008L13.1016 96.6008L13.3016 96.9008L13.9016 97.0008L14.7016 96.8008L15.4016 96.6008H15.9016H16.2016H16.4016L16.6016 96.8008L16.8016 97.1008L17.0016 97.3008L17.2016 97.5008H17.5016H18.2016L18.5016 97.3008L18.8016 97.0008L19.0016 96.6008L19.2016 95.7008L19.3016 95.2008L19.5016 94.9008L19.8016 94.6008L20.1016 94.4008L20.7016 94.2008V94.1008L21.0016 94.2008L21.1016 94.4008L21.0016 94.9008L20.8016 95.3008L20.7016 95.8008L20.4016 96.2008V96.4008L20.7016 96.9008L21.2016 97.1008H21.4016L22.3016 96.9008L22.6016 96.8008L22.9016 96.9008V97.3008V97.6008L22.6016 97.8008L22.3016 98.1008L22.0016 98.5008L21.7016 99.0008L21.5016 99.3008L21.6016 99.7008L22.0016 100.501L22.1016 100.901L22.6016 102.001L22.7016 102.401L22.9016 102.501L23.4016 102.601L23.5016 102.401L23.7016 101.601L23.9016 100.801H24.2016L24.4016 101.001L24.5016 100.901L24.7016 100.801L24.9016 100.601V100.701L25.1016 100.901H25.2016L25.3016 101.101H25.5016L25.9016 101.201L26.1016 101.001H26.3016L26.6016 101.201L26.5016 101.501L26.6016 101.801L26.8016 102.401L27.3016 102.601L27.5016 102.801L27.6016 103.101L27.8016 103.501L28.0016 103.801L27.8016 104.001H27.5016L27.3016 103.901L26.7016 104.001V103.901H26.3016L26.2016 104.001L25.9016 104.101L25.7016 104.201L25.8016 104.301L25.6016 104.501H25.4016L25.3016 104.701H25.2016L24.9016 105.001L25.0016 105.101V105.401V105.801V106.001L24.9016 106.401L25.1016 106.501V106.701L25.2016 107.001L25.1016 107.201L25.0016 107.401H24.8016L24.9016 107.701V108.001L24.8016 108.101L24.7016 108.301L24.6016 108.401L24.7016 108.601L24.5016 109.001V109.201L24.2016 109.501H24.0016L23.9016 109.701H23.7016L23.8016 109.801H23.6016L23.4016 109.701L23.3016 109.801V110.001V110.201L23.0016 110.301L22.9016 110.401L22.6016 110.601V110.801L22.7016 111.001V111.301V111.501V111.901L22.9016 112.201L22.7016 112.501L22.5016 112.901L22.3016 113.001L22.4016 113.101L22.5016 113.501L22.4016 113.601L22.2016 113.701L22.1016 113.801L22.0016 113.901L22.1016 114.001L22.2016 114.201L22.5016 114.601L22.4016 114.901L22.3016 115.101L22.2016 115.301L22.1016 115.401V115.301L22.0016 115.201L21.7016 115.401V115.701L22.1016 116.501V116.701L22.3016 116.901V117.101L22.4016 117.401L22.3016 117.601L22.2016 117.801L22.0016 117.901L21.8016 118.101V118.201L21.4016 118.501L21.6016 119.001L21.4016 119.201V119.501L21.2016 119.901V120.101L21.4016 120.201L21.6016 120.301L21.5016 120.501L21.6016 120.801L21.4016 121.001V121.201L21.5016 121.401L21.4016 121.501L21.5016 121.801H21.8016V121.901V122.201L21.9016 122.301L21.8016 122.701L22.4016 122.601L22.8016 122.701V122.601H23.1016L23.5016 122.501L23.7016 122.301H23.9016L24.1016 122.401L24.2016 122.301L24.8016 121.801V121.601H25.1016L25.2016 121.401H25.4016L25.6016 121.301L25.7016 121.101H26.0016V121.201L25.9016 121.601L26.0016 121.801L26.2016 122.101L26.4016 122.201H26.7016L27.0016 122.401H27.1016L27.3016 122.601L27.2016 122.701V122.801L27.1016 123.301L26.8016 123.901V124.101L26.9016 124.201L27.4016 124.101L27.5016 124.001H27.8016L27.9016 123.901H28.1016L28.3016 123.801H28.4016L28.6016 123.901L28.7016 123.801L29.1016 123.301L29.3016 123.201L29.7016 123.401L30.1016 123.201L30.2016 123.401H30.5016L30.7016 123.601L30.8016 123.801L30.9016 124.201M11.6016 34.0008V34.0008ZM11.6016 34.0008L11.5016 33.7008L11.6016 33.5008L11.8016 33.4008L11.9016 33.2008L12.1016 32.9008L12.2016 32.6008M12.2016 32.6008V32.6008ZM12.2016 32.6008V32.2008L12.4016 32.1008L12.5016 32.0008L12.7016 32.1008L12.8016 32.0008L12.9016 31.9008L13.1016 32.0008L13.5016 32.1008L13.6016 32.0008V32.1008L13.9016 31.9008L14.1016 31.8008L14.3016 31.9008L14.7016 31.7008L14.8016 31.4008L15.0016 31.3008L15.1016 31.5008L15.2016 31.4008L15.4016 31.5008H15.8016L16.0016 31.4008L16.2016 31.2008L16.4016 31.1008L16.5016 30.8008L16.7016 30.6008L16.8016 30.4008H17.2016L17.4016 30.5008L17.5016 30.4008L17.6016 30.1008V29.8008L17.8016 29.6008L18.2016 29.3008L18.5016 29.4008L18.6016 29.0008V28.6008V28.3008L18.4016 28.1008L18.6016 27.6008L18.7016 27.4008L18.6016 27.3008V27.1008L18.4016 27.0008V26.8008L18.5016 26.6008L18.7016 26.3008L18.9016 26.1008L19.0016 25.9008L19.2016 25.8008L19.5016 25.7008L19.4016 25.5008L19.6016 25.4008L19.9016 25.5008L20.6016 25.4008L21.2016 25.5008L21.4016 25.4008L21.7016 25.7008L22.1016 25.9008L22.5016 26.0008L22.7016 25.9008L22.9016 25.8008L23.1016 25.9008H23.3016L23.5016 25.8008V25.5008L23.7016 25.1008L24.0016 24.9008L24.1016 24.8008H24.2016L24.4016 25.1008L24.9016 25.2008H25.3016L25.5016 25.1008L25.8016 25.6008L26.4016 25.7008L27.4016 26.4008H27.6016L27.9016 26.6008L27.8016 26.8008L27.9016 26.9008L28.2016 26.7008L28.6016 26.4008L28.9016 26.2008L29.2016 26.1008L29.1016 25.8008H29.0016L28.9016 25.4008L29.0016 25.1008L28.9016 25.0008L28.7016 24.7008L28.8016 24.4008L29.0016 24.1008L29.2016 23.9008V23.7008L29.4016 23.5008H29.5016L29.7016 23.3008L29.9016 22.9008L30.1016 22.8008H30.4016L30.8016 22.9008L31.0016 23.1008L31.2016 23.0008L31.3016 23.1008L31.6016 23.0008H31.8016L32.0016 23.3008L32.3016 23.4008L32.5016 23.6008V23.1008V22.7008L32.1016 22.0008V21.7008L32.2016 21.3008H32.5016V21.5008L33.3016 21.4008L33.9016 21.0008H34.0016L35.1016 20.3008L35.3016 19.9008L35.4016 19.4008V18.6008L35.5016 17.9008L35.2016 17.2008H35.4016L35.3016 16.9008L35.4016 16.7008V16.3008L35.6016 15.9008V15.6008L35.7016 15.1008V14.8008L35.4016 14.6008L35.2016 14.2008L35.0016 14.0008L34.8016 13.7008V13.5008V13.3008L35.2016 13.4008L35.3016 13.5008L35.4016 13.4008L35.8016 13.5008L35.9016 13.6008L36.1016 13.7008L36.2016 13.6008L36.4016 13.7008H36.5016L36.7016 13.8008L37.0016 14.2008L37.2016 14.1008L37.4016 14.3008V14.5008L37.6016 14.8008L37.7016 15.0008L38.0016 15.2008L38.4016 15.1008L38.8016 15.7008L39.1016 15.6008L39.5016 15.5008L39.8016 15.6008H40.1016L40.4016 15.7008L40.8016 15.4008L41.2016 15.1008L41.1016 14.6008L41.2016 14.2008L41.1016 13.8008L41.2016 13.6008L41.7016 13.5008L41.9016 13.3008L42.1016 12.7008V12.3008V11.9008L42.3016 11.6008L42.6016 11.3008L42.7016 10.9008L43.1016 10.3008L43.3016 10.1008L43.4016 9.80078L43.7016 9.70078L43.9016 9.90078H44.2016L44.3016 9.70078L44.4016 9.50078V9.10078V8.80078H44.6016V8.60078L44.8016 8.40078V8.00078V7.80078L44.9016 7.70078V7.30078L45.1016 7.00078L45.3016 6.70078L45.5016 6.50078L45.9016 6.40078V6.90078L46.1016 7.70078H46.3016L46.6016 9.30078L46.4016 9.40078L46.5016 10.0008L46.7016 10.1008L46.9016 10.9008L47.2016 11.6008L47.9016 12.7008L48.4016 13.2008L49.1016 13.7008L49.4016 14.0008L49.8016 14.3008L50.2016 14.6008L50.8016 14.3008H51.0016L51.1016 14.5008L51.4016 14.6008L51.9016 14.2008H52.1016L52.4016 14.3008H52.6016L52.9016 14.2008L53.2016 14.0008L53.8016 13.5008L54.1016 13.4008L54.3016 13.5008L54.7016 13.6008L55.3016 13.5008H55.6016L56.0016 13.4008L56.2016 12.7008L56.3016 12.5008L56.5016 12.6008V12.7008V13.0008V13.1008H56.9016L57.0016 13.2008L57.1016 13.1008V12.6008L57.2016 12.4008L57.6016 12.3008L58.0016 12.1008H58.2016L58.5016 12.2008L58.6016 12.4008L59.3016 12.5008L60.3016 13.1008L60.4016 13.3008L60.6016 13.9008L61.0016 13.6008V13.4008L61.2016 13.0008V12.6008L61.3016 12.5008L61.5016 12.0008L61.6016 11.8008L62.3016 11.5008L62.8016 12.0008L63.1016 12.2008L63.3016 12.0008L63.4016 11.6008L63.7016 11.2008L63.8016 10.8008L64.0016 10.7008V10.4008V10.0008L64.1016 9.70078L64.3016 9.50078V9.20078L64.2016 9.00078L64.0016 8.70078L63.9016 8.20078L63.8016 7.70078L63.9016 7.30078V7.10078L63.5016 6.10078L63.3016 5.50078L63.0016 5.20078L62.8016 5.10078V4.80078L63.0016 4.50078L63.5016 3.90078L64.0016 3.60078L64.2016 3.20078L64.5016 3.00078H64.7016H64.9016H65.1016L65.4016 2.20078L65.8016 2.10078H66.1016L66.5016 1.80078H66.9016L67.4016 1.30078L67.6016 1.00078H67.9016L68.3016 0.800781L68.6016 1.00078L68.9016 0.900781L69.3016 1.00078L69.4016 1.20078L69.8016 1.40078L70.2016 1.30078L70.4016 1.40078L70.9016 1.60078L71.2016 1.70078L71.3016 1.80078L71.7016 2.10078L71.6016 2.20078L71.8016 2.40078L72.0016 2.30078L72.2016 2.50078L72.1016 2.80078L72.3016 3.00078L72.2016 3.40078L72.3016 4.30078L72.5016 4.60078L73.0016 4.80078L73.2016 5.00078H73.6016L73.7016 5.30078L73.9016 5.40078V5.70078L74.1016 5.90078L74.2016 6.10078L74.1016 6.20078L73.9016 6.40078L73.6016 6.50078V6.80078L73.4016 6.90078V7.40078L73.2016 7.70078L73.3016 7.90078L73.4016 8.00078V8.70078L73.6016 8.80078L73.8016 8.90078L74.0016 9.10078L74.3016 9.20078L74.6016 9.00078L74.9016 9.20078H75.1016L75.3016 9.00078H75.6016L75.7016 8.80078L76.1016 8.70078L76.3016 8.60078L76.5016 8.70078L76.9016 8.60078L77.3016 8.50078L77.5016 8.70078L77.7016 8.50078L78.0016 8.60078L78.1016 8.40078L78.5016 8.20078L78.8016 7.90078H79.2016L80.2016 7.70078L80.6016 7.40078L81.1016 7.00078L81.0016 6.70078L81.3016 6.40078L81.4016 5.90078V5.40078L81.7016 5.20078L82.1016 4.90078L82.3016 4.80078L82.1016 4.50078V4.20078L82.5016 3.70078M82.5016 3.70078V3.70078ZM82.5016 3.70078L82.7016 3.90078L82.9016 3.80078L83.0016 4.10078L83.2016 4.30078H83.3016H83.8016L84.0016 4.50078V4.80078L84.1016 5.20078L84.3016 5.30078L84.5016 5.20078L84.6016 5.40078H84.8016V5.70078L85.2016 6.00078L85.6016 5.90078L85.9016 6.10078L86.0016 6.30078L86.5016 6.00078L86.6016 5.80078L86.9016 5.60078V5.20078V4.90078L87.1016 4.70078L87.2016 4.50078L87.0016 4.20078V4.00078L87.3016 3.80078L87.5016 3.60078L87.9016 3.40078L89.1016 2.30078L89.5016 2.20078V2.10078L89.6016 2.00078H90.0016H90.3016V2.10078L90.5016 2.30078L90.7016 2.40078L91.0016 2.30078L90.9016 2.70078L91.0016 2.90078L91.3016 3.00078L91.5016 3.10078L91.7016 3.70078L91.8016 3.90078H92.0016L92.2016 4.40078L92.3016 4.60078L92.6016 4.70078L92.8016 4.50078L92.9016 4.40078L93.2016 4.30078L93.4016 4.50078L93.6016 4.60078H93.8016L94.1016 4.40078L94.4016 4.30078L94.6016 4.60078L94.7016 4.90078L94.9016 5.10078L95.3016 5.90078L95.5016 6.20078L95.8016 6.40078L95.9016 6.70078L96.1016 6.90078L96.3016 6.80078L96.6016 6.70078H97.0016H97.3016L97.4016 6.60078L97.6016 6.70078L97.7016 6.40078L98.1016 6.10078H98.4016L98.5016 6.00078L98.8016 5.90078H99.2016L99.5016 5.80078H99.8016L100.102 5.50078L100.302 5.30078L100.602 5.10078L100.902 5.00078L101.002 5.20078L101.402 5.50078V5.60078H101.702L101.802 5.80078L102.102 5.90078H102.402L102.302 6.20078L102.102 6.30078L102.002 6.60078V7.00078L101.902 7.50078L101.702 8.00078L101.502 8.10078H101.202L101.102 8.20078L101.202 8.40078L100.802 8.30078H100.402V8.70078L100.502 8.90078V9.10078H100.202V9.40078H99.9016V9.60078L99.7016 9.50078H99.4016L99.1016 9.80078L98.6016 9.90078L98.7016 10.3008L98.9016 10.7008L99.0016 11.2008L99.1016 11.6008H99.0016L98.6016 11.5008L98.3016 11.6008L98.0016 11.3008H97.7016H97.3016V11.2008H97.0016H96.8016V11.4008L96.6016 11.5008L96.5016 11.8008L96.3016 11.9008L96.2016 12.2008L96.3016 12.4008L96.0016 12.5008L95.7016 12.6008L95.8016 12.9008L95.9016 13.2008L96.3016 13.4008L96.4016 13.7008V14.1008L96.5016 14.2008L96.9016 14.4008V14.5008L97.3016 14.7008H97.6016L97.8016 15.0008L98.1016 15.1008L98.4016 15.2008L98.5016 15.4008L98.7016 15.8008H99.0016L99.1016 15.5008L99.5016 15.4008V15.1008L99.8016 14.9008L99.9016 14.7008L100.102 14.5008L100.702 14.1008L100.902 14.2008L101.202 14.1008H101.502L101.702 13.9008L101.602 13.7008L101.802 13.5008L102.102 13.8008L102.302 13.6008L102.502 13.1008L102.802 13.0008H103.002L103.102 13.2008L103.302 13.1008H103.502L103.802 13.0008H104.102L104.302 13.2008L104.602 13.6008V13.8008L104.902 13.9008L105.102 13.5008L105.302 13.1008L105.502 12.9008L105.602 13.1008V13.3008L105.702 13.4008L105.802 13.3008L106.002 13.4008L106.202 13.5008L106.502 13.6008L106.702 13.3008L107.202 13.0008L107.602 13.3008L107.902 13.2008L108.002 13.5008L108.102 13.8008L108.302 13.9008L108.502 14.1008L108.802 14.2008V14.6008L109.002 14.9008V15.1008L108.802 15.2008V15.4008V15.7008L108.702 15.9008L108.502 16.0008V16.1008L108.202 16.4008L108.602 16.5008L109.302 16.7008L109.402 16.8008L109.502 17.1008L109.802 17.3008L110.102 17.4008H110.302L110.502 17.5008L110.602 17.9008V18.1008L110.902 18.4008L110.802 18.6008L110.902 18.8008L110.802 19.1008L110.902 19.5008L111.002 19.6008L111.302 19.5008L111.602 19.4008V19.0008L112.102 18.7008V18.5008L112.402 18.6008L112.702 18.8008L113.002 19.1008L113.102 18.9008L113.302 18.5008L113.502 18.4008L114.102 18.5008L114.202 18.6008H114.402L114.602 18.5008L114.902 18.7008L115.202 18.6008L115.902 18.7008H116.102L116.202 18.5008H116.302L116.402 18.2008L116.602 18.1008L116.702 17.7008H116.902V17.4008L117.202 17.3008L117.302 17.0008L117.502 16.9008L117.802 16.7008L118.102 17.0008L118.402 17.2008L118.602 17.7008L118.702 18.0008L119.202 18.2008L119.502 18.8008L119.602 19.5008L119.402 20.0008L119.102 20.4008L119.402 20.3008L119.602 20.0008L119.802 19.9008L120.002 19.6008H120.202L120.402 19.4008L120.702 19.7008H121.102L121.202 19.9008H121.402L121.502 20.1008L121.602 20.6008L121.702 21.0008L121.902 21.1008L122.502 21.3008L122.902 21.4008L123.102 21.6008L123.402 21.5008L123.802 21.3008L124.002 21.1008L124.202 21.0008L124.502 21.3008H124.802L125.002 21.6008V21.8008L125.302 22.0008L125.502 22.1008H126.002L126.502 22.3008H126.902V22.5008H127.102L127.202 22.4008L127.302 22.2008L127.402 22.0008H127.702L127.902 21.9008V22.2008L128.002 22.4008H128.202L128.402 22.7008H128.502L128.702 22.3008L129.302 22.0008L129.502 21.8008V21.6008L129.902 21.5008L130.002 21.3008L130.202 21.8008L130.502 22.1008V22.2008V22.8008L131.002 23.1008L131.102 23.4008L131.402 23.2008L131.602 23.3008L132.002 23.4008L132.402 23.7008L132.602 24.0008H132.802L132.502 24.2008L132.302 24.4008H132.102L132.002 24.5008L131.802 25.2008L131.602 25.3008L131.402 25.7008L131.102 26.2008L131.002 26.4008V26.7008L130.802 26.8008L130.702 27.0008L130.802 27.3008L130.502 27.0008L130.302 26.6008L130.102 26.5008L130.002 26.4008L129.902 26.1008L129.802 25.9008H129.602L129.102 25.7008H128.802L128.502 25.5008L128.402 25.8008L128.502 26.0008L128.402 26.3008L128.302 26.7008L128.202 26.8008H127.902H127.002L126.902 26.7008H126.402L126.202 26.6008L126.002 27.0008L125.702 27.3008V27.4008V27.6008H125.502H125.302L125.202 27.5008L124.802 27.7008L124.602 28.0008L124.402 28.1008L124.602 28.3008L124.702 28.7008L125.002 28.9008L125.202 29.3008L125.102 29.9008L124.802 30.3008L124.602 30.5008H124.402L124.302 30.6008L124.202 30.9008L123.602 31.1008M123.602 31.1008V31.1008ZM123.602 31.1008L123.502 31.4008L123.602 31.6008L123.502 31.8008L123.402 32.0008L123.002 32.3008L122.702 32.5008M122.702 32.5008V32.5008ZM122.702 32.5008L122.402 32.7008L122.102 32.8008L121.902 32.9008H121.802L121.602 33.0008H121.402L120.902 32.9008L120.402 33.1008L120.302 33.2008L120.002 33.3008L119.602 33.5008V33.8008L119.402 34.1008L119.502 34.6008L119.202 34.8008L118.902 35.0008L118.802 35.4008L118.402 35.7008H118.202L118.102 35.8008L117.602 36.1008L117.002 36.3008L116.802 36.5008V36.9008L116.502 36.8008L116.002 36.9008L115.602 37.3008L115.202 37.6008L115.102 37.7008L115.002 37.8008L114.702 38.2008V38.4008V38.7008L114.602 38.8008L114.502 39.1008L114.402 39.4008V39.7008H114.002L113.702 40.0008H113.502L113.202 40.2008L113.002 40.3008L112.602 40.5008L112.802 41.1008V41.4008L113.002 41.7008L112.902 42.0008L112.802 42.4008L112.702 42.9008L112.602 43.0008L112.502 43.4008L112.402 43.7008L112.102 44.2008L111.802 44.4008L111.702 44.7008H111.402L111.302 44.9008L111.202 45.1008L111.302 45.5008L111.202 46.0008L111.102 46.1008L111.002 46.4008V46.6008L111.302 46.8008L111.702 46.7008L112.202 47.0008L112.402 47.1008V47.2008L112.702 47.6008H112.802L113.002 47.9008L113.202 48.0008L113.302 48.2008L113.202 48.4008V48.7008L113.102 48.9008L113.202 49.0008L113.102 49.3008V49.5008L113.202 49.6008L113.302 49.9008L113.202 50.1008L113.102 50.2008V50.5008L112.902 50.8008L112.702 50.9008V51.0008L112.502 51.3008L112.202 51.5008L111.902 51.7008L111.802 52.1008V52.3008V52.4008L111.602 53.0008L111.302 53.2008L111.202 53.4008L111.102 53.5008V53.8008L111.002 54.0008L110.702 54.2008L110.602 54.4008L110.102 54.3008L109.902 54.4008H109.702L109.402 54.3008H109.302H109.002H108.902L108.602 54.2008L108.002 53.9008L107.902 54.0008H107.402L107.302 54.1008L107.102 54.0008L106.902 54.1008L106.602 54.4008L106.502 54.5008L106.402 54.6008H106.302L106.002 54.9008V55.1008L105.802 55.3008L105.502 55.7008L105.302 55.6008L105.002 55.7008L104.702 55.5008L104.602 55.3008L104.402 55.2008L104.502 55.1008V55.0008V54.8008L104.402 54.7008L103.802 54.5008L103.602 54.3008L103.202 54.2008L102.902 54.0008H102.702L102.402 53.8008H102.202H102.002H101.702H101.602L101.102 54.0008L100.602 53.8008L100.502 53.4008V53.1008L100.202 52.8008L100.102 52.5008L99.9016 52.3008L99.5016 52.4008L99.4016 52.1008L99.2016 51.9008L99.0016 51.8008L98.7016 51.6008L98.5016 51.4008L98.4016 51.0008L98.2016 50.9008L98.1016 50.7008L97.9016 50.5008L97.7016 50.2008L97.4016 50.0008L97.3016 49.4008L97.4016 49.1008L97.2016 49.0008H96.9016H96.7016L96.6016 48.8008L96.2016 48.6008L96.1016 48.5008L96.0016 48.3008L95.7016 48.1008H95.6016L95.1016 47.9008H94.8016L94.5016 47.7008L94.4016 47.6008L94.1016 47.3008L93.9016 47.2008L93.7016 47.0008H93.6016L93.5016 47.3008L93.4016 47.5008V48.0008L92.9016 48.2008L92.8016 48.4008L92.9016 48.6008V48.9008L92.8016 49.1008L92.9016 49.6008L93.1016 49.8008V50.0008L92.3016 50.1008L92.0016 49.9008L91.8016 50.1008H91.4016L91.2016 49.9008H91.1016L90.9016 49.8008V50.4008L90.7016 50.8008V51.1008L90.8016 51.3008L91.0016 51.6008L90.9016 51.8008L91.0016 52.2008V52.4008L91.1016 52.9008L91.2016 53.2008V53.4008V53.9008L91.1016 54.1008L90.8016 54.2008L90.3016 54.1008L89.9016 53.9008L89.6016 53.8008L89.2016 53.7008H89.1016H88.9016L88.8016 53.6008L88.6016 53.7008L88.1016 53.6008H87.9016L87.7016 53.4008L87.2016 53.2008H87.0016L86.6016 53.1008L86.2016 53.3008H86.1016L85.7016 53.2008L85.6016 53.1008L85.3016 53.0008L85.2016 52.8008L84.7016 52.4008L84.4016 52.3008L84.3016 52.1008L84.2016 51.9008L84.1016 51.8008L83.9016 51.9008L83.7016 51.7008V51.5008H83.3016V51.8008L83.1016 51.9008L83.2016 52.3008L83.0016 52.5008L82.7016 52.7008H82.4016L82.1016 52.9008H81.7016V53.2008L81.2016 53.4008L81.0016 53.6008L80.9016 53.9008L81.0016 54.0008L80.9016 54.2008V54.5008L80.7016 54.6008V54.8008L80.6016 55.0008L80.5016 55.1008L80.2016 55.0008V54.9008L80.0016 55.0008L79.6016 55.2008L79.4016 55.3008L79.3016 55.4008V55.6008L79.4016 55.9008L79.3016 56.1008L78.9016 56.0008L78.8016 55.9008L78.4016 55.8008L78.5016 55.6008V55.4008V55.2008L78.3016 54.9008L77.8016 54.6008L77.7016 54.4008L77.4016 54.1008L77.2016 54.0008H77.0016V53.9008L76.8016 53.7008L76.5016 53.6008L76.4016 53.7008L76.2016 53.6008L76.1016 53.7008L76.0016 53.8008V54.1008L75.9016 54.4008V54.7008V54.9008L75.5016 55.1008V55.2008L75.6016 55.3008L75.7016 55.8008V55.9008V56.1008L75.6016 56.5008L75.4016 56.8008L75.2016 57.2008L75.0016 57.4008L74.9016 57.5008L74.6016 57.6008V57.7008L74.8016 58.1008L74.7016 58.2008V58.5008L74.6016 58.7008V59.2008L74.4016 59.5008H74.3016V59.8008M74.3016 59.8008V59.8008ZM74.3016 59.8008L74.1016 60.0008L73.9016 60.4008L73.5016 60.9008L73.4016 61.2008L73.5016 61.4008V61.8008V61.9008L73.7016 62.2008L73.9016 62.4008L74.6016 63.2008H74.9016L75.3016 63.4008L75.4016 63.8008L75.7016 64.2008L75.9016 64.1008L76.1016 64.2008L76.2016 64.5008L76.5016 64.7008L76.6016 64.8008L77.0016 65.1008L76.9016 65.2008L77.0016 65.4008L77.2016 65.8008L77.3016 65.9008L77.4016 66.2008V66.4008L77.2016 66.8008L76.8016 66.7008L76.7016 66.8008L76.3016 66.7008H76.1016H75.7016L75.4016 66.8008H75.0016L74.6016 66.4008V66.3008L74.1016 65.9008L73.8016 65.8008L73.6016 65.7008L73.4016 65.4008H73.2016H72.9016L72.5016 64.9008L72.4016 64.6008L72.1016 64.4008L71.9016 64.5008L71.4016 64.2008H71.3016L71.1016 64.5008L71.0016 64.9008L70.9016 65.0008V65.3008H70.7016L70.6016 65.6008H70.5016L70.3016 65.5008H70.1016L69.7016 65.6008H69.5016H69.4016H69.0016V65.5008H68.8016L68.5016 65.3008L68.2016 65.0008L68.1016 64.8008H68.0016L67.9016 64.6008L67.7016 64.3008V64.2008L67.5016 64.0008H67.3016L67.1016 63.7008L66.9016 63.6008L66.8016 63.4008L66.7016 63.3008H66.6016L66.5016 63.5008L66.2016 63.7008V63.9008L66.1016 64.0008V64.1008L65.9016 64.3008L66.1016 64.6008L66.0016 64.7008L65.8016 65.1008V65.4008L65.4016 65.6008V65.8008V66.0008L65.5016 66.2008L65.4016 66.5008L65.5016 66.9008V67.0008H65.4016L65.2016 67.2008L64.9016 67.0008L64.6016 66.9008L64.5016 67.0008L64.1016 67.1008V67.0008L63.9016 66.9008L63.8016 67.2008V67.8008L63.9016 68.2008L63.8016 68.5008L63.5016 68.8008L63.4016 68.9008L63.1016 68.7008L62.9016 68.6008H62.5016L62.3016 68.4008L61.8016 68.5008H61.7016L61.5016 68.6008L61.2016 68.5008H60.6016L60.4016 68.4008L60.2016 68.3008L60.3016 68.6008H59.9016L59.6016 68.7008L59.4016 69.1008L59.0016 69.2008V69.7008H58.9016L58.7016 69.8008L58.6016 70.1008L58.8016 70.2008H59.0016V70.1008L59.2016 70.2008L59.4016 70.1008L59.6016 70.2008H59.7016L59.9016 69.8008H60.2016L60.4016 69.9008L60.7016 69.8008L60.9016 69.9008L61.0016 70.0008L61.3016 70.1008H61.5016L61.8016 70.2008L62.1016 70.3008H62.2016L62.1016 70.5008H62.2016L62.3016 70.9008H62.4016L62.6016 71.5008L62.8016 71.4008H62.9016H63.1016H63.3016L63.6016 71.5008V71.6008L63.9016 71.8008L63.8016 72.1008V72.3008V72.4008V72.8008V72.9008V73.2008L64.2016 73.3008L64.5016 73.5008V73.7008V74.1008L64.2016 74.4008M64.2016 74.4008V74.4008ZM64.2016 74.4008L64.1016 74.7008V75.0008V75.2008L64.3016 75.6008L64.1016 75.7008L64.0016 76.3008V76.4008L63.8016 76.6008L64.0016 77.1008V77.3008L63.9016 77.4008L63.6016 77.6008H63.4016L63.2016 77.7008L63.1016 77.9008L63.2016 78.1008L63.1016 78.3008L63.2016 78.5008L63.1016 78.7008V79.1008H62.7016L62.3016 78.9008V78.6008L62.4016 78.0008L62.2016 77.7008L62.0016 77.4008L61.9016 77.2008L61.8016 77.0008L61.7016 76.6008L61.1016 76.3008L60.9016 76.4008L60.5016 76.5008L60.2016 76.2008H59.9016L59.7016 75.9008V75.6008V75.4008L59.8016 75.2008V74.9008V74.8008L59.4016 74.5008L59.1016 74.1008V73.9008L59.0016 73.3008L58.9016 72.7008L58.7016 72.6008L58.5016 72.7008L58.3016 72.9008V73.2008L58.2016 73.7008L58.1016 73.9008L58.0016 74.0008L57.9016 74.5008L57.7016 74.6008L57.6016 74.7008L57.4016 74.9008V75.2008L57.2016 75.5008L56.7016 75.6008L56.6016 75.5008L56.4016 75.6008L56.2016 75.4008V75.5008L56.0016 75.6008L55.8016 75.5008L55.6016 75.7008L55.8016 75.8008V76.2008L55.9016 76.3008L55.8016 76.5008V76.7008L56.0016 77.1008L56.1016 77.3008L56.3016 77.4008L56.6016 77.5008L56.7016 77.7008L56.8016 78.0008L56.5016 78.2008L56.3016 78.1008H56.0016L55.9016 78.2008L55.8016 78.3008H55.6016L55.1016 78.6008L54.9016 78.5008L54.8016 78.4008L54.4016 78.2008L54.3016 78.1008H54.0016V78.2008L53.8016 78.3008M53.8016 78.3008V78.3008ZM53.8016 78.3008L53.4016 78.2008L53.2016 78.0008L53.1016 78.4008L53.0016 78.6008L52.6016 78.7008H52.4016L52.1016 78.9008L51.9016 79.2008L51.4016 79.4008H51.1016L51.0016 79.6008V80.0008L50.9016 80.2008V80.6008L51.1016 80.8008L51.2016 81.0008V81.1008L51.3016 81.4008L51.5016 81.5008L51.6016 81.6008L51.7016 81.8008L52.1016 82.0008H52.4016L52.5016 82.2008L52.8016 82.3008L52.9016 82.6008L53.0016 82.5008L53.1016 82.6008L53.2016 82.8008L53.4016 82.9008L53.6016 83.1008L53.8016 83.0008L53.9016 82.8008L54.1016 82.7008L54.3016 82.8008L54.6016 82.9008L54.7016 83.1008H55.2016L55.3016 83.3008L55.5016 83.2008L55.8016 83.1008V83.0008H56.3016L56.5016 83.3008L56.6016 83.2008L56.8016 83.3008H56.9016L57.2016 83.5008L57.3016 83.7008L57.5016 83.8008L57.7016 84.0008L57.8016 84.2008L58.0016 84.5008H58.1016L58.2016 84.8008L58.3016 85.0008L58.1016 85.6008V85.9008V86.1008L58.0016 86.4008L58.3016 86.6008V86.9008H58.2016L58.4016 87.1008L58.6016 87.3008H59.0016H59.2016V87.4008L59.4016 87.5008L59.7016 87.6008L60.0016 87.9008L60.2016 88.0008L60.4016 87.8008L60.7016 87.9008V88.0008L61.0016 88.2008V88.3008L60.9016 88.6008V88.9008L61.0016 89.1008L60.9016 89.3008L61.1016 89.5008V89.7008L61.0016 90.0008L61.2016 90.3008L61.4016 90.6008V90.8008L61.2016 91.0008L61.0016 91.1008L60.8016 91.3008V91.4008L60.5016 91.7008H60.3016L60.1016 92.0008L59.8016 92.1008L59.7016 92.3008L59.5016 92.4008L58.9016 92.3008V92.5008V92.8008L58.5016 93.0008L58.4016 93.5008L58.7016 93.8008H58.9016L59.1016 94.4008L58.9016 94.6008L59.0016 94.9008V95.0008V95.3008L58.7016 95.4008L58.9016 95.7008L59.1016 96.1008L59.0016 96.3008V96.5008L58.8016 96.7008L58.9016 96.9008L58.8016 97.2008L58.7016 97.3008L58.6016 97.6008H58.4016L58.3016 97.9008L58.2016 98.4008L58.3016 98.7008V99.0008V99.1008L58.4016 99.6008V99.9008H58.6016H58.7016L58.9016 100.101L59.1016 100.501V100.901L59.0016 101.001L58.8016 101.301V101.501H58.7016L58.5016 101.701V102.001L58.4016 102.101L58.3016 102.401L58.2016 102.601V102.801L57.9016 103.001L57.6016 103.101L57.4016 103.001L57.3016 103.501L57.4016 103.601V103.901L57.6016 104.201V104.301L57.7016 104.501L57.9016 104.401L58.1016 104.501H58.5016L58.6016 104.601L58.8016 105.001V105.201V105.401L59.0016 105.601H59.1016L59.3016 105.801L59.2016 106.001V106.301V106.501L59.0016 106.701L58.9016 106.801L59.4016 107.001V107.401L59.5016 107.801L59.8016 108.001L59.9016 108.201V108.601L59.7016 108.701L59.4016 108.801V109.201V109.401V109.501H59.2016L59.1016 109.801L59.0016 109.901L58.8016 110.001L58.6016 109.901L57.9016 110.101L58.0016 110.301L57.9016 110.701H57.8016L57.7016 110.901L57.6016 111.001L57.4016 111.101L57.2016 111.001L57.1016 111.201H57.0016L56.8016 111.401L56.7016 111.501L56.6016 111.601L56.4016 111.701L56.3016 111.501L56.2016 111.701V112.001L56.1016 112.201L56.2016 112.401L56.1016 112.901L55.8016 113.101L55.6016 113.201V113.301V113.501L55.5016 113.701L55.3016 113.801L55.2016 114.201L55.3016 114.501L55.6016 114.801V114.901L55.8016 115.301L55.7016 115.501L55.6016 115.701V116.101L55.7016 116.301L56.0016 116.601V116.901V117.001V117.201V117.401V117.701L56.1016 117.801V118.101L56.2016 118.201L56.1016 118.301L56.2016 118.401L56.3016 118.301L56.5016 118.101L56.6016 118.001H57.2016L57.4016 118.201L57.9016 118.001H58.0016L58.3016 118.101L58.8016 118.201L59.3016 118.401L59.4016 118.101L59.5016 117.901H59.6016L59.7016 117.601V117.301L59.8016 117.001V116.801L60.0016 116.201L60.2016 116.101L60.4016 115.901L60.6016 115.701L60.7016 115.401L60.9016 115.301L61.1016 115.101L61.3016 115.001V115.601H61.4016V116.201V116.501L61.5016 116.601L61.4016 116.701L61.5016 117.001L61.8016 117.301L62.1016 117.501L62.4016 117.601L62.9016 117.801H63.1016L63.2016 117.701L63.3016 117.801L63.7016 117.901L64.0016 118.201L64.1016 118.601L64.3016 118.701L64.4016 119.001L64.9016 119.201H65.3016L65.4016 119.701V119.801V119.901V120.301L65.5016 120.401H66.0016L66.3016 120.701L66.6016 121.001H66.8016L67.0016 120.801L67.1016 121.001L67.3016 121.201H67.5016L67.7016 120.901L68.1016 120.801L68.3016 120.701L68.4016 120.601L68.3016 120.501L68.1016 120.201L68.2016 120.001L68.4016 119.901L68.5016 119.701L68.6016 119.601L68.8016 119.701H69.0016L69.2016 119.601L69.3016 119.701L69.5016 119.601L69.6016 119.501V119.401L69.7016 119.201L70.0016 119.101H70.2016L70.4016 119.301L70.8016 118.901L71.2016 118.601H71.4016L71.8016 118.901V119.101H72.1016L72.3016 119.201L72.5016 119.101H72.9016V119.401L73.1016 119.501L73.3016 119.601L73.4016 119.801L73.6016 119.901L73.9016 120.101H74.5016L74.9016 120.401H74.8016V120.601L74.5016 121.001H74.2016L74.1016 121.101L73.9016 121.601L73.7016 121.701V122.001L73.5016 122.201L73.2016 122.401L73.4016 122.901L73.5016 123.001V123.201L73.7016 123.301L73.9016 123.401V123.601L74.1016 123.701L74.2016 123.801L74.1016 124.001L74.2016 124.201L74.1016 124.501L74.4016 125.001V125.101L74.9016 125.301L75.1016 125.201L75.2016 125.301L75.1016 125.901L75.2016 126.201V126.401L75.5016 126.801L75.7016 127.001H75.9016L76.2016 127.301L75.8016 127.201L75.3016 127.101L75.1016 127.201L74.9016 127.301L74.8016 127.501L74.6016 127.601H74.4016L74.2016 127.801H74.0016L73.8016 127.501V127.401L73.5016 127.101H73.4016L73.3016 126.901H73.1016L73.0016 126.601L72.8016 126.501L72.6016 126.401L72.2016 126.201L71.9016 126.101L71.8016 126.201L71.6016 126.101H71.3016L70.9016 126.301L70.6016 126.201V126.301H70.2016L70.1016 126.501L69.9016 126.701L69.8016 126.801L69.7016 127.001V127.101L69.4016 127.201L69.0016 127.101L68.8016 127.301H68.5016V127.401L68.6016 127.601L68.2016 128.001L68.1016 128.101L68.0016 128.601L68.2016 128.901L68.4016 129.201H68.5016V129.401L68.6016 129.701L68.8016 129.801L68.9016 129.901L68.8016 130.101L68.7016 130.401L68.8016 130.701L69.1016 130.901V131.101L69.4016 131.201V131.401V131.601V132.001L69.7016 132.201H69.9016L70.1016 132.501L69.9016 132.701L69.8016 132.801L69.5016 133.001L69.4016 133.201L69.2016 133.401V133.701L69.3016 133.801L69.1016 134.201L69.2016 134.401L69.1016 134.601L69.3016 135.001V135.201L69.2016 135.301V135.501L69.0016 135.801H68.8016L68.6016 136.101H68.4016L68.3016 136.201L68.2016 136.401L67.9016 136.601H67.5016L67.2016 136.801V137.301V137.501V137.801M67.2016 137.801V137.801ZM67.2016 137.801L67.3016 138.101L67.2016 138.301L67.1016 138.701L66.8016 139.101V139.401L66.6016 139.501L66.3016 139.601L66.4016 139.801L66.3016 140.101L66.4016 140.401L66.6016 140.701V141.001L66.7016 141.101L66.6016 141.401L66.7016 141.701V142.001V142.301L66.6016 142.701L66.3016 142.801L66.0016 142.901L65.8016 143.101L65.7016 143.301L65.6016 143.501L65.5016 143.801L65.3016 144.001V144.101L64.9016 144.201L64.8016 144.401L64.5016 144.501V144.601L64.2016 144.801H64.1016L63.8016 144.901L63.6016 144.801V144.701L63.3016 144.501H63.1016L62.8016 144.401H62.7016L62.4016 144.301L62.1016 144.701L61.9016 144.801H61.8016L61.7016 145.001L61.5016 145.301L61.3016 145.401L61.2016 145.701V146.101L61.1016 146.201L61.0016 146.301H60.7016L60.6016 146.501L60.2016 146.401L60.1016 146.501L59.8016 146.601L59.7016 146.701H59.5016V146.601H59.4016L59.3016 146.901V147.001V147.501L58.9016 148.001L58.7016 148.101L58.6016 148.201L58.5016 148.101H58.1016L58.0016 147.901H57.5016L57.4016 147.801L57.3016 147.501L57.1016 147.301V147.201L56.7016 146.901H56.6016L56.4016 146.401L56.3016 146.201L56.1016 146.101L55.7016 146.201L55.5016 146.301L55.3016 146.501L55.0016 146.601H54.7016L54.2016 146.701L54.0016 146.901H53.8016L53.6016 147.101H53.5016L53.3016 147.301H53.1016L53.0016 147.501H52.7016L52.2016 147.701H52.0016L51.8016 147.801L51.5016 147.701L51.2016 147.801L51.0016 148.001V148.101L50.8016 148.201L50.7016 148.301L50.6016 148.501L50.4016 148.601L50.2016 148.901L50.0016 149.101L49.6016 148.901H49.3016L48.8016 149.101L48.6016 149.201L48.3016 149.401H48.0016H47.7016L47.4016 149.201V149.001L47.5016 148.701L47.7016 148.401V148.201L47.6016 147.801H47.3016H47.2016L46.9016 148.001L46.6016 147.801L46.3016 147.401H46.0016L45.9016 147.501L45.7016 147.801L45.6016 147.901L45.5016 147.801L45.3016 147.401L45.1016 147.101L45.0016 147.001H44.7016H44.6016L44.3016 147.201L44.0016 147.001V147.201L43.5016 146.801L43.3016 146.701L42.8016 146.601L42.4016 146.701L42.1016 146.801L41.8016 146.601V146.501L41.7016 146.401L41.6016 146.301L41.4016 146.101V145.901L41.2016 145.601V145.201V145.101L41.3016 144.801L41.2016 144.601L41.3016 144.501L41.2016 144.001L40.9016 144.101L40.8016 143.901L40.6016 143.401L40.5016 143.501L40.3016 143.601L40.0016 143.801L39.9016 144.001L39.7016 144.201L39.2016 144.401L39.1016 144.601L38.8016 144.801L38.7016 144.901L39.0016 145.201L38.9016 145.601L39.1016 146.001L38.8016 146.201L38.6016 146.301L38.5016 146.201L38.3016 146.401L38.0016 146.201L37.9016 146.301V146.101L37.8016 145.901L37.9016 145.801L37.7016 145.501L37.6016 145.101L37.4016 144.601V144.501L37.3016 144.201L37.1016 144.101L36.8016 144.001M36.8016 144.001V144.001ZM36.8016 144.001V143.701L36.7016 143.501L36.3016 143.101L36.1016 143.001L35.8016 142.801H35.7016V142.601L35.5016 142.401L35.4016 142.201M35.4016 142.201V142.201ZM35.4016 142.201V141.701L35.2016 141.401V141.301V141.101L34.9016 140.901L34.7016 140.501L34.5016 140.401L34.4016 140.101H34.0016L33.8016 139.701V139.501V139.401L33.7016 138.601L33.8016 138.301L34.0016 138.101V138.001L33.8016 137.801L33.7016 137.701L33.4016 137.601L33.3016 137.301L33.2016 137.101L33.1016 136.901V136.801H32.9016L32.7016 137.001L32.6016 136.701L32.1016 136.301L32.0016 136.001H31.9016H31.7016M31.7016 136.001V136.001ZM31.7016 136.001V135.701L31.5016 135.601V135.501L31.3016 135.301V135.201L31.2016 135.101L31.1016 135.001L31.2016 134.801V134.701V134.501V134.201V133.901L31.3016 133.501L31.4016 133.401V133.301L31.5016 133.001L31.7016 132.701L31.9016 132.601L32.1016 132.101L32.3016 131.801L32.2016 131.501L32.3016 131.101L32.2016 130.901V130.801L32.0016 130.201H31.7016L31.5016 129.801L31.7016 129.501L31.6016 129.301L31.9016 129.001L31.8016 128.701L31.6016 128.201L31.4016 128.101L31.5016 127.801L31.4016 127.701L31.5016 127.601L31.7016 127.301L31.9016 127.201V126.801L32.1016 126.601V126.401L31.9016 126.201L32.0016 126.001L31.8016 125.901V125.701V125.601L32.0016 125.201L31.7016 124.901L31.4016 124.801V124.601L31.3016 124.501L31.2016 124.401V124.201H30.9016M30.9016 124.201V124.201Z" stroke="#0552B5"/>
</svg>
