<svg width="220" height="194" viewBox="0 0 220 194" fill="none" xmlns="http://www.w3.org/2000/svg">
<path fill-rule="evenodd" clip-rule="evenodd" d="M2 41.8297L2.51278 41.4451L2.96145 41.0606L3.1217 40.4837L3.37808 40.0671L3.95495 39.7786L4.40363 39.5863L4.91641 39.6184L5.1087 39.4902L5.46123 38.016L5.58943 37.8557L6.1663 37.6955L6.26244 37.7275L6.45473 37.9519L6.90341 38.3044L7.35209 38.8813L8.92246 38.4646L14.2105 36.093L15.2681 35.6764L16.0052 35.5803L16.8064 36.093L17.7358 36.2853L18.3127 36.4456L19.851 36.7661L20.6842 37.0545L21.0688 37.2788L21.3252 37.8237L21.5496 37.9198L21.7739 37.8237L21.9021 37.6955L22.1264 37.407L23.857 37.0865L24.0173 37.2468L24.3378 37.407H24.466L24.7864 36.9584L25.2992 36.6379L25.812 36.2533L26.1966 35.9649L26.3889 35.9969L26.5812 36.1571L26.7414 36.1251L27.0939 36.3815L27.5426 36.5417L27.5747 36.3494L27.5426 36.2853L29.1771 35.3239L29.6899 35.0034L30.7475 35.2918L31.1961 35.6123L32.1896 35.9008L32.7024 36.4776L33.5357 36.6699L34.1766 36.9904L34.6894 37.375L35.3304 37.6955L35.9713 38.016L36.7726 37.407L37.7981 37.5673L38.407 37.6955L38.8878 38.689L38.9839 38.7851L39.3044 38.7531L39.6569 38.9454L40.362 39.2017L41.1952 39.394L41.5798 39.0736L42.4131 38.8172L43.022 38.4967L43.5668 37.9519L43.9194 37.4711L44.4001 37.2788L44.8167 37.0545L45.1372 36.5417L46.1628 36.1892L46.5153 36.061L47.4126 35.7085L47.7011 35.4521H48.5664L51.7712 35.42L51.8994 36.5097L52.3481 36.5417L52.7327 36.3815L53.2775 36.4456L53.5018 36.702L53.8864 36.7661L54.4313 36.3494L55.3607 36.4135L55.7452 36.5097L56.0337 36.5417L56.226 36.2853L56.3542 36.2533L56.8349 36.734L57.3477 36.5738L57.7322 36.5097L58.7578 36.5738L58.9501 36.5417L59.0142 36.3174L59.2065 35.9008L59.3667 35.42L59.591 35.1957L59.8154 35.0675H60.0397L60.3282 35.2598H60.5525L60.8089 35.2277H61.0973L61.1614 35.2598V35.7405L61.1935 35.9008L61.3858 35.9328L61.8344 35.6764L62.1229 35.4521L62.6677 35.2277L62.9561 35.0034L63.2125 34.6509L63.8535 34.5547L64.8149 35.2918L65.7444 34.9714L66.0007 35.1316L66.4174 35.1957L66.6417 35.0995L66.7379 34.5547H66.8981L67.0904 34.4265L67.1865 34.1381L67.4429 33.6574L67.5711 33.5612L67.8916 33.6253L68.0198 33.8176L68.3082 34.6509L68.2762 34.9714L68.6928 35.8367L68.8851 36.2853L69.0453 36.702L69.6222 37.3109L70.3914 37.8237L70.8721 38.2082L71.3528 38.721L71.449 39.0415H71.6092L72.2181 38.8172L72.763 38.3685L73.9167 37.7596L74.5256 37.8237L74.8461 38.1441L75.9999 37.5673L76.5126 37.407L77.2497 35.7726L78.6278 35.8367L78.9483 36.4776L80.5187 36.6699L82.6339 36.9584L83.1146 37.2468L83.4351 37.375L83.9799 37.5993L84.5247 37.6314L84.9734 37.4391L85.3901 37.2147L85.9349 37.1506L86.4797 36.9904L87.1207 37.0225L87.2168 37.1506V37.5673L87.9219 37.7596H88.691L89.3 37.6955L90.7101 37.5673L91.7036 37.6955L91.5434 37.8557L91.4472 38.1441L91.7356 38.3044H92.1523L92.2805 38.5287L92.9855 38.5928L93.7226 38.7531L94.4277 38.6569L94.9405 38.4967L95.4853 38.2403L95.934 37.7916L96.4147 37.5032L96.9916 37.2147L97.4723 36.8622L98.2094 36.1571L98.7542 35.7085L99.3952 34.9393L99.5555 34.8752L99.6836 34.9393L100.645 35.6764L101.446 35.5482L102.023 35.0034L102.312 34.4586L102.632 34.4265L102.856 34.4586L102.985 34.3945V34.2342L103.177 34.106L103.305 34.1701L103.401 34.3304L103.594 34.2983L103.69 33.7215L103.882 33.6574L104.555 32.8241L105.388 31.7665L106.125 32.2152L106.478 31.5742L106.702 31.2537L106.927 30.6769L107.503 30.5166L108.144 30.4205L108.337 30.5166L108.593 31.0614L108.85 30.9973L109.074 30.3243L109.17 29.7475L109.715 28.8501L109.971 28.786L110.196 28.4014L110.516 27.5041L110.869 27.2156L111.606 27.1195L111.734 27.0233L111.862 26.799L112.022 26.6067L111.83 26.2221L111.702 26.126L111.766 25.9337L111.958 25.6453L111.894 25.453L112.311 25.3248L112.631 25.0363L112.92 24.6838L113.304 24.5556L113.721 24.2992L114.009 24.0749L114.17 23.8505L114.522 23.2737L114.843 23.1455L114.971 23.0493L115.259 22.9852L115.548 22.825L115.868 21.4149L116.125 20.9341L116.413 20.4855L116.701 19.8124L116.798 19.492L116.958 19.2997L116.99 18.7548V18.4664L117.15 18.0818L117.759 17.7613L117.791 17.537L117.471 17.3768L117.374 16.5114L117.695 15.9025L117.727 15.2936L117.599 14.7808L117.759 14.3322L118.4 13.6271L118.528 13.3707L118.368 12.7618L118.496 11.9285V11.1914L118.304 9.90947L118.176 9.30055L117.951 8.01861L117.919 7.34559L117.823 6.57643L118.368 5.96751L118.4 5.83932L118.144 5.23039L118.208 4.65352L118.015 4.1728L118.272 3.56388L119.073 3.49978L119.682 3.27544L120.291 2.73062L120.804 2.44218L121.605 1.57687L121.925 1.51278L122.566 1.16024L122.855 1L123.047 1.60892L123.399 2.41013L123.528 2.53833L123.656 2.50628L123.592 2.66652L123.656 2.92291L124.233 3.91641L124.681 4.52533L124.938 4.87786L125.162 5.13425L125.451 5.55088L125.963 6.1598L126.284 6.2239L126.188 6.32004L126.252 6.44824L126.604 6.92896L126.733 7.02511L126.925 7.05716L127.085 6.92896L127.053 7.05716L127.181 7.12125L127.085 7.40969L127.213 7.37764L127.117 7.56993L127.181 7.79427L127.309 7.85837L127.47 7.76222L127.374 7.98656H127.245L127.213 8.08271L127.309 8.37114H127.534L127.662 8.1468L127.758 8.17885L127.886 8.43524L127.758 8.49934L127.694 8.62753L127.886 8.72368L127.822 8.94801H127.502L127.534 9.04416L127.822 9.36464L127.758 9.39669L127.63 9.3326L127.598 9.49284L127.406 9.58898L127.374 9.71718L127.406 10.0697L127.758 10.4543L127.726 10.5184L127.886 10.6786L127.982 10.8389L127.918 10.9991L127.982 11.3196L128.079 11.4798L128.207 11.5439L128.367 11.5119L128.399 11.608L128.367 11.8644L128.623 12.249L128.784 12.3131L128.976 12.249L129.072 12.3451L129.04 12.6336H128.591L128.495 12.7938L128.623 12.922V13.2425L128.784 13.4027L128.623 13.4668L128.591 13.595L128.687 13.7873L128.848 13.8194L128.752 14.1078L128.912 14.3962L129.104 14.5565L129.393 14.6206L129.489 14.5565L129.649 14.6206L129.553 14.8129L129.361 14.8449L129.328 14.9411H129.168L129.136 15.1013L129.296 15.1975L129.393 15.4218L129.617 15.55L129.585 15.8384V16.0307L129.681 16.191L130.001 16.5755L130.162 16.7037L130.45 16.6396V16.7999L130.546 17.0242L130.45 17.1845L130.514 17.6011L130.642 17.9536L130.835 18.2421L131.059 18.21L131.283 18.4344L131.54 18.5625L131.508 18.7228L131.636 18.8189L131.54 18.9151L131.636 19.1394L131.764 19.2356L131.796 19.3958L132.085 19.5561L132.277 19.8765L132.341 20.1329L132.597 20.3252L132.565 20.4855L132.661 20.5816L133.014 20.87L133.046 21.0303L133.206 21.1905L133.174 21.3508L132.982 21.5751L132.565 21.8956L132.597 21.7994L132.854 21.5751L132.694 21.3508L132.501 21.3828L132.117 21.7033L132.053 21.9597H132.181L132.085 22.0558L132.021 22.3763L132.085 22.9532L132.149 23.1775L132.309 23.498L132.405 23.7864L132.565 23.9467V24.1069L132.726 24.2672L132.854 24.7159L133.142 25.1645L133.302 25.3889L133.335 25.5171L134.072 26.6067L134.264 26.8631L134.36 27.0233L134.616 27.3438L134.809 27.6323L135.514 28.5617L135.866 28.9783L136.411 29.6834L136.892 30.2602L137.212 30.3243L137.18 30.4846L137.244 30.6128L137.341 30.5807L137.533 30.8051L137.373 31.0294H137.469L137.693 31.2217L137.597 31.2858L137.501 31.5422L137.565 31.2537L137.469 31.2217L137.18 31.4781L137.052 31.7024L137.02 31.8627L137.084 32.119L137.276 32.5357L137.405 32.6639L137.597 32.6318V32.728L137.789 33.0164L137.597 32.8241L137.437 32.9523V33.0484L137.693 33.0805L137.597 33.1766L137.533 33.5612L137.661 33.9458L138.11 34.5868L138.43 34.9393L138.815 35.3239L139.135 35.388L139.231 35.2918L139.103 35.6123L139.039 35.9008L139.071 36.029L139.296 36.1892L139.199 36.3815L139.167 36.2533L139.007 36.5417L139.071 36.8943L139.296 37.1506L139.456 37.2147L139.68 37.5673L140.129 38.048L140.577 38.1762L140.61 38.3364L140.513 38.3685L140.449 38.4967L140.513 38.689L140.93 38.8172L140.962 39.0095L141.218 39.0736L141.186 39.2017L140.994 39.1697L141.09 39.2658L140.898 39.4261L140.834 39.6825L140.898 39.8427L141.026 39.9389L141.122 39.9068L141.315 40.0671L141.154 40.003L140.898 40.2914L140.834 40.5157L140.962 40.9965L140.994 41.1567L141.25 41.4451L141.507 41.8618V42.1823L141.475 42.2463V42.5668L141.699 42.5989L141.763 42.663L141.988 42.7271L142.116 43.0476H142.052L141.956 42.7912L141.731 42.695L141.827 42.8873L141.635 43.0155L141.859 43.0796L141.795 43.4321L141.859 43.5924L142.084 43.6885L141.988 43.977L142.052 44.2334H142.148L142.18 44.4256L142.116 44.4577L142.084 44.6179L142.212 44.8102L142.468 45.1307L142.725 45.323L142.885 45.2589L143.045 45.5473L142.917 45.3871H142.789L142.885 45.7076L143.109 45.7717L143.27 46.2204L143.558 46.7331L143.782 46.9575V47.0536L144.199 47.6305L144.584 48.0151L144.616 48.2394L144.84 48.4317L145.032 49.0086L145.16 48.9765L145.032 49.1368L145.224 49.0086L145.192 49.2329L145.353 49.4572L145.545 49.3611L145.481 49.6175L145.641 49.8098L145.801 49.938L145.898 49.8739L146.122 50.0662L146.058 50.1623L146.218 50.8033L146.09 50.4508L145.962 50.4187H145.385V50.8674L145.353 50.9956L145.16 51.2199L145.192 51.5404L145 51.5724L144.359 51.7968L144.423 51.8929L144.295 52.0532V52.3737L144.199 52.4057L144.391 52.4378L144.423 52.5339L144.263 52.5019L143.846 52.598L144.295 52.5659L144.327 52.6621H144.712L144.744 52.63L145.128 52.6621V52.7262H145.289V51.6365L145.449 51.5724L145.641 51.6045L145.994 51.4443V51.4763L145.641 51.6045V51.7968L145.801 52.1173L146.186 52.6621L146.506 53.2069L146.795 53.6876L147.019 53.912L147.308 53.9761L147.244 54.1684L146.987 54.2645L146.859 54.2325L146.795 54.4248L146.923 54.5209V54.9696L147.019 55.4183L146.987 55.3221L146.923 54.9055H146.699L146.506 54.8414V54.9696L146.667 55.0016V55.3221L146.731 55.4824L146.667 55.5465L146.731 55.7708L146.795 56.1233V56.4759L146.891 56.9886L147.051 57.245L146.891 57.0848L146.763 57.2771L146.859 57.3412L146.731 57.5335V57.7257L146.827 57.9821L147.019 58.3988L147.308 58.8795L147.724 59.4884L147.949 59.6166L147.981 59.7448L148.077 59.873V60.0332L148.173 60.0012L148.205 60.2576L148.397 60.4499L148.654 60.3537L148.782 60.4499L148.75 60.6101L149.006 60.9626L148.974 61.2831L149.006 61.4754L149.231 61.7639L149.679 62.3087L150.096 62.7253L150.416 63.1419L150.961 63.7829L151.025 63.8791L151.891 64.8405L152.083 64.9687L152.211 64.9046L152.243 65.161L152.339 65.1289V65.3212L152.467 65.5135L152.724 65.8661L152.82 65.9302L153.012 65.802L153.14 66.0263L153.076 66.1545L153.397 66.3788L153.365 66.4429L153.076 66.1865L152.948 66.3147L153.012 66.3788L152.884 66.475L152.948 66.6352L153.076 66.6032L153.173 66.7314L153.397 66.5711L153.205 66.7634L153.333 67.0518L153.205 67.1159L153.269 67.2762L153.108 67.3403L153.173 67.5967L153.14 67.6608L153.205 67.9172L153.397 68.2056L153.557 68.2376L153.717 68.6222L153.942 69.0388L154.23 69.3593L154.903 70.1605L155.32 70.6413L155.48 70.7695L155.833 71.1861L156.057 71.3784L156.217 71.6348L156.441 71.8271L157.114 72.436L157.531 72.8847L158.044 73.2692L158.14 73.3333L158.3 73.2692L158.332 73.4295H158.493L158.781 73.2372L158.941 73.3333L158.845 73.3974L158.973 73.5577L158.717 73.8461L158.653 74.1025L158.717 74.1986L158.557 74.2307L158.621 74.3268L158.525 74.5191H158.332L158.3 74.6153L158.396 74.7755L158.493 74.7114L158.557 75.064L158.428 74.9678V75.1601L158.749 75.5447L158.909 75.5767L159.005 75.6729L159.037 75.8331L159.134 75.9613L159.198 76.2498L159.326 76.3139V76.41L159.614 76.8266L159.774 76.9869L160.127 76.9228L160.255 77.1792L160.127 77.2753L160.191 77.4355L160.608 77.9163L160.992 78.2047H161.281V78.1086L161.633 78.4931V78.6854L161.569 78.429L161.249 78.5252L161.281 78.6534L161.217 78.9739L161.281 79.2944L161.441 79.4225L161.569 79.3264L161.794 79.4866L161.697 79.6148H161.537L161.505 79.9674L161.665 80.2558L161.922 80.4801V80.6404H162.05L162.146 80.8006L162.178 81.025L162.114 81.1211L162.563 81.6659L163.14 82.2108L163.364 82.4671L163.652 82.5633L163.748 82.4351L163.813 82.6915L163.973 82.7235V82.8517L164.133 83.044L164.101 83.0761L163.941 82.7876L163.781 82.7235L163.684 82.8838V83.012L163.909 83.0761L163.877 83.1402L163.973 83.3325L163.877 83.5568L163.909 83.7811L164.229 84.2298L164.678 84.7426L165.127 85.1913L165.992 85.9925L166.152 86.1848L166.537 86.5052L166.793 86.6655L167.178 87.0821L167.53 87.3385L167.69 87.3706L167.787 87.3065L167.979 87.5629L167.883 87.6269L167.851 87.7551L167.947 87.8833L168.075 87.9795V88.0436L168.299 88.1718L168.396 88.4923L168.299 88.5564L168.363 88.7166L168.267 88.973L168.139 89.1973L168.235 88.9409L168.203 88.8127L167.947 88.9089L167.883 89.0371L168.011 89.1973H167.851L167.819 89.614L167.947 89.646V90.0947L168.107 90.287L168.267 90.5754L168.652 91.0882L168.78 91.1843L169.101 91.633L169.325 91.7291L169.485 91.9535L169.645 92.0176L169.806 92.1137H169.677L169.742 92.4983L169.998 92.8508L170.222 93.0431L170.383 93.2995L170.671 93.62L171.248 94.1328L171.44 94.3892L171.793 94.6776L172.241 95.1904L172.434 95.3186V95.575L172.498 95.7673L172.305 95.7352V96.0236L172.434 96.1198L172.402 96.28L172.498 96.4082L172.53 96.5685L172.69 96.8249L173.203 97.3376L173.555 97.6581L173.619 97.7863L174.036 98.235L174.324 98.5234L174.421 98.5875L174.645 98.876L175.062 99.2926L175.382 99.4849L175.831 100.094L176.183 100.446L176.247 100.639L176.568 100.927L176.92 101.344L177.946 102.369L178.619 103.01L178.972 103.363L179.132 103.459L179.228 103.619L179.42 103.683L179.516 103.523H179.869L180.093 103.779V103.811L179.837 103.587H179.58V103.779L179.837 104.004L179.516 104.036L179.548 104.132L179.741 104.292L179.901 104.581L180.189 104.837L180.414 105.125L180.798 105.446L180.894 105.606L181.055 105.734L181.632 106.311L181.728 106.407L181.984 106.664L182.593 107.209L182.817 107.337L182.657 107.465L182.561 107.657V108.298L182.337 108.619L182.24 108.971L182.369 108.683L182.625 108.33V107.689L182.978 107.369L182.913 107.465L183.042 107.593L183.138 107.497L183.106 107.753L183.138 108.01L183.234 108.138L183.266 108.362L183.362 108.555L183.619 108.939L183.779 109.292L183.971 109.452L184.099 109.484V109.612L184.484 109.933L184.74 110.285L184.9 110.445L185.029 110.638L185.285 110.798L185.381 111.086L185.445 111.375L185.541 111.535L186.247 112.24L186.439 112.464L187.304 113.298L187.56 113.522L187.721 113.714L188.073 114.035L188.266 114.099L188.362 114.227L188.49 114.195L188.65 114.355L188.618 114.419L188.746 114.516L188.778 114.644L189.163 114.996L189.387 115.221H189.483V115.573L189.644 115.669L189.612 116.054L189.483 116.246V116.374L189.259 116.567L189.419 116.663L189.515 116.855L189.451 117.015L189.612 117.176L189.547 117.272L189.644 117.368L189.483 117.592L189.515 117.817L189.419 117.881L189.355 118.041L189.259 118.073L189.227 118.393L189.067 118.714L189.195 118.393V118.105L188.971 118.169L188.81 118.329V118.49L188.65 118.65L188.554 118.938V119.099L188.394 119.323L188.426 119.675L188.49 119.996L188.682 120.445L189.003 121.086L189.163 121.31H189.708L190.381 121.694H190.285L189.74 121.374L189.355 121.342L189.387 121.406V121.887L189.9 121.983L189.932 121.759V122.239L190.06 122.335L190.253 122.624L190.221 122.656L190.573 123.137L190.926 123.489L191.535 124.066L191.855 124.354L192.079 124.483L192.784 125.06L192.945 125.252L193.297 125.476L193.586 125.765L193.714 125.797L194.323 126.374L194.675 126.662L194.835 126.694L195.284 127.079L195.38 127.335V127.688L195.316 128.008L195.38 128.136L195.701 128.553L195.605 128.777L195.637 128.905L195.925 129.258L195.669 129.001L195.733 129.226V129.418L195.829 129.514L195.765 129.867L195.476 130.54L195.508 131.245L195.733 131.79L195.669 131.758L195.412 131.085L195.38 130.636L195.316 130.476L195.38 130.283L195.092 130.315L194.932 130.572L195.124 130.7L195.092 130.764L194.9 130.7L194.932 130.828L194.964 131.181L195.092 131.309L195.06 131.662H195.316L195.252 131.694V132.078L195.188 132.238L195.412 132.559L195.573 132.655L195.765 133.008L195.829 132.975L195.893 133.168H196.053L196.021 133.328L196.117 133.424V133.649L195.957 133.745L195.893 133.905L195.925 134.129L196.085 134.45H196.182L196.31 134.61V134.738L196.438 134.995L197.079 135.956L197.175 136.02L198.136 136.661L198.521 136.821V136.853L198.136 136.693L197.143 136.052L197.111 136.116L196.726 136.373L196.951 136.725L197.047 136.693L197.207 136.95L196.085 137.655L196.31 138.039L197.752 137.142L197.944 137.206L197.72 137.398L197.88 137.59L198.04 137.623L198.169 137.558L198.104 137.43L198.169 137.334L198.233 137.526L199.258 138.776L199.354 138.872L199.322 139.001H199.579L199.45 139.193L199.515 139.385L199.835 139.738L200.059 139.706L200.027 139.962L200.764 140.667H200.861L201.021 140.859L201.213 140.924L201.373 140.859L201.405 141.052L201.47 141.148L201.405 141.244H201.598L201.63 141.404L201.886 141.661L202.014 141.693L202.078 141.821L202.11 142.077L202.046 142.238H202.239L202.367 142.366L202.335 142.558L202.399 142.75L202.303 142.846L202.399 143.135L202.559 143.423H202.655L202.719 143.648L202.816 144.385L202.944 144.577L202.783 144.449L202.623 144.064L202.431 143.936H202.207L202.11 144L202.463 144.032V144.128H202.303V144.449L202.527 144.481L202.687 144.609L202.527 144.898L202.591 145.186L202.687 145.314L202.559 145.41L202.591 145.571L202.655 145.699H202.848V145.987L203.008 146.212H203.104L203.008 146.34L203.072 146.436L203.104 146.66L203.649 147.365L204.386 148.134L204.674 148.359L204.771 148.487L204.963 148.615L205.251 148.872L205.668 149.224L206.373 149.705L206.758 149.929H207.142V150.089L207.463 150.378L208.232 150.923L208.424 151.019L208.68 150.987L208.841 151.051L208.777 151.179L208.616 151.211L208.552 151.564L208.584 151.179H208.456L208.424 151.339L208.296 151.435L208.36 151.628L208.2 151.82L208.296 151.948L208.232 152.14L208.296 152.429L208.232 152.621V152.91L208.2 153.006L208.328 153.23L208.456 153.486L208.712 153.679L208.744 153.999H208.873L208.905 154.16H209.033L209.001 154.256L209.161 154.288L209.129 154.64L209.193 154.768L209.129 154.929L209.257 155.025L209.289 155.249L209.418 155.185L209.45 155.281L209.61 155.313L209.738 155.474L209.61 155.602L209.674 155.858L209.802 155.922L209.706 156.147L209.642 156.787L209.674 156.916L209.93 156.948L209.866 157.14L210.026 157.108L210.059 157.268L209.898 157.428L209.994 157.525L209.962 157.813L210.091 158.037L210.443 158.454L211.212 159.095H211.34L211.501 159.287L211.757 159.448L212.013 159.512L212.142 159.415L212.366 159.448V159.319L212.494 159.191L212.751 159.415V159.576L212.847 159.704L212.975 160.024L212.911 160.153L213.071 160.249L213.103 160.633L213.039 160.665L212.943 160.954V161.402L213.135 161.659L213.424 161.851H213.616L213.584 161.755L213.808 161.691L213.84 161.851L213.776 161.947L213.872 162.236L214.161 162.332L214.289 162.268L214.353 162.14L214.577 162.236L214.545 162.043L214.321 161.915L214.289 161.851L214.577 162.011L214.673 161.819L214.866 162.108L214.898 162.268L214.834 162.492L214.93 162.781L215.058 162.749L215.122 162.877L215.282 162.909L215.475 163.037L215.667 162.973L215.635 163.133H215.731L215.699 163.454L215.539 163.486V163.742L215.699 163.902L215.667 164.223L215.539 164.415V164.479L215.731 164.575L215.635 164.607L215.699 164.864L215.603 164.671L215.475 164.768L215.539 164.864L215.571 165.056L215.763 165.152L215.923 165.344L216.212 165.409V165.697H216.372L216.34 165.857L216.532 165.985L216.757 165.953L216.789 166.242L216.917 166.306L216.885 166.466L216.949 166.53L216.853 166.69L216.949 166.819L217.173 166.851L217.366 166.819L217.558 166.915L217.526 167.139V167.396L217.59 167.492L217.622 167.716L217.686 167.94L217.942 168.165H218.167V168.325L218.327 168.357L218.103 168.613L217.91 168.677L217.686 168.902L217.398 169.03L217.269 169.35L217.205 169.703V169.318L217.301 169.094H217.045L216.981 169.479L216.821 169.767L216.789 169.959L216.981 170.248L217.045 170.28L217.205 170.632L217.173 170.729L217.301 170.889L217.366 171.177H217.462L217.494 171.402L217.366 171.594V171.882L217.269 171.946L217.301 172.331L217.077 172.491L217.045 172.651L217.109 172.684L217.013 172.844L216.949 173.068L216.981 173.196L217.205 173.228L217.237 173.357L217.301 174.638L217.398 174.799L217.43 175.472H217.269L217.301 175.6L217.109 175.504H216.981V175.632L217.141 175.728V175.985L217.205 176.081L217.878 175.6L217.654 175.792L217.782 176.049L218.295 176.754L218.103 176.818H217.878L217.974 177.298L218.263 177.491L218.487 177.715L218.551 178.036L218.712 178.292L218.68 178.388L218.968 178.901L219 179.093L218.84 179.253L218.391 179.221L218.135 179.157L217.782 179.061L217.173 179.125L216.885 179.253L216.853 179.318L216.628 179.221L216.532 179.478L216.372 179.638L216.148 179.574L216.116 179.702L215.955 179.798L215.731 179.702L215.635 179.766L215.507 179.606H215.218L215.122 179.734L215.09 180.023L214.994 180.087L214.898 180.343L214.738 180.375V180.567L214.673 180.664L214.321 180.76L214.161 180.856L213.968 180.824L213.936 181.08L213.776 181.24L213.584 181.273H213.231L213.007 181.401L212.943 181.593L212.847 181.721L212.686 181.689L212.622 182.01L212.43 182.202L212.334 182.939L212.046 182.971L211.757 182.843L211.469 182.586L211.18 182.715L210.667 182.426L210.187 182.586L210.059 182.971L210.091 183.163L209.994 183.388L210.059 183.804L209.898 183.933L209.738 184.125L209.642 184.381L209.097 184.574L208.68 184.798V184.926L208.52 185.022L208.2 185.086L208.071 185.182L207.783 185.535V185.631L207.591 185.855L207.559 186.08L207.431 186.208L207.238 186.496L206.95 186.625L206.758 187.009L206.501 187.105L206.437 187.33L206.084 187.586L205.924 187.65L205.796 187.842L206.084 188.067L206.277 188.355L206.213 188.612L206.373 188.74L206.501 188.964L206.277 189.573L206.084 189.733L206.117 190.022L206.373 190.182L206.341 190.502L206.501 190.727L206.469 191.047L206.501 191.208V191.368L207.174 191.881L207.014 191.945L206.79 191.784H206.565L206.373 191.56L205.988 191.496L205.796 191.336L205.636 191.368L205.347 191.336L205.027 191.432L204.803 191.368L204.642 191.496L204.29 191.4L204.097 191.368L203.713 191.272L203.521 191.336L203.392 191.496L203.232 191.56L202.976 191.528L202.848 191.592L202.816 191.752L202.623 191.784L202.431 191.752L202.175 191.72L201.918 191.624L201.854 191.336L201.886 191.111L201.822 191.015L201.694 190.663L201.566 190.535L201.534 190.406L201.437 190.374V190.214L201.341 190.15L201.021 189.701L200.7 189.605L200.508 189.413L200.348 188.964L200.156 188.772L200.059 188.515L200.091 188.355L200.027 188.291L199.643 188.323L199.547 188.259L199.258 188.227L199.226 188.355L199.066 188.387L198.938 187.939L198.809 187.778L198.617 187.746L198.393 187.522L198.072 187.49L197.912 187.073L197.752 186.913L197.624 186.849L197.463 186.945L197.047 186.881L196.855 186.721L196.406 186.528L196.342 186.464V185.92H196.021L195.989 185.727L195.508 185.503H195.284L195.156 185.567L194.547 185.439L194.387 185.247L194.227 184.926L193.842 184.702L193.65 184.766L193.361 184.606L193.041 184.862L192.848 185.086L192.4 185.182L192.143 185.407L191.663 185.503L191.502 185.471L191.406 185.599L191.054 185.887L190.926 186.112L191.022 186.528L190.894 186.625L190.733 186.881L190.573 186.977L190.445 187.266L190.573 187.426L190.637 187.65L190.381 188.355L190.413 188.515H190.221L190.124 188.74L190.028 188.868L189.58 188.9L189.676 188.644V188.483L189.291 188.291L188.971 188.419L188.81 188.355L188.714 188.227L188.137 188.067L188.009 187.874L187.817 187.714L187.689 187.554H187.432L187.304 187.65L186.92 187.458L186.663 187.49L186.407 187.426L186.118 187.522L185.83 187.362L185.734 187.234H185.573L185.445 187.298L185.093 187.266L184.772 187.169H184.58L184.195 187.073L183.907 186.881L183.779 186.913L183.394 186.817L183.106 186.528L182.978 186.593L182.561 186.528L182.465 186.785L182.305 186.721L182.016 186.849H181.664L181.407 187.009H181.215L180.991 187.137L180.894 187.234L180.414 187.394L180.029 187.33L179.741 186.977V186.817L179.805 186.496L179.548 186.4L179.292 185.791L179.036 185.439L178.972 185.247L178.459 185.343L178.202 185.503L177.882 185.535L177.69 185.663L177.337 185.695L177.113 185.631L176.76 185.695L176.536 185.984L176.44 186.336L176.247 186.561V186.849L176.344 187.169L176.055 187.394L175.959 187.778L175.767 188.035L175.606 188.131L175.574 188.708L175.35 188.836L175.126 189.028L175.062 189.221L174.453 189.701L174.324 190.022L174.292 190.502L174.357 191.24L174.26 191.368L173.876 191.079L173.555 190.695H173.139L172.53 190.374L172.498 190.663L172.37 190.855L172.402 191.208L172.081 191.368L171.6 191.079L171.28 190.823L170.831 190.695H170.511L170.126 190.599H169.966L169.517 190.406V190.278L169.261 190.054L169.325 189.797L168.94 189.541L168.908 189.349L168.556 188.836L168.524 188.708L168.235 188.548H168.107L168.011 188.035L168.043 187.746L168.171 187.618L167.787 187.426L167.658 187.298L166.921 187.394L166.761 187.33L166.216 187.234L165.8 187.49L165.383 187.266L165.255 187.33L165.095 187.234V186.849L165.191 186.528L165.03 186.272L164.902 186.208H164.678L163.909 186.144H163.62L163.332 185.727L163.204 185.599L162.947 185.695L162.755 185.887V186.016L162.499 186.144L162.659 186.304L162.755 186.496L162.915 186.657V187.009L162.947 187.169L162.659 187.266L162.563 187.234L162.435 187.426L162.306 187.49L162.21 187.618L162.146 187.81L162.05 187.939L162.082 188.131L162.018 188.323V188.515L161.922 188.612L161.89 188.804L161.729 188.996H161.601L161.313 188.708L161.153 188.612L160.992 188.291L160.864 188.483L160.928 188.58L160.768 188.708L160.8 188.836L160.768 189.06L160.64 189.221L160.704 189.349L160.672 189.541L160.447 189.765L160.48 190.086L160.928 190.759V190.887L161.121 191.208L161.345 191.528L161.377 192.009L161.441 192.425H161.249L160.704 192.842L160.64 193.066L160.672 193.291L160.415 193.259L160.095 193.066L159.614 192.554L158.813 191.848L158.076 191.688L157.948 191.56L157.595 191.496L157.307 191.368L156.602 191.592L156.377 191.945L156.089 191.848L155.865 191.72L155.512 191.752L155.16 191.208L154.422 190.278L153.942 190.47L153.813 190.278L153.621 190.182L153.557 189.99L153.14 189.637L152.98 189.573L152.82 189.637L152.019 189.349L151.794 189.381L151.602 189.477L151.41 189.381L151.346 189.06L151.153 188.9L150.929 188.804H150.737L150.577 188.548L150.096 188.227L149.743 188.131L149.519 188.003L149.263 188.163L149.102 187.907L148.654 187.65L148.59 187.041L148.654 186.913L148.365 186.657L148.141 186.08L147.981 186.368L147.66 186.432L147.596 186.625L147.404 186.849L146.891 187.169L146.667 187.49L146.538 187.522L146.378 187.234L146.154 187.266L146.026 187.041L146.058 186.721L145.833 186.817L145.545 186.881L145.417 187.009L145.353 187.266L145.224 187.33L145.032 187.266L145 187.169L144.616 187.073L144.167 186.945H143.622L143.398 186.785L143.109 186.593L143.141 186.368L142.917 186.144L142.661 186.08L142.404 185.823L142.148 185.887L141.988 186.08L141.571 186.304L141.283 186.368L140.994 186.176L140.674 186.112L140.065 185.92L139.808 185.855L139.776 185.407L139.68 184.894L139.552 184.766L139.36 184.702L139.231 184.541L138.847 184.509L138.526 184.253L138.366 184.381L138.142 184.413L137.885 184.734L137.725 184.862L137.597 185.118L137.276 185.182L137.533 184.83L137.725 184.285L137.693 183.58L137.373 183.067L136.892 182.811L136.732 182.554L136.507 182.01L136.187 181.849L135.995 181.561L135.674 181.721L135.45 181.785L135.354 182.138L135.097 182.234L135.033 182.522L134.873 182.554L134.745 182.875L134.584 183.035L134.488 183.324L134.328 183.356L134.2 183.548H134.04L133.367 183.42L133.014 183.484L132.726 183.356L132.597 183.42L132.341 183.452L132.213 183.292L131.668 183.195L131.444 183.356L131.251 183.676L131.155 183.933L130.867 183.58L130.546 183.452L130.258 183.292L130.194 183.548L129.745 183.804L129.713 184.253L129.393 184.285L129.168 184.381L129.008 184.285L128.976 183.9L129.008 183.58L128.944 183.388L129.04 183.163L128.784 182.971L128.72 182.747L128.655 182.362L128.399 182.202H128.271L127.918 182.074L127.662 181.881L127.566 181.625L127.438 181.497L126.7 181.273H126.348L126.604 180.952L126.668 180.792L126.829 180.696L126.957 180.535L126.925 180.279L126.989 180.023L127.149 179.926L127.117 179.702L126.989 179.382L126.957 179.061L126.604 178.869L126.444 178.709L126.252 178.58L126.092 178.324L126.027 178.068L125.707 178.1L125.322 177.779L124.842 178.132L124.649 178.452L124.361 178.324L124.169 178.164L123.976 178.1L123.816 178.228L123.72 178.132V177.907L123.592 177.715L123.399 177.907L123.239 178.324L123.015 178.677L122.791 178.645L122.694 178.388L122.406 178.036L122.214 177.843H121.957L121.669 177.939L121.445 177.907L121.252 178.004L121.156 177.779H120.932L120.611 177.907L120.483 178.452L120.227 178.645L119.906 178.324L119.778 178.484L119.874 178.741L119.65 178.965L119.329 178.869L119.073 178.965H118.881L118.24 179.286L118.079 179.51L117.951 179.766L117.599 179.894L117.631 180.215L117.214 180.375L117.118 180.6L116.798 180.664L116.669 180.215L116.541 180.023L116.221 179.926L115.996 179.766L115.74 179.542H115.451L115.067 179.286L115.035 179.189L114.618 179.029L114.554 178.901L114.586 178.548L114.458 178.196L114.041 178.004L113.945 177.715L113.817 177.427L114.202 177.266H114.394L114.298 177.01L114.394 176.69L114.618 176.593L114.746 176.369L114.939 176.177L114.907 176.017L115.163 176.049L115.451 176.017L115.484 176.177L115.804 176.113L116.092 176.145L116.445 176.433L116.765 176.369L117.118 176.433L117.278 176.401L117.086 176.017L117.054 175.536L116.83 175.119L116.701 174.703L117.278 174.638L117.503 174.318L117.887 174.286L118.079 174.382L118.047 174.19L118.4 174.222L118.368 173.901H118.624L118.656 173.709L118.56 173.485L118.528 173.1H118.977L119.361 173.228L119.297 173.004L119.393 172.908L119.618 172.94L119.842 172.844L120.002 172.331L120.131 171.85V171.466L120.291 171.113L120.483 171.017L120.515 170.697L120.259 170.761L119.938 170.632L119.81 170.472H119.522V170.312L119.201 170.024L119.009 169.799L118.752 169.927L118.464 170.12L118.272 170.376L117.983 170.632L117.599 170.6L117.31 170.729L116.894 170.761L116.669 170.825L116.573 170.953L116.189 170.889L115.868 171.209L115.74 171.498L115.58 171.434L115.451 171.562L115.099 171.498L114.682 171.53L114.394 171.626L114.202 171.754L114.009 171.562L113.881 171.241L113.625 171.049L113.4 170.697L113.08 169.927L112.824 169.767L112.759 169.479L112.535 169.126L112.247 169.254L111.958 169.479L111.766 169.447L111.606 169.286L111.317 169.158L111.061 169.222L110.965 169.383L110.708 169.479L110.452 169.415L110.324 169.254L110.196 168.742L109.971 168.71L109.843 168.485L109.651 167.94L109.426 167.78L109.138 167.684L109.074 167.556L109.106 167.107L108.817 167.203L108.625 167.171L108.433 166.947V166.787L108.176 166.819H107.76L107.664 166.915L107.632 167.043L107.215 167.171L106.029 168.197L105.613 168.453L105.484 168.645L105.164 168.838V169.03L105.356 169.35L105.26 169.575L105.004 169.735L105.036 169.959L105.004 170.44L104.779 170.6L104.651 170.825L104.17 171.113L104.01 170.889L103.754 170.761L103.369 170.825L102.953 170.472L102.888 170.248H102.728L102.6 170.056L102.44 170.12L102.248 169.991L102.183 169.607V169.286L101.991 169.126L101.478 169.158L101.318 169.126L101.126 168.902L101.062 168.677H100.869L100.677 168.517L100.613 168.549L100.293 169.062L100.228 169.35L100.421 169.607L100.228 169.671L99.8119 169.959L99.5555 170.216L99.5875 170.697L99.4273 171.177L99.1709 171.498L99.2029 171.786L98.7863 172.267L98.3376 172.491L97.3441 172.748L96.9916 172.716L96.6711 173.036L96.1904 173.164L96.0942 173.421L95.8378 173.357L95.6456 173.517L95.4853 173.357L95.0366 173.389L94.6521 173.517L94.4598 173.453L94.2034 173.485L93.8508 173.613L93.6906 173.805H93.4983L93.274 173.965L93.0496 173.998L92.7612 173.805L92.4087 174.03L92.1202 173.933L91.96 173.677L91.7036 173.645L91.5434 173.485L91.5754 172.812L91.4152 172.684L91.3831 172.523L91.5113 172.203L91.5754 171.722L91.7356 171.658L91.7997 171.337L92.0882 171.241L92.2484 171.017L92.3766 170.921L92.2484 170.697L92.0241 170.504L92.0561 170.216L91.8318 170.12L91.7036 169.831L91.3831 169.799L91.0947 169.639L90.6139 169.447L90.4217 169.094L90.3255 168.229L90.4537 167.844L90.2935 167.588L90.3576 167.363L90.1653 167.107L89.9409 167.203L89.7807 166.979L89.8127 166.883L89.4281 166.658L89.3641 166.466L89.0115 166.434L88.4987 166.178L88.3385 166.082L87.9539 166.178L87.6014 166.017L87.4412 165.857L87.0886 165.697L86.7681 165.825L86.4797 165.633L86.0631 165.793H85.7746L85.5503 166.146L85.0055 166.658L84.5888 166.626L84.2684 166.883L83.8838 166.915L83.5312 167.011L83.2749 167.812L83.0505 167.78L82.8262 167.876L82.6339 167.812L82.3454 168.004L82.1532 168.389L81.6724 168.742L81.1597 169.286L80.9674 169.575L80.9994 169.927L81.1597 169.991L81.4481 170.344L81.7045 170.953L82.0891 171.978L81.9929 172.107V172.555L82.025 173.004L82.1532 173.517L82.3134 173.773L82.4095 173.998V174.382L82.2813 174.478L82.0891 174.799L82.1532 175.215L82.1852 175.568L81.9929 175.632L81.8647 176.049L81.5442 176.369L81.416 176.786L81.1917 176.978L80.9033 176.85L80.4866 176.369L79.7495 176.593L79.6213 176.818L79.4931 177.298L79.3008 177.427V177.811L79.1086 178.228V178.452L78.7881 178.709L78.5637 178.132L78.4035 177.875L77.442 177.266L76.769 177.17L76.6408 177.074L76.3203 176.978L76.096 176.946L75.7755 177.17L75.3268 177.266L75.2627 177.363V177.939L75.1666 178.036L75.0384 177.907H74.6538L74.5897 177.811L74.6859 177.491L74.6218 177.395L74.4936 177.331L74.3013 177.523L74.141 178.26L73.7565 178.324L73.468 178.356L72.8271 178.452L72.4425 178.324L72.2822 178.228L71.8977 178.356L71.3849 178.805L71.0323 179.061L70.7119 179.125H70.5516L70.2311 179.029L70.0388 179.061L69.5261 179.382L69.3017 179.318L69.1094 179.157H68.9492L68.3723 179.478L67.9557 179.093L67.507 178.773L67.2506 178.484L66.5135 178.036L66.0007 177.523L65.3277 176.465L65.0072 175.696L64.8149 174.927L64.6868 174.831L64.5906 174.19L64.7509 174.158L64.4624 172.523L64.2701 172.491L64.0458 171.69L64.0778 171.209L64.2701 171.145L64.4945 170.472L64.4624 169.799L64.2701 169.35L64.2381 168.549L64.4624 167.139L64.7509 166.755L65.2636 165.793L65.2957 165.344L65.3277 164.832L65.2957 164.383L65.1995 163.966L65.1354 163.518L64.9111 163.261L64.9431 163.037L64.9111 162.62L65.0393 162.524L64.9752 162.108L64.6547 161.563L64.6227 161.178L64.6547 160.954H65.0713L65.3277 160.665L65.52 160.537L65.8405 160.409L66.2892 160.505L66.3853 160.281L66.2892 160.056L66.3853 159.736L66.2892 159.608L66.193 158.839L65.9687 158.774L65.8725 158.326L66.0007 158.101L65.8405 157.621L65.8725 157.172L65.488 156.948L65.7764 156.595L65.8725 156.114L65.7123 155.409L65.52 155.249L65.4239 154.608L65.6162 154.384L65.52 154.063L65.5841 153.807L65.4239 153.583L65.5841 153.294V152.942L65.488 152.589L65.8085 152.333L66.0328 152.301L66.3533 152.397L67.3147 152.14L67.1224 151.82L67.2506 151.564L67.0263 151.115L67.1865 150.955L67.1545 150.634L67.3788 150.506L67.475 150.282L67.7314 150.121L67.6673 149.801V149.32L67.6993 148.904L67.9877 148.743L68.2121 148.519V148.07L68.3723 147.814L68.4364 147.59L68.5005 147.205L68.6287 146.917V146.532L68.7249 146.34L68.7569 145.955L68.9172 145.603L69.3017 145.346H69.494L69.5902 145.186H69.7184L69.6863 144.545L69.5581 144.289L69.5902 144.16L69.3338 143.872L69.2376 143.551L69.3338 142.943L69.3017 142.398L69.1735 141.885L69.1415 141.532L69.0453 141.02L69.3979 140.539V139.962L69.1415 139.93L68.8531 139.834L68.148 139.513L68.0198 139.257L67.7634 138.84L67.5711 138.263L67.5391 138.103L67.4429 137.975L67.2186 138.007L67.0263 137.943L66.9622 137.623L66.3853 137.558L66.0969 137.398L65.9366 137.526L65.7444 137.462L65.52 137.526V136.982L65.5521 136.501V136.212L65.7444 136.18L66.0328 136.309L66.2571 136.148L66.5135 135.924L66.834 135.86L67.0583 135.636L67.3468 135.411L67.4109 135.187L67.6032 134.995L67.8596 135.059L68.18 134.738L68.3403 134.386L68.9172 133.841L69.1415 133.745L68.9492 133.456L69.0453 133.2L69.7825 132.975L70.0709 132.815L69.9107 132.399L70.2632 132.238L70.3273 132.11L70.4875 132.142L70.6798 132.078L70.8401 132.174L71.5451 132.046L71.8336 132.078L72.0899 132.174H72.2502L72.4425 131.854L72.8591 131.886L73.4039 131.822L73.5962 131.405L73.8206 131.245L73.7885 130.764L74.0128 130.572V130.123L73.6283 129.867L73.3398 129.514L72.9553 129.354L72.5066 129.226L72.122 129.194L71.9297 129.258L71.7054 129.162L71.2246 129.194L71.0644 129.034L70.6478 128.937L70.4875 128.361L70.2311 127.72L69.8786 127.623L69.7825 127.079L69.5261 126.918V126.694L68.7249 126.277L68.5646 126.502L68.5005 126.854L68.2121 127.047L67.8596 127.175L67.4429 126.982L67.0904 126.95L66.6097 126.726L66.3212 126.694L66.1289 126.406L65.9366 126.277L65.7123 126.021L65.488 126.085L65.2636 126.021L64.7829 125.701L64.5906 125.668L64.3342 125.797L64.1419 125.989L63.8855 125.957L63.6292 126.085L63.3087 125.925H62.9241L62.6997 125.765L62.3472 125.893L62.187 125.701H61.8024L61.6742 125.797L61.1935 125.957L60.9371 125.925L60.6487 126.085L60.5205 126.053L60.4243 125.893L60.1038 125.797L59.8154 125.668L59.559 125.54L59.6231 125.284L59.8795 125.06V124.931L59.6872 124.803L59.4308 124.483L59.1103 124.387L58.886 124.066L58.6296 124.034L58.4694 123.81L57.8604 123.361L57.7963 123.265L57.2195 122.752L57.0913 122.72L56.899 122.464L56.7387 122.432L56.6426 122.335L56.5464 122.047L56.4183 121.919L56.3862 121.694L56.3221 121.566L56.1619 121.534L55.7132 121.759L55.3286 121.791L55.0402 121.598L54.7197 120.797L54.7517 120.509L54.6235 120.477L54.1749 120.573L53.9826 120.509L53.8864 120.413L53.9505 120.252L53.8223 120.156L53.5659 120.188L53.4698 120.124V119.932L53.5339 119.707L53.4698 119.643L53.2455 119.707L53.0532 119.611L52.8929 119.323L52.7647 119.291L52.5724 119.323L52.4442 119.451L52.3481 119.707L52.252 119.643L52.3481 119.387L52.3161 119.291H52.0597L51.9956 119.002L51.7392 118.746L51.4828 118.97L51.4187 118.874L51.1944 118.746L51.1303 118.618L51.0662 118.393L50.7136 118.361L50.4893 118.265L50.297 118.714L49.9124 118.97L49.5919 119.066L49.4317 119.259L48.951 119.355L48.8228 119.419L48.5984 119.804L48.6946 120.188L48.4382 120.445L48.1177 120.509L47.8293 120.445L47.5729 120.637L47.0601 120.477H46.8678L46.323 121.053L46.0346 120.861L45.8102 120.701L45.5859 120.573L45.2654 120.477L45.2333 120.188L45.1372 119.996L44.8808 119.868L44.6565 119.643L44.2078 119.323L44.0476 118.938L44.0796 118.361L44.5924 118.233H44.8808L44.9449 117.752L45.1372 117.528L45.7141 117.015L45.682 116.727L45.6179 116.599L45.4256 116.471L45.3295 116.278L45.4256 115.83V115.349L45.4897 115.06L45.3936 114.804L45.5218 114.58L45.4577 114.355L45.5538 113.65L45.682 113.394L45.7461 113.073L45.9064 112.657L46.0025 112.24L46.0346 111.856L46.2269 111.727L46.2589 111.086L46.2269 110.734L46.2589 110.542L46.4832 110.349L46.5473 109.965L46.7076 109.676L46.7396 109.516L46.5473 109.356V109.003L46.1307 108.843L45.7782 108.907L45.5538 109.067L45.3615 109.452L45.009 109.74L44.6244 109.997L44.2078 109.933L43.8553 109.708L43.6309 109.324L43.3104 109.131L42.99 109.196L42.4772 109.74L42.1246 109.965L41.708 110.477L41.5157 110.157L41.3234 109.708V109.003L41.4516 108.33L41.8042 107.914L42.2849 107.561L43.4707 106.792L44.1437 106.279L44.6244 105.798L44.8167 105.446L44.9129 105.093L44.8808 104.613L44.6885 104.068L44.4001 103.523L44.0476 103.106L43.4707 102.337L43.0861 101.985L42.8297 101.664L42.7015 101.376V101.087L43.5348 99.7413L44.0476 99.1964L44.2078 98.908L44.1117 98.3632L43.8553 97.9465L43.3104 97.7543L42.99 97.2415L43.0541 96.5364L43.2463 95.9595L43.5348 95.3827L43.8873 95.0942L44.2719 94.8378L44.8488 94.6456L45.4256 94.6776L45.4897 94.0046L45.682 93.8444L46.0025 93.6841L46.355 93.62H46.6755L46.8037 93.2675L47.1242 93.1713L46.964 93.0111V92.8508L47.1883 92.4342L47.2845 92.3381L47.3806 92.0496L47.5088 92.0176L47.637 91.8253L47.7331 91.7932L47.8293 91.601L48.0857 91.3446L48.7587 91.0882H49.0792L49.3035 91.1202L49.7201 91.0561L50.2329 91.2164L50.6175 91.2805L50.8098 91.0561L50.8739 90.7356L51.0662 90.319V89.9985L51.0021 89.7421L50.97 89.4217L51.1303 88.973L51.2264 88.8768L51.4187 88.332L51.5789 88.2679L51.643 88.1718L51.6751 87.9154L51.7712 87.5949L51.9315 87.3706L51.8994 87.2744L51.9315 86.8578L51.7712 86.313L51.643 86.0886L51.611 85.8322L51.4187 85.672L51.3867 85.4156L51.4507 85.0951L51.5469 84.9669L51.7392 84.8387L51.8033 84.6144V84.358L51.7071 84.1978V83.9734L51.5148 83.5889L51.5469 83.3645L51.1944 83.012L51.1303 82.8838L50.6816 82.7876L50.6495 82.6274L50.4893 82.339L50.5534 81.9544V81.6339L50.4572 81.4416L50.2329 81.3455L49.8483 81.3134L49.5919 81.2493L49.1112 80.8327L48.7587 80.7045L48.4061 80.7365L48.1177 80.6083L48.0857 80.5122L47.669 80.384L47.0601 80.5122L46.8678 80.4801L46.6755 80.5763L46.4191 80.5442L45.682 80.1276L45.4897 80.1597L45.1693 80.0635L44.8808 79.9033L44.9449 78.9739L45.1372 78.7175L45.2333 78.6534L45.0411 78.0445L45.0731 77.8522L44.8808 77.5958L44.8488 77.4355L44.7526 76.8587V76.6023L44.6244 76.1857L44.5603 76.2177L44.368 76.0895L44.1437 75.9934L43.7271 75.769L43.4066 75.8972L43.0541 75.8331L42.6054 75.8652L42.2849 75.9613L41.8362 75.9934L41.5798 75.9293L41.1952 76.0895L41.0671 76.2818L40.7786 75.9934L40.5222 75.8972L40.394 75.6088L39.7851 75.4165L39.4967 75.5447L38.9519 75.3524L38.5032 75.3203L38.1827 75.3524L37.7981 74.9678L37.4135 74.7755L37.0289 74.3909L36.6764 74.1986L36.6444 73.7179L36.3239 73.2051L36.5482 72.8206L36.3239 72.436L36.2918 72.1796L36.0995 71.9232L36.0034 71.3143L36.1636 70.2887L35.9073 70.1926L35.8111 69.9683L35.4586 69.808L35.5547 69.4555L35.2663 68.8145L35.4586 68.6863L35.5547 68.1094L35.6188 67.4364L35.3624 67.0198L35.6188 66.4429L35.5547 65.8661L35.3945 65.3853L35.4265 65.0969L35.3945 64.7123L35.2342 64.488L35.3624 64.1995L35.2342 63.9111L34.9778 62.9496L34.7215 62.6292L34.3689 62.6612L34.2407 62.3407L33.9843 62.0202L33.6639 62.4048L33.3754 62.6612L33.1511 63.0458L32.6063 63.3342L32.414 63.7509H32.1896L31.9653 63.3983L31.6769 62.2766L31.4846 61.9882L31.1641 61.9561L30.8756 61.8279L30.427 61.6998L30.0424 61.5395H29.2412L28.472 62.2446L28.1836 62.3728L27.6708 62.533L27.2221 62.6612L26.7734 63.3342L26.1966 63.3022L25.6197 63.6547L25.3313 63.6868L25.2992 64.1354L25.2031 64.3277L25.2672 64.8405L25.171 65.0648L25.0749 65.0969L24.7544 64.8085L24.3698 64.52L23.9532 64.4559L23.4084 64.2316L23.2161 64.0713L23.0558 63.5906L22.7674 63.0778L22.5431 62.0202L22.2867 61.5716L22.1585 61.892L21.838 61.9882L21.6457 61.9241L20.9086 62.1164L20.7483 62.1484L20.6842 61.892L20.524 61.7959L20.3638 62.0202L20.1394 61.892L19.9151 61.86V61.6677L19.8189 61.6036V61.4113L19.883 61.2511L19.8189 60.9306L19.6907 60.7704L19.3062 60.8024L19.3703 60.4819L19.3382 59.873L19.178 59.7448V59.3923L19.3062 59.1679L19.7869 58.6231L20.0433 58.3026L20.1074 57.886L20.2997 57.6617L20.2676 57.4053L20.1074 57.0527L20.0433 56.7322L20.1074 56.572L20.2997 56.5079L20.3958 56.0592L20.3638 55.5144L20.524 55.3221L20.6522 55.258L20.6842 55.0978L20.8124 55.0337H21.0047L21.2932 54.8734L21.3573 54.7132L21.2611 54.585L20.8765 54.4889L20.7163 54.553L20.4279 54.3927L20.2676 54.0722H20.0433L20.0112 53.8479L19.9471 53.7838L19.8189 53.8158L19.6266 53.7838L19.4023 53.912L19.2741 53.8479L19.0818 54.0402L18.7613 53.912H18.6331L18.4729 54.1043L18.3127 54.0722L18.2165 54.2004L18.1524 54.3607L18.3127 54.6171L18.1204 55.1619L17.864 55.3221H17.7037L17.5755 55.4503V55.6105L17.3512 56.0592V56.2195L17.1589 56.2515L16.7102 56.4759L16.55 56.5079L16.3257 56.7963L15.9411 56.9245L15.6847 57.1489L15.5565 57.3091L15.6526 57.4053L15.4924 57.4373L15.5885 57.6296L15.4603 57.7257L15.2681 58.1424L14.9796 58.1103L14.9155 58.0142L14.8194 58.1103L14.595 58.0783L14.2746 58.1744L14.1464 58.3667L14.3066 58.7193L14.2425 58.9115L14.1143 59.0718L14.0823 59.3923L13.9541 59.2L13.7938 59.1038L13.5054 58.7513L13.1529 58.527L13.1849 58.3026L13.0247 58.2065H12.8003L12.2235 57.3732L12.0632 57.3091L11.8389 57.0848L11.4863 56.9566L11.3261 56.7322L11.1979 56.7002L10.9736 56.5079L10.9095 55.931L10.6851 55.3862L10.621 54.9696L10.7492 54.585L10.7172 54.3927L10.8454 54.1363V53.4954L11.0377 53.0146L10.8454 53.1108L10.621 53.1428L10.2044 53.5274L9.91597 53.2069L9.75572 52.9185L9.59548 52.7903L9.37114 52.3416L9.11475 52.0852L9.05066 51.9891L9.30704 51.6686L9.43524 51.5404L9.56343 51.2199L9.59548 51.0917L9.30704 50.5149L9.2109 50.0662L8.73017 49.8418L8.44174 49.7457L8.0892 49.4252V49.3611L8.2174 49.1368L8.2815 48.9124L8.0892 48.5919L8.1533 48.3356L8.2815 48.0792L8.37764 47.7907L8.2815 47.5664L8.50583 47.0536L8.24945 46.9575L7.96101 46.9895L7.57643 46.7972L7.51233 46.637L7.1598 46.5088L7.03161 46.5408L6.87136 46.8613L6.55088 47.0857L6.51883 47.2459L6.19835 47.1498L5.81376 47.31L5.71762 47.5984L5.30099 47.7587L5.23689 47.6625L4.91641 47.5984L4.56388 47.7587L4.43568 47.6305L4.27544 47.4382L4.0511 47.278H3.79471L3.60242 47.0857L3.50628 46.7652L3.34603 46.5729L3.37808 46.1883L3.50628 46.0922L3.41013 45.6755L3.47423 45.355L3.34603 45.2589L3.28194 44.7782L3.41013 44.5859L3.28194 44.5538L3.24989 44.4256L3.34603 44.3615L3.24989 44.2654L3.28194 44.0731L3.34603 43.5603L3.21784 43.4642L3.28194 43.336L3.41013 43.2719L3.34603 42.9835L2.54482 42.8232L2.44868 42.6309L2.54482 42.4386L2.67302 42.3425L2.80121 42.1182V41.9259L2.41663 41.8297H2Z" fill="white"/>
<path d="M145.641 51.6045L145.449 51.5724L145.289 51.6365V52.7262H145.128V52.6621L144.744 52.63L144.712 52.6621H144.327L144.295 52.5659L143.846 52.598L144.263 52.5019L144.423 52.5339L144.391 52.4378L144.199 52.4057L144.295 52.3737V52.0532L144.423 51.8929L144.359 51.7968L145 51.5724L145.192 51.5404L145.16 51.2199L145.353 50.9956L145.385 50.8674V50.4187H145.962L146.09 50.4508L146.218 50.8033L146.058 50.1623L146.122 50.0662L145.898 49.8739L145.801 49.938L145.641 49.8098L145.481 49.6175L145.545 49.3611L145.353 49.4572L145.192 49.2329L145.224 49.0086L145.032 49.1368L145.16 48.9765L145.032 49.0086L144.84 48.4317L144.616 48.2394L144.584 48.0151L144.199 47.6305L143.782 47.0536V46.9575L143.558 46.7331L143.27 46.2204L143.109 45.7717L142.885 45.7076L142.789 45.3871H142.917L143.045 45.5473L142.885 45.2589L142.725 45.323L142.468 45.1307L142.212 44.8102L142.084 44.6179L142.116 44.4577L142.18 44.4256L142.148 44.2334H142.052L141.988 43.977L142.084 43.6885L141.859 43.5924L141.795 43.4321L141.859 43.0796L141.635 43.0155L141.827 42.8873L141.731 42.695L141.956 42.7912L142.052 43.0476H142.116L141.988 42.7271L141.763 42.663L141.699 42.5989L141.475 42.5668V42.2463L141.507 42.1823V41.8618L141.25 41.4451L140.994 41.1567L140.962 40.9965L140.834 40.5157L140.898 40.2914L141.154 40.003L141.315 40.0671L141.122 39.9068L141.026 39.9389L140.898 39.8427L140.834 39.6825L140.898 39.4261L141.09 39.2658L140.994 39.1697L141.186 39.2017L141.218 39.0736L140.962 39.0095L140.93 38.8172L140.513 38.689L140.449 38.4967L140.513 38.3685L140.61 38.3364L140.577 38.1762L140.129 38.048L139.68 37.5673L139.456 37.2147L139.296 37.1506L139.071 36.8943L139.007 36.5417L139.167 36.2533L139.199 36.3815L139.296 36.1892L139.071 36.029L139.039 35.9008L139.103 35.6123L139.231 35.2918L139.135 35.388L138.815 35.3239L138.43 34.9393L138.11 34.5868L137.661 33.9458L137.533 33.5612L137.597 33.1766L137.693 33.0805L137.437 33.0484V32.9523L137.597 32.8241L137.789 33.0164L137.597 32.728V32.6318L137.405 32.6639L137.276 32.5357L137.084 32.119L137.02 31.8627L137.052 31.7024L137.18 31.4781L137.469 31.2217L137.565 31.2537L137.501 31.5422L137.597 31.2858L137.693 31.2217L137.469 31.0294H137.373L137.533 30.8051L137.341 30.5807L137.244 30.6128L137.18 30.4846L137.212 30.3243L136.892 30.2602L136.411 29.6834L135.866 28.9783L135.514 28.5617L134.809 27.6323L134.616 27.3438L134.36 27.0233L134.264 26.8631L134.072 26.6067L133.335 25.5171L133.302 25.3889L133.142 25.1645L132.854 24.7158L132.726 24.2672L132.565 24.1069V23.9467L132.405 23.7864L132.309 23.498L132.149 23.1775L132.085 22.9532L132.021 22.3763L132.085 22.0558L132.181 21.9597H132.053L132.117 21.7033L132.501 21.3828L132.694 21.3508L132.854 21.5751L132.597 21.7994L132.565 21.8956L132.982 21.5751L133.174 21.3508L133.206 21.1905L133.046 21.0303L133.014 20.87L132.662 20.5816L132.565 20.4855L132.597 20.3252L132.341 20.1329L132.277 19.8765L132.085 19.5561L131.796 19.3958L131.764 19.2356L131.636 19.1394L131.54 18.9151L131.636 18.8189L131.508 18.7228L131.54 18.5625L131.283 18.4344L131.059 18.21L130.835 18.2421L130.642 17.9536L130.514 17.6011L130.45 17.1845L130.546 17.0242L130.45 16.7999V16.6396L130.162 16.7037L130.001 16.5755L129.681 16.191L129.585 16.0307V15.8384L129.617 15.55L129.393 15.4218L129.296 15.1975L129.136 15.1013L129.168 14.9411H129.328L129.361 14.8449L129.553 14.8129L129.649 14.6206L129.489 14.5565L129.393 14.6206L129.104 14.5565L128.912 14.3963L128.752 14.1078L128.848 13.8194L128.687 13.7873L128.591 13.595L128.623 13.4668L128.784 13.4027L128.623 13.2425V12.922L128.495 12.7938L128.591 12.6336H129.04L129.072 12.3452L128.976 12.249L128.784 12.3131L128.623 12.249L128.367 11.8644L128.399 11.608L128.367 11.5119L128.207 11.5439L128.079 11.4798L127.982 11.3196L127.918 10.9991L127.982 10.8389L127.886 10.6786L127.726 10.5184L127.758 10.4543L127.406 10.0697L127.374 9.71718L127.406 9.58898L127.598 9.49284L127.63 9.3326L127.758 9.39669L127.822 9.36464L127.534 9.04416L127.502 8.94801H127.822L127.886 8.72368L127.694 8.62753L127.758 8.49934L127.886 8.43524L127.758 8.17885L127.662 8.1468L127.534 8.37114H127.309L127.213 8.08271L127.245 7.98656H127.374L127.47 7.76222L127.309 7.85837L127.181 7.79427L127.117 7.56993L127.213 7.37764L127.085 7.40969L127.181 7.12125L127.053 7.05716L127.085 6.92896L126.925 7.05716L126.733 7.02511L126.604 6.92896L126.252 6.44824L126.188 6.32004L126.284 6.2239L125.963 6.1598L125.451 5.55088L125.162 5.13425L124.938 4.87786L124.681 4.52533L124.233 3.91641L123.656 2.92291L123.592 2.66652L123.656 2.50628L123.528 2.53833L123.399 2.41013L123.047 1.60892L122.855 1L122.566 1.16024L121.925 1.51278L121.605 1.57687L120.804 2.44218L120.291 2.73062L119.682 3.27544L119.073 3.49978L118.272 3.56388L118.015 4.1728L118.208 4.65352L118.144 5.23039L118.4 5.83932L118.368 5.96751L117.823 6.57643L117.919 7.34559L117.951 8.01861L118.176 9.30055L118.304 9.90947L118.496 11.1914V11.9285L118.368 12.7618L118.528 13.3707L118.4 13.6271L117.759 14.3322L117.599 14.7808L117.727 15.2936L117.695 15.9025L117.374 16.5114L117.471 17.3768L117.791 17.537L117.759 17.7613L117.15 18.0818L116.99 18.4664V18.7548L116.958 19.2997L116.798 19.492L116.701 19.8124L116.413 20.4855L116.125 20.9341L115.868 21.4149L115.548 22.825L115.259 22.9852L114.971 23.0493L114.843 23.1455L114.522 23.2737L114.17 23.8505L114.009 24.0749L113.721 24.2992L113.304 24.5556L112.92 24.6838L112.631 25.0363L112.311 25.3248L111.894 25.453L111.958 25.6453L111.766 25.9337L111.702 26.126L111.83 26.2221L112.022 26.6067L111.862 26.799L111.734 27.0233L111.606 27.1195L110.869 27.2156L110.516 27.5041L110.196 28.4014L109.971 28.786L109.715 28.8501L109.17 29.7475L109.074 30.3243L108.85 30.9973L108.593 31.0614L108.337 30.5166L108.144 30.4205L107.503 30.5166L106.927 30.6769L106.702 31.2537L106.478 31.5742L106.125 32.2152L105.388 31.7665L104.555 32.8241L103.882 33.6574L103.69 33.7215L103.594 34.2983L103.401 34.3304L103.305 34.1701L103.177 34.106L102.985 34.2342V34.3945L102.856 34.4586L102.632 34.4265L102.312 34.4586L102.023 35.0034L101.446 35.5482L100.645 35.6764L99.6837 34.9393L99.5555 34.8752L99.3952 34.9393L98.7542 35.7085L98.2094 36.1571L97.4723 36.8622L96.9916 37.2147L96.4147 37.5032L95.934 37.7916L95.4853 38.2403L94.9405 38.4967L94.4277 38.6569L93.7226 38.7531L92.9855 38.5928L92.2805 38.5287L92.1523 38.3044H91.7356L91.4472 38.1441L91.5433 37.8557L91.7036 37.6955L90.7101 37.5673L89.3 37.6955L88.691 37.7596H87.9219L87.2168 37.5673V37.1506L87.1207 37.0225L86.4797 36.9904L85.9349 37.1506L85.3901 37.2147L84.9734 37.4391L84.5247 37.6314L83.9799 37.5993L83.4351 37.375L83.1146 37.2468L82.6339 36.9584L80.5187 36.6699L78.9483 36.4776L78.6278 35.8367L77.2497 35.7726L76.5126 37.407L75.9999 37.5673L74.8461 38.1441L74.5256 37.8237L73.9167 37.7596L72.763 38.3685L72.2181 38.8172L71.6092 39.0415H71.449L71.3528 38.721L70.8721 38.2082L70.3914 37.8237L69.6222 37.3109L69.0453 36.702L68.8851 36.2853L68.6928 35.8367L68.2762 34.9714L68.3082 34.6509L68.0198 33.8176L67.8916 33.6253L67.5711 33.5612L67.4429 33.6574L67.1865 34.1381L67.0904 34.4265L66.8981 34.5547H66.7379L66.6417 35.0995L66.4174 35.1957L66.0007 35.1316L65.7444 34.9714L64.8149 35.2918L63.8535 34.5547L63.2125 34.6509L62.9561 35.0034L62.6677 35.2277L62.1229 35.4521L61.8344 35.6764L61.3858 35.9328L61.1935 35.9008L61.1614 35.7405V35.2598L61.0973 35.2277H60.8089L60.5525 35.2598H60.3282L60.0397 35.0675H59.8154L59.5911 35.1957L59.3667 35.42L59.2065 35.9008L59.0142 36.3174L58.9501 36.5417L58.7578 36.5738L57.7322 36.5097L57.3477 36.5738L56.8349 36.734L56.3542 36.2533L56.226 36.2853L56.0337 36.5417L55.7452 36.5097L55.3607 36.4135L54.4313 36.3494L53.8864 36.7661L53.5018 36.702L53.2775 36.4456L52.7327 36.3815L52.3481 36.5417L51.8994 36.5097L51.7712 35.42L48.5664 35.4521H47.7011L47.4126 35.7085L46.5153 36.061L46.1628 36.1892L45.1372 36.5417L44.8167 37.0545L44.4001 37.2788L43.9194 37.4711L43.5668 37.9519L43.022 38.4967L42.4131 38.8172L41.5798 39.0736L41.1952 39.394L40.362 39.2017L39.6569 38.9454L39.3044 38.7531L38.9839 38.7851L38.8878 38.689L38.407 37.6955L37.7981 37.5673L36.7726 37.407L35.9713 38.016L35.3304 37.6955L34.6894 37.375L34.1766 36.9904L33.5357 36.6699L32.7024 36.4776L32.1896 35.9008L31.1961 35.6123L30.7475 35.2918L29.6899 35.0034L29.1771 35.3239L27.5426 36.2853L27.5747 36.3494L27.5426 36.5417L27.0939 36.3815L26.7414 36.1251L26.5812 36.1571L26.3889 35.9969L26.1966 35.9649L25.812 36.2533L25.2992 36.6379L24.7864 36.9584L24.466 37.407H24.3378L24.0173 37.2468L23.857 37.0865L22.1264 37.407L21.9021 37.6955L21.7739 37.8237L21.5496 37.9198L21.3252 37.8237L21.0688 37.2788L20.6842 37.0545L19.851 36.7661L18.3127 36.4456L17.7358 36.2853L16.8064 36.093L16.0052 35.5803L15.2681 35.6764L14.2105 36.093L8.92246 38.4646L7.35209 38.8813L6.90341 38.3044L6.45473 37.9519L6.26244 37.7275L6.1663 37.6955L5.58943 37.8557L5.46123 38.016L5.1087 39.4902L4.91641 39.6184L4.40363 39.5863L3.95495 39.7786L3.37808 40.0671L3.1217 40.4837L2.96145 41.0606L2.51278 41.4451L2 41.8297H2.41663L2.80121 41.9259V42.1182L2.67302 42.3425L2.54482 42.4386L2.44868 42.6309L2.54482 42.8232L3.34603 42.9835L3.41013 43.2719L3.28194 43.336L3.21784 43.4642L3.34603 43.5603L3.28194 44.0731L3.24989 44.2654L3.34603 44.3615L3.24989 44.4256L3.28194 44.5538L3.41013 44.5859L3.28194 44.7782L3.34603 45.2589L3.47423 45.355L3.41013 45.6755L3.50628 46.0922L3.37808 46.1883L3.34603 46.5729L3.50628 46.7652L3.60242 47.0857L3.79471 47.278H4.0511L4.27544 47.4382L4.43568 47.6305L4.56388 47.7587L4.91641 47.5984L5.23689 47.6625L5.30099 47.7587L5.71762 47.5984L5.81376 47.31L6.19835 47.1498L6.51883 47.2459L6.55088 47.0857L6.87136 46.8613L7.03161 46.5408L7.1598 46.5088L7.51233 46.637L7.57643 46.7972L7.96101 46.9895L8.24945 46.9575L8.50583 47.0536L8.28149 47.5664L8.37764 47.7907L8.28149 48.0792L8.1533 48.3356L8.0892 48.5919L8.28149 48.9124L8.2174 49.1368L8.0892 49.3611V49.4252L8.44174 49.7457L8.73017 49.8418L9.2109 50.0662L9.30704 50.5148L9.59548 51.0917L9.56343 51.2199L9.43524 51.5404L9.30704 51.6686L9.05066 51.9891L9.11475 52.0852L9.37114 52.3416L9.59548 52.7903L9.75572 52.9185L9.91597 53.2069L10.2044 53.5274L10.621 53.1428L10.8454 53.1108L11.0377 53.0146L10.8454 53.4954V54.1363L10.7172 54.3927L10.7492 54.585L10.621 54.9696L10.6851 55.3862L10.9095 55.931L10.9736 56.5079L11.1979 56.7002L11.3261 56.7322L11.4863 56.9566L11.8389 57.0848L12.0632 57.3091L12.2235 57.3732L12.8003 58.2065H13.0247L13.1849 58.3026L13.1529 58.527L13.5054 58.7513L13.7938 59.1038L13.9541 59.2L14.0823 59.3923L14.1143 59.0718L14.2425 58.9115L14.3066 58.7193L14.1464 58.3667L14.2746 58.1744L14.595 58.0783L14.8194 58.1103L14.9155 58.0142L14.9796 58.1103L15.2681 58.1424L15.4603 57.7257L15.5885 57.6296L15.4924 57.4373L15.6526 57.4053L15.5565 57.3091L15.6847 57.1489L15.9411 56.9245L16.3257 56.7963L16.55 56.5079L16.7102 56.4759L17.1589 56.2515L17.3512 56.2195V56.0592L17.5755 55.6105V55.4503L17.7037 55.3221H17.864L18.1204 55.1619L18.3127 54.6171L18.1524 54.3607L18.2165 54.2004L18.3127 54.0722L18.4729 54.1043L18.6331 53.912H18.7613L19.0818 54.0402L19.2741 53.8479L19.4023 53.912L19.6266 53.7838L19.8189 53.8158L19.9471 53.7838L20.0112 53.8479L20.0433 54.0722H20.2676L20.4279 54.3927L20.7163 54.553L20.8765 54.4889L21.2611 54.585L21.3573 54.7132L21.2932 54.8734L21.0047 55.0337H20.8124L20.6842 55.0978L20.6522 55.258L20.524 55.3221L20.3638 55.5144L20.3958 56.0592L20.2997 56.5079L20.1074 56.572L20.0433 56.7322L20.1074 57.0527L20.2676 57.4053L20.2997 57.6617L20.1074 57.886L20.0433 58.3026L19.7869 58.6231L19.3062 59.1679L19.178 59.3923V59.7448L19.3382 59.873L19.3703 60.4819L19.3062 60.8024L19.6907 60.7704L19.8189 60.9306L19.883 61.2511L19.8189 61.4113V61.6036L19.9151 61.6677V61.86L20.1394 61.892L20.3638 62.0202L20.524 61.7959L20.6842 61.892L20.7483 62.1484L20.9086 62.1164L21.6457 61.9241L21.838 61.9882L22.1585 61.892L22.2867 61.5716L22.5431 62.0202L22.7674 63.0778L23.0558 63.5906L23.2161 64.0713L23.4084 64.2316L23.9532 64.4559L24.3698 64.52L24.7544 64.8085L25.0749 65.0969L25.171 65.0648L25.2672 64.8405L25.2031 64.3277L25.2992 64.1354L25.3313 63.6868L25.6197 63.6547L26.1966 63.3022L26.7734 63.3342L27.2221 62.6612L27.6708 62.533L28.1836 62.3728L28.472 62.2446L29.2412 61.5395H30.0424L30.427 61.6998L30.8756 61.828L31.1641 61.9561L31.4846 61.9882L31.6769 62.2766L31.9653 63.3983L32.1896 63.7509H32.414L32.6063 63.3342L33.1511 63.0458L33.3754 62.6612L33.6639 62.4048L33.9843 62.0202L34.2407 62.3407L34.3689 62.6612L34.7215 62.6292L34.9778 62.9496L35.2342 63.9111L35.3624 64.1995L35.2342 64.488L35.3945 64.7123L35.4265 65.0969L35.3945 65.3853L35.5547 65.8661L35.6188 66.4429L35.3624 67.0198L35.6188 67.4364L35.5547 68.1094L35.4586 68.6863L35.2663 68.8145L35.5547 69.4555L35.4586 69.808L35.8111 69.9683L35.9073 70.1926L36.1636 70.2887L36.0034 71.3143L36.0995 71.9232L36.2918 72.1796L36.3239 72.436L36.5482 72.8206L36.3239 73.2051L36.6444 73.7179L36.6764 74.1986L37.0289 74.3909L37.4135 74.7755L37.7981 74.9678L38.1827 75.3524L38.5032 75.3203L38.9519 75.3524L39.4967 75.5447L39.7851 75.4165L40.394 75.6088L40.5222 75.8972L40.7786 75.9934L41.0671 76.2818L41.1952 76.0895L41.5798 75.9293L41.8362 75.9934L42.2849 75.9613L42.6054 75.8652L43.0541 75.8331L43.4066 75.8972L43.7271 75.769L44.1437 75.9934L44.368 76.0895L44.5603 76.2177L44.6244 76.1857L44.7526 76.6023V76.8587L44.8488 77.4355L44.8808 77.5958L45.0731 77.8522L45.0411 78.0445L45.2333 78.6534L45.1372 78.7175L44.9449 78.9739L44.8808 79.9033L45.1693 80.0635L45.4897 80.1597L45.682 80.1276L46.4191 80.5442L46.6755 80.5763L46.8678 80.4801L47.0601 80.5122L47.669 80.384L48.0857 80.5122L48.1177 80.6083L48.4061 80.7365L48.7587 80.7045L49.1112 80.8327L49.5919 81.2493L49.8483 81.3134L50.2329 81.3455L50.4572 81.4416L50.5534 81.6339V81.9544L50.4893 82.339L50.6495 82.6274L50.6816 82.7876L51.1303 82.8838L51.1944 83.012L51.5469 83.3645L51.5148 83.5888L51.7071 83.9734V84.1978L51.8033 84.358V84.6144L51.7392 84.8387L51.5469 84.9669L51.4507 85.0951L51.3867 85.4156L51.4187 85.672L51.611 85.8322L51.643 86.0886L51.7712 86.313L51.9315 86.8578L51.8994 87.2744L51.9315 87.3706L51.7712 87.5949L51.6751 87.9154L51.643 88.1718L51.5789 88.2679L51.4187 88.332L51.2264 88.8768L51.1303 88.973L50.97 89.4217L51.0021 89.7421L51.0662 89.9985V90.319L50.8739 90.7356L50.8098 91.0561L50.6175 91.2805L50.2329 91.2164L49.7201 91.0561L49.3035 91.1202L49.0792 91.0882H48.7587L48.0857 91.3446L47.8293 91.601L47.7331 91.7932L47.637 91.8253L47.5088 92.0176L47.3806 92.0496L47.2845 92.3381L47.1883 92.4342L46.964 92.8508V93.0111L47.1242 93.1713L46.8037 93.2675L46.6755 93.62H46.355L46.0025 93.6841L45.682 93.8444L45.4897 94.0046L45.4256 94.6776L44.8488 94.6456L44.2719 94.8378L43.8873 95.0942L43.5348 95.3827L43.2463 95.9595L43.0541 96.5364L42.99 97.2415L43.3104 97.7543L43.8553 97.9465L44.1117 98.3632L44.2078 98.908L44.0476 99.1964L43.5348 99.7413L42.7015 101.087V101.376L42.8297 101.664L43.0861 101.985L43.4707 102.337L44.0476 103.106L44.4001 103.523L44.6885 104.068L44.8808 104.613L44.9129 105.093L44.8167 105.446L44.6244 105.798L44.1437 106.279L43.4707 106.792L42.2849 107.561L41.8042 107.914L41.4516 108.33L41.3234 109.003V109.708L41.5157 110.157L41.708 110.477L42.1246 109.965L42.4772 109.74L42.99 109.196L43.3104 109.131L43.6309 109.324L43.8553 109.708L44.2078 109.933L44.6244 109.997L45.009 109.74L45.3615 109.452L45.5538 109.067L45.7782 108.907L46.1307 108.843L46.5473 109.003V109.356L46.7396 109.516L46.7076 109.676L46.5473 109.965L46.4832 110.349L46.2589 110.542L46.2269 110.734L46.2589 111.086L46.2269 111.727L46.0346 111.856L46.0025 112.24L45.9064 112.657L45.7461 113.073L45.682 113.394L45.5538 113.65L45.4577 114.355L45.5218 114.58L45.3936 114.804L45.4897 115.06L45.4256 115.349V115.83L45.3295 116.278L45.4256 116.471L45.6179 116.599L45.682 116.727L45.7141 117.015L45.1372 117.528L44.9449 117.752L44.8808 118.233H44.5924L44.0796 118.361L44.0476 118.938L44.2078 119.323L44.6565 119.643L44.8808 119.868L45.1372 119.996L45.2333 120.188L45.2654 120.477L45.5859 120.573L45.8102 120.701L46.0346 120.861L46.323 121.053L46.8678 120.477H47.0601L47.5729 120.637L47.8293 120.445L48.1177 120.509L48.4382 120.445L48.6946 120.188L48.5984 119.804L48.8228 119.419L48.951 119.355L49.4317 119.259L49.5919 119.066L49.9124 118.97L50.297 118.714L50.4893 118.265L50.7136 118.361L51.0662 118.393L51.1303 118.618L51.1944 118.746L51.4187 118.874L51.4828 118.97L51.7392 118.746L51.9956 119.002L52.0597 119.291H52.3161L52.3481 119.387L52.252 119.643L52.3481 119.707L52.4442 119.451L52.5724 119.323L52.7647 119.291L52.8929 119.323L53.0532 119.611L53.2455 119.707L53.4698 119.643L53.5339 119.707L53.4698 119.932V120.124L53.5659 120.188L53.8223 120.156L53.9505 120.252L53.8864 120.413L53.9826 120.509L54.1749 120.573L54.6235 120.477L54.7517 120.509L54.7197 120.797L55.0402 121.598L55.3286 121.791L55.7132 121.759L56.1619 121.534L56.3221 121.566L56.3862 121.694L56.4183 121.919L56.5464 122.047L56.6426 122.335L56.7387 122.432L56.899 122.464L57.0913 122.72L57.2195 122.752L57.7963 123.265L57.8604 123.361L58.4694 123.81L58.6296 124.034L58.886 124.066L59.1103 124.387L59.4308 124.483L59.6872 124.803L59.8795 124.931V125.06L59.6231 125.284L59.559 125.54L59.8154 125.668L60.1038 125.797L60.4243 125.893L60.5205 126.053L60.6487 126.085L60.9371 125.925L61.1935 125.957L61.6742 125.797L61.8024 125.701H62.187L62.3472 125.893L62.6997 125.765L62.9241 125.925H63.3087L63.6292 126.085L63.8855 125.957L64.1419 125.989L64.3342 125.797L64.5906 125.668L64.7829 125.701L65.2636 126.021L65.488 126.085L65.7123 126.021L65.9366 126.277L66.1289 126.406L66.3212 126.694L66.6097 126.726L67.0904 126.95L67.4429 126.982L67.8596 127.175L68.2121 127.047L68.5005 126.854L68.5646 126.502L68.7249 126.277L69.5261 126.694V126.918L69.7825 127.079L69.8786 127.623L70.2311 127.72L70.4875 128.361L70.6478 128.937L71.0644 129.034L71.2246 129.194L71.7054 129.162L71.9297 129.258L72.122 129.194L72.5066 129.226L72.9553 129.354L73.3398 129.514L73.6283 129.867L74.0129 130.123V130.572L73.7885 130.764L73.8206 131.245L73.5962 131.405L73.4039 131.822L72.8591 131.886L72.4425 131.854L72.2502 132.174H72.0899L71.8336 132.078L71.5451 132.046L70.8401 132.174L70.6798 132.078L70.4875 132.142L70.3273 132.11L70.2632 132.238L69.9106 132.399L70.0709 132.815L69.7825 132.975L69.0453 133.2L68.9492 133.456L69.1415 133.745L68.9171 133.841L68.3403 134.386L68.18 134.738L67.8596 135.059L67.6032 134.995L67.4109 135.187L67.3468 135.411L67.0583 135.636L66.834 135.86L66.5135 135.924L66.2571 136.148L66.0328 136.309L65.7444 136.18L65.5521 136.212V136.501L65.52 136.982V137.526L65.7444 137.462L65.9366 137.526L66.0969 137.398L66.3853 137.558L66.9622 137.623L67.0263 137.943L67.2186 138.007L67.4429 137.975L67.5391 138.103L67.5711 138.263L67.7634 138.84L68.0198 139.257L68.148 139.513L68.8531 139.834L69.1415 139.93L69.3979 139.962V140.539L69.0453 141.02L69.1415 141.532L69.1735 141.885L69.3017 142.398L69.3338 142.943L69.2376 143.551L69.3338 143.872L69.5902 144.16L69.5581 144.289L69.6863 144.545L69.7184 145.186H69.5902L69.494 145.346H69.3017L68.9171 145.603L68.7569 145.955L68.7249 146.34L68.6287 146.532V146.917L68.5005 147.205L68.4364 147.59L68.3723 147.814L68.2121 148.07V148.519L67.9877 148.743L67.6993 148.904L67.6673 149.32V149.801L67.7314 150.121L67.475 150.282L67.3788 150.506L67.1545 150.634L67.1865 150.955L67.0263 151.115L67.2506 151.564L67.1224 151.82L67.3147 152.14L66.3533 152.397L66.0328 152.301L65.8085 152.333L65.488 152.589L65.5841 152.942V153.294L65.4239 153.583L65.5841 153.807L65.52 154.063L65.6162 154.384L65.4239 154.608L65.52 155.249L65.7123 155.409L65.8725 156.114L65.7764 156.595L65.488 156.948L65.8725 157.172L65.8405 157.621L66.0007 158.101L65.8725 158.326L65.9687 158.774L66.193 158.839L66.2892 159.608L66.3853 159.736L66.2892 160.056L66.3853 160.281L66.2892 160.505L65.8405 160.409L65.52 160.537L65.3277 160.665L65.0713 160.954H64.6547L64.6227 161.178L64.6547 161.563L64.9752 162.108L65.0393 162.524L64.9111 162.62L64.9431 163.037L64.9111 163.261L65.1354 163.518L65.1995 163.966L65.2957 164.383L65.3277 164.832L65.2957 165.344L65.2636 165.793L64.7509 166.755L64.4624 167.139L64.2381 168.549L64.2701 169.35L64.4624 169.799L64.4945 170.472L64.2701 171.145L64.0778 171.209L64.0458 171.69L64.2701 172.491L64.4624 172.523L64.7509 174.158L64.5906 174.19L64.6868 174.831L64.8149 174.927L65.0072 175.696L65.3277 176.465L66.0007 177.523L66.5135 178.036L67.2506 178.484L67.507 178.773L67.9557 179.093L68.3723 179.478L68.9492 179.157H69.1094L69.3017 179.318L69.5261 179.382L70.0388 179.061L70.2311 179.029L70.5516 179.125H70.7119L71.0323 179.061L71.3849 178.805L71.8977 178.356L72.2822 178.228L72.4425 178.324L72.8271 178.452L73.468 178.356L73.7565 178.324L74.141 178.26L74.3013 177.523L74.4936 177.331L74.6218 177.395L74.6859 177.491L74.5897 177.811L74.6538 177.907H75.0384L75.1666 178.036L75.2627 177.939V177.363L75.3268 177.266L75.7755 177.17L76.096 176.946L76.3203 176.978L76.6408 177.074L76.769 177.17L77.442 177.266L78.4035 177.875L78.5637 178.132L78.7881 178.709L79.1086 178.452V178.228L79.3008 177.811V177.427L79.4931 177.298L79.6213 176.818L79.7495 176.593L80.4866 176.369L80.9033 176.85L81.1917 176.978L81.416 176.786L81.5442 176.369L81.8647 176.049L81.9929 175.632L82.1852 175.568L82.1532 175.215L82.0891 174.799L82.2813 174.478L82.4095 174.382V173.998L82.3134 173.773L82.1532 173.517L82.025 173.004L81.9929 172.555V172.107L82.0891 171.978L81.7045 170.953L81.4481 170.344L81.1597 169.991L80.9994 169.927L80.9674 169.575L81.1597 169.286L81.6724 168.742L82.1532 168.389L82.3454 168.004L82.6339 167.812L82.8262 167.876L83.0505 167.78L83.2749 167.812L83.5312 167.011L83.8838 166.915L84.2684 166.883L84.5888 166.626L85.0055 166.658L85.5503 166.146L85.7746 165.793H86.0631L86.4797 165.633L86.7681 165.825L87.0886 165.697L87.4412 165.857L87.6014 166.017L87.9539 166.178L88.3385 166.082L88.4987 166.178L89.0115 166.434L89.3641 166.466L89.4281 166.658L89.8127 166.883L89.7807 166.979L89.9409 167.203L90.1653 167.107L90.3576 167.363L90.2935 167.588L90.4537 167.844L90.3255 168.229L90.4217 169.094L90.6139 169.447L91.0947 169.639L91.3831 169.799L91.7036 169.831L91.8318 170.12L92.0561 170.216L92.0241 170.504L92.2484 170.697L92.3766 170.921L92.2484 171.017L92.0882 171.241L91.7997 171.337L91.7356 171.658L91.5754 171.722L91.5113 172.203L91.3831 172.523L91.4152 172.684L91.5754 172.812L91.5433 173.485L91.7036 173.645L91.96 173.677L92.1202 173.933L92.4087 174.03L92.7612 173.805L93.0496 173.998L93.274 173.965L93.4983 173.805H93.6906L93.8508 173.613L94.2034 173.485L94.4598 173.453L94.6521 173.517L95.0366 173.389L95.4853 173.357L95.6456 173.517L95.8378 173.357L96.0942 173.421L96.1904 173.164L96.6711 173.036L96.9916 172.716L97.3441 172.748L98.3376 172.491L98.7863 172.267L99.2029 171.786L99.1709 171.498L99.4273 171.177L99.5875 170.697L99.5555 170.216L99.8119 169.959L100.228 169.671L100.421 169.607L100.228 169.35L100.293 169.062L100.613 168.549L100.677 168.517L100.869 168.677H101.062L101.126 168.902L101.318 169.126L101.478 169.158L101.991 169.126L102.183 169.286V169.607L102.248 169.991L102.44 170.12L102.6 170.056L102.728 170.248H102.888L102.953 170.472L103.369 170.825L103.754 170.761L104.01 170.889L104.17 171.113L104.651 170.825L104.779 170.6L105.004 170.44L105.036 169.959L105.004 169.735L105.26 169.575L105.356 169.35L105.164 169.03V168.838L105.484 168.645L105.613 168.453L106.029 168.197L107.215 167.171L107.632 167.043L107.664 166.915L107.76 166.819H108.176L108.433 166.787V166.947L108.625 167.171L108.817 167.203L109.106 167.107L109.074 167.556L109.138 167.684L109.426 167.78L109.651 167.94L109.843 168.485L109.971 168.71L110.196 168.742L110.324 169.254L110.452 169.415L110.708 169.479L110.965 169.383L111.061 169.222L111.317 169.158L111.606 169.286L111.766 169.447L111.958 169.479L112.247 169.254L112.535 169.126L112.759 169.479L112.824 169.767L113.08 169.927L113.4 170.697L113.625 171.049L113.881 171.241L114.009 171.562L114.202 171.754L114.394 171.626L114.682 171.53L115.099 171.498L115.451 171.562L115.58 171.434L115.74 171.498L115.868 171.209L116.189 170.889L116.573 170.953L116.669 170.825L116.894 170.761L117.31 170.729L117.599 170.6L117.983 170.632L118.272 170.376L118.464 170.12L118.752 169.927L119.009 169.799L119.201 170.024L119.522 170.312V170.472H119.81L119.938 170.632L120.259 170.761L120.515 170.697L120.483 171.017L120.291 171.113L120.131 171.466V171.85L120.002 172.331L119.842 172.844L119.618 172.94L119.393 172.908L119.297 173.004L119.361 173.228L118.977 173.1H118.528L118.56 173.485L118.656 173.709L118.624 173.901H118.368L118.4 174.222L118.047 174.19L118.079 174.382L117.887 174.286L117.503 174.318L117.278 174.638L116.701 174.703L116.83 175.119L117.054 175.536L117.086 176.017L117.278 176.401L117.118 176.433L116.765 176.369L116.445 176.433L116.092 176.145L115.804 176.113L115.484 176.177L115.451 176.017L115.163 176.049L114.907 176.017L114.939 176.177L114.746 176.369L114.618 176.593L114.394 176.69L114.298 177.01L114.394 177.266H114.202L113.817 177.427L113.945 177.715L114.041 178.004L114.458 178.196L114.586 178.548L114.554 178.901L114.618 179.029L115.035 179.189L115.067 179.286L115.451 179.542H115.74L115.996 179.766L116.221 179.926L116.541 180.023L116.669 180.215L116.798 180.664L117.118 180.599L117.214 180.375L117.631 180.215L117.599 179.894L117.951 179.766L118.079 179.51L118.24 179.286L118.881 178.965H119.073L119.329 178.869L119.65 178.965L119.874 178.741L119.778 178.484L119.906 178.324L120.227 178.645L120.483 178.452L120.611 177.907L120.932 177.779H121.156L121.252 178.004L121.445 177.907L121.669 177.939L121.957 177.843H122.214L122.406 178.036L122.694 178.388L122.791 178.645L123.015 178.677L123.239 178.324L123.399 177.907L123.592 177.715L123.72 177.907V178.132L123.816 178.228L123.976 178.1L124.169 178.164L124.361 178.324L124.649 178.452L124.842 178.132L125.322 177.779L125.707 178.1L126.027 178.068L126.092 178.324L126.252 178.58L126.444 178.709L126.604 178.869L126.957 179.061L126.989 179.382L127.117 179.702L127.149 179.926L126.989 180.023L126.925 180.279L126.957 180.535L126.829 180.696L126.668 180.792L126.604 180.952L126.348 181.273H126.7L127.438 181.497L127.566 181.625L127.662 181.881L127.918 182.074L128.271 182.202H128.399L128.655 182.362L128.72 182.747L128.784 182.971L129.04 183.163L128.944 183.388L129.008 183.58L128.976 183.9L129.008 184.285L129.168 184.381L129.393 184.285L129.713 184.253L129.745 183.804L130.194 183.548L130.258 183.292L130.546 183.452L130.867 183.58L131.155 183.933L131.251 183.676L131.444 183.356L131.668 183.195L132.213 183.292L132.341 183.452L132.597 183.42L132.726 183.356L133.014 183.484L133.367 183.42L134.04 183.548H134.2L134.328 183.356L134.488 183.324L134.584 183.035L134.745 182.875L134.873 182.554L135.033 182.522L135.097 182.234L135.354 182.138L135.45 181.785L135.674 181.721L135.995 181.561L136.187 181.849L136.507 182.01L136.732 182.554L136.892 182.811L137.373 183.067L137.693 183.58L137.725 184.285L137.533 184.83L137.276 185.182L137.597 185.118L137.725 184.862L137.885 184.734L138.142 184.413L138.366 184.381L138.526 184.253L138.847 184.509L139.231 184.541L139.36 184.702L139.552 184.766L139.68 184.894L139.776 185.407L139.808 185.855L140.065 185.92L140.674 186.112L140.994 186.176L141.283 186.368L141.571 186.304L141.988 186.08L142.148 185.887L142.404 185.823L142.661 186.08L142.917 186.144L143.141 186.368L143.109 186.593L143.398 186.785L143.622 186.945H144.167L144.616 187.073L145 187.169L145.032 187.266L145.224 187.33L145.353 187.266L145.417 187.009L145.545 186.881L145.833 186.817L146.058 186.721L146.026 187.041L146.154 187.266L146.378 187.234L146.538 187.522L146.667 187.49L146.891 187.169L147.404 186.849L147.596 186.625L147.66 186.432L147.981 186.368L148.141 186.08L148.365 186.657L148.654 186.913L148.59 187.041L148.654 187.65L149.102 187.907L149.263 188.163L149.519 188.003L149.743 188.131L150.096 188.227L150.577 188.548L150.737 188.804H150.929L151.153 188.9L151.346 189.06L151.41 189.381L151.602 189.477L151.794 189.381L152.019 189.349L152.82 189.637L152.98 189.573L153.14 189.637L153.557 189.99L153.621 190.182L153.813 190.278L153.942 190.47L154.422 190.278L155.16 191.208L155.512 191.752L155.865 191.72L156.089 191.848L156.377 191.945L156.602 191.592L157.307 191.368L157.595 191.496L157.948 191.56L158.076 191.688L158.813 191.848L159.614 192.554L160.095 193.066L160.415 193.259L160.672 193.291L160.64 193.066L160.704 192.842L161.249 192.425H161.441L161.377 192.009L161.345 191.528L161.121 191.208L160.928 190.887V190.759L160.48 190.086L160.448 189.765L160.672 189.541L160.704 189.349L160.64 189.221L160.768 189.06L160.8 188.836L160.768 188.708L160.928 188.58L160.864 188.483L160.992 188.291L161.153 188.612L161.313 188.708L161.601 188.996H161.729L161.89 188.804L161.922 188.612L162.018 188.515V188.323L162.082 188.131L162.05 187.939L162.146 187.81L162.21 187.618L162.306 187.49L162.435 187.426L162.563 187.234L162.659 187.266L162.947 187.169L162.915 187.009V186.657L162.755 186.496L162.659 186.304L162.499 186.144L162.755 186.016V185.887L162.947 185.695L163.204 185.599L163.332 185.727L163.62 186.144H163.909L164.678 186.208H164.902L165.03 186.272L165.191 186.528L165.095 186.849V187.234L165.255 187.33L165.383 187.266L165.8 187.49L166.216 187.234L166.761 187.33L166.921 187.394L167.658 187.298L167.787 187.426L168.171 187.618L168.043 187.746L168.011 188.035L168.107 188.548H168.235L168.524 188.708L168.556 188.836L168.908 189.349L168.94 189.541L169.325 189.797L169.261 190.054L169.517 190.278V190.406L169.966 190.599H170.126L170.511 190.695H170.831L171.28 190.823L171.6 191.079L172.081 191.368L172.402 191.208L172.37 190.855L172.498 190.663L172.53 190.374L173.139 190.695H173.555L173.876 191.079L174.26 191.368L174.357 191.24L174.292 190.502L174.324 190.022L174.453 189.701L175.062 189.221L175.126 189.028L175.35 188.836L175.574 188.708L175.606 188.131L175.767 188.035L175.959 187.778L176.055 187.394L176.344 187.169L176.247 186.849V186.561L176.44 186.336L176.536 185.984L176.76 185.695L177.113 185.631L177.337 185.695L177.69 185.663L177.882 185.535L178.202 185.503L178.459 185.343L178.972 185.247L179.036 185.439L179.292 185.791L179.548 186.4L179.805 186.496L179.741 186.817V186.977L180.029 187.33L180.414 187.394L180.894 187.234L180.991 187.137L181.215 187.009H181.407L181.664 186.849H182.016L182.305 186.721L182.465 186.785L182.561 186.528L182.978 186.593L183.106 186.528L183.394 186.817L183.779 186.913L183.907 186.881L184.195 187.073L184.58 187.169H184.772L185.093 187.266L185.445 187.298L185.573 187.234H185.734L185.83 187.362L186.118 187.522L186.407 187.426L186.663 187.49L186.92 187.458L187.304 187.65L187.432 187.554H187.689L187.817 187.714L188.009 187.874L188.137 188.067L188.714 188.227L188.81 188.355L188.971 188.419L189.291 188.291L189.676 188.483V188.644L189.58 188.9L190.028 188.868L190.124 188.74L190.221 188.515H190.413L190.381 188.355L190.637 187.65L190.573 187.426L190.445 187.266L190.573 186.977L190.733 186.881L190.894 186.625L191.022 186.528L190.926 186.112L191.054 185.887L191.406 185.599L191.502 185.471L191.663 185.503L192.143 185.407L192.4 185.182L192.848 185.086L193.041 184.862L193.361 184.606L193.65 184.766L193.842 184.702L194.227 184.926L194.387 185.247L194.547 185.439L195.156 185.567L195.284 185.503H195.508L195.989 185.727L196.021 185.92H196.342V186.464L196.406 186.528L196.855 186.721L197.047 186.881L197.463 186.945L197.624 186.849L197.752 186.913L197.912 187.073L198.072 187.49L198.393 187.522L198.617 187.746L198.809 187.778L198.938 187.939L199.066 188.387L199.226 188.355L199.258 188.227L199.547 188.259L199.643 188.323L200.027 188.291L200.091 188.355L200.059 188.515L200.156 188.772L200.348 188.964L200.508 189.413L200.7 189.605L201.021 189.701L201.341 190.15L201.437 190.214V190.374L201.534 190.406L201.566 190.535L201.694 190.663L201.822 191.015L201.886 191.111L201.854 191.336L201.918 191.624L202.175 191.72L202.431 191.752L202.623 191.784L202.816 191.752L202.848 191.592L202.976 191.528L203.232 191.56L203.392 191.496L203.521 191.336L203.713 191.272L204.097 191.368L204.29 191.4L204.642 191.496L204.803 191.368L205.027 191.432L205.347 191.336L205.636 191.368L205.796 191.336L205.988 191.496L206.373 191.56L206.565 191.784H206.79L207.014 191.945L207.174 191.881L206.501 191.368V191.208L206.469 191.047L206.501 190.727L206.341 190.502L206.373 190.182L206.117 190.022L206.084 189.733L206.277 189.573L206.501 188.964L206.373 188.74L206.213 188.612L206.277 188.355L206.084 188.067L205.796 187.842L205.924 187.65L206.084 187.586L206.437 187.33L206.501 187.105L206.758 187.009L206.95 186.625L207.238 186.496L207.431 186.208L207.559 186.08L207.591 185.855L207.783 185.631V185.535L208.071 185.182L208.2 185.086L208.52 185.022L208.68 184.926V184.798L209.097 184.573L209.642 184.381L209.738 184.125L209.898 183.933L210.058 183.804L209.994 183.388L210.091 183.163L210.058 182.971L210.187 182.586L210.667 182.426M145.641 51.6045L145.994 51.4443V51.4763L145.641 51.6045ZM145.641 51.6045V51.7968L145.801 52.1173L146.186 52.6621L146.506 53.2069L146.795 53.6876L147.019 53.912L147.308 53.9761L147.244 54.1684L146.987 54.2645L146.859 54.2325L146.795 54.4248L146.923 54.5209V54.9696L147.019 55.4183L146.987 55.3221L146.923 54.9055H146.699L146.506 54.8414V54.9696L146.667 55.0016V55.3221L146.731 55.4824L146.667 55.5465L146.731 55.7708L146.795 56.1233V56.4759L146.891 56.9886L147.051 57.245L146.891 57.0848L146.763 57.2771L146.859 57.3412L146.731 57.5335V57.7257L146.827 57.9821L147.019 58.3988L147.308 58.8795L147.724 59.4884L147.949 59.6166L147.981 59.7448L148.077 59.873V60.0332L148.173 60.0012L148.205 60.2576L148.397 60.4499L148.654 60.3537L148.782 60.4499L148.75 60.6101L149.006 60.9626L148.974 61.2831L149.006 61.4754L149.231 61.7639L149.679 62.3087L150.096 62.7253L150.416 63.1419L150.961 63.7829L151.025 63.879L151.891 64.8405L152.083 64.9687L152.211 64.9046L152.243 65.161L152.339 65.1289V65.3212L152.467 65.5135L152.724 65.8661L152.82 65.9302L153.012 65.802L153.14 66.0263L153.076 66.1545L153.397 66.3788L153.365 66.4429L153.076 66.1865L152.948 66.3147L153.012 66.3788L152.884 66.475L152.948 66.6352L153.076 66.6032L153.173 66.7314L153.397 66.5711L153.205 66.7634L153.333 67.0518L153.205 67.1159L153.269 67.2762L153.108 67.3403L153.173 67.5967L153.14 67.6608L153.205 67.9172L153.397 68.2056L153.557 68.2376L153.717 68.6222L153.942 69.0389L154.23 69.3593L154.903 70.1605L155.32 70.6413L155.48 70.7695L155.833 71.1861L156.057 71.3784L156.217 71.6348L156.441 71.8271L157.114 72.436L157.531 72.8847L158.044 73.2692L158.14 73.3333L158.3 73.2692L158.332 73.4295H158.493L158.781 73.2372L158.941 73.3333L158.845 73.3974L158.973 73.5577L158.717 73.8461L158.653 74.1025L158.717 74.1986L158.557 74.2307L158.621 74.3268L158.525 74.5191H158.332L158.3 74.6153L158.396 74.7755L158.493 74.7114L158.557 75.064L158.428 74.9678V75.1601L158.749 75.5447L158.909 75.5767L159.005 75.6729L159.037 75.8331L159.134 75.9613L159.198 76.2498L159.326 76.3138V76.41L159.614 76.8266L159.774 76.9869L160.127 76.9228L160.255 77.1792L160.127 77.2753L160.191 77.4355L160.608 77.9163L160.992 78.2047H161.281V78.1086L161.633 78.4931V78.6854L161.569 78.429L161.249 78.5252L161.281 78.6534L161.217 78.9739L161.281 79.2944L161.441 79.4225L161.569 79.3264L161.794 79.4866L161.697 79.6148H161.537L161.505 79.9674L161.665 80.2558L161.922 80.4801V80.6404H162.05L162.146 80.8006L162.178 81.025L162.114 81.1211L162.563 81.6659L163.14 82.2108L163.364 82.4671L163.652 82.5633L163.748 82.4351L163.813 82.6915L163.973 82.7235V82.8517L164.133 83.044L164.101 83.0761L163.941 82.7876L163.781 82.7235L163.684 82.8838V83.012L163.909 83.0761L163.877 83.1402L163.973 83.3325L163.877 83.5568L163.909 83.7811L164.229 84.2298L164.678 84.7426L165.127 85.1913L165.992 85.9925L166.152 86.1848L166.537 86.5052L166.793 86.6655L167.178 87.0821L167.53 87.3385L167.69 87.3706L167.787 87.3065L167.979 87.5629L167.883 87.6269L167.851 87.7551L167.947 87.8833L168.075 87.9795V88.0436L168.299 88.1718L168.396 88.4923L168.299 88.5564L168.363 88.7166L168.267 88.973L168.139 89.1973L168.235 88.9409L168.203 88.8127L167.947 88.9089L167.883 89.0371L168.011 89.1973H167.851L167.819 89.614L167.947 89.646V90.0947L168.107 90.287L168.267 90.5754L168.652 91.0882L168.78 91.1843L169.101 91.633L169.325 91.7292L169.485 91.9535L169.645 92.0176L169.806 92.1137H169.677L169.742 92.4983L169.998 92.8508L170.222 93.0431L170.383 93.2995L170.671 93.62L171.248 94.1328L171.44 94.3892L171.793 94.6776L172.241 95.1904L172.434 95.3186V95.575L172.498 95.7673L172.305 95.7352V96.0236L172.434 96.1198L172.402 96.28L172.498 96.4082L172.53 96.5685L172.69 96.8249L173.203 97.3376L173.555 97.6581L173.619 97.7863L174.036 98.235L174.324 98.5234L174.421 98.5875L174.645 98.876L175.062 99.2926L175.382 99.4849L175.831 100.094L176.183 100.446L176.247 100.639L176.568 100.927L176.92 101.344L177.946 102.369L178.619 103.01L178.972 103.363L179.132 103.459L179.228 103.619L179.42 103.683L179.516 103.523H179.869L180.093 103.779V103.811L179.837 103.587H179.58V103.779L179.837 104.004L179.516 104.036L179.548 104.132L179.741 104.292L179.901 104.581L180.189 104.837L180.414 105.125L180.798 105.446L180.894 105.606L181.055 105.734L181.632 106.311L181.728 106.407L181.984 106.664L182.593 107.209L182.817 107.337L182.657 107.465L182.561 107.657V108.298L182.337 108.619L182.24 108.971L182.369 108.683L182.625 108.33V107.689L182.978 107.369L182.913 107.465L183.042 107.593L183.138 107.497L183.106 107.753L183.138 108.01L183.234 108.138L183.266 108.362L183.362 108.555L183.619 108.939L183.779 109.292L183.971 109.452L184.099 109.484V109.612L184.484 109.933L184.74 110.285L184.9 110.445L185.029 110.638L185.285 110.798L185.381 111.086L185.445 111.375L185.541 111.535L186.247 112.24L186.439 112.464L187.304 113.298L187.56 113.522L187.721 113.714L188.073 114.035L188.266 114.099L188.362 114.227L188.49 114.195L188.65 114.355L188.618 114.419L188.746 114.516L188.778 114.644L189.163 114.996L189.387 115.221H189.483V115.573L189.644 115.669L189.612 116.054L189.483 116.246V116.374L189.259 116.567L189.419 116.663L189.515 116.855L189.451 117.015L189.612 117.176L189.547 117.272L189.644 117.368L189.483 117.592L189.515 117.817L189.419 117.881L189.355 118.041L189.259 118.073L189.227 118.393L189.067 118.714L189.195 118.393V118.105L188.971 118.169L188.81 118.329V118.49L188.65 118.65L188.554 118.938V119.099L188.394 119.323L188.426 119.675L188.49 119.996L188.682 120.445L189.003 121.086L189.163 121.31H189.708L190.381 121.694H190.285L189.74 121.374L189.355 121.342L189.387 121.406V121.887L189.9 121.983L189.932 121.759V122.239L190.06 122.335L190.253 122.624L190.221 122.656L190.573 123.137L190.926 123.489L191.534 124.066L191.855 124.354L192.079 124.483L192.784 125.06L192.945 125.252L193.297 125.476L193.586 125.765L193.714 125.797L194.323 126.374L194.675 126.662L194.835 126.694L195.284 127.079L195.38 127.335V127.688L195.316 128.008L195.38 128.136L195.701 128.553L195.605 128.777L195.637 128.905L195.925 129.258L195.669 129.001L195.733 129.226V129.418L195.829 129.514L195.765 129.867L195.476 130.54L195.508 131.245L195.733 131.79L195.669 131.758L195.412 131.085L195.38 130.636L195.316 130.476L195.38 130.283L195.092 130.315L194.932 130.572L195.124 130.7L195.092 130.764L194.9 130.7L194.932 130.828L194.964 131.181L195.092 131.309L195.06 131.662H195.316L195.252 131.694V132.078L195.188 132.238L195.412 132.559L195.573 132.655L195.765 133.008L195.829 132.975L195.893 133.168H196.053L196.021 133.328L196.117 133.424V133.649L195.957 133.745L195.893 133.905L195.925 134.129L196.085 134.45H196.182L196.31 134.61V134.738L196.438 134.995L197.079 135.956L197.175 136.02L198.136 136.661L198.521 136.821V136.853L198.136 136.693L197.143 136.052L197.111 136.116L196.726 136.373L196.951 136.725L197.047 136.693L197.207 136.95L196.085 137.655L196.31 138.039L197.752 137.142L197.944 137.206L197.72 137.398L197.88 137.59L198.04 137.623L198.169 137.558L198.104 137.43L198.169 137.334L198.233 137.526L199.258 138.776L199.354 138.872L199.322 139.001H199.579L199.45 139.193L199.515 139.385L199.835 139.738L200.059 139.706L200.027 139.962L200.764 140.667H200.861L201.021 140.859L201.213 140.924L201.373 140.859L201.405 141.052L201.47 141.148L201.405 141.244H201.598L201.63 141.404L201.886 141.661L202.014 141.693L202.078 141.821L202.11 142.077L202.046 142.238H202.239L202.367 142.366L202.335 142.558L202.399 142.75L202.303 142.846L202.399 143.135L202.559 143.423H202.655L202.719 143.648L202.816 144.385L202.944 144.577L202.783 144.449L202.623 144.064L202.431 143.936H202.207L202.11 144L202.463 144.032V144.128H202.303V144.449L202.527 144.481L202.687 144.609L202.527 144.898L202.591 145.186L202.687 145.314L202.559 145.41L202.591 145.571L202.655 145.699H202.848V145.987L203.008 146.212H203.104L203.008 146.34L203.072 146.436L203.104 146.66L203.649 147.365L204.386 148.134L204.674 148.359L204.771 148.487L204.963 148.615L205.251 148.872L205.668 149.224L206.373 149.705L206.758 149.929H207.142V150.089L207.463 150.378L208.232 150.923L208.424 151.019L208.68 150.987L208.841 151.051L208.777 151.179L208.616 151.211L208.552 151.564L208.584 151.179H208.456L208.424 151.339L208.296 151.435L208.36 151.628L208.2 151.82L208.296 151.948L208.232 152.14L208.296 152.429L208.232 152.621V152.91L208.2 153.006L208.328 153.23L208.456 153.487L208.712 153.679L208.744 153.999H208.873L208.905 154.16H209.033L209.001 154.256L209.161 154.288L209.129 154.64L209.193 154.768L209.129 154.929L209.257 155.025L209.289 155.249L209.418 155.185L209.45 155.281L209.61 155.313L209.738 155.474L209.61 155.602L209.674 155.858L209.802 155.922L209.706 156.147L209.642 156.787L209.674 156.916L209.93 156.948L209.866 157.14L210.026 157.108L210.058 157.268L209.898 157.428L209.994 157.525L209.962 157.813L210.091 158.037L210.443 158.454L211.212 159.095H211.34L211.501 159.287L211.757 159.448L212.013 159.512L212.142 159.415L212.366 159.448V159.319L212.494 159.191L212.751 159.415V159.576L212.847 159.704L212.975 160.024L212.911 160.153L213.071 160.249L213.103 160.633L213.039 160.665L212.943 160.954V161.402L213.135 161.659L213.424 161.851H213.616L213.584 161.755L213.808 161.691L213.84 161.851L213.776 161.947L213.872 162.236L214.161 162.332L214.289 162.268L214.353 162.14L214.577 162.236L214.545 162.043L214.321 161.915L214.289 161.851L214.577 162.011L214.673 161.819L214.866 162.108L214.898 162.268L214.834 162.492L214.93 162.781L215.058 162.749L215.122 162.877L215.282 162.909L215.475 163.037L215.667 162.973L215.635 163.133H215.731L215.699 163.454L215.539 163.486V163.742L215.699 163.902L215.667 164.223L215.539 164.415V164.479L215.731 164.575L215.635 164.607L215.699 164.864L215.603 164.671L215.475 164.768L215.539 164.864L215.571 165.056L215.763 165.152L215.923 165.344L216.212 165.409V165.697H216.372L216.34 165.857L216.532 165.985L216.757 165.953L216.789 166.242L216.917 166.306L216.885 166.466L216.949 166.53L216.853 166.69L216.949 166.819L217.173 166.851L217.366 166.819L217.558 166.915L217.526 167.139V167.396L217.59 167.492L217.622 167.716L217.686 167.94L217.942 168.165H218.167V168.325L218.327 168.357L218.103 168.613L217.91 168.677L217.686 168.902L217.398 169.03L217.269 169.35L217.205 169.703V169.318L217.301 169.094H217.045L216.981 169.479L216.821 169.767L216.789 169.959L216.981 170.248L217.045 170.28L217.205 170.632L217.173 170.729L217.301 170.889L217.366 171.177H217.462L217.494 171.402L217.366 171.594V171.882L217.269 171.946L217.301 172.331L217.077 172.491L217.045 172.651L217.109 172.684L217.013 172.844L216.949 173.068L216.981 173.196L217.205 173.228L217.237 173.357L217.301 174.638L217.398 174.799L217.43 175.472H217.269L217.301 175.6L217.109 175.504H216.981V175.632L217.141 175.728V175.985L217.205 176.081L217.878 175.6L217.654 175.792L217.782 176.049L218.295 176.754L218.103 176.818H217.878L217.974 177.298L218.263 177.491L218.487 177.715L218.551 178.036L218.712 178.292L218.68 178.388L218.968 178.901L219 179.093M219 179.093V179.093ZM219 179.093L218.84 179.253L218.391 179.221L218.135 179.157L217.782 179.061L217.173 179.125L216.885 179.253L216.853 179.318L216.628 179.221L216.532 179.478L216.372 179.638L216.148 179.574L216.116 179.702L215.955 179.798L215.731 179.702L215.635 179.766L215.507 179.606H215.218L215.122 179.734L215.09 180.023L214.994 180.087L214.898 180.343L214.738 180.375V180.567L214.673 180.664L214.321 180.76L214.161 180.856L213.968 180.824L213.936 181.08L213.776 181.24L213.584 181.273H213.231L213.007 181.401L212.943 181.593L212.847 181.721L212.686 181.689L212.622 182.01L212.43 182.202L212.334 182.939L212.046 182.971L211.757 182.843L211.469 182.586L211.18 182.715L210.667 182.426M210.667 182.426V182.426Z" stroke="#0552B5"/>
</svg>
