<svg width="143" height="170" viewBox="0 0 143 170" fill="none" xmlns="http://www.w3.org/2000/svg">
<path fill-rule="evenodd" clip-rule="evenodd" d="M2.49688 144.001L2.39688 143.801L2.19687 143.501H1.79688L1.69688 143.301L1.39688 143.101V143.201V142.801L1.29688 142.501V142.401L1.39688 142.101H1.69688L1.79688 141.901L1.99687 141.801V141.901L2.09688 142.001H2.39688V142.101H2.59687L2.69687 142.301H2.59687V142.501H2.69687V142.801L2.79688 143.101L2.69687 143.201L2.79688 143.601V143.801L2.49688 144.001Z" fill="white" stroke="#0552B5"/>
<path fill-rule="evenodd" clip-rule="evenodd" d="M35.9016 108L36.3016 107.7L36.7016 107L37.0016 106.6L37.1016 106L37.4016 105.5V105.4L37.8016 104.8L38.1016 104.7L38.5016 104.5L38.7016 104.3H38.5016L38.6016 104.1L38.7016 103.8L38.8016 103.5L38.7016 103.2L38.6016 102.7V102.6L38.8016 102.5V102.3H38.7016L38.8016 102.1L38.7016 102L39.0016 101.7H39.2016L39.3016 101.6L39.5016 101.5L39.6016 101.4V101L39.4016 100.9V100.6L39.5016 100.5L39.4016 100.2L39.6016 99.9V99.5L39.4016 99.3L39.5016 99.1H39.4016L39.1016 99.2L38.9016 99.1H38.8016H38.5016L38.4016 98.9L38.2016 98.7H37.9016L37.8016 98.5L37.7016 98.6L37.6016 98.4L37.5016 98.3L37.3016 98.2V98V97.8L37.0016 97.6L36.8016 97.5H36.7016H36.4016L36.0016 97.3V97.1V96.3L36.2016 95.5L36.1016 95.3L36.0016 94.6L36.2016 94.5L36.3016 94.1V93.9H36.8016H37.0016L37.1016 93.7H37.4016L37.7016 93.8V93.4L37.8016 93.3V93L37.7016 92.7L37.8016 92.6L37.7016 91.5L37.8016 91.3V91.2H37.9016L37.8016 91H37.9016L37.8016 90.8H38.0016L37.8016 90.7L38.1016 90.6L37.9016 90.5L38.0016 90.4V90.1L38.1016 89.8V89.7H38.2016L38.1016 89.6L38.2016 89.5L38.3016 89.3V89.2H38.4016V89.5L38.7016 89.6V89.7L38.8016 89.9L39.2016 89.8L39.3016 89.9L39.4016 90.1L39.8016 90.2H40.3016L40.4016 90.3L40.7016 90.5H40.8016V90.7H41.1016L40.9016 90.9L41.0016 91.1V91.2V91.4L41.2016 91.3L41.5016 91.2L41.4016 90.9L41.6016 90.8L41.5016 90.7L41.7016 90.6L41.9016 90.5H42.2016L42.7016 90.8H43.1016H43.7016V91.3L43.6016 91.5L43.7016 91.7L44.0016 92.1L44.2016 92.2V92.5L44.3016 92.6L44.0016 92.8V92.9V93.3L43.9016 93.6L43.8016 93.8L43.9016 94L43.8016 94.4L43.9016 94.7L43.7016 94.8V95.1L43.6016 95.2V95.5L43.4016 95.6V95.8L43.1016 96L42.9016 95.9L42.8016 96.2L42.9016 96.4V96.5L43.3016 96.7L43.7016 96.9L43.8016 97.1H43.6016L43.7016 97.3L43.4016 97.4V97.9H43.5016L43.3016 98.3L43.2016 98.4L43.0016 98.6L42.9016 98.8L43.1016 98.9L43.2016 99L43.3016 98.8V98.7H43.4016V98.6H43.7016H43.9016H44.2016H44.3016L44.5016 98.4L44.7016 98.5L44.9016 98.6V98.8H45.0016L45.2016 98.7L45.4016 98.8L45.6016 98.7L45.9016 98.8V98.9L46.0016 98L46.2016 97.9H46.4016H46.6016L46.7016 97.8L46.8016 97.5L47.1016 97.4L47.4016 97L47.5016 96.8H47.7016L48.0016 96.5V96.4L48.2016 96.2L48.3016 97L48.4016 96.8L48.7016 96.9L48.5016 97V97.1H48.6016H48.9016L48.8016 97.3H48.7016V97.5H48.5016V97.8L48.8016 98.5L48.9016 98.6L49.3016 99.3L49.4016 99.5L49.5016 99.6L49.7016 99.8L49.5016 99.9V100L49.6016 100.2L49.9016 100.1L50.0016 100.3L49.7016 100.5L49.8016 100.6L49.7016 100.8L49.9016 101.1L50.1016 101.2V101.5H50.4016L50.6016 101.4L51.0016 102.6L51.1016 102.9H51.0016V103.1L51.4016 103.4V103.7H52.0016L52.1016 103.5L52.2016 103.4V103.2L52.5016 103L52.9016 102.9L53.0016 102.8L53.2016 102.4L53.3016 102.2L53.5016 102.1L53.7016 101.9L53.9016 101.7L54.0016 101.9L54.1016 102.2V102.3L54.4016 102.5L54.7016 102.7L54.8016 102.9L54.7016 103.1L54.8016 103.5L54.9016 103.4H55.1016L55.2016 103.3L55.5016 103.2L55.7016 103.1H56.0016L56.1016 103L56.4016 103.1L56.7016 103L56.8016 102.9L57.2016 102.8L57.3016 102.7L57.2016 102.4L57.4016 102.2H57.6016L57.7016 102.1H57.8016L58.1016 102H58.2016L58.4016 101.7H58.5016L58.7016 101.5L58.9016 101.4L59.0016 101.1V101L59.4016 100.9L59.6016 100.8L59.8016 100.5H59.9016L60.0016 100.4L60.4016 100.3V100.1L60.3016 100L60.4016 99.7L60.5016 99.6L60.7016 99.7H61.0016L61.1016 99.8L61.2016 100.3L61.3016 100.6L61.5016 100.7L61.7016 101.1H61.9016L62.1016 101.2L62.4016 101H62.6016H62.8016L62.9016 100.9L63.1016 100.8H63.2016V100.6H63.4016V100.4L63.5016 100.1V99.9L63.7016 99.8L64.0016 100L63.9016 100.4L64.0016 100.6V100.8L64.2016 101V101.2L64.1016 101.4L64.2016 101.6L64.3016 101.9L64.2016 102V102.2L64.3016 102.3V102.5L64.1016 102.9V103.1H64.3016H64.6016L64.9016 103.5L65.0016 103.7H65.1016L65.2016 104.1H65.4016L65.6016 104.3L66.2016 104.2H66.4016L66.5016 104.1L67.0016 104.3L67.1016 104.1H67.3016H67.4016L67.5016 103.9L67.4016 103.8L67.5016 103.6V103.4L67.8016 103.3L67.7016 103.1L67.6016 103L67.5016 102.7H67.9016L68.3016 102.8L68.4016 102.9L68.6016 102.8L68.7016 102.5L69.0016 102.4L69.1016 102.3L69.2016 102L69.1016 101.9L69.3016 101.6L69.4016 101.4L69.6016 101.3V101.1L69.7016 101H70.1016L70.4016 100.7V100.6L70.6016 100.5L70.7016 100.4V100.3H70.8016L71.4016 100.4L71.6016 100.5L71.7016 100.6L71.9016 100.8L72.1016 100.1L72.4016 99.7H72.7016L72.6016 99.4L72.8016 99.5L73.2016 99.6L73.4016 99.5L73.3016 99.4L73.4016 99.2V98.8H73.6016H74.4016L74.5016 98.4L74.8016 98.5V97.9L75.0016 97.5L75.1016 97.4L75.8016 96.9L76.0016 96.6V96.3V96.1L76.1016 95.9L76.2016 95.7L76.0016 95.6L75.9016 95.3H75.8016L75.7016 95.5L75.2016 95L75.1016 95.1L74.8016 95.3H74.7016L74.2016 95.1V94.9L74.1016 94.7V94.4L74.2016 94.2L74.3016 94.1L74.4016 94L74.2016 93.8H74.5016H74.6016L74.5016 93.4L74.6016 93.1L74.8016 93L75.0016 92.6L75.3016 92.2L75.4016 91.9H75.6016V91.7L75.7016 91.5L75.6016 91.2L75.8016 90.9L76.0016 90.7L76.3016 90.3L76.6016 90.4L76.7016 90.3H76.9016L77.1016 90.2L77.5016 90.3L77.4016 90.2L77.5016 90.1L78.1016 90L78.2016 90.1V89.5L78.1016 89.4V88.7V88.3L77.9016 87.8L77.8016 87.6L77.7016 87L77.5016 86.6V86.3V86H77.4016H77.1016L76.7016 86.2L75.9016 86.9H75.6016L75.4016 87.2L75.0016 87.3L74.7016 87.5L74.0016 87.4L73.1016 87.8L72.4016 88L72.1016 88.4L71.9016 88.7L71.8016 88.9L71.5016 88.8L71.6016 88.6L71.5016 88.5H71.2016L71.0016 88.8L70.7016 89L70.6016 88.8L70.5016 88.6L70.4016 88.4L70.5016 87.9V87.7L70.6016 87.1V87L70.3016 86.9V86.6L70.5016 86.2V86.1L70.6016 85.9L71.1016 85.7L71.2016 85.5V85L71.5016 84.5L71.8016 84.3V84L71.7016 83.9L71.6016 83.7L71.7016 83.4L72.0016 83.2V82.7L71.9016 82.6V82.1V81.9V81.5L71.8016 81.3H71.6016L71.3016 81.1L71.1016 81.2L70.8016 81.1L70.6016 81V80.9L70.7016 80.6L70.8016 80.4L71.2016 80L71.4016 79.8V79.4V79.3L71.3016 79L71.4016 78.8L71.3016 78.5L71.2016 78.4L70.9016 78.2L70.3016 78.1L70.2016 78.2L69.6016 78.1L69.5016 78V77.6L69.7016 77.2L69.6016 77L69.4016 76.7L69.5016 76.3L69.7016 76L69.8016 75.6V75.4V75V74.6L69.6016 74.3L69.5016 74.2L69.6016 73.7L69.9016 73.4V73.2V72.9H69.7016L69.6016 72.8L69.3016 72.9L69.2016 72.8L68.9016 72.7L68.8016 72.5L68.7016 72.3L68.5016 71.9H68.3016L67.8016 72.1L67.6016 72.3H67.4016L67.2016 72.2H67.0016H66.6016V72.4L66.4016 72.6L66.3016 72.8L66.0016 72.9L65.5016 73.2V72.9V72.6L65.4016 72.3L65.1016 72.5H65.0016L64.8016 72.1L64.7016 72.2L64.4016 72.4L64.2016 72.5L64.0016 72.7L63.8016 72.5V72.4L63.7016 72.3L63.5016 72V71.8L63.4016 71.6L63.3016 71.5L63.0016 71.6H62.8016L62.6016 71.4H62.4016H62.2016L62.1016 71.7L61.8016 71.8L61.7016 71.9L61.6016 72.1L61.5016 72.5V72.9V73.1V73.4H61.4016H61.2016H61.0016L60.9016 73.5H60.8016H60.6016L60.5016 73.4L60.3016 73.3L60.2016 73.5L60.3016 73.6V73.8L60.1016 74L59.9016 74.1L60.0016 74.2V74.5L60.1016 74.6V74.7V75.6L60.0016 75.8L59.8016 75.9L59.5016 76.1L59.4016 76.3L59.2016 76.6L59.0016 76.8L58.7016 76.9L58.8016 77.2L58.9016 77.4L59.1016 77.7V77.8L59.2016 77.9V78.1L59.1016 78.4L59.2016 78.6H59.3016V78.7L59.2016 79.2L59.1016 79.3L58.9016 79.5L58.7016 79.6H58.5016L58.3016 79.8L58.1016 79.7L57.6016 80L57.3016 79.9L57.2016 80L56.8016 80.1L57.0016 79.8L57.2016 79.6L57.0016 79.1L56.8016 78.5V78L56.6016 77.7V77.6V77.3L56.2016 77H56.0016L55.7016 76.7V76.5L55.1016 76.7L54.9016 76.8L54.6016 77.4L54.3016 77.5H54.0016L53.9016 77.6L53.7016 77.8L53.3016 78.1L52.6016 78.2H52.4016H52.3016L51.9016 77.9L51.6016 77.7L51.9016 78L52.3016 78.3L52.1016 79L52.2016 79.3L51.8016 79.6L51.7016 79.8L51.8016 80L52.0016 80.2V80.5L51.7016 80.7L51.8016 81L51.6016 81.1V81.3L51.4016 81.4L51.3016 81.7H51.4016L51.2016 82.1V82.3L51.3016 82.4V82.8V82.9V83.2L51.1016 83.3V83.4L51.3016 83.8L51.2016 84L51.3016 84.2L51.0016 84.5L51.1016 84.9H51.0016L50.8016 85H50.5016H50.3016H50.1016H49.8016L49.7016 84.7L49.8016 84.5L49.7016 84.4L49.6016 84.6L49.2016 84.9L49.1016 85.2L48.9016 85.3V85.5V85.6V85.9V86.1V86.3H48.5016L48.1016 86.4H47.7016L47.4016 86.6L47.2016 86.7L46.7016 86.8H46.4016L46.1016 86.5L45.5016 86.1L45.3016 86L44.9016 85.8L44.7016 85.6L44.3016 85.3V85.1L43.9016 84.8L43.8016 84.7L43.0016 84.1L42.5016 83.4L42.2016 82.9H41.9016L41.6016 83.2V83.5L41.3016 83.6V83.9V84.3L41.6016 84.6H41.4016V84.7L41.6016 84.9V85.1H41.4016L41.3016 85.4L41.2016 85.5L41.3016 85.6L41.1016 85.7V85.4H41.0016V85.7L40.9016 85.5V85.9L40.3016 85.4L40.0016 85.8L39.8016 85.6L39.5016 85.5H39.3016L39.2016 85.4H38.9016L38.4016 85.1V85.2L38.1016 85.4L38.0016 85.5H37.6016L37.5016 85.4L37.3016 85.7V86L36.9016 86.1V86L36.7016 85.9V85.5L36.5016 85.2L36.4016 85H36.3016L36.2016 84.7H36.0016V84.6L35.7016 84.7V84.5V84.4L35.5016 84.5L35.4016 84.8L35.2016 84.7L35.0016 84.6L34.8016 84.5L34.4016 84.6L34.0016 84.1L33.5016 83.7V83.2H33.3016V83.3L33.2016 83.2L33.1016 83L32.8016 83.1L32.6016 83.2L32.4016 83.3L32.3016 83.2L32.4016 82.8H32.5016L32.6016 82.4L32.5016 82.2L32.3016 82L32.0016 81.9L31.8016 81.5H31.7016L31.4016 81.2H31.3016L31.1016 81H30.9016L30.4016 80.6L30.3016 80.7V80.5H30.2016L30.1016 80.1L30.0016 80H29.7016H29.6016L29.4016 79.6L29.0016 79.4L28.7016 79.3L28.3016 79.2L28.1016 79L27.9016 79.1H27.7016L27.4016 78.9L27.3016 79.1L27.4016 79.2L27.3016 79.4L27.2016 79.5V79.6L27.0016 80L26.9016 80.3L26.7016 80.2L26.5016 80.3L26.3016 80.2L26.2016 80.3H26.0016V80.6V80.8L25.9016 81V81.2L25.7016 81.3H25.6016V81.5L25.4016 81.6L25.5016 81.7L25.4016 82L25.2016 82.3V82.5L25.1016 82.8V82.9L24.9016 83.1L24.8016 83.3L24.6016 83.4L24.4016 83.2H24.0016L23.9016 83L23.7016 82.9L23.5016 83L23.3016 83.1L23.1016 83.5L22.7016 83.8L21.6016 84.5L20.1016 85.3L19.9016 84.8L18.7016 83.6L18.6016 83.5L18.3016 83H18.2016L18.1016 82.7V81.8L18.0016 81.3L17.8016 80.7L17.7016 80.5L17.8016 80.4L17.7016 80.2H17.6016L17.4016 79.5L17.1016 79.1V78.9L16.9016 79H16.8016L16.7016 78.9H16.6016V78.7L16.5016 78.2L16.4016 78L16.2016 77.6L16.1016 77.4L15.9016 77L16.2016 76.9H16.4016L16.5016 76.6H16.7016H16.8016L17.0016 76.3L16.9016 75.9L16.6016 75.8V75.6L16.7016 75.4L16.6016 75.3L16.4016 75.2V75.1L15.9016 74.9L15.8016 74.8L15.7016 74.9L15.4016 74.8L15.6016 74.3H15.7016L15.8016 74L16.0016 73.3L16.1016 73.1L16.0016 72.3V72.1V71.8L15.9016 71.3L15.7016 70.8L15.4016 70.6L15.1016 70.3L15.0016 70.1L14.9016 69.9V69.2L15.0016 68.6L15.2016 68H15.4016L15.3016 67.7H15.4016V67.6L15.6016 67.1L15.7016 66.4V66L15.8016 65.9L15.7016 65.5L15.6016 65.2L15.3016 64.7L14.9016 64.4L14.7016 64.2L14.6016 64V63.8L15.0016 63.4L15.2016 63.3L15.3016 63.4L15.4016 63.2L16.2016 63L16.3016 62.9L16.5016 63.1L17.2016 63.2V63.1L17.7016 63.3H18.1016L18.4016 63.4L18.7016 63.7L19.2016 63.2L19.6016 63.7L20.0016 64L20.3016 64.1H20.7016L21.6016 63.9L22.7016 63.7L23.2016 63.3L24.0016 62.2L24.8016 61.6L26.0016 61.4L27.0016 61.5L27.4016 61.8L27.8016 61.5L27.9016 61.2L28.1016 60.7L28.0016 60.2L27.6016 59.3V58.8V58.6L28.0016 57.9L28.4016 57.3L28.7016 56.8L29.0016 55.9L29.5016 55.4L31.1016 54.7L31.0016 54.2L30.9016 53.5L30.8016 53L30.6016 52.2L30.5016 51.4V51L30.4016 50.6V47.3L30.9016 45.9L30.8016 45.3L29.9016 44.9L29.8016 44.2L29.5016 44V43.7L29.2016 43.2L29.3016 42.5L29.1016 42.4L29.0016 42L29.1016 41.7L29.3016 41.4L29.2016 41.1L29.1016 40.6H29.2016V40.3H29.4016L29.6016 40.4L29.9016 40.7H30.1016L30.2016 40.5L30.7016 40.2H30.9016L31.4016 40.5L31.5016 40.6L31.7016 40.7L31.9016 40.9L32.4016 41L32.6016 40.9H32.8016L33.5016 40.7H34.0016L34.7016 40.2L35.2016 40.1L35.5016 39.5L35.8016 39.2L36.3016 38.9L36.6016 38.6H37.5016L37.9016 38.4L38.4016 37.8L38.8016 37.4L39.7016 37.7L39.9016 37.1L40.0016 36.9L40.2016 36.4L40.7016 35.6H41.1016H41.8016L42.7016 35.3L43.3016 34.8L43.8016 34.3V33.8L43.9016 33.3L44.3016 32.8L44.7016 32.2L45.1016 31.7L45.5016 31.1L46.0016 31.2L46.6016 31.1L46.4016 30.9L46.5016 30.7L46.6016 30.5L47.0016 30.4L46.9016 30.2L47.2016 28.7L47.5016 28V27.3V27.1L47.8016 27V26.9L48.0016 26.8L48.1016 26.4L48.0016 26.2H48.2016V26.1L48.1016 25.9L48.2016 25.8L48.3016 25.7L48.1016 25.6L48.0016 25.3L48.2016 24.9H48.1016L48.2016 24.8L48.3016 24.5L48.5016 24.3L48.6016 23.8L48.7016 23.7V23.4H48.9016V23L49.0016 22.9H49.1016L49.4016 22.6L50.2016 22.8L50.9016 23L51.1016 22.7L51.3016 22.3L51.6016 21.8L51.8016 21.7L52.0016 21.2L53.3016 20.7L53.8016 20.3L54.4016 19.8H54.7016L54.9016 19H55.6016L55.8016 18.9L56.4016 19L56.7016 19.1L56.9016 19L57.3016 18.8L57.4016 18.6L57.8016 17.7V17.6L57.7016 17.3L57.3016 17L56.8016 16.8L56.6016 16.6L56.2016 16.3L55.8016 16L56.1016 15.5L56.4016 15.4L56.8016 15.1L57.3016 14.7L57.4016 14.1L57.5016 13.6L57.7016 13L57.8016 12.7L57.2016 12.1L58.4016 11L58.7016 10.4L59.3016 9.2L59.6016 8.9H60.7016L61.2016 8.2L61.6016 7.6L61.9016 7.3L62.1016 6.7L62.6016 6.4L63.1016 6.1L63.4016 5.7L63.5016 5.2L63.8016 4.9L64.3016 4.6L64.7016 3.7H65.6016L66.1016 3.8L66.3016 3.3L67.2016 3.1L67.3016 2.9L67.5016 2.8L67.7016 2.4L68.1016 2.1L68.0016 1.7L68.1016 1.5L69.8016 1.3L69.9016 1H70.3016L70.7016 1.1V1.3L70.5016 1.5L70.4016 1.6L70.3016 1.8L70.4016 2L71.2016 2.2L71.3016 2.4L71.1016 2.5V2.6L71.2016 2.7L71.1016 3.3V3.4L71.2016 3.5L71.1016 3.6V3.7L71.3016 3.8L71.1016 3.9L71.2016 4.5H71.3016V4.9L71.4016 5.3L71.2016 5.4V5.8L71.4016 5.9L71.5016 6.3L71.6016 6.5H71.9016L72.1016 6.6L72.3016 6.8L72.4016 6.9L72.8016 6.8L73.1016 6.9H73.2016L73.6016 6.8L73.7016 6.5L74.1016 6.3L74.4016 6.4V6.3L74.7016 6.1L74.9016 5.7H75.0016L75.4016 5.8V6L75.8016 6.2L76.1016 6.1L76.4016 6.2L76.2016 6.7V7L76.1016 7.3L76.0016 7.5L75.9016 7.8L76.1016 8.1V8.3L75.9016 8.5L76.0016 8.6L76.3016 8.9L76.6016 9L77.1016 9.3L77.2016 9.7L77.4016 10.3V10.4L77.3016 10.7L77.2016 10.9L76.9016 11.2L77.0016 11.3L77.2016 11.5L77.5016 12L77.6016 12.1L77.8016 12.4L78.1016 12.7L78.5016 12.3H78.7016L78.9016 12.2L78.7016 12.7V13.3L78.6016 13.6V13.8L78.5016 14.2V14.6L78.8016 15.1V15.7L79.1016 15.9H79.2016L79.3016 16.1L79.7016 16.3L79.9016 16.5H80.1016L80.7016 17.4H80.9016L81.0016 17.5V17.7L81.4016 17.9L81.6016 18.3L81.8016 18.4L82.0016 18.6V18.3L82.1016 18.1L82.2016 17.9L82.0016 17.6L82.1016 17.4L82.5016 17.3H82.7016L82.8016 17.2V17.3H83.1016L83.3016 16.9L83.4016 16.8V16.6H83.5016L83.4016 16.5L83.5016 16.3L83.8016 16.1L84.2016 16L84.4016 15.7H84.6016L85.0016 15.4H85.2016V15.2L85.4016 14.8V14.6L85.6016 14.5H85.7016L86.0016 14.3L86.2016 13.8L86.0016 13.6L86.1016 13.4L86.2016 13.3H86.3016L86.5016 13.1H86.6016L87.0016 13.2L87.1016 13L87.3016 13.1L87.5016 13H87.7016H87.8016H87.9016V13.3H88.1016L88.3016 13.6L88.6016 13.7H88.7016L89.1016 13.8L89.2016 13.9V14L88.9016 14.2H88.7016L88.5016 14.3V14.5H88.4016L88.2016 14.7V15.2L88.1016 15.7L88.0016 15.8L87.9016 15.9L88.0016 16.2L88.1016 16.6L88.2016 16.9L88.0016 17.1L87.9016 17.5L87.6016 17.8L87.2016 18.3L87.0016 18.6L87.1016 18.9L87.2016 19V19.7V20H87.5016L87.7016 20.1V20.4V20.6V20.8L87.8016 20.9V21L88.0016 21.1L88.2016 21.2L88.4016 21L88.6016 21.1V21.3H88.8016L89.5016 21.1L89.7016 21.2L90.0016 21.1L90.1016 20.8L90.4016 21.2L90.6016 22.2L90.9016 22.8L91.1016 23.2L91.3016 23.4L91.8016 23.6L92.2016 23.7L92.6016 24L92.9016 24.3L93.0016 24.2L93.1016 24V23.5L93.2016 23.3V22.9H93.5016L94.1016 22.5H94.6016L95.1016 21.8L95.5016 21.7L96.0016 21.6L96.3016 21.4L97.1016 20.7H97.9016L98.3016 20.9L98.8016 21L99.0016 21.2H99.3016L99.5016 21.5L99.8016 22.6L100.002 22.9H100.302L100.502 22.5L101.002 22.2L101.302 21.9L101.502 21.6L101.902 21.2L102.102 21.5L102.202 21.8H102.602L102.802 22.1L103.102 23.1L103.202 23.4L103.102 23.7L103.302 23.9V24.3V24.6L103.402 25L103.502 25.6L103.202 26.2L103.502 26.6L103.402 27.3L103.302 27.9L103.102 28L103.402 28.6L103.302 29L103.702 29.2L103.802 29.4L104.002 29.5L103.902 30.5L104.002 31.1L104.102 31.4L104.202 31.6L104.402 32L104.202 32.4L104.502 32.9V33.4L104.902 33.6L105.302 34L105.602 34.1L106.102 34.5H106.402H106.802L107.402 34.7L107.702 34.6L108.302 34.8L108.402 35.1L108.602 35.2L108.902 35.5L109.102 35.3L109.402 35.1L109.702 35.2H110.202L110.502 35H110.902L111.302 35.1L111.602 34.9L112.002 35.2L112.202 35.3L112.402 35.4H112.502L112.602 35.8V36.1L112.702 36.6L112.802 36.8L112.902 37V37.2L113.102 37.8L113.002 37.9L112.802 38.1L112.702 39.1L113.002 39.2L113.302 39.4L113.502 39.3L114.302 39.7L114.502 39.8L114.702 39.7H114.902L115.502 39.6L116.002 39.7V39.8L116.302 39.9H116.602L117.002 40L117.502 40.4L117.702 40.5H118.102L118.302 40.6L118.402 40.8V41.1L118.302 41.5L118.502 41.8V42L119.002 42.1V42.2L119.402 42.6V42.8L119.602 43.2V43.4L119.702 43.5V43.8L119.602 44L119.402 44.2L119.302 44.3V44.6V44.9L119.502 45V45.3L119.602 45.5L119.802 46.1L119.702 46.5L119.802 46.6L119.602 46.8L119.502 47.1V47.3L119.402 47.5H119.302L119.102 48.1H119.002L118.802 48.6V48.9L118.902 49.2V49.5L118.702 49.9V50.2L118.502 50.4H118.102L117.602 50.3H117.202H116.902H116.602L115.902 50.5L115.702 50.8L115.602 51H115.502L115.402 51.2H115.202L115.102 51.5L115.002 51.6L114.802 52V52.2L115.002 52.3L114.702 52.4L114.502 52.8H114.202L113.902 52.9L113.502 53L113.402 53.2L113.302 53.9L112.702 53.8L112.102 54L111.802 54.3L111.402 54.6L111.102 55.1L110.902 55.7V56.4L111.202 56.9L111.702 57.1L112.002 57.6L112.102 58.1L111.902 58.4L111.402 58.9L110.602 60.3V60.5L110.702 60.8L111.002 61.2L111.302 61.5L111.902 62.3L112.202 62.7L112.502 63.3L112.702 63.8L112.802 64.3L112.702 64.6L112.502 65L112.002 65.5L111.302 66L110.202 66.7L109.702 67.1L109.302 67.5L109.202 68.2V68.9L109.402 69.3L109.602 69.7L110.002 69.2L110.302 68.9L110.902 68.4L111.202 68.3L111.502 68.5L111.702 68.9L112.102 69.1L112.502 69.2L112.902 68.9L113.202 68.6L113.402 68.3L113.602 68.1L114.002 68L114.402 68.2V68.5L114.602 68.7V68.9L114.402 69.1L114.302 69.5L114.102 69.7V69.9V70.3V70.9L113.902 71V71.4L113.802 71.8L113.602 72.2V72.6L113.402 72.8L113.302 73.5L113.402 73.8L113.302 74L113.402 74.3L113.302 74.5V75L113.202 75.5L113.302 75.7L113.502 75.8V75.9L113.602 76.2L113.002 76.7L112.802 76.9L112.702 77.4H112.402L112.002 77.5L111.902 78.1L112.102 78.5L112.502 78.8L112.702 79.1L113.002 79.2L113.102 79.4V79.7L113.502 79.8L113.702 79.9L113.902 80.1L114.202 80.2L114.702 79.7H114.902L115.402 79.8L115.702 79.6L116.002 79.7L116.302 79.6L116.502 79.4V79L116.702 78.6L116.802 78.5L117.302 78.4L117.502 78.2H117.802L118.202 77.9L118.402 77.4L118.602 77.5L118.902 77.6L119.002 77.8L119.102 77.9L119.302 78.1L119.602 77.9L119.802 78.2L119.902 78.5H120.202V78.6L120.102 78.8L120.202 78.9L120.302 78.6L120.402 78.5H120.602H120.702L120.902 78.8L121.102 78.9L121.302 78.8L121.402 78.9L121.302 79.1V79.3L121.402 79.4L121.702 79.3L121.802 79.4V79.6V79.7H122.002H122.502H122.602V80L122.902 80.8L123.202 81H123.602L124.002 80.7L124.202 80.8L124.302 80.9V81.1L124.402 81.2L124.502 81.5L124.602 81.6L124.702 81.7L125.002 81.9H125.102L125.702 82.4V82.6L126.302 83L126.502 83.2H126.702L127.002 83.6L127.302 83.7L127.502 84L127.702 84.1V84.3L127.502 84.5L127.402 84.7L127.702 84.9L128.002 85L128.302 85.1L128.402 85.2L128.502 85.3L128.802 85.1H129.102L129.502 85L129.702 84.9H130.102L130.202 85.1L130.502 84.9L130.802 85.1H131.202L131.502 85.3L131.802 85.2H132.002L132.202 85L132.502 84.8L132.702 84.9L133.102 85.2L133.302 85.3L133.602 85.2L133.802 85.5L134.002 85.6L134.202 85.9H134.502L134.902 86.1L135.302 86.2L135.702 86.3L136.102 86.2L136.302 86L136.402 85.7L136.602 85.5L137.402 85.9V86.1L137.602 86.3L137.702 86.8L138.102 86.9L138.302 87.6L138.502 88.1L138.902 88.2L139.102 88.4H139.602H139.802H140.002H140.402L140.802 88.5L141.202 88.7L141.502 89.1L141.902 89.3V89.8L141.602 89.9L141.702 90.4L141.502 90.6L141.302 91L140.702 91.1L140.302 91L140.102 91.4H139.902L139.702 91.3L139.402 91.2L138.702 91.4L138.502 91.3H138.302H138.202L138.102 91.4L137.802 91.6L137.902 92L137.702 92.2L136.902 92.4L136.802 92.6L137.002 92.9L136.802 93L136.202 93.6L136.002 93.9L135.702 94.2H135.502L135.302 94.4L135.202 94.6L134.902 94.8L134.702 95L134.402 95.1L134.102 95.3L133.902 95.5L133.602 95.4H133.402V95.7V96.2V96.7L133.602 96.6L133.802 96.7L134.002 96.6L134.302 96.7L134.802 96.8L134.902 97.1L135.102 97.2H135.302L135.402 97.3V97.4L135.602 98L135.902 98.4L136.002 98.7L136.702 99L137.002 99.1H137.302V99.7L136.902 100.2L137.002 100.7V101.1L137.202 101.6V102.1L137.102 102.7L137.202 103.1L137.402 103.3V103.5L137.502 103.7L137.602 104.4H137.502L137.402 104.5H137.202L136.802 104.8L136.602 105.1V105.5L136.502 105.7V106.1L136.402 106.4L136.302 106.8L136.202 107L136.102 107.3V107.7L135.802 107.9L135.602 108.1L135.502 108.5V109L135.602 109.3L135.302 109.5L135.202 109.7L135.002 109.8L135.102 110.1L134.902 110.3L135.102 110.7L135.002 111L135.202 111.3L134.202 111.6L133.902 111.5H133.702L133.402 111.8V112.1V112.5L133.302 112.8L133.502 113L133.402 113.2L133.502 113.6L133.302 113.8L133.402 114.4L133.602 114.6L133.702 115.3L133.602 115.8L133.302 116.1L133.702 116.4V116.8L133.902 117.3L133.702 117.5L133.802 117.9L134.002 118L134.202 118.8L134.302 118.9L134.202 119.2V119.5V119.7L133.702 119.6L133.402 119.7L133.202 119.9L132.902 120.1H132.502V120.4V120.7L132.802 121.3L132.902 121.7L132.802 121.8V122.2V122.4L133.002 122.7V123.1L133.102 123.5L133.202 124V124.5L133.102 125L132.602 125.9L132.302 126.3L132.102 127.7V128.5L132.302 129L132.402 129.7L132.102 130.3L131.902 130.4L131.502 130.5L131.302 130.7L131.102 131L130.902 131.3V131.7L130.802 131.8V132V132.4L130.602 132.6V132.8H130.402V133.1V133.5L130.302 133.7L130.202 133.9H129.902L129.702 133.7L129.402 133.8L129.302 134.1L129.102 134.3L128.702 134.9L128.602 135.3L128.302 135.6L128.102 135.9V136.3V136.7L127.902 137.3L127.702 137.5L127.202 137.6L127.102 137.8L127.202 138.2L127.102 138.6L127.202 139.1L126.802 139.4L126.402 139.7L126.102 139.6H125.802L125.502 139.5L125.102 139.6L124.802 139.7L124.402 139.1L124.002 139.2L123.702 139L123.602 138.8L123.402 138.5V138.3L123.202 138.1L123.002 138.2L122.702 137.8L122.502 137.7H122.402L122.202 137.6L122.102 137.7L121.902 137.6L121.802 137.5L121.402 137.4L121.302 137.5L121.202 137.4L120.802 137.3V137.5V137.7L121.002 138L121.202 138.2L121.402 138.6L121.702 138.8V139.1L121.602 139.6V139.9L121.402 140.3V140.7L121.302 140.9L121.402 141.2H121.202L121.502 141.9L121.402 142.6V143.4L121.302 143.9L121.102 144.3L120.002 145H119.902L119.302 145.4L118.502 145.5V145.3H118.202L118.102 145.7V146L118.502 146.7V147.1V147.6L118.302 147.4L118.002 147.3L117.802 147H117.602L117.302 147.1L117.202 147L117.002 147.1L116.802 146.9L116.402 146.8H116.102L115.902 146.9L115.702 147.3L115.502 147.5H115.402L115.202 147.7V147.9L115.002 148.1L114.802 148.4L114.702 148.7L114.902 149L115.002 149.1L114.902 149.4L115.002 149.8H115.102L115.202 150.1L114.902 150.2L114.602 150.4L114.202 150.7L113.902 150.9L113.802 150.8L113.902 150.6L113.602 150.4H113.402L112.402 149.7L111.802 149.6L111.502 149.1L111.302 149.2H110.902L110.402 149.1L110.202 148.8H110.102L110.002 148.9L109.702 149.1L109.502 149.5V149.8L109.302 149.9H109.102L108.902 149.8L108.702 149.9L108.502 150L108.102 149.9L107.702 149.7L107.402 149.4L107.202 149.5L106.602 149.4L105.902 149.5L105.602 149.4L105.402 149.5L105.502 149.7L105.202 149.8L105.002 149.9L104.902 150.1L104.702 150.3L104.502 150.6L104.402 150.8V151L104.602 151.1V151.3L104.702 151.4L104.602 151.6L104.402 152.1L104.602 152.3V152.6V153L104.502 153.4L104.202 153.3L103.802 153.6L103.602 153.8V154.1L103.502 154.4L103.402 154.5L103.202 154.4H102.802L102.702 154.6L102.502 154.8L102.402 155.1L102.202 155.2L102.002 155.4L101.802 155.5H101.402L101.202 155.4L101.102 155.5L101.002 155.3L100.802 155.4L100.702 155.7L100.302 155.9L100.102 155.8L99.9016 155.9L99.6016 156.1V156L99.5016 156.1L99.1016 156L98.9016 155.9L98.8016 156L98.7016 156.1L98.5016 156L98.4016 156.1L98.2016 156.2V156.6L98.1016 156.9L97.9016 157.2L97.8016 157.4L97.6016 157.5L97.5016 157.7L97.6016 158L98.0016 158.2L98.1016 158.4H98.2016L98.6016 158.8V159L98.7016 159.1L98.8016 159.4H99.0016L99.1016 159.6L99.0016 159.7L98.8016 160.1H98.6016H98.4016L98.1016 160L97.8016 160.1L97.6016 160.4V160.6L97.5016 160.7H97.3016L97.0016 160.8L96.9016 160.9V161.1V161.3V161.6L96.7016 161.9L96.6016 162H96.4016L96.3016 161.9H96.1016H96.0016L95.8016 161.8L95.6016 162L95.3016 161.9H95.2016L94.9016 162.1L94.8016 161.8L94.7016 161.7L94.5016 161.5H94.1016L93.9016 161.8H93.8016L93.6016 162L93.5016 162.2L93.6016 162.5L93.4016 162.6H93.1016L92.9016 162.9L92.8016 162.8L92.5016 163.1L92.3016 163.3L92.0016 163.4V163.5H91.7016L91.6016 163.4L91.3016 163.6V163.7H91.2016H91.0016L90.9016 163.8L90.8016 164.1H90.7016L90.3016 164.2V164.3H90.1016H89.9016L89.8016 164.2L89.4016 164.3L89.1016 164.2L89.0016 164.3L89.2016 164.8V164.9L89.3016 165.2L89.6016 165.7L89.8016 165.9L89.7016 166.2L89.6016 166.4V166.5L89.4016 166.8V166.9L89.2016 167.1V167.5L89.1016 167.6L88.9016 167.7L88.8016 167.9L88.5016 168.2L88.4016 168.4V168.6L88.1016 168.5L87.9016 168.4L87.8016 168.2V168.1L87.4016 167.7V167.4V167L87.0016 166.8L86.8016 166.4L86.9016 166.2L86.8016 166.1L86.6016 166.2L86.2016 166.1L86.1016 165.9L85.8016 166L85.4016 165.9L85.3016 165.8L85.2016 165.5L84.9016 165.1L84.5016 165.3V165.4L84.4016 165.6L84.0016 165.7L83.9016 165.6L83.6016 165.5L83.4016 165.3L83.3016 165H83.0016L82.9016 164.8L82.6016 164.9L82.2016 164.6L81.9016 164.4L81.8016 164.2H81.7016L81.5016 164.3L81.4016 164.2H81.0016L80.8016 164.1V163.9V163.7L80.9016 163.5V163.2L80.4016 162.8L80.5016 162.3L80.3016 162.1L80.2016 161.7L79.9016 161.6L79.6016 161.5L79.4016 161.6L79.0016 161.5L78.7016 161.2H78.4016L77.9016 161L77.8016 160.9V160.7L77.7016 160.4H77.5016L77.2016 160.3L77.0016 160.2L76.5016 160.4L76.1016 160.1H75.6016L75.5016 159.9L75.8016 159.8L75.9016 159.6L75.8016 159.5L75.5016 159.4L75.0016 159.5L74.7016 159.3H74.5016H74.3016L74.0016 159.5L73.7016 159.6V159.8L73.8016 159.9H73.7016L73.2016 159.8H73.0016L72.8016 159.7L72.3016 159.6L72.2016 159.4L72.0016 159.3L71.7016 159.2L71.4016 159V159.1L71.3016 159.5L71.2016 159.6L70.9016 159.7V159.9H70.7016L70.5016 160L70.3016 160.5H70.1016L69.9016 160.7V161.1L70.2016 161.3H70.3016L70.5016 161.4L70.3016 161.7L70.1016 161.9V162H69.9016L70.0016 162.3L69.8016 162.6L69.9016 162.7L69.7016 162.8L69.5016 162.7L69.3016 162.3L68.9016 162.1L68.7016 162.4L68.4016 162.5L68.2016 162.8L68.0016 163L67.8016 163.2L67.7016 163.1L67.8016 163L67.5016 162.9V163H67.2016V162.7L66.9016 162.8L66.6016 163.1H66.4016L66.3016 163.3L66.1016 163.4L65.9016 163.3L65.8016 163.4V163.5L65.4016 163.7L65.0016 163.9L64.9016 163.7L64.8016 163.9H64.6016H64.3016L64.2016 164L63.9016 164.3L63.7016 164.4H63.5016L63.4016 164.3H63.2016L63.0016 164.2L62.7016 164.1V163.6L62.5016 163.8L62.1016 163.6L61.8016 163.7L61.7016 163.5H61.4016L61.3016 163.7L61.1016 163.6H60.9016V163.7L60.7016 163.8L60.5016 163.6H60.3016H60.1016L59.7016 163.9H59.2016L58.2016 164.6L55.0016 165.8L53.1016 166.8L52.0016 167.4L51.9016 166.8L51.8016 166.7L51.9016 166.6L51.8016 166.2H51.7016V165.9L51.4016 166L47.0016 166.8H46.5016L46.1016 166.7L45.7016 166.4L45.4016 166V165.8L44.8016 163.6L44.7016 163.2L44.5016 162.4L44.4016 162.3H44.3016L44.2016 162.2L44.3016 162.1L44.8016 161.8L44.9016 161.9L45.0016 161.8L45.4016 162.6L44.6016 162.8L45.0016 164.2L45.1016 164.3L48.0016 163.8L47.8016 163.1L47.3016 162.6L47.2016 162.8L46.9016 162.6L47.0016 162.4L46.9016 162.3L46.7016 162L46.3016 162.2L45.8016 161.3L46.0016 161.2L45.8016 160.9H45.6016L45.5016 160.7L45.0016 159.8L44.3016 158.6L43.8016 157.7L44.0016 157.5L44.2016 157.3L44.0016 157.4L43.8016 157.6H43.5016L42.8016 157.3L43.3016 157.5H43.5016L43.8016 156.9L42.7016 156.4L42.4016 157.2H42.5016L41.7016 156.9L42.0016 157L42.1016 156.6H42.3016L42.5016 156.3L42.0016 156.1L41.3016 156.2V156.3V156.1H41.0016L40.9016 156.5H40.6016L40.5016 156.4L40.2016 155.8V155.7H40.1016L40.0016 155.5H39.8016V155.4L39.3016 155.3H39.9016L39.5016 155L40.3016 154.3L41.3016 154.1V153.9H41.4016V154.8L41.7016 154.9L42.2016 154.8L43.2016 154.7L44.3016 154.6H44.4016L45.5016 154.5H45.6016L46.0016 154.4V154.3L46.5016 154L47.0016 153.4L47.1016 153.1L47.5016 152.5L47.8016 152.2L48.0016 152.1L48.3016 152L48.5016 152.1L48.9016 152.3L49.2016 152.4H49.7016H50.0016V152.3H49.4016L49.1016 152.2L48.8016 152L48.6016 151.9L48.3016 151.8L47.9016 152L47.8016 151.9L48.1016 151.3L48.3016 150.9L48.5016 150.5L49.1016 149.5L49.4016 148.9L49.5016 148.7L49.6016 148V147.6L49.5016 147.2L49.3016 146.4V146L49.1016 145.6L49.2016 146V146.3L49.3016 146.6L49.4016 147V147.1L49.5016 147.6V147.9L49.4016 148.4H49.3016L48.9016 149.4H48.8016L47.9016 150.9L47.6016 151.4L47.1016 152.3L46.8016 152.7L46.5016 153.2L46.0016 153.7L45.6016 153.8L45.1016 153.9H44.4016H43.9016L43.0016 153.8L42.9016 153.7L43.1016 153.5L43.2016 153.1L43.8016 152.5L44.1016 152.1L44.2016 151.9L44.0016 152.1L43.9016 152.3L43.1016 153L43.0016 153.1V153.3V153.5L42.8016 153.7L42.6016 153.6V153.7H42.4016L42.2016 153.8V153.9L42.0016 153.7L41.7016 153.5H41.3016L41.6016 153.6L41.9016 153.7L41.8016 153.8L41.5016 153.7L41.3016 153.8L41.1016 153.6V152.8L41.0016 152.7L40.5016 152.3H38.8016H38.6016L38.4016 152.2V152.3L38.1016 152.2H37.3016L36.8016 152.3L36.7016 152.1L36.6016 151.6V151.8H36.5016L36.4016 151.5L36.3016 151.4V151.1L36.4016 150.8L36.7016 150L37.0016 149.6L37.2016 149.3L37.4016 149.2L37.0016 148.8L36.7016 148.5L35.2016 147H35.1016V146.9L34.4016 146.3L32.3016 144.2L31.6016 143.5L30.4016 142.4L30.3016 142.3L30.4016 142.2V142.1L30.1016 142L30.2016 141.8L30.0016 141.6L30.4016 141.8L30.5016 141.5V141.4L30.4016 140.8L30.2016 140.3L30.1016 140.1L30.0016 139.9L29.8016 139.6L29.7016 139.5L29.6016 139.6L29.5016 139.4L29.8016 139.1V139L30.0016 138.9V138.7V138.6L30.2016 138.5L30.3016 138.2V138L30.5016 137.8L30.6016 137.9L31.5016 137.6L31.7016 137.8V137.7L31.3016 137.4L31.2016 137.1L31.1016 137L30.3016 136.6L29.1016 137.1L28.5016 137H28.4016L28.2016 137.3L27.9016 137.4L27.5016 138.3L27.4016 138.2H27.5016L27.8016 137.7L27.9016 137.4L27.8016 137.3L27.6016 137.4L27.4016 137.3L27.3016 137.4L27.2016 137.2V137.1V137H27.3016H27.6016L27.8016 136.8L27.9016 136.7L28.1016 136.6L28.2016 136.4V136.2L28.1016 136L28.0016 135.9L27.9016 135.3L27.8016 135.1L27.6016 134.9L27.2016 134.8L27.0016 134.7L26.4016 134.6H26.0016L25.8016 134.7L25.5016 134.9L25.3016 135L25.1016 135.7L24.6016 136.3L24.4016 136.4L24.3016 136.7L24.2016 136.8V136.7L24.0016 135.9V135.3L23.9016 135.1L24.0016 134.8L24.2016 134.6L24.3016 134.4H24.4016L24.5016 134.3L24.6016 134.4V134.5L24.7016 134.6L24.9016 134.8L25.3016 134.9L25.5016 134.8L26.0016 134.6H26.4016L27.0016 134.7H27.2016L27.6016 134.9L27.8016 134.7V134.5H27.7016L27.5016 134.2L27.6016 134.1H27.8016L27.9016 134.2L27.8016 134.3L27.9016 134.4L27.8016 134.5L27.9016 134.7L28.1016 134.6L28.2016 134.7L28.4016 134.1L28.6016 134V133.9L28.7016 133.4L28.6016 133.3L28.8016 133.1L28.9016 133.2L29.1016 133.1L28.8016 132.9L28.7016 132.8L28.3016 133H28.0016L27.6016 133.5L27.7016 133.6L27.5016 133.9H27.2016V133.6L27.5016 133.2H27.6016L27.7016 133L26.9016 132.8L26.8016 133V133.1H26.5016L26.6016 132.5L26.5016 132.4H26.4016L26.3016 132.2L26.4016 131.9H26.5016V131.6L26.4016 131.4V131.2L26.7016 131.1L26.8016 131L26.9016 130.8V130.5L26.4016 130.1L26.3016 130H26.1016L26.0016 129.9L25.4016 129.8V129.7L25.2016 129.6L25.0016 130.9L25.2016 129.7V129.6H25.0016L24.9016 129.5V129.3L25.0016 129.2L24.9016 129L24.8016 128.8H24.7016L24.6016 128.6L24.7016 128.4V128.3L24.6016 127.7L24.7016 127.6L24.5016 127.5H24.4016L24.3016 127.7V127.8L24.2016 128L24.3016 128.1L24.2016 128.3L23.9016 128.1L23.7016 127.9L23.5016 127.8L23.3016 127.9L23.4016 128.3H23.1016V128.2H22.6016L22.4016 128.4L22.0016 128.1V128L22.1016 127.8L21.9016 128L21.6016 127.8L21.7016 127.6L21.6016 127.5V127.8H21.4016L20.9016 127.7L21.1016 127.8V127.9L21.3016 127.8L21.4016 127.9H21.6016L21.8016 128.2L22.0016 128.3L22.2016 128.5H22.3016L22.7016 129H22.8016L23.1016 129.2L23.3016 129.3L23.5016 129.5L23.4016 129.7L23.6016 129.9V130.2L23.7016 130.4L23.8016 130.5L23.9016 130.8L23.8016 130.9L23.6016 130.8L23.2016 130.7V130.5L22.9016 130.3L22.8016 130.6L22.6016 130.9V130.8L22.8016 130.5L22.9016 130.3H22.8016L22.6016 130.1H22.5016L22.7016 129.9L22.5016 129.3L22.4016 129.5V129.7L22.6016 129.8H22.3016L22.1016 129.9L21.9016 130.1H21.7016L21.6016 130.2H21.4016L21.3016 129.9L21.2016 129.5L21.1016 129.3H21.0016L20.9016 129.4L20.7016 129.3L20.5016 129.4L20.2016 129.2L20.1016 129.3L20.2016 129.5L20.1016 129.9L20.0016 130.1L19.9016 130.3L19.8016 130.5V130.8L19.6016 130.9L19.5016 131.1L19.4016 131.3L19.3016 131.7L19.5016 131.8V131.9L19.1016 132V132.1V132.3L18.9016 132.4V132.6L18.8016 132.7V132.5L18.7016 132.4L18.6016 132.2L18.7016 132.1L18.4016 131.7L18.1016 131.4L17.6016 131.2H17.5016L17.2016 131.1H16.9016V131.2V131.5H16.7016V131.8L16.4016 132.1H16.2016L16.1016 131.9L16.6016 131L16.9016 131.1H17.1016L17.2016 130.7L17.1016 130.4L17.0016 130.2L16.9016 130.1L17.0016 130H17.1016L17.4016 129.9L17.9016 130.1L18.1016 130L18.2016 129.9L18.3016 129.6L17.9016 129.1V129L17.7016 129.1L17.6016 129L17.4016 129.3L17.2016 129L17.0016 128.9L16.9016 129.1L16.8016 129L16.9016 128.8L16.8016 128.6V128.3L16.9016 128.5L17.0016 128.4L17.1016 128.3V128L16.8016 127.8L17.0016 127.7L17.1016 127.8H17.3016L17.5016 127.7L17.8016 127.8H18.1016L18.3016 127.7L18.4016 127.3L18.5016 127.5L18.6016 127.4H19.1016V127.5L19.4016 127.4H19.3016L19.1016 127.2L19.0016 127H18.9016L18.7016 126.7L18.6016 126.6L18.7016 126.4L18.6016 126.2H18.5016L18.4016 126L18.7016 125.9L18.9016 125.6L18.8016 125.4L18.9016 125L18.8016 124.9H18.5016V124.6V124.4L18.4016 124.3L18.5016 124.1L18.4016 123.8L18.2016 123.7V123.6V123.4L18.1016 123.2L17.8016 123.1L17.7016 122.9V122.7H17.6016L17.5016 122.4L17.4016 122.2L16.9016 122.1L16.6016 121.9V121.6V121.5L16.4016 121.4L16.2016 121.3H16.1016L16.0016 121.2H16.2016L16.5016 121.4L16.7016 121.5L16.8016 121.6L17.0016 121.7H17.2016H17.3016L17.6016 121.8L17.8016 122H18.0016L18.1016 121.8H18.2016L18.4016 122.1L18.1016 122.6L18.2016 122.7V122.5L18.4016 122.6H18.7016L19.0016 122.4L19.3016 122.1L19.4016 121.8L19.2016 121.9L19.4016 121.6H19.6016L20.1016 121.1L20.2016 121L20.1016 120.7V120.6L20.0016 120.3L19.8016 120.2H20.0016L20.2016 120.5L20.3016 120.6L20.5016 120.5L20.3016 120.4L20.4016 120.3L20.5016 120.4L22.6016 118.9L22.9016 118.7V118.5L23.0016 118.3L23.4016 118.2L23.8016 118.1V118H23.9016L24.4016 117.9L25.8016 117.4L30.8016 115.7L31.1016 115.5V115.1L31.0016 115L30.6016 114.9L30.8016 114.4L30.3016 114.2L30.8016 114.3L30.9016 113.9L31.3016 114L32.1016 113.7L32.0016 113.5L32.2016 113.7L32.3016 113.6L32.1016 113.4L32.0016 113.2L32.8016 112.2L33.4016 111.5V111.4L34.1016 110.4L34.5016 110L34.8016 109.5L35.0016 109.4H35.1016L35.9016 109.8H36.1016L36.3016 109.2V109.1L36.0016 109.6L35.8016 109.5L35.9016 109.3L35.6016 109.2L35.4016 109.3L35.2016 109.2L35.3016 109L35.7016 108.4L36.0016 108.2L35.9016 108Z" fill="white"/>
<path d="M35.9016 108V108ZM35.9016 108L36.3016 107.7L36.7016 107L37.0016 106.6L37.1016 106L37.4016 105.5V105.4L37.8016 104.8L38.1016 104.7L38.5016 104.5L38.7016 104.3H38.5016L38.6016 104.1L38.7016 103.8L38.8016 103.5L38.7016 103.2L38.6016 102.7V102.6L38.8016 102.5V102.3H38.7016L38.8016 102.1L38.7016 102L39.0016 101.7H39.2016L39.3016 101.6L39.5016 101.5L39.6016 101.4V101L39.4016 100.9V100.6L39.5016 100.5L39.4016 100.2L39.6016 99.9V99.5L39.4016 99.3L39.5016 99.1H39.4016L39.1016 99.2L38.9016 99.1H38.8016H38.5016L38.4016 98.9L38.2016 98.7H37.9016L37.8016 98.5L37.7016 98.6L37.6016 98.4L37.5016 98.3L37.3016 98.2V98V97.8L37.0016 97.6L36.8016 97.5H36.7016H36.4016L36.0016 97.3V97.1V96.3L36.2016 95.5L36.1016 95.3L36.0016 94.6L36.2016 94.5L36.3016 94.1V93.9H36.8016H37.0016L37.1016 93.7H37.4016L37.7016 93.8M35.9016 108L36.0016 108.2L35.7016 108.4L35.3016 109L35.2016 109.2L35.4016 109.3L35.6016 109.2L35.9016 109.3L35.8016 109.5L36.0016 109.6L36.3016 109.1V109.2L36.1016 109.8H35.9016L35.1016 109.4H35.0016L34.8016 109.5L34.5016 110L34.1016 110.4L33.4016 111.4V111.5L32.8016 112.2L32.0016 113.2L32.1016 113.4L32.3016 113.6L32.2016 113.7L32.0016 113.5L32.1016 113.7L31.3016 114L30.9016 113.9L30.8016 114.3L30.3016 114.2L30.8016 114.4L30.6016 114.9L31.0016 115L31.1016 115.1V115.5L30.8016 115.7L25.8016 117.4L24.4016 117.9L23.9016 118H23.8016V118.1L23.4016 118.2L23.0016 118.3L22.9016 118.5V118.7L22.6016 118.9L20.5016 120.4L20.4016 120.3L20.3016 120.4L20.5016 120.5L20.3016 120.6L20.2016 120.5L20.0016 120.2H19.8016L20.0016 120.3L20.1016 120.6V120.7L20.2016 121L20.1016 121.1L19.6016 121.6H19.4016L19.2016 121.9L19.4016 121.8L19.3016 122.1L19.0016 122.4L18.7016 122.6H18.4016L18.2016 122.5V122.7L18.1016 122.6L18.4016 122.1L18.2016 121.8H18.1016L18.0016 122H17.8016L17.6016 121.8L17.3016 121.7H17.2016H17.0016L16.8016 121.6L16.7016 121.5L16.5016 121.4L16.2016 121.2H16.0016L16.1016 121.3H16.2016L16.4016 121.4L16.6016 121.5V121.6V121.9L16.9016 122.1L17.4016 122.2L17.5016 122.4L17.6016 122.7H17.7016V122.9L17.8016 123.1L18.1016 123.2L18.2016 123.4V123.6V123.7L18.4016 123.8L18.5016 124.1L18.4016 124.3L18.5016 124.4V124.6V124.9H18.8016L18.9016 125L18.8016 125.4L18.9016 125.6L18.7016 125.9L18.4016 126L18.5016 126.2H18.6016L18.7016 126.4L18.6016 126.6L18.7016 126.7L18.9016 127H19.0016L19.1016 127.2L19.3016 127.4H19.4016L19.1016 127.5V127.4H18.6016L18.5016 127.5L18.4016 127.3L18.3016 127.7L18.1016 127.8H17.8016L17.5016 127.7L17.3016 127.8H17.1016L17.0016 127.7L16.8016 127.8L17.1016 128V128.3L17.0016 128.4L16.9016 128.5L16.8016 128.3V128.6L16.9016 128.8L16.8016 129L16.9016 129.1L17.0016 128.9L17.2016 129L17.4016 129.3L17.6016 129L17.7016 129.1L17.9016 129V129.1M37.7016 93.8V93.8ZM37.7016 93.8V93.4L37.8016 93.3V93L37.7016 92.7L37.8016 92.6L37.7016 91.5L37.8016 91.3V91.2H37.9016L37.8016 91H37.9016L37.8016 90.8H38.0016L37.8016 90.7L38.1016 90.6L37.9016 90.5L38.0016 90.4V90.1L38.1016 89.8V89.7H38.2016L38.1016 89.6L38.2016 89.5L38.3016 89.3V89.2H38.4016V89.5L38.7016 89.6V89.7L38.8016 89.9L39.2016 89.8L39.3016 89.9L39.4016 90.1L39.8016 90.2H40.3016L40.4016 90.3L40.7016 90.5H40.8016V90.7H41.1016L40.9016 90.9L41.0016 91.1V91.2V91.4L41.2016 91.3L41.5016 91.2L41.4016 90.9L41.6016 90.8L41.5016 90.7L41.7016 90.6L41.9016 90.5H42.2016L42.7016 90.8H43.1016H43.7016V91.3L43.6016 91.5L43.7016 91.7L44.0016 92.1L44.2016 92.2V92.5L44.3016 92.6L44.0016 92.8V92.9V93.3L43.9016 93.6L43.8016 93.8L43.9016 94L43.8016 94.4L43.9016 94.7L43.7016 94.8V95.1L43.6016 95.2V95.5L43.4016 95.6V95.8L43.1016 96L42.9016 95.9L42.8016 96.2L42.9016 96.4V96.5L43.3016 96.7M43.3016 96.7V96.7ZM43.3016 96.7L43.7016 96.9L43.8016 97.1H43.6016L43.7016 97.3L43.4016 97.4V97.9H43.5016L43.3016 98.3L43.2016 98.4L43.0016 98.6L42.9016 98.8L43.1016 98.9L43.2016 99L43.3016 98.8V98.7H43.4016V98.6H43.7016H43.9016H44.2016H44.3016L44.5016 98.4L44.7016 98.5L44.9016 98.6V98.8H45.0016L45.2016 98.7L45.4016 98.8L45.6016 98.7L45.9016 98.8V98.9L46.0016 98L46.2016 97.9H46.4016H46.6016L46.7016 97.8L46.8016 97.5L47.1016 97.4L47.4016 97L47.5016 96.8H47.7016L48.0016 96.5V96.4L48.2016 96.2L48.3016 97L48.4016 96.8L48.7016 96.9L48.5016 97V97.1H48.6016H48.9016L48.8016 97.3H48.7016V97.5H48.5016V97.8L48.8016 98.5L48.9016 98.6L49.3016 99.3L49.4016 99.5L49.5016 99.6L49.7016 99.8L49.5016 99.9V100L49.6016 100.2L49.9016 100.1L50.0016 100.3L49.7016 100.5L49.8016 100.6L49.7016 100.8L49.9016 101.1L50.1016 101.2V101.5H50.4016L50.6016 101.4L51.0016 102.6L51.1016 102.9H51.0016V103.1L51.4016 103.4V103.7H52.0016L52.1016 103.5L52.2016 103.4V103.2L52.5016 103L52.9016 102.9L53.0016 102.8L53.2016 102.4L53.3016 102.2L53.5016 102.1L53.7016 101.9L53.9016 101.7L54.0016 101.9L54.1016 102.2V102.3L54.4016 102.5L54.7016 102.7L54.8016 102.9L54.7016 103.1L54.8016 103.5L54.9016 103.4H55.1016L55.2016 103.3L55.5016 103.2L55.7016 103.1H56.0016L56.1016 103L56.4016 103.1L56.7016 103L56.8016 102.9L57.2016 102.8L57.3016 102.7L57.2016 102.4L57.4016 102.2H57.6016L57.7016 102.1H57.8016L58.1016 102H58.2016L58.4016 101.7H58.5016L58.7016 101.5L58.9016 101.4L59.0016 101.1V101L59.4016 100.9L59.6016 100.8L59.8016 100.5H59.9016L60.0016 100.4L60.4016 100.3V100.1L60.3016 100L60.4016 99.7L60.5016 99.6L60.7016 99.7H61.0016L61.1016 99.8L61.2016 100.3L61.3016 100.6L61.5016 100.7L61.7016 101.1H61.9016L62.1016 101.2L62.4016 101H62.6016H62.8016L62.9016 100.9L63.1016 100.8H63.2016V100.6H63.4016V100.4L63.5016 100.1V99.9L63.7016 99.8L64.0016 100L63.9016 100.4L64.0016 100.6V100.8L64.2016 101V101.2L64.1016 101.4L64.2016 101.6L64.3016 101.9L64.2016 102V102.2L64.3016 102.3V102.5L64.1016 102.9V103.1H64.3016H64.6016L64.9016 103.5L65.0016 103.7H65.1016L65.2016 104.1H65.4016L65.6016 104.3L66.2016 104.2H66.4016L66.5016 104.1L67.0016 104.3L67.1016 104.1H67.3016H67.4016L67.5016 103.9L67.4016 103.8L67.5016 103.6V103.4L67.8016 103.3L67.7016 103.1L67.6016 103L67.5016 102.7H67.9016L68.3016 102.8L68.4016 102.9L68.6016 102.8L68.7016 102.5L69.0016 102.4L69.1016 102.3L69.2016 102L69.1016 101.9L69.3016 101.6L69.4016 101.4L69.6016 101.3V101.1L69.7016 101H70.1016L70.4016 100.7V100.6L70.6016 100.5L70.7016 100.4V100.3H70.8016L71.4016 100.4L71.6016 100.5L71.7016 100.6L71.9016 100.8L72.1016 100.1L72.4016 99.7H72.7016L72.6016 99.4L72.8016 99.5L73.2016 99.6L73.4016 99.5L73.3016 99.4L73.4016 99.2V98.8H73.6016H74.4016L74.5016 98.4L74.8016 98.5V97.9L75.0016 97.5L75.1016 97.4L75.8016 96.9L76.0016 96.6V96.3V96.1L76.1016 95.9L76.2016 95.7L76.0016 95.6L75.9016 95.3H75.8016L75.7016 95.5L75.2016 95L75.1016 95.1L74.8016 95.3H74.7016L74.2016 95.1V94.9L74.1016 94.7V94.4L74.2016 94.2L74.3016 94.1L74.4016 94L74.2016 93.8H74.5016H74.6016L74.5016 93.4L74.6016 93.1L74.8016 93L75.0016 92.6L75.3016 92.2L75.4016 91.9H75.6016V91.7L75.7016 91.5L75.6016 91.2L75.8016 90.9L76.0016 90.7L76.3016 90.3L76.6016 90.4L76.7016 90.3H76.9016L77.1016 90.2L77.5016 90.3L77.4016 90.2L77.5016 90.1L78.1016 90L78.2016 90.1V89.5L78.1016 89.4V88.7V88.3L77.9016 87.8L77.8016 87.6L77.7016 87L77.5016 86.6V86.3V86H77.4016H77.1016L76.7016 86.2L75.9016 86.9H75.6016L75.4016 87.2L75.0016 87.3L74.7016 87.5L74.0016 87.4L73.1016 87.8L72.4016 88L72.1016 88.4L71.9016 88.7L71.8016 88.9L71.5016 88.8L71.6016 88.6L71.5016 88.5H71.2016L71.0016 88.8L70.7016 89L70.6016 88.8L70.5016 88.6L70.4016 88.4L70.5016 87.9V87.7L70.6016 87.1V87L70.3016 86.9V86.6L70.5016 86.2V86.1L70.6016 85.9L71.1016 85.7L71.2016 85.5V85L71.5016 84.5L71.8016 84.3V84L71.7016 83.9L71.6016 83.7L71.7016 83.4L72.0016 83.2V82.7L71.9016 82.6V82.1V81.9V81.5L71.8016 81.3H71.6016L71.3016 81.1L71.1016 81.2L70.8016 81.1L70.6016 81V80.9L70.7016 80.6L70.8016 80.4L71.2016 80L71.4016 79.8V79.4V79.3L71.3016 79L71.4016 78.8L71.3016 78.5L71.2016 78.4L70.9016 78.2L70.3016 78.1L70.2016 78.2L69.6016 78.1L69.5016 78V77.6L69.7016 77.2L69.6016 77L69.4016 76.7L69.5016 76.3L69.7016 76L69.8016 75.6V75.4V75V74.6L69.6016 74.3L69.5016 74.2L69.6016 73.7L69.9016 73.4V73.2V72.9H69.7016L69.6016 72.8L69.3016 72.9L69.2016 72.8L68.9016 72.7L68.8016 72.5L68.7016 72.3L68.5016 71.9H68.3016L67.8016 72.1L67.6016 72.3H67.4016L67.2016 72.2H67.0016H66.6016V72.4L66.4016 72.6L66.3016 72.8L66.0016 72.9L65.5016 73.2V72.9V72.6L65.4016 72.3L65.1016 72.5H65.0016L64.8016 72.1L64.7016 72.2L64.4016 72.4L64.2016 72.5L64.0016 72.7L63.8016 72.5V72.4L63.7016 72.3L63.5016 72V71.8L63.4016 71.6L63.3016 71.5L63.0016 71.6H62.8016L62.6016 71.4H62.4016H62.2016L62.1016 71.7L61.8016 71.8L61.7016 71.9L61.6016 72.1L61.5016 72.5V72.9V73.1V73.4H61.4016H61.2016H61.0016L60.9016 73.5H60.8016H60.6016L60.5016 73.4L60.3016 73.3L60.2016 73.5L60.3016 73.6V73.8L60.1016 74L59.9016 74.1L60.0016 74.2V74.5L60.1016 74.6V74.7V75.6L60.0016 75.8L59.8016 75.9L59.5016 76.1L59.4016 76.3L59.2016 76.6L59.0016 76.8L58.7016 76.9L58.8016 77.2L58.9016 77.4L59.1016 77.7V77.8L59.2016 77.9V78.1L59.1016 78.4L59.2016 78.6H59.3016V78.7L59.2016 79.2L59.1016 79.3L58.9016 79.5L58.7016 79.6H58.5016L58.3016 79.8L58.1016 79.7L57.6016 80L57.3016 79.9L57.2016 80L56.8016 80.1L57.0016 79.8L57.2016 79.6L57.0016 79.1L56.8016 78.5V78L56.6016 77.7V77.6V77.3L56.2016 77H56.0016L55.7016 76.7V76.5L55.1016 76.7L54.9016 76.8L54.6016 77.4L54.3016 77.5H54.0016L53.9016 77.6L53.7016 77.8L53.3016 78.1L52.6016 78.2H52.4016H52.3016L51.9016 77.9M51.9016 77.9V77.9ZM51.9016 77.9L51.6016 77.7L51.9016 78L52.3016 78.3L52.1016 79L52.2016 79.3L51.8016 79.6L51.7016 79.8L51.8016 80L52.0016 80.2V80.5L51.7016 80.7L51.8016 81L51.6016 81.1V81.3L51.4016 81.4L51.3016 81.7H51.4016L51.2016 82.1V82.3L51.3016 82.4V82.8V82.9V83.2L51.1016 83.3V83.4L51.3016 83.8L51.2016 84L51.3016 84.2L51.0016 84.5L51.1016 84.9H51.0016L50.8016 85H50.5016H50.3016H50.1016H49.8016L49.7016 84.7L49.8016 84.5L49.7016 84.4L49.6016 84.6L49.2016 84.9L49.1016 85.2L48.9016 85.3V85.5V85.6V85.9V86.1V86.3H48.5016L48.1016 86.4H47.7016L47.4016 86.6L47.2016 86.7L46.7016 86.8H46.4016L46.1016 86.5L45.5016 86.1L45.3016 86L44.9016 85.8L44.7016 85.6L44.3016 85.3V85.1L43.9016 84.8L43.8016 84.7L43.0016 84.1L42.5016 83.4L42.2016 82.9H41.9016L41.6016 83.2V83.5L41.3016 83.6V83.9V84.3L41.6016 84.6H41.4016V84.7L41.6016 84.9V85.1H41.4016L41.3016 85.4L41.2016 85.5L41.3016 85.6L41.1016 85.7V85.4H41.0016V85.7L40.9016 85.5V85.9L40.3016 85.4L40.0016 85.8L39.8016 85.6L39.5016 85.5H39.3016L39.2016 85.4H38.9016L38.4016 85.1V85.2L38.1016 85.4L38.0016 85.5H37.6016L37.5016 85.4L37.3016 85.7V86L36.9016 86.1V86L36.7016 85.9V85.5L36.5016 85.2L36.4016 85H36.3016L36.2016 84.7H36.0016V84.6L35.7016 84.7V84.5V84.4L35.5016 84.5L35.4016 84.8L35.2016 84.7M35.2016 84.7V84.7ZM35.2016 84.7L35.0016 84.6L34.8016 84.5L34.4016 84.6L34.0016 84.1L33.5016 83.7V83.2H33.3016V83.3L33.2016 83.2L33.1016 83L32.8016 83.1L32.6016 83.2L32.4016 83.3L32.3016 83.2L32.4016 82.8H32.5016L32.6016 82.4L32.5016 82.2L32.3016 82L32.0016 81.9L31.8016 81.5H31.7016L31.4016 81.2H31.3016L31.1016 81H30.9016L30.4016 80.6L30.3016 80.7V80.5H30.2016L30.1016 80.1L30.0016 80H29.7016H29.6016L29.4016 79.6L29.0016 79.4L28.7016 79.3L28.3016 79.2L28.1016 79L27.9016 79.1H27.7016L27.4016 78.9L27.3016 79.1L27.4016 79.2L27.3016 79.4L27.2016 79.5V79.6L27.0016 80L26.9016 80.3L26.7016 80.2L26.5016 80.3L26.3016 80.2L26.2016 80.3H26.0016V80.6V80.8L25.9016 81V81.2L25.7016 81.3H25.6016V81.5L25.4016 81.6L25.5016 81.7L25.4016 82L25.2016 82.3V82.5L25.1016 82.8V82.9L24.9016 83.1L24.8016 83.3L24.6016 83.4L24.4016 83.2H24.0016L23.9016 83L23.7016 82.9L23.5016 83L23.3016 83.1L23.1016 83.5L22.7016 83.8L21.6016 84.5L20.1016 85.3L19.9016 84.8L18.7016 83.6L18.6016 83.5L18.3016 83H18.2016L18.1016 82.7V81.8M18.1016 81.8V81.8ZM18.1016 81.8L18.0016 81.3L17.8016 80.7L17.7016 80.5L17.8016 80.4L17.7016 80.2H17.6016L17.4016 79.5L17.1016 79.1V78.9L16.9016 79H16.8016L16.7016 78.9H16.6016V78.7L16.5016 78.2L16.4016 78M16.4016 78V78ZM16.4016 78L16.2016 77.6L16.1016 77.4L15.9016 77L16.2016 76.9H16.4016L16.5016 76.6H16.7016H16.8016L17.0016 76.3L16.9016 75.9L16.6016 75.8V75.6L16.7016 75.4L16.6016 75.3L16.4016 75.2V75.1L15.9016 74.9L15.8016 74.8L15.7016 74.9L15.4016 74.8L15.6016 74.3H15.7016L15.8016 74L16.0016 73.3L16.1016 73.1L16.0016 72.3V72.1V71.8L15.9016 71.3L15.7016 70.8L15.4016 70.6L15.1016 70.3L15.0016 70.1L14.9016 69.9V69.2L15.0016 68.6L15.2016 68H15.4016L15.3016 67.7H15.4016V67.6L15.6016 67.1L15.7016 66.4V66L15.8016 65.9L15.7016 65.5L15.6016 65.2L15.3016 64.7L14.9016 64.4L14.7016 64.2L14.6016 64V63.8L15.0016 63.4L15.2016 63.3L15.3016 63.4L15.4016 63.2L16.2016 63L16.3016 62.9L16.5016 63.1L17.2016 63.2V63.1L17.7016 63.3H18.1016L18.4016 63.4L18.7016 63.7L19.2016 63.2L19.6016 63.7L20.0016 64L20.3016 64.1H20.7016L21.6016 63.9L22.7016 63.7L23.2016 63.3L24.0016 62.2L24.8016 61.6L26.0016 61.4L27.0016 61.5L27.4016 61.8L27.8016 61.5L27.9016 61.2L28.1016 60.7L28.0016 60.2L27.6016 59.3V58.8V58.6L28.0016 57.9L28.4016 57.3L28.7016 56.8L29.0016 55.9L29.5016 55.4L31.1016 54.7L31.0016 54.2L30.9016 53.5L30.8016 53L30.6016 52.2L30.5016 51.4V51L30.4016 50.6V47.3L30.9016 45.9L30.8016 45.3L29.9016 44.9L29.8016 44.2L29.5016 44V43.7L29.2016 43.2L29.3016 42.5L29.1016 42.4L29.0016 42L29.1016 41.7L29.3016 41.4L29.2016 41.1L29.1016 40.6H29.2016V40.3H29.4016L29.6016 40.4L29.9016 40.7H30.1016L30.2016 40.5L30.7016 40.2H30.9016L31.4016 40.5L31.5016 40.6L31.7016 40.7L31.9016 40.9L32.4016 41L32.6016 40.9H32.8016L33.5016 40.7H34.0016L34.7016 40.2L35.2016 40.1L35.5016 39.5L35.8016 39.2L36.3016 38.9L36.6016 38.6H37.5016L37.9016 38.4L38.4016 37.8L38.8016 37.4L39.7016 37.7L39.9016 37.1L40.0016 36.9L40.2016 36.4L40.7016 35.6H41.1016H41.8016L42.7016 35.3L43.3016 34.8L43.8016 34.3V33.8L43.9016 33.3L44.3016 32.8L44.7016 32.2L45.1016 31.7L45.5016 31.1L46.0016 31.2L46.6016 31.1L46.4016 30.9L46.5016 30.7L46.6016 30.5L47.0016 30.4L46.9016 30.2L47.2016 28.7L47.5016 28V27.3V27.1L47.8016 27V26.9L48.0016 26.8L48.1016 26.4L48.0016 26.2H48.2016V26.1L48.1016 25.9L48.2016 25.8L48.3016 25.7L48.1016 25.6L48.0016 25.3L48.2016 24.9H48.1016L48.2016 24.8L48.3016 24.5L48.5016 24.3L48.6016 23.8L48.7016 23.7V23.4H48.9016V23L49.0016 22.9H49.1016L49.4016 22.6L50.2016 22.8L50.9016 23L51.1016 22.7L51.3016 22.3L51.6016 21.8L51.8016 21.7L52.0016 21.2L53.3016 20.7L53.8016 20.3L54.4016 19.8H54.7016L54.9016 19H55.6016L55.8016 18.9L56.4016 19L56.7016 19.1L56.9016 19L57.3016 18.8L57.4016 18.6L57.8016 17.7V17.6L57.7016 17.3L57.3016 17L56.8016 16.8L56.6016 16.6L56.2016 16.3L55.8016 16L56.1016 15.5L56.4016 15.4L56.8016 15.1L57.3016 14.7L57.4016 14.1L57.5016 13.6L57.7016 13L57.8016 12.7L57.2016 12.1L58.4016 11L58.7016 10.4L59.3016 9.2L59.6016 8.9H60.7016L61.2016 8.2L61.6016 7.6L61.9016 7.3L62.1016 6.7L62.6016 6.4L63.1016 6.1L63.4016 5.7L63.5016 5.2L63.8016 4.9L64.3016 4.6L64.7016 3.7H65.6016L66.1016 3.8L66.3016 3.3L67.2016 3.1L67.3016 2.9L67.5016 2.8L67.7016 2.4L68.1016 2.1L68.0016 1.7L68.1016 1.5L69.8016 1.3L69.9016 1H70.3016L70.7016 1.1V1.3L70.5016 1.5L70.4016 1.6L70.3016 1.8L70.4016 2L71.2016 2.2L71.3016 2.4L71.1016 2.5V2.6L71.2016 2.7L71.1016 3.3V3.4L71.2016 3.5L71.1016 3.6V3.7L71.3016 3.8L71.1016 3.9L71.2016 4.5H71.3016V4.9L71.4016 5.3L71.2016 5.4V5.8L71.4016 5.9L71.5016 6.3L71.6016 6.5H71.9016L72.1016 6.6L72.3016 6.8L72.4016 6.9L72.8016 6.8L73.1016 6.9H73.2016L73.6016 6.8L73.7016 6.5L74.1016 6.3L74.4016 6.4V6.3L74.7016 6.1L74.9016 5.7H75.0016L75.4016 5.8V6L75.8016 6.2L76.1016 6.1L76.4016 6.2L76.2016 6.7V7L76.1016 7.3L76.0016 7.5L75.9016 7.8L76.1016 8.1V8.3L75.9016 8.5L76.0016 8.6L76.3016 8.9L76.6016 9L77.1016 9.3L77.2016 9.7L77.4016 10.3V10.4L77.3016 10.7L77.2016 10.9L76.9016 11.2L77.0016 11.3L77.2016 11.5L77.5016 12L77.6016 12.1L77.8016 12.4L78.1016 12.7L78.5016 12.3H78.7016L78.9016 12.2L78.7016 12.7V13.3L78.6016 13.6V13.8L78.5016 14.2V14.6L78.8016 15.1V15.7L79.1016 15.9H79.2016L79.3016 16.1L79.7016 16.3L79.9016 16.5H80.1016L80.7016 17.4H80.9016L81.0016 17.5V17.7L81.4016 17.9L81.6016 18.3L81.8016 18.4L82.0016 18.6V18.3L82.1016 18.1L82.2016 17.9L82.0016 17.6L82.1016 17.4L82.5016 17.3H82.7016L82.8016 17.2V17.3H83.1016L83.3016 16.9L83.4016 16.8V16.6H83.5016L83.4016 16.5L83.5016 16.3L83.8016 16.1L84.2016 16L84.4016 15.7H84.6016L85.0016 15.4H85.2016V15.2L85.4016 14.8V14.6L85.6016 14.5H85.7016L86.0016 14.3L86.2016 13.8L86.0016 13.6L86.1016 13.4L86.2016 13.3H86.3016L86.5016 13.1H86.6016L87.0016 13.2L87.1016 13L87.3016 13.1L87.5016 13H87.7016H87.8016H87.9016V13.3H88.1016L88.3016 13.6L88.6016 13.7H88.7016L89.1016 13.8L89.2016 13.9V14L88.9016 14.2H88.7016L88.5016 14.3V14.5H88.4016L88.2016 14.7V15.2L88.1016 15.7L88.0016 15.8L87.9016 15.9L88.0016 16.2L88.1016 16.6L88.2016 16.9L88.0016 17.1L87.9016 17.5L87.6016 17.8L87.2016 18.3L87.0016 18.6L87.1016 18.9L87.2016 19V19.7V20H87.5016L87.7016 20.1V20.4V20.6V20.8L87.8016 20.9V21L88.0016 21.1L88.2016 21.2L88.4016 21L88.6016 21.1V21.3H88.8016L89.5016 21.1L89.7016 21.2L90.0016 21.1L90.1016 20.8L90.4016 21.2L90.6016 22.2L90.9016 22.8L91.1016 23.2L91.3016 23.4L91.8016 23.6L92.2016 23.7L92.6016 24L92.9016 24.3L93.0016 24.2L93.1016 24V23.5L93.2016 23.3V22.9H93.5016L94.1016 22.5H94.6016L95.1016 21.8L95.5016 21.7L96.0016 21.6L96.3016 21.4L97.1016 20.7H97.9016L98.3016 20.9L98.8016 21L99.0016 21.2H99.3016L99.5016 21.5L99.8016 22.6L100.002 22.9H100.302L100.502 22.5L101.002 22.2L101.302 21.9L101.502 21.6L101.902 21.2L102.102 21.5L102.202 21.8H102.602L102.802 22.1L103.102 23.1L103.202 23.4L103.102 23.7L103.302 23.9V24.3V24.6L103.402 25L103.502 25.6L103.202 26.2L103.502 26.6L103.402 27.3L103.302 27.9L103.102 28L103.402 28.6L103.302 29L103.702 29.2L103.802 29.4L104.002 29.5L103.902 30.5L104.002 31.1L104.102 31.4L104.202 31.6L104.402 32L104.202 32.4L104.502 32.9V33.4L104.902 33.6L105.302 34L105.602 34.1L106.102 34.5H106.402H106.802L107.402 34.7L107.702 34.6L108.302 34.8L108.402 35.1L108.602 35.2L108.902 35.5L109.102 35.3L109.402 35.1L109.702 35.2H110.202L110.502 35H110.902L111.302 35.1L111.602 34.9L112.002 35.2L112.202 35.3L112.402 35.4H112.502L112.602 35.8V36.1L112.702 36.6L112.802 36.8L112.902 37V37.2L113.102 37.8L113.002 37.9L112.802 38.1L112.702 39.1L113.002 39.2L113.302 39.4L113.502 39.3L114.302 39.7L114.502 39.8L114.702 39.7H114.902L115.502 39.6L116.002 39.7V39.8L116.302 39.9H116.602L117.002 40L117.502 40.4L117.702 40.5H118.102L118.302 40.6L118.402 40.8V41.1L118.302 41.5L118.502 41.8V42L119.002 42.1V42.2L119.402 42.6V42.8L119.602 43.2V43.4L119.702 43.5V43.8L119.602 44L119.402 44.2L119.302 44.3V44.6V44.9L119.502 45V45.3L119.602 45.5L119.802 46.1L119.702 46.5L119.802 46.6L119.602 46.8L119.502 47.1V47.3L119.402 47.5H119.302L119.102 48.1H119.002L118.802 48.6V48.9L118.902 49.2V49.5L118.702 49.9V50.2L118.502 50.4H118.102L117.602 50.3H117.202H116.902H116.602L115.902 50.5L115.702 50.8L115.602 51H115.502L115.402 51.2H115.202L115.102 51.5L115.002 51.6L114.802 52V52.2L115.002 52.3L114.702 52.4L114.502 52.8H114.202L113.902 52.9L113.502 53L113.402 53.2L113.302 53.9L112.702 53.8L112.102 54L111.802 54.3L111.402 54.6L111.102 55.1L110.902 55.7V56.4L111.202 56.9L111.702 57.1L112.002 57.6L112.102 58.1L111.902 58.4L111.402 58.9L110.602 60.3V60.5L110.702 60.8L111.002 61.2L111.302 61.5L111.902 62.3L112.202 62.7L112.502 63.3L112.702 63.8L112.802 64.3L112.702 64.6L112.502 65L112.002 65.5L111.302 66L110.202 66.7L109.702 67.1L109.302 67.5L109.202 68.2V68.9L109.402 69.3L109.602 69.7L110.002 69.2L110.302 68.9L110.902 68.4L111.202 68.3L111.502 68.5L111.702 68.9L112.102 69.1L112.502 69.2L112.902 68.9L113.202 68.6L113.402 68.3L113.602 68.1L114.002 68L114.402 68.2V68.5L114.602 68.7V68.9L114.402 69.1L114.302 69.5L114.102 69.7V69.9V70.3V70.9L113.902 71V71.4L113.802 71.8L113.602 72.2V72.6L113.402 72.8L113.302 73.5L113.402 73.8L113.302 74L113.402 74.3L113.302 74.5V75L113.202 75.5L113.302 75.7L113.502 75.8V75.9L113.602 76.2L113.002 76.7L112.802 76.9L112.702 77.4H112.402L112.002 77.5L111.902 78.1L112.102 78.5L112.502 78.8L112.702 79.1L113.002 79.2L113.102 79.4V79.7L113.502 79.8L113.702 79.9L113.902 80.1L114.202 80.2L114.702 79.7H114.902L115.402 79.8L115.702 79.6L116.002 79.7L116.302 79.6L116.502 79.4V79L116.702 78.6L116.802 78.5L117.302 78.4L117.502 78.2H117.802L118.202 77.9L118.402 77.4L118.602 77.5L118.902 77.6L119.002 77.8L119.102 77.9L119.302 78.1M119.302 78.1V78.1ZM119.302 78.1L119.602 77.9L119.802 78.2L119.902 78.5H120.202V78.6L120.102 78.8L120.202 78.9L120.302 78.6L120.402 78.5H120.602H120.702L120.902 78.8L121.102 78.9L121.302 78.8L121.402 78.9L121.302 79.1V79.3L121.402 79.4L121.702 79.3L121.802 79.4V79.6V79.7H122.002H122.502H122.602V80L122.902 80.8L123.202 81H123.602L124.002 80.7L124.202 80.8L124.302 80.9V81.1L124.402 81.2L124.502 81.5L124.602 81.6L124.702 81.7L125.002 81.9H125.102L125.702 82.4V82.6L126.302 83L126.502 83.2H126.702L127.002 83.6L127.302 83.7L127.502 84L127.702 84.1V84.3L127.502 84.5L127.402 84.7L127.702 84.9L128.002 85L128.302 85.1L128.402 85.2L128.502 85.3L128.802 85.1H129.102L129.502 85L129.702 84.9H130.102L130.202 85.1L130.502 84.9L130.802 85.1H131.202L131.502 85.3L131.802 85.2H132.002L132.202 85L132.502 84.8L132.702 84.9L133.102 85.2L133.302 85.3L133.602 85.2L133.802 85.5L134.002 85.6L134.202 85.9H134.502L134.902 86.1L135.302 86.2L135.702 86.3L136.102 86.2L136.302 86L136.402 85.7L136.602 85.5L137.402 85.9V86.1L137.602 86.3L137.702 86.8L138.102 86.9L138.302 87.6L138.502 88.1L138.902 88.2L139.102 88.4H139.602H139.802H140.002H140.402L140.802 88.5L141.202 88.7L141.502 89.1L141.902 89.3V89.8L141.602 89.9L141.702 90.4L141.502 90.6L141.302 91L140.702 91.1L140.302 91L140.102 91.4H139.902L139.702 91.3L139.402 91.2L138.702 91.4L138.502 91.3H138.302H138.202L138.102 91.4L137.802 91.6L137.902 92L137.702 92.2L136.902 92.4L136.802 92.6L137.002 92.9L136.802 93L136.202 93.6L136.002 93.9L135.702 94.2H135.502L135.302 94.4L135.202 94.6L134.902 94.8L134.702 95L134.402 95.1L134.102 95.3L133.902 95.5L133.602 95.4H133.402V95.7V96.2V96.7L133.602 96.6L133.802 96.7L134.002 96.6L134.302 96.7L134.802 96.8L134.902 97.1L135.102 97.2H135.302L135.402 97.3V97.4L135.602 98L135.902 98.4L136.002 98.7L136.702 99L137.002 99.1H137.302V99.7L136.902 100.2L137.002 100.7V101.1L137.202 101.6V102.1L137.102 102.7L137.202 103.1L137.402 103.3V103.5L137.502 103.7L137.602 104.4H137.502L137.402 104.5H137.202L136.802 104.8L136.602 105.1V105.5L136.502 105.7V106.1L136.402 106.4L136.302 106.8L136.202 107L136.102 107.3V107.7L135.802 107.9L135.602 108.1L135.502 108.5V109L135.602 109.3L135.302 109.5L135.202 109.7L135.002 109.8L135.102 110.1L134.902 110.3L135.102 110.7L135.002 111L135.202 111.3L134.202 111.6L133.902 111.5H133.702L133.402 111.8V112.1V112.5L133.302 112.8L133.502 113L133.402 113.2L133.502 113.6L133.302 113.8L133.402 114.4L133.602 114.6L133.702 115.3L133.602 115.8L133.302 116.1L133.702 116.4V116.8L133.902 117.3L133.702 117.5L133.802 117.9L134.002 118L134.202 118.8L134.302 118.9L134.202 119.2V119.5V119.7L133.702 119.6L133.402 119.7L133.202 119.9L132.902 120.1H132.502V120.4V120.7L132.802 121.3L132.902 121.7L132.802 121.8V122.2V122.4L133.002 122.7V123.1L133.102 123.5L133.202 124V124.5L133.102 125L132.602 125.9L132.302 126.3L132.102 127.7V128.5L132.302 129L132.402 129.7L132.102 130.3L131.902 130.4L131.502 130.5L131.302 130.7L131.102 131L130.902 131.3V131.7L130.802 131.8V132V132.4L130.602 132.6V132.8H130.402V133.1V133.5L130.302 133.7L130.202 133.9H129.902L129.702 133.7L129.402 133.8L129.302 134.1L129.102 134.3L128.702 134.9L128.602 135.3L128.302 135.6L128.102 135.9V136.3V136.7L127.902 137.3L127.702 137.5L127.202 137.6L127.102 137.8L127.202 138.2L127.102 138.6L127.202 139.1L126.802 139.4L126.402 139.7L126.102 139.6H125.802L125.502 139.5L125.102 139.6L124.802 139.7L124.402 139.1L124.002 139.2L123.702 139L123.602 138.8L123.402 138.5V138.3L123.202 138.1L123.002 138.2L122.702 137.8L122.502 137.7H122.402L122.202 137.6L122.102 137.7L121.902 137.6L121.802 137.5L121.402 137.4L121.302 137.5L121.202 137.4L120.802 137.3V137.5V137.7L121.002 138L121.202 138.2L121.402 138.6L121.702 138.8V139.1L121.602 139.6V139.9L121.402 140.3V140.7L121.302 140.9L121.402 141.2H121.202L121.502 141.9L121.402 142.6V143.4L121.302 143.9L121.102 144.3L120.002 145H119.902L119.302 145.4L118.502 145.5V145.3H118.202L118.102 145.7V146L118.502 146.7V147.1V147.6L118.302 147.4L118.002 147.3L117.802 147H117.602L117.302 147.1L117.202 147L117.002 147.1L116.802 146.9L116.402 146.8H116.102L115.902 146.9L115.702 147.3L115.502 147.5H115.402L115.202 147.7V147.9L115.002 148.1L114.802 148.4L114.702 148.7L114.902 149L115.002 149.1L114.902 149.4L115.002 149.8H115.102L115.202 150.1L114.902 150.2L114.602 150.4L114.202 150.7L113.902 150.9L113.802 150.8L113.902 150.6L113.602 150.4H113.402L112.402 149.7L111.802 149.6L111.502 149.1L111.302 149.2H110.902L110.402 149.1L110.202 148.8H110.102L110.002 148.9L109.702 149.1L109.502 149.5V149.8L109.302 149.9H109.102L108.902 149.8L108.702 149.9L108.502 150L108.102 149.9L107.702 149.7L107.402 149.4L107.202 149.5L106.602 149.4L105.902 149.5L105.602 149.4L105.402 149.5L105.502 149.7L105.202 149.8L105.002 149.9L104.902 150.1L104.702 150.3L104.502 150.6L104.402 150.8V151L104.602 151.1V151.3L104.702 151.4L104.602 151.6L104.402 152.1L104.602 152.3V152.6V153L104.502 153.4L104.202 153.3L103.802 153.6L103.602 153.8V154.1L103.502 154.4L103.402 154.5L103.202 154.4H102.802L102.702 154.6L102.502 154.8L102.402 155.1L102.202 155.2L102.002 155.4L101.802 155.5H101.402L101.202 155.4L101.102 155.5L101.002 155.3L100.802 155.4L100.702 155.7L100.302 155.9L100.102 155.8L99.9016 155.9L99.6016 156.1V156L99.5016 156.1L99.1016 156L98.9016 155.9L98.8016 156L98.7016 156.1L98.5016 156L98.4016 156.1L98.2016 156.2V156.6M98.2016 156.6V156.6ZM98.2016 156.6L98.1016 156.9L97.9016 157.2L97.8016 157.4L97.6016 157.5L97.5016 157.7L97.6016 158M97.6016 158V158ZM97.6016 158L98.0016 158.2L98.1016 158.4H98.2016L98.6016 158.8V159L98.7016 159.1L98.8016 159.4H99.0016L99.1016 159.6L99.0016 159.7L98.8016 160.1H98.6016H98.4016L98.1016 160L97.8016 160.1L97.6016 160.4V160.6L97.5016 160.7H97.3016L97.0016 160.8L96.9016 160.9V161.1V161.3V161.6L96.7016 161.9L96.6016 162H96.4016L96.3016 161.9H96.1016H96.0016L95.8016 161.8L95.6016 162L95.3016 161.9H95.2016L94.9016 162.1L94.8016 161.8L94.7016 161.7L94.5016 161.5H94.1016L93.9016 161.8H93.8016L93.6016 162L93.5016 162.2L93.6016 162.5L93.4016 162.6H93.1016L92.9016 162.9L92.8016 162.8L92.5016 163.1L92.3016 163.3L92.0016 163.4V163.5H91.7016L91.6016 163.4L91.3016 163.6V163.7H91.2016H91.0016L90.9016 163.8L90.8016 164.1H90.7016L90.3016 164.2V164.3H90.1016H89.9016L89.8016 164.2L89.4016 164.3L89.1016 164.2L89.0016 164.3L89.2016 164.8V164.9L89.3016 165.2L89.6016 165.7L89.8016 165.9L89.7016 166.2L89.6016 166.4V166.5L89.4016 166.8V166.9L89.2016 167.1V167.5L89.1016 167.6L88.9016 167.7L88.8016 167.9L88.5016 168.2L88.4016 168.4V168.6L88.1016 168.5L87.9016 168.4L87.8016 168.2V168.1L87.4016 167.7V167.4V167L87.0016 166.8L86.8016 166.4L86.9016 166.2L86.8016 166.1L86.6016 166.2L86.2016 166.1L86.1016 165.9L85.8016 166L85.4016 165.9L85.3016 165.8L85.2016 165.5L84.9016 165.1L84.5016 165.3V165.4L84.4016 165.6L84.0016 165.7L83.9016 165.6L83.6016 165.5L83.4016 165.3L83.3016 165H83.0016L82.9016 164.8L82.6016 164.9L82.2016 164.6L81.9016 164.4L81.8016 164.2H81.7016L81.5016 164.3L81.4016 164.2H81.0016L80.8016 164.1V163.9V163.7L80.9016 163.5V163.2L80.4016 162.8L80.5016 162.3L80.3016 162.1L80.2016 161.7L79.9016 161.6L79.6016 161.5L79.4016 161.6L79.0016 161.5L78.7016 161.2H78.4016L77.9016 161L77.8016 160.9V160.7L77.7016 160.4H77.5016L77.2016 160.3L77.0016 160.2L76.5016 160.4L76.1016 160.1H75.6016L75.5016 159.9L75.8016 159.8L75.9016 159.6L75.8016 159.5L75.5016 159.4L75.0016 159.5L74.7016 159.3H74.5016H74.3016L74.0016 159.5L73.7016 159.6V159.8L73.8016 159.9H73.7016L73.2016 159.8H73.0016L72.8016 159.7L72.3016 159.6L72.2016 159.4L72.0016 159.3L71.7016 159.2L71.4016 159V159.1L71.3016 159.5L71.2016 159.6L70.9016 159.7V159.9H70.7016L70.5016 160L70.3016 160.5H70.1016L69.9016 160.7V161.1L70.2016 161.3H70.3016L70.5016 161.4L70.3016 161.7L70.1016 161.9V162H69.9016L70.0016 162.3L69.8016 162.6L69.9016 162.7L69.7016 162.8L69.5016 162.7L69.3016 162.3L68.9016 162.1L68.7016 162.4L68.4016 162.5L68.2016 162.8L68.0016 163L67.8016 163.2L67.7016 163.1L67.8016 163L67.5016 162.9V163H67.2016V162.7L66.9016 162.8L66.6016 163.1H66.4016L66.3016 163.3L66.1016 163.4L65.9016 163.3L65.8016 163.4V163.5L65.4016 163.7M65.4016 163.7V163.7ZM65.4016 163.7L65.0016 163.9L64.9016 163.7L64.8016 163.9H64.6016H64.3016L64.2016 164L63.9016 164.3L63.7016 164.4H63.5016L63.4016 164.3H63.2016L63.0016 164.2L62.7016 164.1V163.6L62.5016 163.8L62.1016 163.6L61.8016 163.7L61.7016 163.5H61.4016L61.3016 163.7L61.1016 163.6H60.9016V163.7L60.7016 163.8L60.5016 163.6H60.3016H60.1016L59.7016 163.9H59.2016L58.2016 164.6L55.0016 165.8L53.1016 166.8L52.0016 167.4L51.9016 166.8L51.8016 166.7L51.9016 166.6L51.8016 166.2H51.7016V165.9L51.4016 166L47.0016 166.8H46.5016L46.1016 166.7L45.7016 166.4L45.4016 166V165.8L44.8016 163.6L44.7016 163.2L44.5016 162.4L44.4016 162.3H44.3016L44.2016 162.2L44.3016 162.1L44.8016 161.8M44.8016 161.8V161.8ZM44.8016 161.8L44.9016 161.9L45.0016 161.8L45.4016 162.6L44.6016 162.8L45.0016 164.2L45.1016 164.3L48.0016 163.8L47.8016 163.1L47.3016 162.6L47.2016 162.8L46.9016 162.6L47.0016 162.4L46.9016 162.3L46.7016 162L46.3016 162.2L45.8016 161.3L46.0016 161.2L45.8016 160.9H45.6016L45.5016 160.7L45.0016 159.8L44.3016 158.6L43.8016 157.7L44.0016 157.5L44.2016 157.3L44.0016 157.4L43.8016 157.6H43.5016L42.8016 157.3L43.3016 157.5M43.3016 157.5V157.5ZM43.3016 157.5H43.5016L43.8016 156.9L42.7016 156.4L42.4016 157.2H42.5016L41.7016 156.9L42.0016 157L42.1016 156.6H42.3016L42.5016 156.3L42.0016 156.1L41.3016 156.2V156.3V156.1H41.0016L40.9016 156.5H40.6016L40.5016 156.4L40.2016 155.8V155.7H40.1016L40.0016 155.5H39.8016V155.4L39.3016 155.3H39.9016L39.5016 155L40.3016 154.3L41.3016 154.1V153.9H41.4016V154.8L41.7016 154.9L42.2016 154.8L43.2016 154.7L44.3016 154.6H44.4016L45.5016 154.5H45.6016L46.0016 154.4V154.3L46.5016 154L47.0016 153.4L47.1016 153.1L47.5016 152.5L47.8016 152.2L48.0016 152.1L48.3016 152L48.5016 152.1L48.9016 152.3L49.2016 152.4H49.7016H50.0016V152.3H49.4016L49.1016 152.2L48.8016 152L48.6016 151.9L48.3016 151.8L47.9016 152L47.8016 151.9L48.1016 151.3L48.3016 150.9L48.5016 150.5L49.1016 149.5L49.4016 148.9L49.5016 148.7L49.6016 148V147.6L49.5016 147.2L49.3016 146.4V146L49.1016 145.6L49.2016 146V146.3L49.3016 146.6L49.4016 147V147.1L49.5016 147.6V147.9L49.4016 148.4H49.3016L48.9016 149.4H48.8016L47.9016 150.9L47.6016 151.4L47.1016 152.3L46.8016 152.7L46.5016 153.2L46.0016 153.7L45.6016 153.8L45.1016 153.9H44.4016H43.9016L43.0016 153.8L42.9016 153.7L43.1016 153.5L43.2016 153.1L43.8016 152.5L44.1016 152.1L44.2016 151.9L44.0016 152.1L43.9016 152.3L43.1016 153L43.0016 153.1V153.3V153.5L42.8016 153.7L42.6016 153.6V153.7H42.4016L42.2016 153.8V153.9L42.0016 153.7L41.7016 153.5H41.3016L41.6016 153.6L41.9016 153.7L41.8016 153.8L41.5016 153.7L41.3016 153.8L41.1016 153.6V152.8L41.0016 152.7L40.5016 152.3H38.8016H38.6016L38.4016 152.2V152.3L38.1016 152.2H37.3016L36.8016 152.3L36.7016 152.1L36.6016 151.6M36.6016 151.6V151.6ZM36.6016 151.6V151.8H36.5016L36.4016 151.5L36.3016 151.4V151.1L36.4016 150.8L36.7016 150L37.0016 149.6L37.2016 149.3L37.4016 149.2L37.0016 148.8L36.7016 148.5L35.2016 147H35.1016V146.9L34.4016 146.3L32.3016 144.2L31.6016 143.5L30.4016 142.4L30.3016 142.3L30.4016 142.2V142.1L30.1016 142L30.2016 141.8L30.0016 141.6L30.4016 141.8L30.5016 141.5V141.4L30.4016 140.8L30.2016 140.3L30.1016 140.1L30.0016 139.9L29.8016 139.6L29.7016 139.5L29.6016 139.6L29.5016 139.4L29.8016 139.1V139L30.0016 138.9V138.7V138.6L30.2016 138.5L30.3016 138.2V138L30.5016 137.8L30.6016 137.9L31.5016 137.6L31.7016 137.8V137.7L31.3016 137.4L31.2016 137.1L31.1016 137L30.3016 136.6L29.1016 137.1L28.5016 137H28.4016L28.2016 137.3L27.9016 137.4M27.9016 137.4L27.5016 138.3L27.4016 138.2H27.5016L27.8016 137.7L27.9016 137.4ZM27.9016 137.4L27.8016 137.3L27.6016 137.4L27.4016 137.3L27.3016 137.4L27.2016 137.2V137.1V137H27.3016H27.6016L27.8016 136.8L27.9016 136.7L28.1016 136.6L28.2016 136.4V136.2L28.1016 136L28.0016 135.9L27.9016 135.3L27.8016 135.1L27.6016 134.9M27.6016 134.9L27.2016 134.8L27.0016 134.7M27.6016 134.9L27.2016 134.7H27.0016M27.6016 134.9L27.8016 134.7V134.5M27.0016 134.7L26.4016 134.6H26.0016M26.0016 134.6L25.8016 134.7L25.5016 134.9L25.3016 135L25.1016 135.7L24.6016 136.3L24.4016 136.4L24.3016 136.7L24.2016 136.8V136.7L24.0016 135.9V135.3L23.9016 135.1L24.0016 134.8L24.2016 134.6L24.3016 134.4H24.4016L24.5016 134.3L24.6016 134.4V134.5L24.7016 134.6L24.9016 134.8L25.3016 134.9L25.5016 134.8L26.0016 134.6ZM27.8016 134.5H27.7016L27.5016 134.2L27.6016 134.1H27.8016L27.9016 134.2L27.8016 134.3L27.9016 134.4L27.8016 134.5ZM27.8016 134.5L27.9016 134.7L28.1016 134.6L28.2016 134.7L28.4016 134.1L28.6016 134V133.9L28.7016 133.4L28.6016 133.3L28.8016 133.1L28.9016 133.2L29.1016 133.1L28.8016 132.9L28.7016 132.8L28.3016 133H28.0016L27.6016 133.5L27.7016 133.6L27.5016 133.9H27.2016V133.6L27.5016 133.2H27.6016L27.7016 133L26.9016 132.8L26.8016 133V133.1H26.5016L26.6016 132.5L26.5016 132.4H26.4016L26.3016 132.2L26.4016 131.9H26.5016V131.6L26.4016 131.4V131.2L26.7016 131.1L26.8016 131L26.9016 130.8V130.5L26.4016 130.1L26.3016 130H26.1016L26.0016 129.9L25.4016 129.8V129.7L25.2016 129.6M25.2016 129.6L25.0016 130.9M25.2016 129.6V129.7L25.0016 130.9M25.2016 129.6H25.0016L24.9016 129.5V129.3L25.0016 129.2L24.9016 129L24.8016 128.8H24.7016L24.6016 128.6L24.7016 128.4V128.3L24.6016 127.7L24.7016 127.6L24.5016 127.5H24.4016L24.3016 127.7V127.8L24.2016 128L24.3016 128.1L24.2016 128.3L23.9016 128.1L23.7016 127.9L23.5016 127.8L23.3016 127.9L23.4016 128.3H23.1016V128.2H22.6016L22.4016 128.4L22.0016 128.1V128L22.1016 127.8L21.9016 128L21.6016 127.8M25.0016 130.9V130.9ZM21.6016 127.8L21.7016 127.6L21.6016 127.5V127.8ZM21.6016 127.8H21.4016L20.9016 127.7L21.1016 127.8V127.9L21.3016 127.8L21.4016 127.9H21.6016L21.8016 128.2L22.0016 128.3L22.2016 128.5H22.3016L22.7016 129H22.8016L23.1016 129.2M23.1016 129.2V129.2ZM23.1016 129.2L23.3016 129.3L23.5016 129.5L23.4016 129.7L23.6016 129.9V130.2L23.7016 130.4L23.8016 130.5L23.9016 130.8L23.8016 130.9L23.6016 130.8L23.2016 130.7V130.5L22.9016 130.3M22.9016 130.3L22.8016 130.6L22.6016 130.9V130.8L22.8016 130.5L22.9016 130.3ZM22.9016 130.3H22.8016L22.6016 130.1H22.5016L22.7016 129.9L22.5016 129.3L22.4016 129.5V129.7L22.6016 129.8H22.3016L22.1016 129.9L21.9016 130.1H21.7016L21.6016 130.2H21.4016L21.3016 129.9L21.2016 129.5L21.1016 129.3H21.0016L20.9016 129.4L20.7016 129.3L20.5016 129.4L20.2016 129.2L20.1016 129.3L20.2016 129.5L20.1016 129.9L20.0016 130.1L19.9016 130.3L19.8016 130.5V130.8L19.6016 130.9L19.5016 131.1M19.5016 131.1V131.1ZM19.5016 131.1L19.4016 131.3L19.3016 131.7L19.5016 131.8V131.9L19.1016 132V132.1V132.3L18.9016 132.4V132.6L18.8016 132.7V132.5L18.7016 132.4L18.6016 132.2L18.7016 132.1L18.4016 131.7L18.1016 131.4L17.6016 131.2H17.5016L17.2016 131.1H16.9016M16.9016 131.1V131.2V131.5H16.7016V131.8L16.4016 132.1H16.2016L16.1016 131.9L16.6016 131L16.9016 131.1ZM16.9016 131.1H17.1016L17.2016 130.7L17.1016 130.4L17.0016 130.2L16.9016 130.1L17.0016 130H17.1016L17.4016 129.9L17.9016 130.1L18.1016 130L18.2016 129.9L18.3016 129.6L17.9016 129.1M17.9016 129.1V129.1Z" stroke="#0552B5"/>
</svg>
