<svg width="211" height="119" viewBox="0 0 211 119" fill="none" xmlns="http://www.w3.org/2000/svg">
<path fill-rule="evenodd" clip-rule="evenodd" d="M133.898 117.7H133.598L133.298 117.5V117.2L133.398 117L133.498 116.8H133.198H132.998V116.6H132.898L132.598 116.5V116.4L132.498 116.2L132.398 116.1V116H132.198V115.9L131.998 115.8V115.6L131.898 115.4L132.098 115.5L132.198 115.4L132.098 115.3L132.198 115.1L132.498 115H132.898L132.998 115.2H133.198V115.4H133.498V115.6L133.398 115.7L133.198 116.1H133.098L133.298 116.5L133.398 116.6H133.698H133.798L133.898 116.4H134.098L133.998 116.5L133.798 116.7V116.8L134.098 116.9L134.498 117.1L134.698 117L134.898 116.8L134.998 116.6H135.298H135.498L135.698 116.5L135.798 116.3L135.998 116.1V116.2L135.898 116.3L135.798 116.5L135.698 116.6L135.598 116.7L135.498 116.9L135.398 116.8L135.198 117H135.098H134.898V117.1L134.598 117.3L134.398 117.5L134.298 117.7H133.898Z" fill="white" stroke="#0552B5"/>
<path fill-rule="evenodd" clip-rule="evenodd" d="M140.697 109.9H140.497V109.7L140.197 109.6V109.4L140.097 109.3L139.997 109.1L140.097 108.9H140.297L140.197 108.8H140.297L140.397 108.6V108.1H140.197L140.097 108.2L139.897 108.4L139.797 108.2L140.097 108L140.397 107.6V107H140.497L140.597 107.2L140.797 107.3L141.197 107.2H141.397V107.1L141.597 107L141.497 106.9H141.697V107L141.897 106.9V107L142.097 107.1L142.197 107.2L142.297 107.1L142.197 107.3V107.6H142.397V107.8H142.497L142.597 108L142.497 108.1V108.3L142.397 108.5H142.297L142.097 108.8V108.9L141.997 108.8V108.9L141.797 109L141.697 109.2L141.497 109.3V109.5H141.297L141.197 109.6L141.297 109.8H140.997L140.897 109.7L140.797 109.6L140.697 109.9Z" fill="white" stroke="#0552B5"/>
<path fill-rule="evenodd" clip-rule="evenodd" d="M129.498 110.8L129.398 110.9L129.298 110.7L129.198 110.8L129.098 111L129.398 111.3L129.298 111.4H129.398L129.498 111.7L129.298 111.8L129.198 111.7L128.898 111.6L128.798 111.3L128.698 111.2H128.898L129.098 110.8L128.898 110.7V110.5H128.698V110.8H128.598L128.498 110.6V110.5L128.398 110.3V110.1L128.698 110L128.898 109.9L128.998 109.7H129.098V109.5L129.198 109.4L128.898 109.3L128.998 109.2V109.1L129.198 109L129.098 108.7L129.198 108.6L129.398 108.7L129.498 108.8H129.698L129.798 108.7L129.998 108.9V109.1L130.298 109L130.398 109.1L130.598 109.2L130.698 109.4L130.898 109.3L130.798 109.6L130.898 109.7H130.698V109.8L130.598 110L130.198 109.9L130.098 109.7H129.798V109.6L129.698 109.5H129.598H129.498V109.7L129.398 110L129.498 110.3L129.398 110.5V110.7L129.498 110.8Z" fill="white" stroke="#0552B5"/>
<path fill-rule="evenodd" clip-rule="evenodd" d="M131.203 97.7008H131.103V97.8008L130.903 97.9008L130.703 97.8008L130.603 97.9008H130.303L130.203 97.8008V97.7008L130.303 97.6008L130.703 97.3008L131.003 97.4008L131.103 97.2008H131.403L131.503 97.1008L131.303 96.8008L131.403 96.5008L131.303 96.4008L131.603 96.5008V96.6008H132.103L132.203 96.5008H132.403L132.503 96.6008L132.603 96.5008L132.703 96.3008H132.503L132.603 96.1008V95.9008L132.403 95.8008V95.7008L132.303 95.6008L132.403 95.5008L132.503 95.4008L132.703 95.3008V95.7008L132.603 95.9008L132.703 96.0008L132.903 96.1008H133.303L133.403 95.8008H133.603L133.703 96.1008V96.3008H133.603L133.503 96.5008L133.403 96.4008L133.303 96.5008L133.203 96.4008H133.003L132.703 96.5008L132.503 96.7008L132.403 97.0008L132.603 97.1008L132.703 97.4008L132.403 97.5008V97.6008L132.203 97.3008H132.003H131.703V97.6008L131.603 97.7008L131.403 97.6008L131.203 97.7008Z" fill="white"/>
<path d="M130.303 97.9008H130.603L130.703 97.8008L130.903 97.9008L131.103 97.8008V97.7008H131.203L131.403 97.6008L131.603 97.7008L131.703 97.6008V97.3008H132.003H132.203L132.403 97.6008V97.5008L132.703 97.4008L132.603 97.1008L132.403 97.0008L132.503 96.7008L132.703 96.5008L133.003 96.4008H133.203L133.303 96.5008L133.403 96.4008L133.503 96.5008L133.603 96.3008H133.703V96.1008L133.603 95.8008H133.403L133.303 96.1008H132.903L132.703 96.0008L132.603 95.9008M130.303 97.9008V97.9008ZM130.303 97.9008L130.203 97.8008V97.7008L130.303 97.6008L130.703 97.3008L131.003 97.4008L131.103 97.2008H131.403L131.503 97.1008L131.303 96.8008L131.403 96.5008L131.303 96.4008L131.603 96.5008V96.6008H132.103L132.203 96.5008H132.403L132.503 96.6008L132.603 96.5008L132.703 96.3008H132.503L132.603 96.1008V95.9008M132.603 95.9008L132.403 95.8008V95.7008L132.303 95.6008L132.403 95.5008L132.503 95.4008L132.703 95.3008V95.7008L132.603 95.9008Z" stroke="#0552B5"/>
<path fill-rule="evenodd" clip-rule="evenodd" d="M158.297 99.3L158.197 99.4L158.097 99.3L157.797 99.4L157.697 99.3L157.597 99.2L157.297 99V98.7L157.497 98.8L157.597 98.7L157.497 98.5L157.797 98.4L157.897 98.6H158.297V98.4L158.197 98.2V98.1L158.497 98L158.597 98.2L158.997 98.1L159.097 98.2L159.297 98.3L159.497 98.6V98.8H159.697L159.997 98.7V99.4V99.6L160.097 99.7L160.197 100.1L160.697 100.2H160.897L161.197 100.3V100.4L160.997 100.5L160.897 100.7V100.9H160.797H160.697L160.497 100.7H160.097V100.5V100.3L159.897 100L159.297 99.6H159.097L158.997 99.7H158.797V99.6L158.697 99.4L158.397 99.3H158.297Z" fill="white"/>
<path d="M160.197 100.1L160.097 99.7L159.997 99.6V99.4V98.7L159.697 98.8H159.497V98.6L159.297 98.3L159.097 98.2L158.997 98.1L158.597 98.2L158.497 98L158.197 98.1V98.2L158.297 98.4V98.6H157.897L157.797 98.4L157.497 98.5L157.597 98.7L157.497 98.8L157.297 98.7V99L157.597 99.2L157.697 99.3L157.797 99.4L158.097 99.3L158.197 99.4L158.297 99.3H158.397L158.697 99.4L158.797 99.6V99.7H158.997L159.097 99.6H159.297L159.897 100L160.097 100.3V100.5V100.7H160.497L160.697 100.9H160.797H160.897V100.7L160.997 100.5L161.197 100.4V100.3L160.897 100.2H160.697L160.197 100.1ZM160.197 100.1V100.1Z" stroke="#0552B5"/>
<path fill-rule="evenodd" clip-rule="evenodd" d="M161.897 99.4008L161.797 99.2008V98.9008L161.897 99.0008L162.097 98.9008V98.8008H162.297L162.397 99.1008H162.597L162.797 99.0008H162.997L163.197 99.2008L163.397 99.4008L163.697 99.1008L163.797 99.2008H163.897L163.997 99.3008L164.097 99.8008L164.497 100.001L164.597 100.101L164.797 100.201V100.301L165.097 100.401V100.501L164.897 100.601L164.797 100.801V101.001L164.697 101.101L164.597 100.801L164.397 100.601L164.097 100.501V100.601L163.797 100.801L163.597 100.701H163.397V100.801H163.197V100.601L163.397 100.501L163.297 100.301L162.797 100.101L162.697 100.001L162.597 100.101H162.097L162.297 99.9008V99.7008L161.897 99.4008Z" fill="white" stroke="#0552B5"/>
<path fill-rule="evenodd" clip-rule="evenodd" d="M157.1 98.5992H156.9L156.8 98.3992H156.4V98.1992H156.3L156.2 98.2992L156 98.3992V98.4992H155.8L155.6 98.2992L155.5 98.1992L155.2 98.3992L155 98.2992V98.0992L154.9 97.9992H154.7L154.6 97.7992L154.5 97.5992L154.6 97.1992H154.9L155 97.2992L154.8 97.6992L155.2 97.9992H155.5V97.8992L155.7 97.7992L155.8 97.4992L155.7 97.2992L155.9 97.3992H156.2L156.4 97.5992L156.8 97.4992H157.1L157.2 97.6992L157.8 97.7992L157.9 97.8992H157.4L157.3 97.9992L156.9 98.0992V98.3992L157.1 98.5992Z" fill="white"/>
<path d="M157.1 98.5992H156.9L156.8 98.3992H156.4V98.1992H156.3L156.2 98.2992L156 98.3992V98.4992H155.8L155.6 98.2992L155.5 98.1992L155.2 98.3992L155 98.2992V98.0992L154.9 97.9992H154.7L154.6 97.7992L154.5 97.5992L154.6 97.1992H154.9L155 97.2992L154.8 97.6992L155.2 97.9992H155.5V97.8992L155.7 97.7992L155.8 97.4992L155.7 97.2992L155.9 97.3992H156.2L156.4 97.5992L156.8 97.4992H157.1L157.2 97.6992L157.8 97.7992L157.9 97.8992H157.4L157.3 97.9992L156.9 98.0992V98.3992L157.1 98.5992ZM157.1 98.5992V98.5992Z" stroke="#0552B5"/>
<path fill-rule="evenodd" clip-rule="evenodd" d="M144.503 99.6992L144.403 99.7992L144.503 99.9992L144.303 99.8992L144.203 99.9992L144.103 99.7992H143.603H143.403H143.203V99.6992L143.003 99.7992L142.903 99.5992V99.3992L142.703 99.2992V99.3992L142.603 99.1992L142.303 99.0992V98.6992H142.203V98.2992L142.303 98.1992L142.603 98.0992H142.703L142.803 97.8992L142.603 97.7992H142.503V97.5992H142.803V97.3992L142.903 97.2992L143.103 97.1992L143.203 97.3992H143.403L143.603 97.4992V97.5992L143.903 97.6992V97.8992L144.103 97.9992L144.003 98.2992L144.303 98.3992L144.603 98.2992L144.703 98.0992V97.8992H144.803H144.903L145.003 98.1992L144.903 98.2992L144.703 98.5992L144.503 98.6992L144.403 98.5992L144.303 98.8992V99.1992L144.503 99.3992L144.703 99.2992L144.803 99.3992L144.703 99.4992L144.603 99.5992L144.503 99.6992Z" fill="white" stroke="#0552B5"/>
<path fill-rule="evenodd" clip-rule="evenodd" d="M184.298 91.1996L184.398 90.7996L184.298 90.4996V90.3996L183.998 89.8996L183.898 89.7996H183.598L183.498 89.6996L183.298 89.8996L183.198 89.7996L183.298 89.5996L183.098 89.3996H182.898V89.4996V89.2996L183.098 89.1996L183.198 88.8996H183.398L183.498 88.7996H183.798V88.5996L183.998 88.6996L183.898 88.7996L184.098 88.8996L184.398 89.2996L184.498 89.4996L184.598 89.5996V89.6996V89.7996L184.398 89.8996L184.498 90.1996L184.798 90.3996L185.098 90.2996L184.998 90.4996L184.898 90.6996L185.098 90.9996V91.0996L185.498 91.5996V91.6996L185.398 91.8996H185.098L184.998 91.9996V92.2996L184.898 92.3996L184.998 92.1996V91.8996L184.598 91.5996H184.198L184.098 91.3996L183.798 91.5996L183.598 91.7996L183.698 91.8996V92.0996L183.498 92.1996L183.298 92.2996L183.198 92.4996H183.098L182.898 92.0996L182.998 91.7996L183.298 91.6996L183.498 91.7996L183.698 91.6996L183.798 91.5996L183.998 91.3996L184.198 91.2996L184.298 91.1996Z" fill="white"/>
<path d="M183.798 91.5996L184.098 91.3996L184.198 91.5996H184.598L184.998 91.8996V92.1996L184.898 92.3996L184.998 92.2996V91.9996L185.098 91.8996H185.398L185.498 91.6996V91.5996L185.098 91.0996V90.9996L184.898 90.6996L184.998 90.4996L185.098 90.2996L184.798 90.3996L184.498 90.1996L184.398 89.8996L184.598 89.7996V89.6996V89.5996L184.498 89.4996L184.398 89.2996L184.098 88.8996L183.898 88.7996L183.998 88.6996L183.798 88.5996V88.7996H183.498L183.398 88.8996H183.198L183.098 89.1996L182.898 89.2996V89.4996V89.3996H183.098L183.298 89.5996L183.198 89.7996L183.298 89.8996L183.498 89.6996L183.598 89.7996H183.898L183.998 89.8996L184.298 90.3996V90.4996L184.398 90.7996L184.298 91.1996L184.198 91.2996L183.998 91.3996L183.798 91.5996ZM183.798 91.5996L183.598 91.7996L183.698 91.8996V92.0996L183.498 92.1996L183.298 92.2996L183.198 92.4996H183.098L182.898 92.0996L182.998 91.7996L183.298 91.6996L183.498 91.7996L183.698 91.6996L183.798 91.5996Z" stroke="#0552B5"/>
<path fill-rule="evenodd" clip-rule="evenodd" d="M164.303 88.2992L164.403 88.4992L164.703 88.7992H164.803V88.8992H165.003L165.103 88.9992H165.303L165.403 88.8992V88.4992L165.503 88.5992L165.603 88.7992V88.9992L165.703 89.0992V89.1992H165.903L166.003 89.0992V88.7992V88.6992V88.3992V88.2992H166.203L166.603 88.1992V88.2992L166.803 88.3992L166.903 88.5992L167.103 88.4992L167.403 88.5992V88.7992H167.303L167.103 88.8992V89.3992L166.803 89.5992V89.6992L166.603 89.8992H166.303L166.003 90.0992L165.903 90.1992L165.603 90.3992V90.2992H165.403H165.203L165.303 90.0992L165.103 89.9992L164.803 90.0992V90.1992L164.603 90.2992L164.503 90.4992H164.303V90.2992L164.203 89.9992L164.003 89.8992H163.703L163.603 89.9992V90.1992L163.503 90.0992V89.9992L163.703 89.8992L163.603 89.7992L163.503 89.8992L163.403 89.5992L163.203 89.3992H162.803L162.703 89.4992V89.5992L162.403 89.4992L162.303 89.2992L162.103 89.0992H161.903L161.803 89.1992H161.703V88.8992L161.603 88.7992L161.503 88.5992H161.203V88.6992H160.903L160.803 88.3992L160.703 88.2992V88.1992L160.803 88.0992L161.103 88.1992L161.203 87.9992V87.7992V87.4992L161.103 87.2992L161.403 87.1992H161.603L161.503 87.4992H161.603V87.7992H161.903L162.003 87.6992L162.203 87.7992H162.303L162.603 87.8992H162.903L163.103 87.9992V88.1992L163.303 88.2992H163.503V88.0992L163.703 87.9992L163.803 88.3992L164.003 88.2992L164.103 88.3992L164.303 88.2992Z" fill="white"/>
<path d="M163.703 89.8992H164.003L164.203 89.9992L164.303 90.2992V90.4992H164.503L164.603 90.2992L164.803 90.1992V90.0992L165.103 89.9992L165.303 90.0992L165.203 90.2992H165.403H165.603V90.3992L165.903 90.1992L166.003 90.0992L166.303 89.8992H166.603L166.803 89.6992V89.5992L167.103 89.3992V88.8992L167.303 88.7992H167.403V88.5992L167.103 88.4992L166.903 88.5992L166.803 88.3992L166.603 88.2992V88.1992L166.203 88.2992H166.003V88.3992V88.6992V88.7992V89.0992L165.903 89.1992H165.703V89.0992L165.603 88.9992V88.7992L165.503 88.5992L165.403 88.4992V88.8992L165.303 88.9992H165.103L165.003 88.8992H164.803V88.7992H164.703L164.403 88.4992L164.303 88.2992L164.103 88.3992L164.003 88.2992L163.803 88.3992L163.703 87.9992L163.503 88.0992V88.2992H163.303L163.103 88.1992V87.9992L162.903 87.8992H162.603L162.303 87.7992H162.203L162.003 87.6992L161.903 87.7992H161.603V87.4992H161.503L161.603 87.1992H161.403L161.103 87.2992L161.203 87.4992V87.7992V87.9992L161.103 88.1992L160.803 88.0992L160.703 88.1992V88.2992L160.803 88.3992L160.903 88.6992H161.203V88.5992H161.503L161.603 88.7992L161.703 88.8992V89.1992H161.803L161.903 89.0992H162.103L162.303 89.2992L162.403 89.4992L162.703 89.5992V89.4992L162.803 89.3992H163.203L163.403 89.5992L163.503 89.8992L163.603 89.7992L163.703 89.8992ZM163.703 89.8992L163.603 89.9992V90.1992L163.503 90.0992V89.9992L163.703 89.8992Z" stroke="#0552B5"/>
<path fill-rule="evenodd" clip-rule="evenodd" d="M181.8 89.2008L181.5 89.4008V89.1008L181.1 88.7008H181H180.6L180.4 88.8008V88.9008L180.6 89.0008L180.5 89.3008L180.6 89.5008H180.4V89.4008L180.2 89.3008H179.9L179.6 89.4008L179.5 89.5008L179.7 89.7008L179.8 89.8008L180.2 90.1008L180 90.4008V90.5008L180.2 90.6008V90.8008H179.9L179.6 91.0008L179.5 90.9008L179.3 91.0008L179.5 91.4008L179.3 91.0008L179.2 91.1008L178.8 91.5008L179 91.8008L179.2 91.9008H178.9L178.6 92.1008L178 92.7008V92.8008L177.9 92.7008V92.9008H177.8L177.5 92.5008H177.3L177.4 92.2008V92.1008H175.7L175.6 92.0008L175.3 91.9008V91.5008V89.1008H175.1V88.5008L175 88.4008L175.1 88.2008H175.3L175.4 88.1008L175.7 88.0008L175.8 87.9008L175.5 87.5008L175.6 87.1008L175.5 86.9008L175.7 86.8008L175.8 87.1008H176.2L176.4 87.0008L176.7 86.8008L176.9 86.5008H177L176.6 86.9008L176.5 87.0008L176.6 87.1008L176.7 87.2008L176.9 87.1008L177.3 86.7008L177.4 86.5008L177.3 86.3008L177.1 86.2008L177.2 86.1008V86.0008H177.4L177.6 85.7008L177.5 85.5008L177.8 85.9008L178.3 85.8008V85.7008L178.5 85.8008L178.7 85.7008L178.9 85.5008V85.3008L179.2 85.4008L179 85.5008L179.2 85.7008L179.4 85.8008V85.9008H179.7L180.1 86.1008L180.2 86.0008L180.8 85.8008V86.0008H181L180.9 86.2008L181 86.3008L181.2 86.2008V86.4008L181.3 86.5008L181.6 86.6008L181.5 86.7008V86.9008L181.3 87.1008V87.4008L181.4 87.7008L181.5 87.8008V88.0008V88.1008V88.3008L181.7 88.5008L182 88.7008L181.9 88.8008V88.9008L181.8 89.2008Z" fill="white"/>
<path d="M179.3 91.0008L179.5 90.9008L179.6 91.0008L179.9 90.8008H180.2V90.6008L180 90.5008V90.4008L180.2 90.1008L179.8 89.8008L179.7 89.7008L179.5 89.5008L179.6 89.4008L179.9 89.3008H180.2L180.4 89.4008V89.5008H180.6L180.5 89.3008L180.6 89.0008L180.4 88.9008V88.8008L180.6 88.7008H181H181.1L181.5 89.1008V89.4008L181.8 89.2008L181.9 88.9008V88.8008L182 88.7008L181.7 88.5008L181.5 88.3008V88.1008V88.0008V87.8008L181.4 87.7008L181.3 87.4008V87.1008L181.5 86.9008V86.7008L181.6 86.6008L181.3 86.5008L181.2 86.4008V86.2008L181 86.3008L180.9 86.2008L181 86.0008H180.8V85.8008L180.2 86.0008L180.1 86.1008L179.7 85.9008H179.4V85.8008L179.2 85.7008L179 85.5008L179.2 85.4008M179.3 91.0008L179.5 91.4008M179.3 91.0008L179.2 91.1008L178.8 91.5008L179 91.8008L179.2 91.9008H178.9L178.6 92.1008L178 92.7008V92.8008L177.9 92.7008V92.9008H177.8L177.5 92.5008H177.3L177.4 92.2008V92.1008H175.7L175.6 92.0008L175.3 91.9008V91.5008V89.1008H175.1V88.5008L175 88.4008L175.1 88.2008H175.3L175.4 88.1008L175.7 88.0008L175.8 87.9008L175.5 87.5008L175.6 87.1008L175.5 86.9008L175.7 86.8008L175.8 87.1008H176.2L176.4 87.0008L176.7 86.8008L176.9 86.5008H177L176.6 86.9008L176.5 87.0008L176.6 87.1008L176.7 87.2008L176.9 87.1008L177.3 86.7008L177.4 86.5008L177.3 86.3008L177.1 86.2008L177.2 86.1008V86.0008H177.4L177.6 85.7008L177.5 85.5008L177.8 85.9008L178.3 85.8008V85.7008L178.5 85.8008L178.7 85.7008L178.9 85.5008V85.3008L179.2 85.4008M179.5 91.4008V91.4008ZM179.2 85.4008V85.4008Z" stroke="#0552B5"/>
<path fill-rule="evenodd" clip-rule="evenodd" d="M152.103 95.3004L151.903 95.2004V95.4004L152.003 95.5004L151.903 95.6004H151.803L151.603 96.0004V96.4004H151.403L151.303 96.1004L151.203 95.8004V95.3004L151.103 94.9004H151.003L151.103 94.5004L150.903 94.4004H150.703L150.603 94.5004V94.6004H150.503L150.203 94.7004V94.5004L149.903 94.4004H149.703L149.603 94.5004L149.403 94.6004V94.4004H149.603L149.503 94.1004L149.403 94.0004V93.8004L149.303 93.7004L149.403 93.5004L149.503 93.2004L149.203 92.9004L149.503 93.0004H149.703L149.903 92.8004V92.7004L150.103 92.6004V92.5004L150.303 92.4004L150.403 92.8004L150.603 92.9004V93.0004L150.503 93.1004L150.603 93.3004L150.703 93.4004L150.903 93.5004V93.6004L151.103 93.7004H151.303V93.6004L151.403 93.5004V93.7004L151.203 93.8004V94.0004V94.1004L151.403 94.3004V94.5004H151.203L151.303 94.7004H151.703H151.803H151.903L152.103 94.6004L152.203 94.8004H152.503L152.603 94.9004H152.203L152.103 95.0004L152.203 95.1004L152.103 95.3004Z" fill="white"/>
<path d="M151.203 95.3004V95.8004L151.303 96.1004L151.403 96.4004H151.603V96.0004L151.803 95.6004H151.903L152.003 95.5004L151.903 95.4004V95.2004L152.103 95.3004L152.203 95.1004L152.103 95.0004L152.203 94.9004H152.603L152.503 94.8004H152.203L152.103 94.6004L151.903 94.7004H151.803H151.703H151.303L151.203 94.5004H151.403V94.3004L151.203 94.1004V94.0004V93.8004L151.403 93.7004V93.5004L151.303 93.6004V93.7004H151.103L150.903 93.6004V93.5004L150.703 93.4004L150.603 93.3004L150.503 93.1004L150.603 93.0004V92.9004L150.403 92.8004L150.303 92.4004L150.103 92.5004V92.6004L149.903 92.7004V92.8004L149.703 93.0004H149.503L149.203 92.9004L149.503 93.2004L149.403 93.5004L149.303 93.7004L149.403 93.8004V94.0004L149.503 94.1004L149.603 94.4004H149.403V94.6004L149.603 94.5004L149.703 94.4004H149.903L150.203 94.5004V94.7004L150.503 94.6004H150.603V94.5004L150.703 94.4004H150.903L151.103 94.5004L151.003 94.9004H151.103L151.203 95.3004ZM151.203 95.3004V95.3004Z" stroke="#0552B5"/>
<path fill-rule="evenodd" clip-rule="evenodd" d="M143.002 92.6004V92.8004L142.802 92.9004L142.702 93.2004L142.402 93.3004L142.102 93.2004L142.302 92.9004L142.202 93.0004L142.402 92.7004L142.602 92.6004L142.702 92.5004L142.602 92.3004L142.802 92.2004H142.702L142.802 92.0004L142.702 91.9004V91.7004L142.902 91.6004L142.802 91.5004L142.902 91.4004V91.1004L142.602 91.2004L142.702 90.7004L142.502 90.6004L142.602 90.4004V90.3004V90.2004V90.1004L142.802 89.8004L143.102 89.4004H143.202L143.102 89.2004L143.202 89.0004L143.302 88.8004V88.6004L143.502 88.2004L143.602 88.1004H143.802V87.6004L143.602 87.3004V87.2004L143.702 87.0004L144.002 86.9004L144.302 87.1004L144.402 87.0004L144.602 87.3004L144.502 87.5004H144.402V87.6004L144.602 87.7004L144.502 87.8004L144.402 87.9004L144.602 88.3004V88.5004L144.702 88.9004H144.802L145.002 88.8004L145.102 88.9004L145.302 88.8004L145.402 89.0004L145.302 89.2004L145.402 89.5004L145.102 89.7004V89.9004H145.302V90.1004L145.502 90.2004L145.602 90.0004H145.802L145.902 89.7004V89.6004H146.102L146.202 89.7004H146.302L146.502 89.8004V90.1004L146.702 90.2004L146.902 90.1004L147.102 90.2004L147.202 90.6004L147.402 90.7004V90.8004H147.602L147.802 90.7004L147.902 90.8004V90.9004H147.602L147.402 91.1004L147.502 91.2004L147.602 91.3004L147.902 91.2004L148.202 91.1004L148.502 91.2004L148.802 91.3004V91.5004L149.402 91.6004L149.502 91.9004L149.602 91.8004L149.802 92.0004V92.1004H149.702L149.602 92.2004V92.3004L149.302 92.4004L148.902 92.5004L148.702 92.7004V93.0004V93.1004L148.502 93.2004V93.0004L148.302 92.8004H148.202L147.802 93.0004V93.3004H147.902L147.802 93.6004L148.002 93.7004L148.202 94.0004L148.002 94.1004L147.802 94.0004H147.602L147.402 94.1004L147.202 94.2004V94.4004L147.002 94.2004H146.802H146.502V94.3004H146.302H146.002L145.902 94.5004L145.602 94.4004L145.402 94.5004L145.302 94.7004L145.102 94.6004V94.5004L144.902 94.6004L144.802 94.4004L144.702 94.3004L144.602 94.2004L144.702 94.1004H144.802L145.002 94.0004L145.102 93.9004L145.002 93.5004L144.902 93.2004L144.602 93.0004H144.502V93.2004L144.402 93.3004L144.302 93.2004L144.002 93.4004H143.902V93.3004H143.802L143.702 93.1004L143.802 92.7004H144.002V92.5004L143.802 92.2004H143.302H143.202L143.102 92.4004L143.002 92.5004V92.6004Z" fill="white"/>
<path d="M142.802 89.8004L142.602 90.1004V90.2004V90.3004V90.4004L142.502 90.6004L142.702 90.7004L142.602 91.2004L142.902 91.1004V91.4004L142.802 91.5004L142.902 91.6004L142.702 91.7004V91.9004L142.802 92.0004L142.702 92.2004H142.802L142.602 92.3004L142.702 92.5004L142.602 92.6004L142.402 92.7004L142.202 93.0004L142.302 92.9004L142.102 93.2004L142.402 93.3004L142.702 93.2004L142.802 92.9004L143.002 92.8004V92.6004V92.5004L143.102 92.4004L143.202 92.2004H143.302H143.802L144.002 92.5004V92.7004H143.802L143.702 93.1004L143.802 93.3004H143.902V93.4004H144.002L144.302 93.2004L144.402 93.3004L144.502 93.2004V93.0004H144.602L144.902 93.2004L145.002 93.5004L145.102 93.9004L145.002 94.0004L144.802 94.1004H144.702L144.602 94.2004L144.702 94.3004L144.802 94.4004L144.902 94.6004L145.102 94.5004V94.6004L145.302 94.7004L145.402 94.5004L145.602 94.4004L145.902 94.5004L146.002 94.3004H146.302H146.502V94.2004H146.802M142.802 89.8004V89.8004ZM142.802 89.8004L143.102 89.4004H143.202L143.102 89.2004L143.202 89.0004L143.302 88.8004V88.6004L143.502 88.2004L143.602 88.1004H143.802V87.6004L143.602 87.3004V87.2004L143.702 87.0004L144.002 86.9004L144.302 87.1004L144.402 87.0004L144.602 87.3004L144.502 87.5004H144.402V87.6004L144.602 87.7004L144.502 87.8004L144.402 87.9004L144.602 88.3004V88.5004L144.702 88.9004H144.802L145.002 88.8004L145.102 88.9004L145.302 88.8004L145.402 89.0004L145.302 89.2004L145.402 89.5004L145.102 89.7004V89.9004H145.302V90.1004L145.502 90.2004L145.602 90.0004H145.802L145.902 89.7004V89.6004H146.102L146.202 89.7004H146.302L146.502 89.8004V90.1004L146.702 90.2004L146.902 90.1004L147.102 90.2004L147.202 90.6004L147.402 90.7004V90.8004H147.602L147.802 90.7004L147.902 90.8004V90.9004H147.602L147.402 91.1004L147.502 91.2004L147.602 91.3004L147.902 91.2004L148.202 91.1004L148.502 91.2004L148.802 91.3004V91.5004L149.402 91.6004L149.502 91.9004L149.602 91.8004L149.802 92.0004V92.1004H149.702L149.602 92.2004V92.3004L149.302 92.4004L148.902 92.5004L148.702 92.7004V93.0004V93.1004L148.502 93.2004V93.0004L148.302 92.8004H148.202L147.802 93.0004V93.3004H147.902L147.802 93.6004L148.002 93.7004L148.202 94.0004L148.002 94.1004L147.802 94.0004H147.602L147.402 94.1004L147.202 94.2004V94.4004L147.002 94.2004H146.802M146.802 94.2004V94.2004Z" stroke="#0552B5"/>
<path fill-rule="evenodd" clip-rule="evenodd" d="M175.898 73.4008L176.198 73.5008V74.0008H175.998H175.898H175.598V74.1008L175.698 74.2008L175.998 74.4008L176.098 74.3008V74.6008V74.7008L175.698 74.8008H175.598L175.498 74.9008V75.2008L175.598 75.3008L175.498 75.5008L175.298 75.6008L175.098 75.5008L174.798 75.6008H174.598L174.498 75.8008L174.398 75.7008H174.198V75.9008L173.898 76.0008L173.598 75.8008L173.398 75.5008L173.198 75.4008L172.998 75.1008V74.9008H173.198L173.298 74.6008L173.098 74.4008V74.3008L172.998 74.1008L173.098 73.8008V73.3008L172.998 73.1008L172.798 73.0008V72.9008L172.598 72.7008L172.398 72.8008L172.298 72.7008H172.098L171.998 72.8008L171.898 72.7008V72.5008H172.098V72.3008L172.298 72.2008V72.0008L172.398 71.9008V71.8008L172.198 71.6008L172.498 71.4008L172.598 71.2008L172.798 70.8008L172.698 70.7008V70.5008H172.898L172.998 70.3008H173.298L173.398 70.5008L173.598 70.7008V70.8008L173.498 71.1008L173.698 71.4008V71.3008L173.998 71.4008L174.098 71.5008L174.398 71.6008V71.8008L174.498 72.0008L174.698 72.2008H174.798L174.898 72.4008L174.998 72.5008V72.7008L175.298 73.0008H175.598L175.698 73.2008V73.3008L175.898 73.4008Z" fill="white" stroke="#0552B5"/>
<path fill-rule="evenodd" clip-rule="evenodd" d="M168.4 64.5996V64.6996L168.2 64.8996L168.3 65.1996L168.6 65.0996L168.4 65.2996H168.2L168 64.9996V64.8996L168.3 64.5996L168.4 64.4996V64.3996L168.2 64.2996L168.1 63.9996V63.8996L168 63.5996L168.1 63.2996L168.3 63.1996L168.4 62.9996L168.6 62.8996H168.8L168.9 62.7996L169 62.8996H169.3V63.1996L169.5 62.9996H169.6L169.7 63.1996V62.9996L169.8 63.0996L173.9 60.1996L174.1 60.0996L176 59.8996H176.5H176.7L176.9 59.7996H177.3H177.5H177.9L179 59.8996H179.1L179.2 59.7996H179.3L179.5 59.6996H179.7L181.2 58.7996H181.3L181.5 58.0996H181.4L181.5 56.7996V56.5996L181.6 56.2996L181.8 55.9996H181.9L182 55.7996L182.1 55.9996H182.2L182.8 55.7996L182.9 55.5996H183.2H183.5V55.9996L184 56.0996L184.2 56.3996L184.3 56.5996L184.7 56.7996L184.8 56.6996L185.5 56.9996L185.7 57.0996L186 56.8996V56.9996L185.9 57.1996L185.8 57.2996L186.3 57.5996L187 57.4996L188 57.9996L188.1 58.0996L188.5 58.7996L188.7 58.9996H189L189.2 59.1996V59.3996L189.4 59.8996L189.5 60.4996L189.4 60.6996L189.6 60.5996L189.8 60.6996L189.6 60.9996L189.2 61.0996L188.6 61.5996L188.4 61.6996L188.2 61.9996L188 62.1996L187 62.4996L186.6 62.5996H186.2H185.5L185.2 62.6996L184.9 62.7996L184.1 63.1996L183.6 63.3996L182.5 63.7996L182.4 63.8996L181.3 64.8996L181.1 65.1996L180.7 65.9996L180.6 66.1996L180.3 66.3996L178.3 67.7996L176.4 69.1996L176.2 69.2996L174.9 68.9996L174.7 69.1996L174.6 69.0996L174.4 69.1996H174.2V68.9996L174.1 68.6996L174 68.3996L173.8 67.9996L173.5 67.4996L173.2 67.1996L172.9 67.0996L172.7 67.2996V67.4996L172.5 67.6996H172.4H172.3V67.4996H172.4L172.5 67.1996L172.7 67.0996L172.6 66.9996L172.4 66.5996L172 66.2996L171.8 66.1996L171.7 66.2996L171.3 66.5996L171.2 66.8996L171.3 66.9996L170.9 66.8996H170.7L170.4 66.9996L170.5 67.3996L170.4 67.4996V67.3996L170.3 67.2996L170.2 66.9996L170 66.7996H169.9H169.7L169.4 66.6996L169.1 66.7996L168.8 66.6996L169.2 66.3996L169.4 66.4996L169.6 66.3996V66.1996L169.5 65.8996L169.4 65.7996L169.3 65.9996V65.7996L169.4 65.4996L169.3 65.0996L169.1 64.7996H168.9V64.9996L168.7 64.8996L168.5 64.7996V64.5996H168.4Z" fill="white" stroke="#0552B5"/>
<path fill-rule="evenodd" clip-rule="evenodd" d="M189.102 49.3004L190.602 48.5004L191.702 47.8004L192.102 47.5004L192.302 47.1004L192.502 47.0004L192.702 46.9004L192.902 47.0004L193.002 47.2004H193.402L193.602 47.4004L193.802 47.3004L193.902 47.1004L194.102 46.9004V46.8004L194.202 46.5004V46.3004L194.402 46.0004L194.502 45.7004L194.402 45.6004L194.602 45.5004V45.3004H194.702L194.902 45.2004V45.0004L195.002 44.8004V44.6004V44.3004H195.202L195.302 44.2004L195.502 44.3004L195.702 44.2004L195.902 44.3004L196.002 44.0004L196.202 43.6004V43.5004L196.302 43.4004L196.402 43.2004L196.302 43.1004L196.402 42.9004L196.702 43.1004H196.902L197.102 43.0004L197.302 43.2004L197.702 43.3004L198.002 43.4004L198.402 43.6004L198.602 44.0004H198.702H199.002L199.102 44.1004L199.202 44.5004H199.302V44.7004L199.402 44.6004L199.902 45.0004H200.102L200.302 45.2004H200.402L200.702 45.5004H200.802L201.002 45.9004L201.302 46.0004L201.502 46.2004L201.602 46.4004L201.502 46.8004H201.402L201.302 47.2004L201.402 47.3004L201.602 47.2004L201.802 47.1004L202.102 47.0004L202.202 47.2004L202.302 47.3004V47.2004H202.502V47.7004L203.002 48.1004L203.402 48.6004L203.802 48.5004L204.002 48.6004L204.202 48.7004L204.402 48.8004L204.502 48.5004L204.702 48.4004V48.5004V48.7004L205.002 48.6004V48.7004H205.202L205.302 49.0004H205.402L205.502 49.2004L205.702 49.5004V49.9004L205.902 50.0004V50.1004L206.302 50.0004V49.7004L206.502 49.4004L206.602 49.5004H207.002L207.102 49.4004L207.402 49.2004V49.1004L207.902 49.4004H208.202L208.302 49.5004H208.502L208.802 49.6004L209.002 49.8004L209.302 49.4004L209.902 49.9004L209.802 50.0004L209.902 50.4004H209.802V50.1004L209.702 49.9004L209.602 50.0004V50.3004L209.502 50.4004L209.402 50.5004L209.502 50.6004H209.302L208.802 50.9004V51.1004L208.902 51.2004H208.702L208.802 51.4004L208.602 51.6004L208.502 51.5004V51.6004L208.302 51.7004V51.6004H208.102L208.202 51.8004L208.302 52.0004V52.2004H208.402V52.5004L208.202 52.3004H208.102V52.4004L207.802 52.7004L208.002 52.8004L207.902 52.9004L207.702 52.8004L207.402 52.9004L207.102 53.0004L207.302 53.1004V53.2004V53.3004L207.202 53.5004L207.102 53.6004L207.202 53.7004H207.102V53.8004L207.002 54.1004V54.4004L206.902 54.5004L207.102 54.6004L206.802 54.7004L207.002 54.8004H206.802L206.902 55.0004H206.802L206.902 55.2004H206.802V55.3004L206.702 55.5004L206.802 56.6004L206.702 56.7004L206.802 57.0004V57.3004L206.702 57.4004V57.8004L206.402 57.7004H206.102L206.002 57.9004H205.802H205.302V58.1004L205.202 58.5004L205.002 58.6004L205.102 59.3004L205.202 59.5004L205.002 60.3004V61.1004V61.3004L205.402 61.5004H205.702H205.802L206.002 61.6004L206.302 61.8004V62.0004V62.2004L206.502 62.3004L206.602 62.4004L206.702 62.6004L206.802 62.5004L206.902 62.7004H207.202L207.402 62.9004L207.502 63.1004H207.802H207.902L208.102 63.2004L208.402 63.1004H208.502L208.402 63.3004L208.602 63.5004V63.9004L208.402 64.2004L208.502 64.5004L208.402 64.6004V64.9004L208.602 65.0004V65.4004L208.502 65.5004L208.302 65.6004L208.202 65.7004H208.002L207.702 66.0004L207.802 66.1004L207.702 66.3004H207.802V66.5004L207.602 66.6004V66.7004L207.702 67.2004L207.802 67.5004L207.702 67.8004L207.602 68.1004L207.502 68.3004H207.702L207.502 68.5004L207.102 68.7004L206.802 68.8004L206.402 69.4004V69.5004L206.102 70.0004L206.002 70.6004L205.702 71.0004L205.302 71.7004L204.902 72.0004L205.002 71.9004L205.202 71.8004L205.102 71.7004H205.002L204.702 72.1004H204.602L204.202 72.5004L203.502 73.4004L202.802 74.0004H202.702H202.302L202.102 73.9004L200.702 73.6004L200.502 73.9004L200.702 74.0004L200.802 74.4004L200.702 74.8004L200.202 75.4004V75.6004L199.702 76.1004L199.602 76.2004L199.302 76.6004L199.202 76.8004L198.602 77.5004L198.502 77.6004H198.302L197.902 77.3004L197.802 77.4004L197.902 77.5004L197.602 77.8004L197.502 77.7004L196.602 77.1004L196.402 77.4004L197.402 78.2004V78.3004L196.602 78.6004L196.302 78.5004H195.602L195.302 78.6004V78.8004H193.602V78.6004H192.802V78.1004H189.802V77.2004H193.402H196.102L196.402 77.4004L196.602 77.1004L194.302 75.2004L194.202 75.3004L193.902 75.0004L193.802 74.9004L193.002 74.2004H192.902L192.302 73.3004V72.6004L192.202 72.5004V72.1004L192.302 71.9004V69.8004H192.202V68.5004H194.502L194.602 69.2004L194.702 69.6004L194.602 70.2004V70.4004L194.702 70.6004L194.902 70.8004H195.102H195.502L195.702 70.6004L195.402 70.3004L195.302 70.4004V70.2004L195.102 69.8004L194.902 68.8004L194.702 68.0004L194.502 66.6004L194.402 66.3004L194.302 66.0004L194.202 66.1004L194.502 67.9004H194.602V68.1004L194.502 68.2004H192.502L192.402 68.1004L192.502 67.9004L192.902 67.2004L192.602 67.0004L192.502 67.1004L192.302 67.0004L192.102 66.8004L192.402 66.4004L193.002 66.8004L193.202 66.4004L192.402 66.0004L192.702 65.4004L192.402 65.2004L191.502 67.1004L190.902 67.2004L190.802 66.8004V65.8004H191.102V65.6004L190.902 65.4004H191.002L190.802 65.2004L190.902 65.1004L191.102 65.2004H191.302L191.702 64.9004L191.602 64.7004L191.702 64.6004L191.602 64.5004L191.302 64.6004L191.102 64.8004L190.902 64.9004L191.002 64.8004V64.0004H191.302H191.402V63.7004L191.202 63.4004H191.102L190.902 63.3004L191.002 63.0004L191.202 62.7004V62.5004L191.502 61.9004L191.602 62.0004V61.9004L191.702 62.2004L191.802 62.1004L191.702 61.8004V61.6004H192.002V61.7004H192.102L192.002 61.4004L192.202 61.3004L192.402 61.8004L191.802 62.0004L191.902 62.1004L192.602 61.9004L192.702 62.3004L192.802 62.2004L192.602 61.8004L193.002 61.7004L193.302 61.4004L192.502 61.7004L192.402 61.2004H192.602L192.702 61.5004L192.802 61.4004L192.702 61.1004L192.902 61.0004L193.002 61.4004L193.102 61.3004L193.002 61.0004L193.102 60.9004L193.202 61.1004V60.9004L193.602 60.7004L193.702 60.9004L193.802 60.8004L193.702 60.7004L193.902 60.6004L194.402 61.2004L194.902 61.5004L194.502 61.1004L194.002 60.5004L194.902 60.2004V60.3004H195.002L195.902 60.9004V60.6004L195.302 60.2004V60.0004L195.202 59.9004V59.2004H194.402V59.7004L194.002 60.0004H193.602V60.2004H191.802V58.7004L191.902 58.5004L191.702 58.1004L191.602 56.5004H192.402V56.4004H191.602L191.702 55.7004H191.302L191.402 55.5004L191.302 55.3004V55.0004H191.902V54.9004H191.302L191.102 53.9004L191.202 53.8004V53.7004L191.702 53.5004L192.002 53.3004L192.102 53.2004L191.502 52.6004L191.602 52.5004L191.502 52.3004H190.902V52.1004L190.602 52.0004L190.502 52.2004L190.302 52.0004H190.402L190.102 51.7004L190.302 51.3004L189.102 49.3004Z" fill="white"/>
<path d="M204.202 48.7004L204.002 48.6004L203.802 48.5004L203.402 48.6004L203.002 48.1004L202.502 47.7004V47.2004H202.302V47.3004L202.202 47.2004L202.102 47.0004L201.802 47.1004L201.602 47.2004L201.402 47.3004L201.302 47.2004L201.402 46.8004H201.502L201.602 46.4004L201.502 46.2004L201.302 46.0004L201.002 45.9004L200.802 45.5004H200.702L200.402 45.2004H200.302L200.102 45.0004H199.902L199.402 44.6004L199.302 44.7004V44.5004H199.202L199.102 44.1004L199.002 44.0004H198.702H198.602L198.402 43.6004L198.002 43.4004L197.702 43.3004L197.302 43.2004L197.102 43.0004L196.902 43.1004H196.702L196.402 42.9004L196.302 43.1004L196.402 43.2004L196.302 43.4004L196.202 43.5004V43.6004L196.002 44.0004L195.902 44.3004L195.702 44.2004L195.502 44.3004L195.302 44.2004L195.202 44.3004H195.002V44.6004V44.8004L194.902 45.0004V45.2004L194.702 45.3004H194.602V45.5004L194.402 45.6004L194.502 45.7004L194.402 46.0004L194.202 46.3004V46.5004L194.102 46.8004V46.9004L193.902 47.1004L193.802 47.3004L193.602 47.4004L193.402 47.2004H193.002L192.902 47.0004L192.702 46.9004L192.502 47.0004L192.302 47.1004L192.102 47.5004L191.702 47.8004L190.602 48.5004L189.102 49.3004L190.302 51.3004L190.102 51.7004L190.402 52.0004H190.302L190.502 52.2004L190.602 52.0004L190.902 52.1004V52.3004H191.502L191.602 52.5004L191.502 52.6004L192.102 53.2004L192.002 53.3004L191.702 53.5004L191.202 53.7004V53.8004L191.102 53.9004L191.302 54.9004H191.902V55.0004H191.302V55.3004L191.402 55.5004L191.302 55.7004H191.702L191.602 56.4004H192.402V56.5004H191.602L191.702 58.1004L191.902 58.5004L191.802 58.7004V60.2004H193.602V60.0004H194.002L194.402 59.7004V59.2004H195.202V59.9004L195.302 60.0004V60.2004L195.902 60.6004V60.9004L195.002 60.3004H194.902V60.2004L194.002 60.5004L194.502 61.1004L194.902 61.5004M204.202 48.7004V48.7004ZM204.202 48.7004L204.402 48.8004L204.502 48.5004L204.702 48.4004V48.5004V48.7004L205.002 48.6004V48.7004H205.202L205.302 49.0004H205.402L205.502 49.2004L205.702 49.5004V49.9004L205.902 50.0004V50.1004L206.302 50.0004V49.7004L206.502 49.4004L206.602 49.5004H207.002L207.102 49.4004L207.402 49.2004V49.1004L207.902 49.4004H208.202L208.302 49.5004H208.502L208.802 49.6004L209.002 49.8004L209.302 49.4004L209.902 49.9004L209.802 50.0004L209.902 50.4004H209.802V50.1004L209.702 49.9004L209.602 50.0004V50.3004L209.502 50.4004L209.402 50.5004L209.502 50.6004H209.302L208.802 50.9004V51.1004L208.902 51.2004H208.702L208.802 51.4004L208.602 51.6004L208.502 51.5004V51.6004L208.302 51.7004V51.6004H208.102L208.202 51.8004L208.302 52.0004V52.2004H208.402V52.5004L208.202 52.3004H208.102V52.4004L207.802 52.7004L208.002 52.8004L207.902 52.9004L207.702 52.8004L207.402 52.9004L207.102 53.0004L207.302 53.1004V53.2004V53.3004L207.202 53.5004L207.102 53.6004L207.202 53.7004H207.102V53.8004L207.002 54.1004V54.4004L206.902 54.5004L207.102 54.6004L206.802 54.7004L207.002 54.8004H206.802L206.902 55.0004H206.802L206.902 55.2004H206.802V55.3004L206.702 55.5004L206.802 56.6004L206.702 56.7004L206.802 57.0004V57.3004L206.702 57.4004V57.8004M206.702 57.8004V57.8004ZM206.702 57.8004L206.402 57.7004H206.102L206.002 57.9004H205.802H205.302V58.1004L205.202 58.5004L205.002 58.6004L205.102 59.3004L205.202 59.5004L205.002 60.3004V61.1004V61.3004L205.402 61.5004H205.702H205.802L206.002 61.6004L206.302 61.8004V62.0004V62.2004L206.502 62.3004L206.602 62.4004L206.702 62.6004L206.802 62.5004L206.902 62.7004H207.202L207.402 62.9004L207.502 63.1004H207.802H207.902L208.102 63.2004L208.402 63.1004H208.502L208.402 63.3004L208.602 63.5004V63.9004L208.402 64.2004L208.502 64.5004L208.402 64.6004V64.9004L208.602 65.0004V65.4004L208.502 65.5004L208.302 65.6004L208.202 65.7004H208.002L207.702 66.0004L207.802 66.1004L207.702 66.3004H207.802V66.5004L207.602 66.6004V66.7004L207.702 67.2004L207.802 67.5004L207.702 67.8004L207.602 68.1004L207.502 68.3004H207.702L207.502 68.5004L207.102 68.7004L206.802 68.8004L206.402 69.4004V69.5004L206.102 70.0004L206.002 70.6004L205.702 71.0004L205.302 71.7004L204.902 72.0004M204.902 72.0004V72.0004ZM204.902 72.0004L205.002 71.9004L205.202 71.8004L205.102 71.7004H205.002L204.702 72.1004H204.602L204.202 72.5004L203.502 73.4004L202.802 74.0004H202.702H202.302L202.102 73.9004L200.702 73.6004L200.502 73.9004L200.702 74.0004L200.802 74.4004L200.702 74.8004L200.202 75.4004V75.6004L199.702 76.1004L199.602 76.2004L199.302 76.6004L199.202 76.8004L198.602 77.5004L198.502 77.6004H198.302L197.902 77.3004L197.802 77.4004L197.902 77.5004L197.602 77.8004L197.502 77.7004L196.602 77.1004M196.602 77.1004L196.402 77.4004M196.602 77.1004L194.302 75.2004L194.202 75.3004L193.902 75.0004L193.802 74.9004L193.002 74.2004H192.902L192.302 73.3004V72.6004L192.202 72.5004V72.1004L192.302 71.9004V69.8004H192.202V68.5004H194.502L194.602 69.2004L194.702 69.6004L194.602 70.2004V70.4004L194.702 70.6004L194.902 70.8004H195.102H195.502L195.702 70.6004L195.402 70.3004L195.302 70.4004V70.2004L195.102 69.8004L194.902 68.8004L194.702 68.0004L194.502 66.6004L194.402 66.3004L194.302 66.0004L194.202 66.1004L194.502 67.9004H194.602V68.1004L194.502 68.2004H192.502L192.402 68.1004L192.502 67.9004L192.902 67.2004L192.602 67.0004L192.502 67.1004L192.302 67.0004L192.102 66.8004L192.402 66.4004L193.002 66.8004L193.202 66.4004L192.402 66.0004L192.702 65.4004L192.402 65.2004L191.502 67.1004M196.402 77.4004L197.402 78.2004V78.3004L196.602 78.6004L196.302 78.5004H195.602L195.302 78.6004V78.8004H193.602V78.6004H192.802V78.1004H189.802V77.2004H193.402H196.102L196.402 77.4004ZM191.502 67.1004V67.1004ZM191.502 67.1004L190.902 67.2004L190.802 66.8004M190.802 66.8004V66.8004ZM190.802 66.8004V65.8004H191.102V65.6004L190.902 65.4004H191.002L190.802 65.2004L190.902 65.1004L191.102 65.2004H191.302L191.702 64.9004L191.602 64.7004L191.702 64.6004L191.602 64.5004L191.302 64.6004L191.102 64.8004L190.902 64.9004L191.002 64.8004V64.0004H191.302H191.402V63.7004M191.402 63.7004V63.7004ZM191.402 63.7004L191.202 63.4004H191.102L190.902 63.3004L191.002 63.0004L191.202 62.7004V62.5004L191.502 61.9004L191.602 62.0004V61.9004L191.702 62.2004L191.802 62.1004L191.702 61.8004V61.6004M191.702 61.6004V61.6004ZM191.702 61.6004H192.002V61.7004H192.102L192.002 61.4004L192.202 61.3004L192.402 61.8004L191.802 62.0004L191.902 62.1004L192.602 61.9004L192.702 62.3004L192.802 62.2004L192.602 61.8004L193.002 61.7004L193.302 61.4004L192.502 61.7004L192.402 61.2004H192.602L192.702 61.5004L192.802 61.4004L192.702 61.1004L192.902 61.0004L193.002 61.4004L193.102 61.3004L193.002 61.0004L193.102 60.9004L193.202 61.1004M193.202 61.1004V61.1004ZM193.202 61.1004V60.9004L193.602 60.7004L193.702 60.9004L193.802 60.8004L193.702 60.7004L193.902 60.6004L194.402 61.2004L194.902 61.5004M194.902 61.5004V61.5004Z" stroke="#0552B5"/>
<path fill-rule="evenodd" clip-rule="evenodd" d="M188.997 56.4004V57.2004H187.397L186.297 56.8004L186.097 57.0004L185.997 56.9004L186.197 56.7004L185.297 56.1004V55.8004L185.397 55.7004L185.697 55.3004L185.997 55.0004L186.097 54.9004L185.897 54.6004V54.4004L186.097 54.1004L186.297 54.0004H186.597L187.397 53.9004H187.597L188.297 54.8004L188.497 54.7004L189.097 54.5004L189.297 54.7004L189.197 55.1004V55.2004H188.997V56.2004L189.297 56.4004H189.397L189.597 56.6004V56.8004L189.397 56.7004L188.997 56.4004Z" fill="white" stroke="#0552B5"/>
<path fill-rule="evenodd" clip-rule="evenodd" d="M175.297 56.0004L175.097 56.2004L174.997 56.3004L174.797 56.6004V56.7004L174.997 56.9004L174.797 57.0004L174.697 57.1004V57.0004L174.497 56.9004L174.297 57.0004L173.797 56.9004L173.897 56.8004H174.097L174.197 56.7004L174.097 56.3004V56.1004L174.297 55.9004L174.397 55.7004L174.297 55.5004L174.197 55.3004L173.997 55.4004L174.097 55.2004L174.197 55.3004L174.497 55.2004L174.597 55.1004V54.8004L174.397 54.7004L174.597 54.3004L174.497 54.2004L174.597 54.1004L174.897 53.9004V54.0004L175.297 54.1004V54.2004L175.497 54.4004L175.897 54.2004H176.097L176.197 54.4004H175.997L175.797 54.5004L175.597 54.6004V54.9004L175.397 55.4004L175.297 55.8004V56.0004Z" fill="white"/>
<path d="M174.197 55.3004L174.297 55.5004L174.397 55.7004L174.297 55.9004L174.097 56.1004V56.3004L174.197 56.7004L174.097 56.8004H173.897L173.797 56.9004L174.297 57.0004L174.497 56.9004L174.697 57.0004V57.1004L174.797 57.0004L174.997 56.9004L174.797 56.7004V56.6004L174.997 56.3004L175.097 56.2004L175.297 56.0004V55.8004L175.397 55.4004L175.597 54.9004V54.6004L175.797 54.5004L175.997 54.4004H176.197M174.197 55.3004L173.997 55.4004L174.097 55.2004L174.197 55.3004ZM174.197 55.3004L174.497 55.2004L174.597 55.1004V54.8004L174.397 54.7004L174.597 54.3004L174.497 54.2004L174.597 54.1004L174.897 53.9004V54.0004L175.297 54.1004V54.2004L175.497 54.4004L175.897 54.2004H176.097L176.197 54.4004M176.197 54.4004V54.4004Z" stroke="#0552B5"/>
<path fill-rule="evenodd" clip-rule="evenodd" d="M175.702 56.3004L175.902 56.2004V56.0004L176.102 55.9004L176.202 56.0004L176.402 55.9004L176.602 55.8004H176.802L176.902 55.7004L177.202 55.3004H177.402L177.502 55.1004L177.602 54.9004L177.702 54.6004V54.5004V54.4004H177.802H178.102L178.302 54.5004V54.6004L178.502 54.7004L178.602 54.8004V55.0004L178.702 55.1004L179.202 55.2004H179.302L179.202 55.6004L179.302 55.9004L179.202 56.0004L179.302 56.3004L179.102 56.2004L178.902 56.4004L178.802 56.3004H178.702L178.602 56.7004L178.802 57.0004L179.002 57.1004L178.802 57.7004L178.702 57.9004L178.802 58.1004H179.002V58.3004L178.802 58.2004L178.702 58.3004H178.502H178.402L178.302 58.2004V58.1004L178.202 57.9004L177.902 57.7004L177.602 57.6004V57.5004L177.402 57.4004H177.202L176.702 57.3004L176.502 57.5004V57.6004L176.202 57.7004L176.102 57.8004L176.002 58.0004L175.902 57.9004H175.702L175.202 57.8004H175.102L175.202 57.6004L175.102 57.5004L175.202 57.2004L175.402 56.9004V56.8004L175.202 56.7004L175.402 56.6004L175.502 56.5004L175.702 56.4004V56.3004Z" fill="white" stroke="#0552B5"/>
<path fill-rule="evenodd" clip-rule="evenodd" d="M165.3 56.9004L165.2 56.6004L165.4 56.4004V56.2004V55.8004L165.5 55.7004L165.6 55.3004V55.0004L165.4 54.6004L165.1 54.5004L165 54.3004H164.9L164.7 54.2004V54.1004L164.5 53.7004H164.3L164.1 53.5004L164 53.3004L163.8 53.1004L163.6 52.9004V52.7004L163.5 52.5004L163.6 52.4004L163.7 52.6004L164.2 52.8004L164.5 53.0004H164.6L164.9 53.3004L165.1 53.2004L165.4 53.4004L165.3 53.6004L165.5 53.7004L165.7 53.6004L165.9 53.7004L166.2 53.5004L166.4 53.7004L166.3 53.8004L166.5 54.0004H166.6V54.3004H166.5L166.6 54.6004L166.8 54.9004L166.9 55.0004L167.1 55.2004H167.5L167.7 55.4004L167.9 55.5004L168.2 55.6004L168.5 55.5004H168.7L168.9 55.6004L169.2 55.5004L169.5 55.4004V55.3004L170 55.2004L170.1 55.3004L170.7 55.1004L170.8 55.5004L170.7 55.8004L170.8 56.0004L170.6 56.1004V56.3004L170.5 56.4004H170.3V56.3004L169.2 56.0004L169 56.2004L168.9 56.1004L168.5 56.0004L168.2 56.1004H167.9H167.7L167.5 56.2004V56.4004L167.3 56.3004H167H166.8V56.5004L166.7 56.6004H166.6V56.3004V56.2004L166.3 56.0004L166.1 56.1004L166 56.2004V56.4004L165.9 56.5004L165.5 56.6004V56.8004L165.3 56.9004Z" fill="white"/>
<path d="M165.3 56.9004V56.9004ZM165.3 56.9004L165.2 56.6004L165.4 56.4004V56.2004V55.8004L165.5 55.7004L165.6 55.3004V55.0004L165.4 54.6004L165.1 54.5004L165 54.3004H164.9L164.7 54.2004V54.1004L164.5 53.7004H164.3L164.1 53.5004L164 53.3004L163.8 53.1004L163.6 52.9004V52.7004L163.5 52.5004L163.6 52.4004L163.7 52.6004L164.2 52.8004L164.5 53.0004H164.6L164.9 53.3004L165.1 53.2004L165.4 53.4004L165.3 53.6004L165.5 53.7004L165.7 53.6004L165.9 53.7004L166.2 53.5004L166.4 53.7004L166.3 53.8004L166.5 54.0004H166.6V54.3004H166.5L166.6 54.6004L166.8 54.9004L166.9 55.0004L167.1 55.2004H167.5L167.7 55.4004L167.9 55.5004L168.2 55.6004L168.5 55.5004H168.7L168.9 55.6004L169.2 55.5004L169.5 55.4004V55.3004L170 55.2004L170.1 55.3004L170.7 55.1004L170.8 55.5004L170.7 55.8004L170.8 56.0004L170.6 56.1004V56.3004L170.5 56.4004H170.3V56.3004L169.2 56.0004L169 56.2004L168.9 56.1004L168.5 56.0004L168.2 56.1004H167.9H167.7L167.5 56.2004V56.4004L167.3 56.3004H167H166.8V56.5004L166.7 56.6004H166.6V56.3004V56.2004L166.3 56.0004L166.1 56.1004L166 56.2004V56.4004L165.9 56.5004L165.5 56.6004V56.8004L165.3 56.9004Z" stroke="#0552B5"/>
<path fill-rule="evenodd" clip-rule="evenodd" d="M156.198 33.5996L155.798 33.3996L155.598 33.4996L155.498 33.3996L155.198 33.2996L155.098 33.1996H154.998L154.898 32.9996L155.098 32.8996H155.398L155.698 32.1996L156.098 31.6996L156.198 31.5996H156.298L156.598 31.6996L156.698 31.8996L156.598 32.0996L156.698 32.4996L156.798 32.3996L156.898 32.4996L156.998 32.8996H156.798V32.9996H156.998L157.298 33.1996H157.498L157.798 33.3996L157.698 33.4996H157.498L157.198 33.5996H156.898H156.698L156.598 33.4996H156.398L156.298 33.5996H156.198Z" fill="white"/>
<path d="M157.198 33.5996L157.498 33.4996H157.698L157.798 33.3996L157.498 33.1996H157.298L156.998 32.9996H156.798V32.8996H156.998L156.898 32.4996L156.798 32.3996L156.698 32.4996L156.598 32.0996L156.698 31.8996L156.598 31.6996L156.298 31.5996H156.198L156.098 31.6996L155.698 32.1996L155.398 32.8996H155.098L154.898 32.9996L154.998 33.1996H155.098L155.198 33.2996L155.498 33.3996L155.598 33.4996L155.798 33.3996L156.198 33.5996H156.298L156.398 33.4996H156.598L156.698 33.5996H156.898H157.198ZM157.198 33.5996V33.5996Z" stroke="#0552B5"/>
<path fill-rule="evenodd" clip-rule="evenodd" d="M9.2 22.6004L9 22.7004L8.8 22.5004V22.7004L8.6 22.6004L8.5 22.7004L8.4 22.9004L8.2 23.0004L8.1 23.2004L8.4 23.4004L8.2 23.5004H8.1L7.9 23.6004L7.8 23.5004V23.4004L7.6 23.2004L8.1 22.8004V22.5004L7.9 22.4004L8.1 22.3004L8.2 22.1004V22.0004L8 21.7004L7.8 21.6004H7.7L7.6 21.8004H7.4L7.1 21.7004L7.2 21.6004V21.5004L7 21.4004V21.3004H6.6L6.5 21.2004V21.1004L6.1 20.9004L6 20.8004L6.1 20.7004H6.4L6.6 20.8004L6.8 21.0004L7.2 21.1004L7.3 21.0004L7.7 20.7004H7.6L7.8 20.5004L7.9 20.3004L7.7 20.2004L7.8 20.1004L8 20.0004L8.1 19.8004L8 19.6004H8.1L8.3 19.5004V19.4004L8.4 19.3004V19.1004L8.6 18.9004H8.7L8.8 18.7004L9 18.6004L9.1 18.8004L9.2 18.7004L9.3 18.6004L9.2 18.5004H9.4H9.6L9.9 18.3004V18.2004L10 17.9004L9.9 17.7004L9.8 17.5004L10 17.4004L10.2 17.5004L10.3 17.7004V17.8004L10.4 17.9004L10.6 18.0004L10.8 17.9004L11.3 17.8004L11.5 17.7004L11.7 17.8004L11.6 18.0004L11.7 18.1004L11.9 18.3004H12.1H12.3L12.4 18.7004L12.3 18.8004H12.1L11.4 19.1004L11.2 19.3004L11 19.7004V19.9004L11.1 20.3004H11.2L11.3 20.2004L11.1 20.5004H11.3L11.4 20.7004L11.5 20.8004V21.0004V21.3004V21.4004L11.4 21.6004L11.2 22.1004H11L10.8 22.5004L10.4 22.7004H10.1L9.9 22.8004V22.9004L9.7 22.8004L9.4 22.4004H9.3L9.2 22.6004Z" fill="white" stroke="#0552B5"/>
<path fill-rule="evenodd" clip-rule="evenodd" d="M7.5 1.69961L7.8 1.59961L8 1.39961V1.19961V1.09961H8.2H8.3L8.2 1.19961L8.3 1.39961L8.4 1.49961L8.8 1.69961H9L9.1 1.59961L9.2 1.29961H9.4H9.5L9.6 1.19961H9.9L10.1 1.09961L10.2 1.19961H10.4L10.5 1.29961H10.8L10.9 1.19961L11.2 1.29961H11.3L11.7 1.49961L11.9 1.59961L12.2 1.69961L12.5 1.89961V1.99961L12.6 2.09961V2.49961V2.79961V2.99961L12.8 3.39961L13.2 3.79961L13.5 3.89961L13.7 3.79961L14.1 3.89961L14 3.99961L14.1 4.19961L13.9 4.39961H13.5L13.4 4.29961L13.2 4.19961L13.1 3.89961L13 3.79961L12.7 3.89961L12.5 4.09961L12.4 4.29961L12.5 4.39961L13 4.49961V4.69961H13.2V4.79961H13V4.99961L12.6 5.19961L12.5 5.09961L12.6 4.99961L12.5 4.79961H12.3L11.8 4.89961L11.4 5.19961L10.9 5.79961L10.4 6.09961L10.2 6.29961L10 6.59961V6.69961L9.9 6.99961V7.19961L10.1 7.29961L10 7.69961H9.9L9.6 8.09961L9.4 8.29961L9.5 8.79961L9.6 8.99961L9.3 9.09961L9.2 9.39961L9 9.29961H8.8L8.7 9.49961L8.6 9.59961L8.4 9.49961L8.5 9.29961L8.3 9.09961L8.1 9.19961V8.99961L8 8.79961L7.8 8.69961L7.5 8.59961L7.4 8.69961L7.3 8.59961L7.1 8.69961V8.89961L6.9 8.99961L6.8 8.89961V8.79961L6.5 8.69961L6.3 8.59961H5.9L5.7 8.69961H5.3L5.4 8.59961V8.39961L4.9 8.49961L4.7 8.59961L4.6 8.49961L4.5 8.59961L4.3 8.49961H3.9L3.7 8.59961L3.6 8.39961L3.5 8.19961L3.2 7.49961L3.1 7.29961L3 6.79961L2.8 6.49961L2.7 6.39961V6.19961L2.6 5.79961V5.59961V4.99961L2.4 4.69961L2 4.39961L1.9 4.19961L1.5 4.09961H1.3L1.1 3.99961L1 3.59961L1.1 3.29961L1 2.79961L1.2 2.59961L1.3 2.39961L1.4 2.29961V2.09961L1.6 1.99961V1.79961H1.7V2.19961H2V1.89961H2.2L2.3 2.09961L2.5 2.29961L2.7 2.19961L2.8 2.29961L3 2.39961L2.9 2.49961L3.1 2.59961H3.3L3.5 2.69961V2.79961L3.8 2.99961H4L4.4 2.79961L4.5 2.59961H4.7L5 2.39961L4.9 2.29961L5.4 2.39961H5.5H5.6L5.8 2.19961L5.7 2.09961L6.1 1.99961H6.3V1.89961H6.6L6.7 1.69961L6.8 1.49961H6.9L7.2 1.39961L7.3 1.49961L7.2 1.59961L7.5 1.69961Z" fill="white" stroke="#0552B5"/>
<path fill-rule="evenodd" clip-rule="evenodd" d="M14.6031 27.1004H14.5031L14.4031 27.2004H14.3031H14.2031H14.0031L13.9031 27.4004V27.3004L13.6031 27.5004H13.5031L13.4031 27.7004L13.3031 27.9004V28.1004H13.1031H13.0031H12.8031L12.6031 28.2004L12.5031 28.5004L12.2031 28.3004V28.1004L12.4031 27.9004L12.6031 27.8004L12.7031 27.7004L12.9031 27.5004V27.0004L12.8031 26.9004L13.0031 26.8004L13.2031 26.9004L13.5031 26.8004L13.6031 26.6004L13.5031 26.3004H13.4031L13.5031 26.1004H13.6031L13.8031 26.4004H14.1031L14.5031 26.2004H14.8031L15.3031 26.1004H15.5031L16.0031 25.9004L16.4031 26.0004V26.2004L16.3031 26.5004H16.2031L16.1031 26.8004L16.2031 26.9004L16.1031 27.1004H16.0031V27.3004H16.2031L15.8031 27.5004L15.7031 27.3004L15.5031 27.4004V27.2004L15.2031 27.3004L15.1031 27.2004L15.0031 27.3004H14.9031L14.8031 27.0004H14.7031L14.6031 27.1004Z" fill="white" stroke="#0552B5"/>
<path fill-rule="evenodd" clip-rule="evenodd" d="M166.2 23.7008L165.9 23.9008L165.7 24.1008L165.6 24.4008L165.7 24.7008L165.6 24.9008L165.3 25.0008L165.1 25.1008L164.7 25.7008L164.8 25.8008L164.4 26.4008L164.3 26.6008L163.7 26.8008L163.1 27.1008L162.7 27.4008L162.2 27.7008L162 27.8008L161.8 28.0008L161.6 27.8008L160.9 27.5008H160.6H160.1L160 27.4008L159.5 27.6008H159.2V27.5008L159 27.7008L158.8 27.8008L158.4 27.7008H158H157.8L157.7 27.9008L157.4 28.0008L157.1 28.3008L157 28.6008L156.5 29.1008L156.3 29.4008H156.2L155.7 29.1008L155.3 28.8008L155.1 28.7008V28.5008L154.5 27.9008L154.3 27.8008L153.8 27.4008H153.6L153.5 27.2008H153.6V27.0008L153.5 26.8008H153.7L153.9 26.7008L154.1 26.6008L154.5 26.4008L154.7 26.2008V26.0008L154.8 25.9008V25.5008H154.9L155.1 25.2008L155.2 25.0008L155.3 24.5008H155.2H155V24.4008L154.9 24.0008H155L155.1 23.7008H155.2L155.5 23.3008L155.4 23.1008L155.2 23.0008L155.5 22.6008L156.1 22.2008L156.4 21.9008L156.6 21.8008L156.8 21.5008L157 21.4008L157.4 21.6008L157.6 21.7008H157.8H158H158.4H158.7L158.8 21.6008L159.1 21.5008L159.3 21.3008L159.4 21.4008L159.5 21.6008L159.9 21.8008L160.2 22.0008V22.1008L160.5 22.5008L160.7 22.7008L160.8 22.4008L161 22.5008H161.3V22.6008H161.5V22.7008H161.7L162 22.9008H162.2L162.5 23.1008L162.9 23.0008L163 23.1008L163.2 23.2008H163.9H164L164.3 23.1008L164.6 23.0008L164.9 22.8008V22.5008H165L165.2 22.7008L165.4 22.8008L165.5 23.1008L165.8 23.6008L166.2 23.7008Z" fill="white" stroke="#0552B5"/>
<path fill-rule="evenodd" clip-rule="evenodd" d="M105.702 40.4004L105.402 40.5004L105.502 40.6004L105.702 40.8004L106.002 40.9004H106.602L106.502 41.0004V41.2004L106.402 41.3004L106.502 41.6004L106.402 41.4004V41.2004L106.202 41.1004V41.0004L105.902 40.9004L105.702 40.8004L105.402 40.6004L105.102 40.8004L105.002 41.0004L104.802 41.2004H104.702L104.602 41.4004H104.002L103.802 41.3004L103.702 41.1004L103.802 40.8004L103.702 40.3004L103.502 40.2004L103.602 40.0004H103.902V39.7004V39.3004L103.702 39.0004L103.602 38.9004H103.402V38.7004H103.102V38.5004L103.202 38.3004L103.102 38.1004L103.402 37.9004H103.702V38.1004L103.902 38.2004V38.3004H104.102L104.402 38.4004L104.702 38.3004L105.002 38.2004H105.102L105.302 38.1004L105.602 38.0004H105.702L105.802 37.9004H106.002L106.202 38.0004H106.402L106.602 37.9004H106.802L106.702 38.1004L106.802 38.5004L106.902 38.6004V38.8004L106.602 39.0004L106.402 39.2004L106.302 39.6004V39.7004L106.002 39.9004V40.1004L105.702 40.4004Z" fill="white"/>
<path d="M105.702 40.8004L105.502 40.6004L105.402 40.5004L105.702 40.4004L106.002 40.1004V39.9004L106.302 39.7004V39.6004L106.402 39.2004L106.602 39.0004L106.902 38.8004V38.6004L106.802 38.5004L106.702 38.1004L106.802 37.9004H106.602L106.402 38.0004H106.202L106.002 37.9004H105.802L105.702 38.0004H105.602L105.302 38.1004L105.102 38.2004H105.002L104.702 38.3004L104.402 38.4004L104.102 38.3004H103.902V38.2004L103.702 38.1004V37.9004H103.402L103.102 38.1004L103.202 38.3004L103.102 38.5004V38.7004H103.402V38.9004H103.602L103.702 39.0004L103.902 39.3004V39.7004V40.0004H103.602L103.502 40.2004L103.702 40.3004L103.802 40.8004L103.702 41.1004L103.802 41.3004L104.002 41.4004H104.602L104.702 41.2004H104.802L105.002 41.0004L105.102 40.8004L105.402 40.6004L105.702 40.8004ZM105.702 40.8004L106.002 40.9004H106.602L106.502 41.0004V41.2004L106.402 41.3004L106.502 41.6004L106.402 41.4004V41.2004L106.202 41.1004V41.0004L105.902 40.9004L105.702 40.8004Z" stroke="#0552B5"/>
<path fill-rule="evenodd" clip-rule="evenodd" d="M152.897 38L152.997 38.2L153.197 38.5L153.597 39.3H153.797L153.997 39.5L154.197 39.6V39.7L153.997 39.9L153.797 40.2L153.597 40.5L153.897 41L153.197 40.7H152.997L152.897 40.6H152.497L152.297 40.8L152.097 40.7V40.6L152.297 40.5L152.397 40.4L152.297 40L152.097 39.8L151.197 39.2H151.097H150.697V39.3H150.397L150.097 39.4V39.6L149.797 39.4V39.3L149.497 39.2L149.197 38.9L149.097 39L148.997 38.9H148.897V38.7L148.997 38.6L148.797 38.4L148.997 38.3V38.4L149.197 38.5L149.497 38.3V38.2L149.597 38.3L149.797 38.2L149.997 38.1L150.197 38.3L150.297 38.4H150.497L150.597 38.3H150.797L151.597 37.9V37.6L151.797 37.5H152.097L152.397 37.2V37H152.697V37.4L152.797 37.5V37.7L152.897 38Z" fill="white" stroke="#0552B5"/>
<path fill-rule="evenodd" clip-rule="evenodd" d="M158.097 41.2004H158.297L158.497 41.4004H158.597V41.6004L158.397 41.7004V41.9004L158.297 42.0004L158.197 42.5004H158.097L157.997 43.0004L158.097 43.3004L158.197 43.6004L158.397 43.9004L158.697 44.0004L158.897 44.1004L158.997 44.2004L159.097 44.5004L159.197 44.6004H158.997V44.4004L158.597 44.2004L158.097 44.1004L157.597 43.8004L157.197 43.6004L156.397 43.0004L156.297 42.8004L155.697 41.8004L155.497 41.5004L155.297 41.4004V41.1004H155.397L155.597 41.3004L155.797 41.4004V41.5004L156.097 41.2004V41.0004L156.297 40.9004H156.397L156.497 41.1004L156.897 41.4004L156.997 41.3004H157.397L157.797 41.2004H158.097Z" fill="white"/>
<path d="M156.397 43.0004L157.197 43.6004L157.597 43.8004L158.097 44.1004L158.597 44.2004L158.997 44.4004V44.6004H159.197L159.097 44.5004L158.997 44.2004L158.897 44.1004L158.697 44.0004L158.397 43.9004L158.197 43.6004L158.097 43.3004L157.997 43.0004L158.097 42.5004H158.197L158.297 42.0004L158.397 41.9004V41.7004L158.597 41.6004V41.4004H158.497L158.297 41.2004H158.097H157.797L157.397 41.3004H156.997L156.897 41.4004L156.497 41.1004L156.397 40.9004H156.297L156.097 41.0004V41.2004L155.797 41.5004V41.4004L155.597 41.3004L155.397 41.1004H155.297V41.4004L155.497 41.5004L155.697 41.8004L156.297 42.8004L156.397 43.0004ZM156.397 43.0004V43.0004Z" stroke="#0552B5"/>
<path fill-rule="evenodd" clip-rule="evenodd" d="M183.8 34.8996L184 35.0996L184.2 35.2996H184.3L184.1 35.4996L183.9 35.6996L183.8 36.0996V36.5996V36.7996L183.7 37.0996V37.5996H183.8L183.7 37.7996L183.5 37.8996V38.2996V38.7996L183.7 39.1996L183.9 39.4996L184 39.5996L184.4 39.7996L184.6 39.6996H184.7L184.9 39.8996L185 40.0996V40.2996H184.8L184.2 40.5996L184 40.8996V41.2996L184.1 41.3996L184.3 41.6996L184.4 41.8996L184.3 42.0996H184.1V42.1996L184.3 42.0996L184.4 42.4996L184.6 42.8996L184.9 43.3996V43.6996L185.1 43.9996V44.1996L185.3 43.9996L185.4 44.0996L185.1 44.2996V44.6996L185.2 44.5996V44.9996L185.4 44.8996V44.6996L185.5 44.5996L185.7 44.6996L185.9 44.9996L186 45.3996L185.9 45.4996H185.6H185.5H185.2L185.3 45.6996L185.2 45.9996L185.1 45.8996L184 46.2996H183.8V46.5996H183.9L183.7 46.7996L183.4 46.9996H183.3V47.1996V47.6996L183.1 47.7996L183.3 47.9996L183.6 47.7996L183.9 47.8996H184L184.1 47.9996L183.8 48.1996L183.5 48.4996L183.6 48.5996L183.7 48.6996L183.8 48.8996H184.2L184.4 49.0996L184.3 49.2996V49.3996L184 49.2996L184.1 49.4996L183.8 49.5996L183.7 49.4996V49.7996L183.5 49.9996L183.4 50.0996L183.1 49.9996V49.8996L182.9 49.7996L182.8 49.4996L182.6 49.3996H182.4L182.3 49.0996L182.1 48.7996L182.6 48.5996L183.1 48.3996V48.2996L183.3 48.0996L183.1 47.6996H183L182.9 48.0996L182.5 47.9996L182.3 48.0996L182.1 47.9996L181.7 47.8996H181.5L181.4 47.7996L181 47.5996H180.7L180.3 47.2996L180.2 47.0996H179.9L179.7 47.1996L179.8 47.5996L179.7 47.7996L178.7 48.1996L178.4 48.0996V48.2996L178.3 48.5996V48.6996L178.2 48.8996H178.1L178 48.6996L177.6 48.4996L177.3 48.3996L177.2 48.4996H177L176.8 48.2996L176.7 48.3996L176.4 48.2996L176.1 48.4996L176 48.5996L175.8 48.4996L173.8 48.3996H173.5H173.3L173 48.2996L172.8 48.3996L172.6 48.2996L172.2 48.0996L171.9 47.8996L171.6 47.4996H171.4L171.1 47.2996L170.9 47.0996V46.6996L170.3 46.4996H170.2L170.1 46.2996L169.9 46.1996L169.6 46.2996L169.4 45.9996H169.7L169.9 45.8996L170 45.7996L170.1 45.5996V45.2996L169.9 45.1996V44.5996L169.7 44.3996L169.8 44.2996V43.9996L169.7 43.6996L169.4 43.5996L169.1 43.4996L169 43.3996L169.1 43.2996L169.3 43.1996L170 43.2996L170.3 43.0996L170.5 43.1996L170.4 42.9996H170.7L171 42.8996L171.1 42.7996L171.4 42.6996H171.5V42.7996L171.8 42.8996L172.1 42.7996L172.5 42.4996L172.6 42.3996L172.7 42.0996L173 41.8996L172.8 41.7996L173 41.5996H173.1V41.2996H173.3L173.2 40.8996V40.6996H173.1L173 40.2996L172.9 39.7996L172.8 39.4996V39.3996L172.7 38.7996L172.6 38.6996V38.4996L172.4 38.2996L172.2 38.0996L172.1 37.7996H171.8L171.6 37.4996L171.4 37.3996L171.3 37.0996L171.2 36.9996V36.7996L171.1 36.6996L171.3 36.5996L171.5 36.2996L171.3 35.9996H171.2L171.1 35.7996L170.9 35.5996L170.6 35.4996H170.1H169.8L169.7 35.2996H169.6L168.7 35.0996H168.4L168.2 34.8996L168 34.7996L167.9 34.3996L167.7 33.9996V33.8996L167.6 33.4996H167.8V33.2996V33.0996L167.9 32.7996L167.8 32.5996L167.7 31.3996V30.6996L168 30.5996L168.1 30.6996L168.2 30.5996H168.1L167.9 30.3996L167.8 30.1996L167.9 29.4996L168 28.6996L168.1 28.4996V28.0996L168 27.3996L168.2 27.2996L168.1 27.1996L168 27.0996L167.9 26.9996V26.1996L168 25.9996V25.6996L167.9 25.5996L167.8 25.2996H167.9V25.0996L167.8 24.9996L167.5 24.7996L167.6 24.4996L167.7 24.3996L168 24.4996V24.2996L168.3 24.0996L168.7 23.9996L169 23.6996L169.1 23.5996L169.4 23.3996L169.8 23.1996L170.1 23.0996L170.7 22.9996L171.1 22.6996L171.3 22.1996L171.5 21.5996L171.6 21.4996L171.7 20.7996L171.5 20.6996L171.6 20.5996L171.7 20.6996H172.3L172.5 20.7996H172.9H173.2L173.4 20.6996L173.8 20.7996H173.9L174.2 20.5996L174.3 20.2996L174.5 20.1996L174.7 19.9996L174.8 19.7996V19.6996L175 19.5996V19.6996L175.3 19.7996L175.9 19.9996L175.8 20.0996L175.9 20.2996H176V20.4996L176.2 20.7996H176.5L176.6 21.1996L177.1 21.9996V22.0996H177.2L177.6 22.3996L177.7 22.4996L178.2 22.8996L178.7 23.1996L179.1 23.5996L179.8 24.0996L180.1 24.2996L180.8 24.7996L181.6 25.0996V25.2996L181.9 25.1996L182 25.2996L182.2 25.3996L182.5 25.5996L182.7 25.8996V26.3996V26.5996L183 26.8996L183.1 27.0996L183 27.1996L182.9 27.3996V27.7996L183.3 28.5996L183.5 28.8996L183.7 29.1996L183.9 29.4996L184.2 29.7996H184.4L184.3 30.1996L184.2 30.3996V30.7996L184.1 30.8996L183.8 31.2996L183.7 31.3996L183.5 31.6996L183.2 32.5996L183.1 32.9996L183 33.4996L183.1 33.7996L183.2 34.0996L183.3 34.3996L183.5 34.6996L183.8 34.8996Z" fill="white"/>
<path d="M184.3 42.0996L184.4 41.8996L184.3 41.6996L184.1 41.3996L184 41.2996V40.8996L184.2 40.5996L184.8 40.2996H185V40.0996L184.9 39.8996L184.7 39.6996H184.6L184.4 39.7996L184 39.5996L183.9 39.4996L183.7 39.1996L183.5 38.7996V38.2996V37.8996L183.7 37.7996L183.8 37.5996H183.7V37.0996L183.8 36.7996V36.5996V36.0996L183.9 35.6996L184.1 35.4996L184.3 35.2996H184.2L184 35.0996L183.8 34.8996L183.5 34.6996L183.3 34.3996L183.2 34.0996L183.1 33.7996M184.3 42.0996H184.1V42.1996L184.3 42.0996ZM184.3 42.0996L184.4 42.4996L184.6 42.8996L184.9 43.3996V43.6996M184.9 43.6996V43.6996ZM184.9 43.6996L185.1 43.9996V44.1996L185.3 43.9996L185.4 44.0996L185.1 44.2996V44.6996L185.2 44.5996V44.9996L185.4 44.8996V44.6996L185.5 44.5996L185.7 44.6996L185.9 44.9996L186 45.3996L185.9 45.4996H185.6H185.5H185.2L185.3 45.6996L185.2 45.9996L185.1 45.8996L184 46.2996H183.8V46.5996H183.9L183.7 46.7996L183.4 46.9996H183.3V47.1996V47.6996L183.1 47.7996L183.3 47.9996L183.6 47.7996L183.9 47.8996H184L184.1 47.9996L183.8 48.1996L183.5 48.4996L183.6 48.5996L183.7 48.6996L183.8 48.8996H184.2L184.4 49.0996L184.3 49.2996V49.3996L184 49.2996L184.1 49.4996L183.8 49.5996L183.7 49.4996V49.7996L183.5 49.9996L183.4 50.0996L183.1 49.9996V49.8996L182.9 49.7996L182.8 49.4996L182.6 49.3996H182.4L182.3 49.0996L182.1 48.7996L182.6 48.5996L183.1 48.3996V48.2996L183.3 48.0996L183.1 47.6996H183L182.9 48.0996L182.5 47.9996L182.3 48.0996L182.1 47.9996L181.7 47.8996H181.5L181.4 47.7996L181 47.5996H180.7L180.3 47.2996L180.2 47.0996H179.9L179.7 47.1996L179.8 47.5996L179.7 47.7996L178.7 48.1996L178.4 48.0996V48.2996L178.3 48.5996V48.6996L178.2 48.8996H178.1L178 48.6996L177.6 48.4996L177.3 48.3996L177.2 48.4996H177L176.8 48.2996L176.7 48.3996L176.4 48.2996L176.1 48.4996L176 48.5996L175.8 48.4996L173.8 48.3996H173.5H173.3L173 48.2996L172.8 48.3996L172.6 48.2996L172.2 48.0996L171.9 47.8996L171.6 47.4996H171.4L171.1 47.2996L170.9 47.0996V46.6996L170.3 46.4996H170.2L170.1 46.2996L169.9 46.1996L169.6 46.2996L169.4 45.9996H169.7L169.9 45.8996L170 45.7996L170.1 45.5996V45.2996L169.9 45.1996V44.5996L169.7 44.3996L169.8 44.2996V43.9996L169.7 43.6996L169.4 43.5996L169.1 43.4996L169 43.3996L169.1 43.2996L169.3 43.1996L170 43.2996L170.3 43.0996L170.5 43.1996L170.4 42.9996M170.4 42.9996V42.9996ZM170.4 42.9996H170.7L171 42.8996L171.1 42.7996L171.4 42.6996H171.5V42.7996L171.8 42.8996L172.1 42.7996L172.5 42.4996L172.6 42.3996L172.7 42.0996L173 41.8996L172.8 41.7996L173 41.5996H173.1V41.2996H173.3L173.2 40.8996V40.6996H173.1L173 40.2996L172.9 39.7996L172.8 39.4996V39.3996L172.7 38.7996L172.6 38.6996V38.4996L172.4 38.2996L172.2 38.0996L172.1 37.7996H171.8L171.6 37.4996L171.4 37.3996L171.3 37.0996L171.2 36.9996V36.7996L171.1 36.6996L171.3 36.5996L171.5 36.2996L171.3 35.9996H171.2L171.1 35.7996L170.9 35.5996L170.6 35.4996H170.1H169.8L169.7 35.2996H169.6L168.7 35.0996H168.4L168.2 34.8996L168 34.7996L167.9 34.3996L167.7 33.9996V33.8996L167.6 33.4996H167.8V33.2996V33.0996L167.9 32.7996L167.8 32.5996L167.7 31.3996V30.6996L168 30.5996L168.1 30.6996L168.2 30.5996H168.1L167.9 30.3996L167.8 30.1996L167.9 29.4996L168 28.6996L168.1 28.4996V28.0996L168 27.3996L168.2 27.2996L168.1 27.1996L168 27.0996L167.9 26.9996V26.1996L168 25.9996V25.6996L167.9 25.5996L167.8 25.2996H167.9V25.0996L167.8 24.9996L167.5 24.7996L167.6 24.4996L167.7 24.3996L168 24.4996V24.2996L168.3 24.0996L168.7 23.9996L169 23.6996L169.1 23.5996L169.4 23.3996L169.8 23.1996L170.1 23.0996L170.7 22.9996L171.1 22.6996L171.3 22.1996L171.5 21.5996L171.6 21.4996L171.7 20.7996L171.5 20.6996L171.6 20.5996L171.7 20.6996H172.3L172.5 20.7996H172.9H173.2L173.4 20.6996L173.8 20.7996H173.9L174.2 20.5996L174.3 20.2996L174.5 20.1996L174.7 19.9996L174.8 19.7996V19.6996L175 19.5996V19.6996L175.3 19.7996L175.9 19.9996L175.8 20.0996L175.9 20.2996H176V20.4996L176.2 20.7996H176.5L176.6 21.1996L177.1 21.9996V22.0996H177.2L177.6 22.3996L177.7 22.4996L178.2 22.8996L178.7 23.1996L179.1 23.5996L179.8 24.0996L180.1 24.2996L180.8 24.7996L181.6 25.0996V25.2996L181.9 25.1996L182 25.2996L182.2 25.3996L182.5 25.5996L182.7 25.8996V26.3996V26.5996L183 26.8996L183.1 27.0996L183 27.1996L182.9 27.3996V27.7996L183.3 28.5996L183.5 28.8996L183.7 29.1996L183.9 29.4996L184.2 29.7996H184.4L184.3 30.1996L184.2 30.3996V30.7996L184.1 30.8996L183.8 31.2996L183.7 31.3996L183.5 31.6996L183.2 32.5996L183.1 32.9996L183 33.4996L183.1 33.7996M183.1 33.7996V33.7996Z" stroke="#0552B5"/>
<path fill-rule="evenodd" clip-rule="evenodd" d="M170.003 37.0992L170.103 37.2992L170.203 37.5992H170.303V37.8992H170.203V38.2992L170.003 38.8992L169.903 39.1992V39.3992V39.4992L169.703 39.5992L169.603 39.7992H169.503V39.9992L169.303 39.8992L169.103 40.0992L168.703 40.1992L168.403 40.5992V40.6992L168.003 41.0992H167.703L167.303 41.4992H166.803L166.903 41.9992L166.803 42.0992L167.003 42.1992L166.603 42.3992L166.203 42.2992L166.303 42.1992L166.403 41.9992L166.303 41.7992L166.103 41.8992V41.6992L165.803 41.3992L165.503 41.2992L165.403 41.3992L165.203 41.2992L165.303 41.0992L165.103 40.6992V40.3992H165.203L165.303 40.1992L165.403 39.7992V39.1992L165.103 38.9992L165.003 38.6992L164.603 38.0992L164.703 37.8992H164.603L164.103 37.3992L163.903 37.4992L163.803 37.2992L163.703 37.1992L163.503 37.0992V37.1992L163.403 37.0992L163.003 36.8992L162.803 36.7992L162.503 36.6992L162.403 36.5992H162.203L162.003 36.4992L161.903 36.2992H161.703V36.0992H161.503L161.403 35.8992V35.6992L161.303 35.4992L161.103 35.3992L161.003 35.2992H160.803V35.1992L160.603 35.0992L160.403 34.7992H160.303L160.103 34.5992H160.003L159.703 34.2992L159.903 34.1992H160.003H160.403L160.503 34.2992L160.703 34.3992H160.903L161.003 34.4992L161.403 34.0992L161.503 33.7992V33.1992L161.603 32.7992V32.3992L161.503 32.0992L161.603 31.8992V31.4992L161.703 31.1992V30.8992V30.5992H161.603V30.4992L161.903 30.1992L162.203 30.0992L163.003 29.9992L163.603 29.6992L163.903 29.5992V29.4992L164.403 29.1992H164.803L165.003 29.3992L165.203 29.4992L165.403 29.5992L165.503 29.6992L165.603 29.7992V29.9992L165.503 30.1992H165.403L165.103 30.3992V30.4992L164.803 30.7992L164.603 31.2992L164.503 31.9992L164.403 32.7992V33.5992L164.503 33.9992L164.703 34.2992L165.103 34.4992L165.303 34.6992L165.503 34.7992L165.803 35.1992H165.903L166.103 35.4992L166.303 35.5992L166.403 35.6992L166.803 35.7992V35.8992H167.003L167.603 36.0992H168.203L168.303 36.2992H168.403L168.803 36.0992V36.1992H169.103V36.4992L169.203 36.6992L169.303 36.7992L169.603 36.8992L169.903 36.9992L170.003 37.0992Z" fill="white"/>
<path d="M165.503 34.7992L165.303 34.6992L165.103 34.4992L164.703 34.2992L164.503 33.9992L164.403 33.5992V32.7992L164.503 31.9992L164.603 31.2992L164.803 30.7992L165.103 30.4992V30.3992L165.403 30.1992H165.503L165.603 29.9992V29.7992L165.503 29.6992L165.403 29.5992L165.203 29.4992L165.003 29.3992L164.803 29.1992H164.403L163.903 29.4992V29.5992L163.603 29.6992L163.003 29.9992L162.203 30.0992L161.903 30.1992L161.603 30.4992V30.5992H161.703V30.8992V31.1992L161.603 31.4992V31.8992L161.503 32.0992L161.603 32.3992V32.7992L161.503 33.1992V33.7992L161.403 34.0992L161.003 34.4992L160.903 34.3992H160.703L160.503 34.2992L160.403 34.1992H160.003H159.903L159.703 34.2992L160.003 34.5992H160.103L160.303 34.7992H160.403L160.603 35.0992L160.803 35.1992V35.2992H161.003L161.103 35.3992L161.303 35.4992L161.403 35.6992V35.8992L161.503 36.0992H161.703V36.2992H161.903L162.003 36.4992L162.203 36.5992H162.403L162.503 36.6992L162.803 36.7992L163.003 36.8992L163.403 37.0992L163.503 37.1992V37.0992L163.703 37.1992L163.803 37.2992L163.903 37.4992L164.103 37.3992L164.603 37.8992H164.703L164.603 38.0992L165.003 38.6992L165.103 38.9992L165.403 39.1992V39.7992L165.303 40.1992L165.203 40.3992H165.103V40.6992L165.303 41.0992L165.203 41.2992L165.403 41.3992L165.503 41.2992L165.803 41.3992L166.103 41.6992V41.8992L166.303 41.7992L166.403 41.9992L166.303 42.1992L166.203 42.2992L166.603 42.3992L167.003 42.1992L166.803 42.0992L166.903 41.9992L166.803 41.4992H167.303L167.703 41.0992H168.003L168.403 40.6992V40.5992L168.703 40.1992L169.103 40.0992L169.303 39.8992L169.503 39.9992V39.7992H169.603L169.703 39.5992L169.903 39.4992V39.3992V39.1992L170.003 38.8992L170.203 38.2992V37.8992H170.303V37.5992H170.203L170.103 37.2992L170.003 37.0992L169.903 36.9992L169.603 36.8992L169.303 36.7992L169.203 36.6992L169.103 36.4992V36.1992H168.803V36.0992L168.403 36.2992H168.303L168.203 36.0992H167.603L167.003 35.8992H166.803V35.7992L166.403 35.6992L166.303 35.5992L166.103 35.4992L165.903 35.1992H165.803L165.503 34.7992ZM165.503 34.7992V34.7992Z" stroke="#0552B5"/>
</svg>
