<svg width="80" height="91" viewBox="0 0 80 91" fill="none" xmlns="http://www.w3.org/2000/svg">
<path fill-rule="evenodd" clip-rule="evenodd" d="M78.2016 56.1996V56.0996H78.1016L78.0016 55.9996L77.9016 56.0996V55.8996H77.7016L77.5016 55.9996L77.0016 55.8996L76.9016 55.6996L76.7016 55.7996L76.5016 55.6996H76.4016L76.3016 55.4996L76.4016 55.3996L76.2016 54.7996L76.1016 54.5996V54.4996V54.2996L76.3016 54.0996L76.2016 53.8996L76.4016 53.5996L76.8016 53.2996V52.9996L76.9016 53.0996L77.0016 52.9996L76.9016 52.8996L76.7016 52.6996L76.8016 52.5996L76.7016 52.3996H76.8016H77.0016L77.1016 52.2996V52.1996L77.2016 52.0996L77.4016 52.1996L77.5016 52.3996L77.7016 52.2996V52.3996L77.6016 52.4996L77.8016 52.7996L77.9016 52.6996L78.0016 52.8996V52.9996L77.8016 52.8996L77.7016 52.9996L77.6016 53.2996L77.7016 53.4996L77.8016 53.5996L77.9016 53.4996H78.0016L78.1016 53.3996H78.3016L78.4016 53.6996L78.5016 53.9996L78.6016 54.3996V54.5996L78.7016 54.6996H78.9016L78.8016 54.9996L78.9016 55.0996V55.2996L78.7016 55.3996H78.5016V55.6996L78.6016 55.7996V56.0996L78.4016 56.1996H78.2016Z" fill="white" stroke="#0552B5"/>
<path fill-rule="evenodd" clip-rule="evenodd" d="M73.6984 63.4L73.4984 63.6V63.8V63.9L73.3984 64.1L73.1984 64.2V64.6V65L73.0984 64.9V65.1H72.8984V65.2V65.6V65.7L72.7984 65.9L72.4984 66L72.3984 66.2L72.5984 66.3L72.4984 66.4L72.5984 66.6L72.7984 66.7L72.6984 66.9V67.2V67.5L72.4984 67.6H72.3984L71.9984 67.7V67.8H71.5984L71.1984 68L70.9984 68.3L70.7984 68.2L70.4984 68.3L70.3984 68.5V68.4L70.1984 68.5L70.2984 68.7V68.9L69.9984 69.1L70.0984 69.2L69.6984 69.4L69.5984 69.7L69.3984 69.6L69.2984 69.7L69.4984 69.9V70.2H69.3984L69.4984 70.4H69.2984L68.9984 70.6V70.7L69.1984 70.9H68.9984V71.2L69.0984 71.4V71.7L68.6984 72.2L68.5984 72.4L68.2984 72.5L68.1984 72.6L68.0984 72.7V73H67.9984L67.8984 73.3V73.6L67.7984 73.5H67.5984L67.0984 73.8L66.6984 74.3L66.5984 74.5H66.3984L66.1984 74.6H66.0984V74.8L66.1984 75H66.3984H66.6984V74.9H66.8984L66.7984 75H66.9984L67.1984 75.1L67.0984 75.3V75.6V75.7L66.8984 75.6L66.6984 75.8L66.5984 76.1H66.3984L66.0984 76.3H66.1984L66.0984 76.6L65.7984 76.7L65.6984 76.8L65.4984 76.9V77.1L65.2984 77.2H64.9984L64.8984 77.3H64.5984L64.3984 77.1H64.1984H63.9984V77.2L63.6984 77.3H63.5984L63.4984 77.6L63.1984 77.7L63.0984 77.4L62.8984 77.5L62.7984 77.6L62.6984 77.5L62.2984 77.6L62.0984 77.5L61.9984 77.4L61.7984 77.6L61.4984 77.5H61.2984V77.3H61.0984L60.7984 77.2H60.5984L60.3984 77.1L60.1984 77.2V77.4L60.0984 77.7L59.7984 77.9L59.4984 78H59.3984L59.2984 78.3L59.1984 78.5V78.7L59.0984 78.8L59.1984 78.9L58.9984 79L58.7984 78.9V79H58.6984L58.4984 79.1V79.3H58.2984V79.4H58.0984L57.9984 79.3L57.6984 79.4L57.8984 79.5L57.7984 79.6V79.9L57.3984 80.1L57.2984 80.3L57.0984 80.4V80.5L56.8984 80.4H56.6984L56.7984 80.2L56.6984 80.1L56.5984 80.3L56.2984 80.1L56.0984 80L55.9984 80.4L55.4984 80.3L55.1984 80.4L54.9984 80.6L54.8984 80.5L54.6984 80.6L54.5984 80.7L54.3984 80.6L54.1984 80.7L54.0984 80.9H53.7984H53.5984L53.0984 81.2L52.8984 81.3H52.2984L52.1984 81.5V81.4H51.9984H51.6984H51.3984L51.2984 81.5V81.3H51.1984H50.8984V81.4L50.7984 81.6H50.4984V81.4H50.1984V81.3H49.8984H49.7984L49.4984 81.4L49.2984 81.2V81.1H49.3984L49.2984 80.9L48.9984 81L49.0984 81.3V81.4L48.8984 81.5H48.6984L48.5984 81.6L48.4984 81.4L48.3984 81.5L48.2984 81.7L48.0984 81.6L47.5984 81.7L47.3984 82L47.2984 82.2H47.3984L47.1984 82.5L47.2984 82.8L46.9984 82.9L46.8984 82.8L46.6984 83L46.5984 83.2L46.3984 83.1L46.4984 83.2L46.3984 83.3L46.2984 83.1L46.0984 83.2L45.9984 83.5H45.7984L45.6984 83.4L45.4984 83.6V83.9L45.3984 83.8H45.2984L45.1984 83.9L45.2984 84.1L45.1984 84.2L45.2984 84.4V84.5L44.8984 84.7L44.2984 84.8L44.0984 84.9H43.8984H43.7984V85.1H43.5984L43.3984 85.3H43.1984L42.9984 85.2L42.7984 85.1H42.6984L42.5984 85L42.4984 84.9L42.6984 84.8L42.3984 84.6V84.5L42.0984 84.3L41.5984 84.4L41.6984 84.5L41.3984 84.4L41.2984 84.2L41.0984 84.3L40.9984 84.4L40.6984 84.3L40.4984 84.4V84.5L40.3984 84.4L40.2984 84.6L40.1984 84.7L40.5984 85.3L40.2984 85.7V85.5L40.5984 85.3L40.4984 85.2L40.2984 85.4L40.1984 85.3L40.3984 85.1L40.2984 85L40.0984 85.1L39.9984 84.9L39.7984 84.8L39.6984 84.7L39.7984 84.5H39.5984L39.4984 84.7V85L39.3984 84.9H39.0984L38.6984 84.7H38.5984L38.4984 84.9L38.3984 85.1L38.0984 84.8V84.9L37.9984 85L37.6984 84.6H37.5984L37.0984 84.9H36.9984H36.5984L36.2984 84.8L35.8984 84.7L35.6984 84.8L35.7984 84.9L35.5984 85V85.2H35.2984L35.3984 85.4L35.1984 85.5V85.7H34.8984L34.5984 85.9L34.3984 85.8L34.1984 85.9L34.0984 85.8H33.8984L33.5984 85.6H33.4984L33.3984 85.8L33.2984 85.9L33.1984 85.7H32.9984V85.8L33.1984 86.3H33.0984L32.9984 86H32.6984V86.1L31.9984 86.3L31.8984 86.4V86.5L32.2984 87H32.9984L33.3984 87.1V87.2L32.9984 87H32.2984L31.8984 86.5L31.6984 86.2L31.5984 86.1L31.4984 86.3H31.5984L31.0984 86.4L30.6984 86L30.5984 85.8H30.2984V85.6L30.1984 85.1L29.9984 84.9H29.8984L29.7984 84.7L29.5984 84.8L29.1984 84.7H28.9984L28.7984 84.9L28.5984 85H28.3984L28.2984 85.1L28.1984 85L28.0984 85.1L27.8984 84.9L27.7984 85.1L27.8984 85.2H27.6984H27.5984L27.4984 85.4V85.5L27.3984 85.6L27.2984 85.4H27.0984L26.7984 85.3L26.8984 85.2H26.7984L26.6984 85.1L26.5984 85.2L26.4984 84.9H26.3984L26.2984 84.7L25.9984 84.5V84.4H25.6984L25.4984 84.2H25.2984L24.9984 84.3L24.7984 84.4H24.5984H24.4984L24.2984 84.6L23.9984 84.7V84.8L23.7984 85H23.5984L23.2984 85.2L22.8984 85.4L22.7984 85.5V85.7L22.5984 85.5L22.3984 85.4L22.1984 85.5V85.8L22.0984 85.6L21.7984 85.7H21.6984L21.4984 85.8L21.2984 85.9L21.1984 85.7L20.9984 85.8L20.6984 85.5L20.5984 85.3L20.6984 85.2H20.3984V85.3L20.1984 85.2L19.5984 85.4H19.3984L19.1984 85.3L18.9984 85.2L18.8984 85.3H18.4984V85.2L18.2984 85.3L18.1984 85.4L17.8984 85.5L17.4984 85.8H17.2984V85.7H17.4984L17.8984 85.5L18.0984 85.4L17.9984 85.2L17.8984 85.3L17.7984 85.2L17.9984 85.1L17.8984 85V84.9L17.5984 84.7L17.1984 84.8L17.0984 84.9H16.6984L16.1984 85.3V85.5L16.0984 85.7H16.1984L16.0984 85.8L15.9984 85.7H15.7984L15.5984 86L15.4984 86.3L15.3984 86.2H15.0984L14.8984 86.3L14.1984 87.1L14.2984 87.3L14.0984 87.4L14.1984 87.7L14.0984 87.9L13.9984 88L13.8984 88.5L13.7984 88.6V88.9V89L14.0984 89.1V89.5L14.1984 89.6L13.8984 89.9H13.6984L13.4984 89.8L13.3984 89.7V89.4L13.1984 89.3H12.9984L12.6984 89.4H12.5984L12.2984 89.6V89.8H12.0984L11.9984 90L11.5984 89.8L11.4984 89.7L11.2984 89.8L11.3984 89.7L11.1984 89.6L10.9984 89.5V89.4L11.0984 89.2L11.1984 89.3L11.2984 89.1L11.0984 89L11.2984 88.8V88.6L11.1984 88.5V88.3L10.9984 88.1L10.7984 88.2L10.6984 88.1L10.5984 88.2L10.7984 88.3H10.4984V88.2H10.3984L10.1984 87.8H9.89844L10.0984 87.7V87.6L9.89844 87.5V87.3L9.99844 87.2L9.89844 87.1L9.79844 87.4L9.69844 87.2L9.49844 87H9.29844L9.09844 86.7L8.99844 86.6V86.4V86L8.79844 86.1L8.69844 86L8.79844 85.8H8.69844L8.59844 85.7L8.69844 85.6L8.49844 85.5V85.3L8.39844 85.2H7.99844L7.89844 85.1V85L7.79844 84.9V84.7H7.29844L6.99844 84.5L6.59844 84.4L6.29844 84.6L6.09844 84.5L5.99844 84.4L5.79844 84.3L5.39844 84.2L5.29844 84L5.09844 83.9L4.99844 83.8L4.79844 83.7L4.59844 83.4L4.39844 83.1H4.19844L4.09844 83L3.89844 82.9L3.59844 82.7L3.39844 82.5L3.29844 82.3V82.2L3.19844 81.8L2.99844 81.5L2.79844 81.3L2.69844 81.2L2.39844 81L2.49844 80.8H2.39844H2.19844V80.5V80L1.99844 79.8L1.69844 79.7V79.8L1.59844 79.6L1.49844 79.1L1.39844 78.8L1.49844 78.5L1.59844 78.4L1.99844 78.2V78.1V77.8L1.69844 77.3V77V76.8H1.89844V76.7V76.5L1.99844 76.3V76.1H2.09844L1.99844 75.9V75.8L1.89844 75.5V75.3H1.79844L1.59844 75.2V74.9V74.8L1.49844 74.6L1.69844 74.5H1.79844L1.89844 74.4L1.69844 74.2L1.49844 74.1L1.59844 73.9L1.69844 73.7H1.89844L1.99844 73.4L1.89844 73.2L1.99844 73L2.19844 73.2L2.29844 73.1H2.19844L2.09844 73L2.19844 72.9L2.39844 73L2.49844 72.9H2.79844L2.89844 72.8L3.09844 72.7V72.5L3.29844 72.4V72.2L3.19844 72L3.29844 71.9L3.39844 71.8V71.6V71.4H3.19844L3.29844 71.2H3.59844V71.1L3.89844 71.2V71.1L4.09844 70.9L4.19844 70.8L4.39844 70.7L4.49844 70.6H4.69844L4.79844 70.4H5.09844L5.19844 70.5L5.29844 70.4L5.39844 70.2L5.59844 70.1L5.69844 70L5.59844 69.8L5.89844 69.5L6.09844 69.4L6.39844 69.3V69.1L6.69844 69V68.9L6.59844 68.8L6.49844 68.7L6.59844 68.5L6.79844 68.3L6.99844 68.2L7.09844 68L7.19844 67.9V67.7V67.5L7.49844 67.7L7.89844 67.6L7.69844 67.4L7.89844 67.5L7.99844 67.7H8.19844H8.29844L8.49844 67.6V67.5L8.69844 67.3V67.2L8.89844 67.1L9.09844 67L9.29844 66.6L9.69844 66.5L9.79844 66.4H9.89844L9.99844 66.1L10.0984 66H9.89844L9.99844 65.9L10.0984 65.7V65.6L10.1984 65.5H10.3984L10.5984 65.2L10.2984 65.1V64.9L10.4984 65L10.8984 64.6H10.9984H11.0984L10.9984 64.2L11.0984 63.9L10.8984 63.8L10.7984 63.9L10.6984 64.2V63.9L10.8984 63.8L10.7984 63.7V63.6L10.9984 63.7H10.8984L11.0984 63.9L11.1984 63.7V63.4L10.9984 63.1L11.1984 63L11.0984 62.8V62.7L10.9984 62.6L11.0984 62.4L11.4984 62.3H11.7984V62.2H11.9984L12.0984 62.5H12.1984L12.3984 62V61.8H12.4984L12.5984 61.5L12.7984 61.7L13.1984 61.6L13.0984 61.4L13.2984 61.3L13.6984 61.6L13.7984 61.5H14.0984L13.9984 61.4L14.1984 61.2L14.3984 61.1H14.5984L14.6984 61V60.9H14.8984L15.0984 60.7L15.2984 60.5V60.3L15.3984 60.2L15.4984 60.1L15.3984 59.9L15.5984 59.8L15.6984 59.4L15.4984 59.3V58.9H15.5984L15.8984 58.6H15.9984H16.2984V58.7H16.6984L16.9984 58.6H17.0984L16.6984 58.8V59L16.7984 58.9L16.9984 58.8L17.0984 58.7L17.1984 58.8L17.3984 58.6H17.5984L17.6984 58.5L17.7984 58.7L17.8984 58.8L18.0984 58.9L18.1984 58.7L18.3984 58.8L18.4984 58.6L18.5984 58.4L18.9984 58.2H19.0984L19.1984 58L19.2984 58.1H19.6984V57.8L19.7984 57.6L19.9984 57.5L20.3984 57.4L20.7984 57.5L20.9984 57.4L21.1984 57.5H21.2984L21.4984 57.3L21.6984 57.2L21.7984 57.1L22.0984 56.8L22.2984 56.9L22.4984 56.7L22.5984 56.5L22.8984 56.3L23.1984 56.2H23.3984V56.4L23.4984 56.6L23.6984 56.9H23.9984H24.1984H24.3984V56.7L24.5984 56.6L24.6984 56.8L24.9984 56.7L25.0984 56.6V56.4L25.2984 56.2H25.4984L25.5984 56.1L25.8984 56.2L25.9984 56.3L26.0984 56.1H26.2984L26.1984 55.9L26.4984 55.8H26.5984L26.4984 55.6H26.8984V55.8L27.0984 55.7H27.2984L27.5984 55.6H27.6984L27.7984 55.8H27.8984L27.6984 55.6L27.7984 55.5H27.9984H28.1984L28.2984 55.3L28.3984 55.4V55.2H28.5984L29.1984 55.4L29.3984 55.2L29.4984 55L29.2984 54.8L29.4984 54.6L29.3984 54.5L29.7984 54.6L29.9984 54.5L30.2984 54.7L30.3984 54.3L30.6984 54.2L30.5984 54L30.7984 53.9L30.9984 54L31.2984 53.9L31.4984 54L31.7984 53.9H31.9984L32.1984 53.8V53.6L32.2984 53.5V53.3H32.3984L32.4984 53L32.5984 52.9L33.0984 52.8L33.2984 52.7H33.6984L33.8984 53L34.5984 53.1L34.8984 53.2H35.1984L35.2984 53.1H35.3984V52.9L35.4984 52.8L36.4984 53L36.5984 52.7V52.9V53.1L36.7984 53V53.1L36.8984 53H36.9984V52.8L36.7984 52.6L36.6984 52.7L37.0984 52.3L37.7984 51.3L37.1984 52.3L36.8984 52.6L36.9984 52.8L37.0984 52.7L37.1984 52.8L37.3984 52.6L37.2984 52.4H37.3984L37.4984 52.5L37.6984 52.4L37.5984 52.3L37.7984 52.2V52.4L37.9984 52.3L37.8984 51.9L37.7984 51.7L37.9984 51.8H38.1984L38.2984 52.2H38.6984V52.4L38.4984 52.5H38.3984H38.0984H38.2984L38.4984 52.7H38.7984V52.6H38.8984H39.1984V52.5L39.4984 52.4V52.3L39.5984 52.1L39.7984 51.9H39.9984L40.0984 52.1L39.9984 52.2H40.2984V52L40.3984 51.9L40.4984 52L40.5984 52.1H40.8984L40.9984 51.9L41.1984 51.8V52L41.4984 52.1V52.2L41.6984 52.1H41.8984L42.1984 51.9L42.3984 51.7L42.2984 51.5L42.5984 51.3V51.2L43.1984 50.7L43.2984 50.8H43.3984L43.5984 50.9L43.7984 51V50.9L43.8984 51L44.1984 50.9V51L44.3984 50.9H44.4984L44.5984 50.7H44.8984L44.9984 50.6L45.1984 50.7L45.3984 50.6L45.4984 50.7V50.5H45.5984V50.7H45.7984V50.9H45.9984V50.6L46.0984 50.4V50.5V50.8L46.1984 50.9H46.3984L46.2984 50.8L46.4984 50.9L46.7984 50.8L46.5984 50.6H46.7984L46.8984 50.5L46.6984 50.3V50V49.8H47.1984L47.2984 49.6L47.0984 49.4L47.2984 49.5V49.3V49.2L47.4984 49.1H47.5984V48.9V48.7L47.8984 48.8L47.9984 48.9L48.1984 49L47.9984 49.3L47.7984 49.1L47.8984 49.3L47.9984 49.4H48.1984H48.3984V49.2V49L48.7984 49.3L48.6984 49.4L48.7984 49.5L49.2984 49.7L49.4984 50L49.6984 50.1H49.8984L49.9984 49.9L50.0984 50L50.1984 49.9H50.4984V49.5L50.6984 49.1L50.8984 49L51.0984 49.1L51.1984 49.3L51.3984 49.5H51.4984V49.3L51.8984 49.5L51.9984 49.4V49.3L52.0984 49.1L52.1984 49.2L52.3984 49.1V49.2L52.4984 49.1H52.6984L52.7984 49H53.1984H53.3984L53.5984 48.8H53.9984H54.2984L54.3984 48.9H54.5984V48.7H54.7984L54.6984 48.6L54.7984 48.4H55.0984H55.2984H55.4984L55.5984 48.2L55.7984 48.1L56.1984 48.3H56.4984L56.5984 48.4L56.4984 48.5V48.6L56.6984 48.8L56.8984 48.6L56.9984 48.4H56.6984L56.8984 48.3L56.9984 48.4H57.2984L57.3984 48.3L57.4984 48.4L57.6984 48.3H57.7984L57.9984 48.4L58.0984 48.2H58.1984L58.2984 48.4H58.5984L58.6984 48.3H58.8984L58.9984 48.2L58.8984 47.9L59.0984 47.8L58.9984 47.6L59.2984 47.5L59.3984 47.7H59.6984L59.8984 47.5L60.3984 47.7H60.4984H60.7984V47.6H60.9984L60.8984 47.7L60.9984 47.9L61.3984 48L61.6984 48.1V48.2H61.8984L62.0984 48.4V48.6L62.3984 48.7H62.5984L62.6984 48.4H62.8984L63.0984 48.5H63.2984V48.4H63.4984L63.5984 48.3L63.8984 48.2V47.9L63.9984 48.1H64.2984H64.4984L64.6984 48.3L64.8984 48.2H65.0984L64.9984 48.5V48.6V48.8L65.2984 49V49.3L65.1984 49.5L65.2984 49.9H65.1984V50.1L65.4984 50L65.5984 50.1L65.4984 50.4H65.9984L66.0984 50.7L66.2984 50.8H66.4984L66.3984 51V51.1L66.5984 51.2V51.1L66.7984 51.2L66.8984 51.3L66.9984 51.2V51.3H67.2984H67.4984L67.3984 51.5L67.4984 51.6H67.6984L67.8984 51.7L67.7984 51.8L68.0984 52V52.1L68.4984 52.2L68.6984 52.1L68.8984 51.9V51.7H68.9984L69.0984 51.8L69.3984 51.6L69.4984 51.7L69.5984 51.6H69.8984L69.9984 51.7L70.2984 51.6H70.3984L70.4984 51.9H70.9984H71.4984L71.5984 52.1L71.7984 52.4L71.8984 52.3V52.4L72.0984 52.5L71.9984 52.7H72.0984H72.3984L72.4984 52.6L72.5984 52.7L72.2984 52.9L72.1984 53.1L72.2984 53.3L72.0984 53.5L71.9984 53.7L72.0984 53.9L72.2984 53.8H72.4984H72.6984L73.0984 54L73.3984 54.2V54.6V54.7L73.1984 55L73.2984 55.3L73.1984 55.6V55.5H72.9984V55.7L73.0984 56L73.2984 56.1L73.0984 56.2L73.1984 56.4H72.9984L72.7984 56.5L72.5984 56.3L72.4984 56.4L72.2984 56.7V57.1L72.5984 57.4L72.8984 57.5L72.9984 57.4L73.1984 58L73.2984 58.1L73.7984 58.2V58.3L74.0984 58.5L74.1984 58.4H74.2984L74.6984 58.1L74.4984 58.2L74.3984 58.6H74.7984L74.9984 58.2L74.8984 58.1H75.4984V57.5H75.5984V58L75.4984 58.3V58.5L75.5984 58.6L75.6984 58.7L75.5984 58.8V59.2H75.7984V59.4L75.8984 59.5H76.2984L76.4984 59.7V59.9L76.5984 60V60.1L76.3984 60L76.2984 60.2H76.0984L75.7984 60L75.6984 59.8L75.5984 59.7L75.3984 59.5L75.1984 59.6L74.9984 59.8L74.8984 60L74.4984 60.4L74.3984 60.7L74.2984 60.8L74.1984 61L74.2984 61.2L74.1984 61.5V62L74.4984 62.5L74.7984 62.6H74.8984V62.7H75.0984L75.1984 62.8L75.3984 63L75.4984 63.1L75.2984 63.3L75.4984 63.4H75.2984L75.0984 63.6V63.8H74.8984L74.6984 63.7L74.4984 63.5L74.2984 63.4L74.3984 63.2L74.4984 63.3L74.5984 63.1V63L74.3984 62.7V62.5H74.0984H73.8984L73.6984 62.6L73.5984 62.8L73.6984 63.2H73.7984V63.4H73.6984Z" fill="white"/>
<path d="M72.6984 67.2V66.9L72.7984 66.7L72.5984 66.6L72.4984 66.4L72.5984 66.3L72.3984 66.2L72.4984 66L72.7984 65.9L72.8984 65.7V65.6V65.2V65.1H73.0984V64.9L73.1984 65V64.6V64.2L73.3984 64.1L73.4984 63.9V63.8V63.6L73.6984 63.4H73.7984V63.2H73.6984L73.5984 62.8L73.6984 62.6L73.8984 62.5H74.0984H74.3984V62.7L74.5984 63V63.1L74.4984 63.3L74.3984 63.2L74.2984 63.4L74.4984 63.5L74.6984 63.7L74.8984 63.8H75.0984V63.6L75.2984 63.4H75.4984L75.2984 63.3L75.4984 63.1L75.3984 63L75.1984 62.8L75.0984 62.7H74.8984V62.6H74.7984L74.4984 62.5L74.1984 62V61.5L74.2984 61.2L74.1984 61L74.2984 60.8L74.3984 60.7L74.4984 60.4L74.8984 60L74.9984 59.8L75.1984 59.6L75.3984 59.5L75.5984 59.7L75.6984 59.8L75.7984 60L76.0984 60.2H76.2984L76.3984 60L76.5984 60.1V60L76.4984 59.9V59.7L76.2984 59.5H75.8984L75.7984 59.4V59.2H75.5984M72.6984 67.2V67.2ZM72.6984 67.2V67.5L72.4984 67.6H72.3984L71.9984 67.7V67.8H71.5984L71.1984 68L70.9984 68.3L70.7984 68.2L70.4984 68.3L70.3984 68.5V68.4L70.1984 68.5L70.2984 68.7V68.9L69.9984 69.1L70.0984 69.2L69.6984 69.4L69.5984 69.7L69.3984 69.6L69.2984 69.7L69.4984 69.9V70.2H69.3984L69.4984 70.4H69.2984L68.9984 70.6V70.7L69.1984 70.9H68.9984V71.2L69.0984 71.4V71.7L68.6984 72.2L68.5984 72.4L68.2984 72.5L68.1984 72.6L68.0984 72.7V73H67.9984L67.8984 73.3V73.6L67.7984 73.5H67.5984L67.0984 73.8L66.6984 74.3L66.5984 74.5H66.3984L66.1984 74.6H66.0984V74.8L66.1984 75H66.3984H66.6984V74.9H66.8984L66.7984 75H66.9984L67.1984 75.1L67.0984 75.3V75.6V75.7L66.8984 75.6L66.6984 75.8L66.5984 76.1H66.3984L66.0984 76.3H66.1984L66.0984 76.6L65.7984 76.7L65.6984 76.8L65.4984 76.9V77.1L65.2984 77.2H64.9984L64.8984 77.3H64.5984L64.3984 77.1H64.1984H63.9984V77.2L63.6984 77.3H63.5984L63.4984 77.6L63.1984 77.7L63.0984 77.4L62.8984 77.5L62.7984 77.6L62.6984 77.5L62.2984 77.6L62.0984 77.5L61.9984 77.4L61.7984 77.6L61.4984 77.5H61.2984V77.3H61.0984L60.7984 77.2H60.5984L60.3984 77.1L60.1984 77.2V77.4L60.0984 77.7L59.7984 77.9L59.4984 78H59.3984L59.2984 78.3L59.1984 78.5V78.7L59.0984 78.8L59.1984 78.9L58.9984 79L58.7984 78.9V79H58.6984L58.4984 79.1V79.3H58.2984V79.4H58.0984L57.9984 79.3L57.6984 79.4L57.8984 79.5L57.7984 79.6V79.9L57.3984 80.1L57.2984 80.3L57.0984 80.4V80.5L56.8984 80.4H56.6984L56.7984 80.2L56.6984 80.1L56.5984 80.3L56.2984 80.1L56.0984 80L55.9984 80.4L55.4984 80.3L55.1984 80.4L54.9984 80.6L54.8984 80.5L54.6984 80.6L54.5984 80.7L54.3984 80.6L54.1984 80.7L54.0984 80.9H53.7984H53.5984L53.0984 81.2L52.8984 81.3H52.2984L52.1984 81.5V81.4H51.9984H51.6984H51.3984L51.2984 81.5V81.3H51.1984H50.8984V81.4L50.7984 81.6H50.4984V81.4H50.1984V81.3H49.8984H49.7984L49.4984 81.4L49.2984 81.2V81.1H49.3984L49.2984 80.9L48.9984 81L49.0984 81.3V81.4L48.8984 81.5H48.6984L48.5984 81.6L48.4984 81.4L48.3984 81.5L48.2984 81.7L48.0984 81.6L47.5984 81.7L47.3984 82L47.2984 82.2H47.3984L47.1984 82.5L47.2984 82.8L46.9984 82.9L46.8984 82.8L46.6984 83L46.5984 83.2L46.3984 83.1L46.4984 83.2L46.3984 83.3L46.2984 83.1L46.0984 83.2L45.9984 83.5H45.7984L45.6984 83.4L45.4984 83.6V83.9L45.3984 83.8H45.2984L45.1984 83.9L45.2984 84.1L45.1984 84.2L45.2984 84.4V84.5L44.8984 84.7L44.2984 84.8L44.0984 84.9H43.8984H43.7984V85.1H43.5984L43.3984 85.3H43.1984L42.9984 85.2M42.9984 85.2V85.2ZM42.9984 85.2L42.7984 85.1H42.6984L42.5984 85L42.4984 84.9L42.6984 84.8L42.3984 84.6V84.5L42.0984 84.3L41.5984 84.4L41.6984 84.5L41.3984 84.4L41.2984 84.2L41.0984 84.3L40.9984 84.4L40.6984 84.3L40.4984 84.4V84.5L40.3984 84.4L40.2984 84.6L40.1984 84.7L40.5984 85.3M40.5984 85.3V85.3ZM40.5984 85.3L40.2984 85.7V85.5L40.5984 85.3ZM40.5984 85.3L40.4984 85.2L40.2984 85.4L40.1984 85.3L40.3984 85.1L40.2984 85L40.0984 85.1L39.9984 84.9L39.7984 84.8L39.6984 84.7L39.7984 84.5H39.5984L39.4984 84.7V85L39.3984 84.9H39.0984L38.6984 84.7H38.5984L38.4984 84.9M38.4984 84.9V84.9ZM38.4984 84.9L38.3984 85.1L38.0984 84.8V84.9L37.9984 85L37.6984 84.6H37.5984L37.0984 84.9H36.9984H36.5984L36.2984 84.8L35.8984 84.7L35.6984 84.8L35.7984 84.9L35.5984 85V85.2H35.2984L35.3984 85.4L35.1984 85.5V85.7H34.8984L34.5984 85.9L34.3984 85.8L34.1984 85.9L34.0984 85.8H33.8984L33.5984 85.6H33.4984L33.3984 85.8L33.2984 85.9L33.1984 85.7H32.9984V85.8L33.1984 86.3H33.0984L32.9984 86H32.6984V86.1L31.9984 86.3L31.8984 86.4V86.5M31.8984 86.5L32.2984 87H32.9984M31.8984 86.5L31.6984 86.2L31.5984 86.1L31.4984 86.3H31.5984L31.0984 86.4L30.6984 86L30.5984 85.8H30.2984V85.6L30.1984 85.1L29.9984 84.9H29.8984L29.7984 84.7L29.5984 84.8L29.1984 84.7H28.9984L28.7984 84.9L28.5984 85H28.3984L28.2984 85.1L28.1984 85L28.0984 85.1L27.8984 84.9L27.7984 85.1L27.8984 85.2H27.6984H27.5984L27.4984 85.4V85.5L27.3984 85.6L27.2984 85.4H27.0984L26.7984 85.3L26.8984 85.2H26.7984L26.6984 85.1L26.5984 85.2L26.4984 84.9H26.3984L26.2984 84.7L25.9984 84.5V84.4H25.6984L25.4984 84.2H25.2984L24.9984 84.3L24.7984 84.4H24.5984H24.4984L24.2984 84.6L23.9984 84.7V84.8L23.7984 85H23.5984L23.2984 85.2L22.8984 85.4L22.7984 85.5V85.7L22.5984 85.5L22.3984 85.4L22.1984 85.5V85.8L22.0984 85.6L21.7984 85.7H21.6984L21.4984 85.8L21.2984 85.9L21.1984 85.7L20.9984 85.8L20.6984 85.5L20.5984 85.3L20.6984 85.2H20.3984V85.3L20.1984 85.2L19.5984 85.4H19.3984L19.1984 85.3L18.9984 85.2L18.8984 85.3H18.4984V85.2L18.2984 85.3L18.1984 85.4L17.8984 85.5M32.9984 87L33.3984 87.1V87.2L32.9984 87ZM17.8984 85.5L17.4984 85.8H17.2984V85.7H17.4984L17.8984 85.5ZM17.8984 85.5L18.0984 85.4L17.9984 85.2L17.8984 85.3L17.7984 85.2L17.9984 85.1L17.8984 85V84.9L17.5984 84.7L17.1984 84.8L17.0984 84.9H16.6984L16.1984 85.3V85.5L16.0984 85.7H16.1984L16.0984 85.8L15.9984 85.7H15.7984L15.5984 86L15.4984 86.3L15.3984 86.2H15.0984L14.8984 86.3L14.1984 87.1L14.2984 87.3L14.0984 87.4L14.1984 87.7L14.0984 87.9L13.9984 88L13.8984 88.5L13.7984 88.6V88.9V89L14.0984 89.1V89.5L14.1984 89.6L13.8984 89.9H13.6984L13.4984 89.8L13.3984 89.7V89.4L13.1984 89.3H12.9984L12.6984 89.4H12.5984L12.2984 89.6V89.8H12.0984L11.9984 90L11.5984 89.8L11.4984 89.7L11.2984 89.8L11.3984 89.7L11.1984 89.6L10.9984 89.5V89.4L11.0984 89.2L11.1984 89.3L11.2984 89.1L11.0984 89L11.2984 88.8V88.6L11.1984 88.5V88.3L10.9984 88.1L10.7984 88.2M10.7984 88.2V88.2ZM10.7984 88.2L10.6984 88.1L10.5984 88.2L10.7984 88.3M10.7984 88.3V88.3ZM10.7984 88.3H10.4984V88.2H10.3984L10.1984 87.8H9.89844L10.0984 87.7V87.6L9.89844 87.5V87.3L9.99844 87.2L9.89844 87.1L9.79844 87.4L9.69844 87.2L9.49844 87H9.29844L9.09844 86.7L8.99844 86.6V86.4V86L8.79844 86.1L8.69844 86L8.79844 85.8H8.69844L8.59844 85.7L8.69844 85.6L8.49844 85.5V85.3L8.39844 85.2H7.99844L7.89844 85.1V85L7.79844 84.9V84.7H7.29844L6.99844 84.5L6.59844 84.4L6.29844 84.6L6.09844 84.5L5.99844 84.4L5.79844 84.3L5.39844 84.2L5.29844 84L5.09844 83.9L4.99844 83.8L4.79844 83.7L4.59844 83.4L4.39844 83.1H4.19844L4.09844 83L3.89844 82.9L3.59844 82.7L3.39844 82.5L3.29844 82.3V82.2L3.19844 81.8L2.99844 81.5L2.79844 81.3L2.69844 81.2L2.39844 81L2.49844 80.8H2.39844H2.19844V80.5V80L1.99844 79.8L1.69844 79.7V79.8L1.59844 79.6L1.49844 79.1L1.39844 78.8M1.39844 78.8V78.8ZM1.39844 78.8L1.49844 78.5L1.59844 78.4L1.99844 78.2V78.1V77.8L1.69844 77.3V77V76.8H1.89844V76.7V76.5L1.99844 76.3V76.1H2.09844L1.99844 75.9V75.8L1.89844 75.5V75.3H1.79844L1.59844 75.2V74.9V74.8L1.49844 74.6L1.69844 74.5H1.79844L1.89844 74.4L1.69844 74.2L1.49844 74.1L1.59844 73.9L1.69844 73.7H1.89844L1.99844 73.4L1.89844 73.2L1.99844 73L2.19844 73.2L2.29844 73.1H2.19844L2.09844 73L2.19844 72.9L2.39844 73L2.49844 72.9H2.79844L2.89844 72.8L3.09844 72.7V72.5L3.29844 72.4V72.2L3.19844 72L3.29844 71.9L3.39844 71.8V71.6V71.4H3.19844L3.29844 71.2H3.59844V71.1L3.89844 71.2V71.1L4.09844 70.9L4.19844 70.8L4.39844 70.7L4.49844 70.6H4.69844L4.79844 70.4H5.09844L5.19844 70.5L5.29844 70.4L5.39844 70.2L5.59844 70.1L5.69844 70L5.59844 69.8L5.89844 69.5L6.09844 69.4L6.39844 69.3V69.1L6.69844 69V68.9L6.59844 68.8L6.49844 68.7L6.59844 68.5L6.79844 68.3L6.99844 68.2L7.09844 68L7.19844 67.9V67.7V67.5L7.49844 67.7L7.89844 67.6L7.69844 67.4L7.89844 67.5L7.99844 67.7H8.19844H8.29844L8.49844 67.6V67.5L8.69844 67.3V67.2L8.89844 67.1L9.09844 67L9.29844 66.6L9.69844 66.5L9.79844 66.4H9.89844L9.99844 66.1L10.0984 66H9.89844L9.99844 65.9L10.0984 65.7V65.6L10.1984 65.5H10.3984L10.5984 65.2L10.2984 65.1V64.9L10.4984 65L10.8984 64.6H10.9984H11.0984L10.9984 64.2L11.0984 63.9M11.0984 63.9L10.8984 63.8M11.0984 63.9L10.8984 63.7H10.9984L10.7984 63.6V63.7L10.8984 63.8M11.0984 63.9L11.1984 63.7V63.4L10.9984 63.1L11.1984 63L11.0984 62.8V62.7L10.9984 62.6L11.0984 62.4L11.4984 62.3H11.7984V62.2H11.9984L12.0984 62.5H12.1984L12.3984 62V61.8H12.4984L12.5984 61.5L12.7984 61.7L13.1984 61.6L13.0984 61.4L13.2984 61.3L13.6984 61.6L13.7984 61.5H14.0984L13.9984 61.4L14.1984 61.2L14.3984 61.1H14.5984L14.6984 61V60.9H14.8984L15.0984 60.7L15.2984 60.5V60.3L15.3984 60.2L15.4984 60.1L15.3984 59.9L15.5984 59.8L15.6984 59.4L15.4984 59.3V58.9H15.5984L15.8984 58.6H15.9984H16.2984V58.7H16.6984L16.9984 58.6H17.0984L16.6984 58.8V59L16.7984 58.9L16.9984 58.8L17.0984 58.7L17.1984 58.8L17.3984 58.6H17.5984L17.6984 58.5L17.7984 58.7L17.8984 58.8L18.0984 58.9L18.1984 58.7L18.3984 58.8L18.4984 58.6L18.5984 58.4L18.9984 58.2H19.0984L19.1984 58L19.2984 58.1H19.6984V57.8L19.7984 57.6L19.9984 57.5L20.3984 57.4L20.7984 57.5L20.9984 57.4L21.1984 57.5H21.2984L21.4984 57.3L21.6984 57.2L21.7984 57.1L22.0984 56.8L22.2984 56.9L22.4984 56.7L22.5984 56.5L22.8984 56.3L23.1984 56.2H23.3984V56.4L23.4984 56.6L23.6984 56.9H23.9984H24.1984H24.3984V56.7L24.5984 56.6L24.6984 56.8L24.9984 56.7L25.0984 56.6V56.4L25.2984 56.2H25.4984L25.5984 56.1L25.8984 56.2L25.9984 56.3L26.0984 56.1H26.2984L26.1984 55.9L26.4984 55.8H26.5984L26.4984 55.6H26.8984V55.8L27.0984 55.7H27.2984L27.5984 55.6H27.6984M10.8984 63.8L10.7984 63.9L10.6984 64.2V63.9L10.8984 63.8ZM27.6984 55.6L27.7984 55.8H27.8984L27.6984 55.6ZM27.6984 55.6L27.7984 55.5H27.9984H28.1984L28.2984 55.3L28.3984 55.4V55.2H28.5984L29.1984 55.4L29.3984 55.2L29.4984 55L29.2984 54.8L29.4984 54.6L29.3984 54.5L29.7984 54.6L29.9984 54.5L30.2984 54.7L30.3984 54.3L30.6984 54.2L30.5984 54L30.7984 53.9L30.9984 54L31.2984 53.9L31.4984 54L31.7984 53.9H31.9984L32.1984 53.8V53.6L32.2984 53.5V53.3H32.3984L32.4984 53L32.5984 52.9L33.0984 52.8L33.2984 52.7H33.6984L33.8984 53L34.5984 53.1L34.8984 53.2H35.1984M35.1984 53.2V53.2ZM35.1984 53.2L35.2984 53.1H35.3984V52.9L35.4984 52.8L36.4984 53L36.5984 52.7V52.9V53.1L36.7984 53V53.1L36.8984 53H36.9984V52.8M36.9984 52.8L36.7984 52.6L36.6984 52.7L37.0984 52.3L37.7984 51.3M36.9984 52.8L36.8984 52.6L37.1984 52.3L37.7984 51.3M36.9984 52.8L37.0984 52.7L37.1984 52.8L37.3984 52.6L37.2984 52.4H37.3984L37.4984 52.5L37.6984 52.4L37.5984 52.3L37.7984 52.2V52.4L37.9984 52.3L37.8984 51.9L37.7984 51.7L37.9984 51.8H38.1984L38.2984 52.2H38.6984V52.4L38.4984 52.5H38.3984H38.0984H38.2984L38.4984 52.7H38.7984V52.6H38.8984H39.1984V52.5L39.4984 52.4V52.3L39.5984 52.1L39.7984 51.9H39.9984L40.0984 52.1L39.9984 52.2H40.2984V52L40.3984 51.9L40.4984 52L40.5984 52.1H40.8984L40.9984 51.9L41.1984 51.8V52L41.4984 52.1V52.2L41.6984 52.1H41.8984L42.1984 51.9L42.3984 51.7L42.2984 51.5L42.5984 51.3V51.2L43.1984 50.7L43.2984 50.8H43.3984L43.5984 50.9L43.7984 51V50.9L43.8984 51L44.1984 50.9V51L44.3984 50.9H44.4984L44.5984 50.7H44.8984L44.9984 50.6L45.1984 50.7L45.3984 50.6L45.4984 50.7V50.5H45.5984V50.7H45.7984V50.9H45.9984V50.6M37.7984 51.3V51.3ZM45.9984 50.6V50.6ZM45.9984 50.6L46.0984 50.4V50.5V50.8L46.1984 50.9H46.3984L46.2984 50.8L46.4984 50.9L46.7984 50.8L46.5984 50.6H46.7984L46.8984 50.5L46.6984 50.3V50M46.6984 50V50ZM46.6984 50V49.8H47.1984L47.2984 49.6L47.0984 49.4L47.2984 49.5V49.3V49.2L47.4984 49.1H47.5984V48.9V48.7L47.8984 48.8L47.9984 48.9L48.1984 49L47.9984 49.3L47.7984 49.1L47.8984 49.3L47.9984 49.4H48.1984H48.3984V49.2V49L48.7984 49.3L48.6984 49.4L48.7984 49.5L49.2984 49.7L49.4984 50L49.6984 50.1H49.8984L49.9984 49.9L50.0984 50L50.1984 49.9H50.4984V49.5L50.6984 49.1L50.8984 49L51.0984 49.1L51.1984 49.3L51.3984 49.5H51.4984V49.3L51.8984 49.5L51.9984 49.4V49.3L52.0984 49.1L52.1984 49.2L52.3984 49.1V49.2L52.4984 49.1H52.6984L52.7984 49H53.1984H53.3984L53.5984 48.8H53.9984H54.2984L54.3984 48.9H54.5984V48.7H54.7984L54.6984 48.6L54.7984 48.4H55.0984H55.2984H55.4984L55.5984 48.2L55.7984 48.1L56.1984 48.3H56.4984L56.5984 48.4L56.4984 48.5V48.6L56.6984 48.8L56.8984 48.6L56.9984 48.4M56.9984 48.4H56.6984L56.8984 48.3L56.9984 48.4ZM56.9984 48.4H57.2984L57.3984 48.3L57.4984 48.4L57.6984 48.3H57.7984L57.9984 48.4L58.0984 48.2H58.1984L58.2984 48.4H58.5984L58.6984 48.3H58.8984L58.9984 48.2L58.8984 47.9L59.0984 47.8L58.9984 47.6L59.2984 47.5L59.3984 47.7H59.6984L59.8984 47.5L60.3984 47.7H60.4984M60.4984 47.7V47.7ZM60.4984 47.7H60.7984V47.6H60.9984L60.8984 47.7L60.9984 47.9L61.3984 48L61.6984 48.1V48.2H61.8984L62.0984 48.4V48.6L62.3984 48.7H62.5984L62.6984 48.4H62.8984L63.0984 48.5H63.2984V48.4M63.2984 48.4V48.4ZM63.2984 48.4H63.4984L63.5984 48.3L63.8984 48.2V47.9L63.9984 48.1H64.2984H64.4984M64.4984 48.1V48.1ZM64.4984 48.1L64.6984 48.3L64.8984 48.2H65.0984L64.9984 48.5V48.6V48.8L65.2984 49V49.3L65.1984 49.5L65.2984 49.9H65.1984V50.1L65.4984 50L65.5984 50.1L65.4984 50.4H65.9984L66.0984 50.7L66.2984 50.8H66.4984L66.3984 51V51.1L66.5984 51.2V51.1L66.7984 51.2L66.8984 51.3L66.9984 51.2V51.3H67.2984H67.4984L67.3984 51.5L67.4984 51.6H67.6984L67.8984 51.7L67.7984 51.8L68.0984 52V52.1L68.4984 52.2L68.6984 52.1L68.8984 51.9V51.7H68.9984L69.0984 51.8L69.3984 51.6L69.4984 51.7L69.5984 51.6H69.8984L69.9984 51.7L70.2984 51.6H70.3984L70.4984 51.9H70.9984H71.4984L71.5984 52.1L71.7984 52.4L71.8984 52.3V52.4L72.0984 52.5L71.9984 52.7H72.0984H72.3984L72.4984 52.6L72.5984 52.7L72.2984 52.9L72.1984 53.1L72.2984 53.3L72.0984 53.5L71.9984 53.7L72.0984 53.9L72.2984 53.8H72.4984H72.6984L73.0984 54L73.3984 54.2V54.6V54.7L73.1984 55L73.2984 55.3L73.1984 55.6V55.5H72.9984V55.7L73.0984 56L73.2984 56.1L73.0984 56.2L73.1984 56.4H72.9984L72.7984 56.5L72.5984 56.3L72.4984 56.4L72.2984 56.7V57.1L72.5984 57.4L72.8984 57.5L72.9984 57.4L73.1984 58L73.2984 58.1L73.7984 58.2V58.3L74.0984 58.5L74.1984 58.4H74.2984L74.6984 58.1L74.4984 58.2L74.3984 58.6H74.7984L74.9984 58.2L74.8984 58.1H75.4984V57.5H75.5984V58L75.4984 58.3V58.5L75.5984 58.6L75.6984 58.7L75.5984 58.8V59.2M75.5984 59.2V59.2Z" stroke="#0552B5"/>
<path fill-rule="evenodd" clip-rule="evenodd" d="M18.5 2.8L18.4 2.9L18.5 3.1L18.7 3.3L18.8 3.5L18.7 3.7H18.5L18.3 3.8L18.1 3.7L18 3.8V4L17.6 3.9L17.5 4.5V4.4L17.6 4L17.3 3.9L17.2 4L17.1 4.2V4.3H17V4.6H17.1L17.4 4.5L17.1 4.7V4.9L17.2 5H17.4L17.6 5.2V5.4V5.5L17.5 5.6L17.2 5.5L16.9 5.6L16.7 5.5L16.6 5.3H16.7L16.6 5L16.5 4.9L16.3 4.6V4.3L16.1 4.1L16 4L15.8 3.8H15.9L15.8 3.6L15.4 3.5H15.2L15 3.3L15.1 3.1V2.9H15.3H15.4L15.7 3L15.8 2.8L16 2.9V2.7L16.3 2.8V2.9H16.5L16.8 3H17L17.1 3.1L17.3 3L17.6 2.9H17.7L17.8 2.7V2.6L18.3 2.5L18.4 2.6H18.6H18.7V2.9L18.5 2.8Z" fill="white"/>
<path d="M15.1 3.1L15 3.3L15.2 3.5H15.4L15.8 3.6L15.9 3.8H15.8L16 4L16.1 4.1L16.3 4.3V4.6L16.5 4.9L16.6 5L16.7 5.3H16.6L16.7 5.5L16.9 5.6L17.2 5.5L17.5 5.6L17.6 5.5V5.4V5.2L17.4 5H17.2L17.1 4.9V4.7L17.4 4.5L17.1 4.6H17V4.3H17.1V4.2L17.2 4L17.3 3.9L17.6 4L17.5 4.4V4.5L17.6 3.9L18 4V3.8L18.1 3.7L18.3 3.8L18.5 3.7H18.7L18.8 3.5L18.7 3.3L18.5 3.1L18.4 2.9L18.5 2.8L18.7 2.9V2.6H18.6H18.4L18.3 2.5L17.8 2.6V2.7L17.7 2.9H17.6L17.3 3M15.1 3.1V3.1ZM15.1 3.1V2.9H15.3H15.4L15.7 3L15.8 2.8L16 2.9V2.7L16.3 2.8V2.9H16.5L16.8 3H17L17.1 3.1L17.3 3M17.3 3V3Z" stroke="#0552B5"/>
<path fill-rule="evenodd" clip-rule="evenodd" d="M14.3 1.79922L14.2 1.89922L14.3 1.99922L14.4 2.09922H14.6H14.7L14.9 2.19922V2.39922L14.8 2.49922L15 2.79922L14.9 2.99922L14.7 3.09922L14.4 2.99922V2.89922L14.2 2.69922L14 2.59922L13.5 2.09922H13.2L13 1.99922V1.89922H13.3L13.6 1.79922V1.69922L13.4 1.59922L13.2 1.69922L13.1 1.49922L13.2 1.19922L13.6 1.29922L13.8 1.39922H14.1L14.3 1.49922L14.4 1.59922L14.7 1.79922V1.89922L14.4 1.79922V1.69922L14.3 1.79922Z" fill="white" stroke="#0552B5"/>
</svg>
