<svg width="43" height="35" viewBox="0 0 43 35" fill="none" xmlns="http://www.w3.org/2000/svg">
<path fill-rule="evenodd" clip-rule="evenodd" d="M4.7995 15.509L4.772 15.168L4.9095 15.3V15.08L4.9645 15.0855L4.981 15.333L5.1185 15.1955L5.0415 15.1185L5.1295 15.058L5.289 14.717L5.443 14.772L5.5145 14.585L5.2835 14.3375L5.3 14.211H5.432L5.157 13.8865L5.124 13.5675L5.2175 13.254L5.421 13.111V12.825L5.7345 12.5775L6.026 12.495L6.3835 13.078L6.917 13.716L7.7035 14.31L7.797 14.4365L8.1875 14.7775L8.2205 14.9645L8.534 15.2615L8.809 15.4265L9.1665 15.597L9.4195 15.751L9.975 16.1635L10.316 16.4715L10.5415 16.4495L11.0915 16.3065L11.2345 16.191L11.625 15.9985L11.977 15.993L12.395 15.916L12.8185 15.9435L12.835 15.773L12.7525 15.5035L12.813 15.201L12.736 15.1625L12.8295 14.948L12.9835 14.882L13.1155 14.541L13.473 14.2165L13.5775 14.035L13.7315 14.09L13.6105 14.3705L13.737 14.662L13.9735 14.618L14.166 14.673L14.3585 14.5905L14.705 14.6565L14.8645 14.5245L14.9965 14.5025L14.9085 14.1505L15.1835 13.87L15.112 13.6005L15.156 13.386L15.0185 13.034L15.024 12.891L15.2 12.8195L15.1725 12.517L15.2 12.44L15.178 12.0605L15.1065 11.9505L15.09 11.747L15.244 11.373L15.2165 11.296L15.3155 11.032L15.4695 10.955L15.5355 10.724L15.695 10.636L15.6125 10.3665L15.8545 10.13L15.8765 9.8715L15.7005 9.6075L15.6235 9.4205L15.684 9.272L16.047 8.931L15.981 8.656L16.1845 7.9245L15.75 7.666L15.53 7.358L15.805 7.5615L15.838 7.5395L16.1845 7.809L16.322 7.864L16.4705 7.809L17.1855 7.699L17.5705 7.424L17.807 7.215L17.9445 7.16H18.203L18.5 7.0445L18.83 6.445L19.017 6.3075L19.567 6.1095L19.5835 6.3295L19.9465 6.621H20.128L20.491 6.885L20.546 7.2535L20.5295 7.347L20.656 7.5835L20.678 8.161L20.9145 8.6835L21.085 9.2665L20.953 9.382L20.7385 9.6845L21.118 9.6735L21.25 9.5635L21.481 9.5745L22.0035 9.3655L22.24 9.47L22.438 9.206L22.5975 9.1895L22.8285 9.074L23.021 8.876L23.153 8.8155L23.2465 8.3535L23.1915 8.2325H23.0925L23.0045 7.996L23.1475 7.6825L23.1255 7.512L23.043 7.424L23.0595 7.281L22.8615 7.0555L22.7295 6.8355L22.6525 6.478L22.955 6.4395L23.065 6.1755L23.2905 5.917L23.3675 5.697L23.714 5.4825L23.8955 5.422L24.0385 5.257L23.978 4.3275L24.044 4.2395L23.945 4.0855L23.9065 3.7995L23.8185 3.662L24.0165 3.563L24.209 3.365L24.2475 3.2495L24.121 3.079L24.198 2.936L24.3905 2.9965L24.539 3.112L24.693 3.0625L24.803 3.134L24.9405 2.9965L25.1385 2.969L25.287 3.0185L25.441 2.9745L25.4575 2.6995L25.3805 2.5125L25.386 2.1275L25.496 1.715L25.606 1.4895L25.76 1.396L25.991 1.3465L26.123 1.044L26.299 1L26.497 1.0275L26.6785 1.1595L26.9645 1.2035L27.2175 1.0605L27.3715 1.1815L27.443 1.3575L27.4705 1.6325L27.586 1.935L27.6795 1.9845L27.74 2.1495L27.9325 2.2595L28.169 2.0945L28.3505 2.0395L28.6145 1.7865L28.73 1.748L28.9225 2.111L29.06 2.1L29.2855 1.9075L29.39 2.243V2.551L29.4725 2.782L29.885 2.463L30.2095 2.364L30.3415 2.1825L30.556 2.0065L30.5725 1.8085L30.897 1.8525L31.0895 1.7975L31.315 1.8745L31.5405 1.88L31.689 1.7205L32.25 1.5225L32.4095 1.5005L32.6625 1.891L32.767 2.1165L32.8 2.309L33.1135 2.3805L33.262 2.4685L33.537 2.4135L33.6745 2.5235L33.8395 2.5125L33.845 2.8095L33.8065 3.0075L33.5865 3.2715L33.394 3.761L33.5755 3.959L33.691 4.1845L33.757 4.597L33.768 5.0315L33.691 5.18L33.658 5.598L33.4105 5.961L33.372 6.2855L33.504 6.577L33.6415 6.775L33.4545 7.2645L33.4215 7.655L33.4985 7.754L34.109 7.8145L34.2575 7.7375L34.868 7.842L35.1265 7.974L35.253 8.128L35.3245 8.392L35.2915 8.5955L35.33 8.931L35.3795 9.0355L35.308 9.437L35.11 9.6735L34.6975 10.009L34.6865 10.2345L34.5325 10.4875L34.5545 10.6305L34.736 10.757L35.033 10.801L35.22 10.7295L35.517 10.8945L35.726 10.9385L35.8195 11.1365L35.803 11.5325L35.858 11.769L35.803 12.231L35.9185 12.297L35.935 12.8305L35.6875 13.0505L35.528 13.364L35.6105 13.518L35.7315 13.584V13.958L35.4345 14.156L35.176 14.629L35.0935 15.1075L34.9945 15.3165L34.5875 15.5585L34.439 15.7895L34.4555 15.861L34.2905 16.2625L34.2795 16.499L34.5545 16.686L34.571 16.774L34.4335 17.3845L34.428 17.5495L34.307 18.017L34.4555 18.226L34.494 18.468L34.6205 18.655L34.978 18.4295L35.1265 18.149L35.4455 18.0995L35.5115 18.27L35.4565 18.4405L35.781 18.534L35.8415 18.303L36.012 18.0115L36.375 17.6925L37.002 17.3955L37.9315 17.093L38.6575 17.1095L38.905 16.928L39.389 16.818L39.576 16.5705L39.8565 16.5045L40.6485 15.839L41.028 15.5915L41.314 15.6685L41.457 15.663L41.424 15.894L41.446 16.2735L41.6385 16.642L41.7925 17.1975L41.809 17.4725L42.029 17.951L42.0125 18.3745L42.0235 19.018L42.15 19.117L42.172 19.744L42.04 19.678L41.4845 19.7605L41.3855 19.8045L41.413 19.9145L41.105 19.876L40.852 19.964L40.643 19.9145L40.5275 20.0245L40.236 19.9475L39.9995 20.305L39.741 20.5305L39.532 20.8385L39.6035 21.1575L39.532 21.339L39.543 21.515L39.3395 21.559L39.279 21.8505L38.9325 22.274L38.7785 22.6975L38.586 22.714L38.4815 23.0495L38.5475 23.429L38.4815 23.495L38.102 23.5005L38.3055 23.682L38.2945 23.7755L38.146 23.8745L38.0635 24.089L38.0305 24.342L38.146 24.54L38.1295 24.7215L38.652 24.991H38.7785L39.07 24.771L39.1745 24.65L39.6255 25.145L39.73 24.969L39.84 24.991L39.939 25.2495L40.1205 25.3705L40.0215 25.5135L39.9225 25.783L39.9445 25.9755L39.917 26.3L39.7795 26.5255L39.0645 27.07L38.9325 27.202L38.7345 27.609L38.718 28.1315L38.432 28.1205L38.366 28.5165L37.508 28.4725L37.321 28.4285L37.3375 28.8575L37.255 29.039L37.365 29.215L37.101 29.3085L36.6995 29.16L36.5565 29.0445L36.6115 29.336L36.364 29.3745L36.0725 29.798L35.847 30.4305L35.6215 30.3095L35.506 30.128L35.3795 30.0675L34.7525 29.93L34.604 29.9685L34.6315 30.04L34.538 30.227L34.373 30.2985L34.351 30.4085L34.0265 30.634L33.669 30.6285L33.515 30.766L33.4985 30.9585L33.295 31.085L33.251 31.261L33.053 31.547L33.097 31.657L33.0805 32.009L32.932 32.1025L32.6735 32.152L32.492 32.493L32.3765 32.537L32.2555 32.46L31.788 32.3335L31.4635 32.3995L31.4965 32.6415L31.678 32.735L31.6945 32.9715L31.4415 33.12L31.4525 33.318L31.359 33.5215L31.425 33.6095L31.3755 33.8185L31.1995 33.7745L31.0345 33.813L30.9135 33.945L30.4295 33.8185L30.281 33.8845L30.1545 33.8515L29.544 34L29.3075 33.802L29.1535 33.769L29.0325 33.417L28.917 33.3565L28.796 33.142L28.5045 32.8285L28.2185 32.8175L28.0425 32.746L27.9765 32.57L28.2185 32.1905L28.224 31.9595L28.1525 31.9045L28.158 31.6295L28.202 31.5415L28.1085 31.228L28.015 31.041L28.158 30.8705L28.169 30.7055L27.96 30.4635L27.9545 30.2545L27.839 30.0565L27.927 29.721L27.586 29.523L27.432 29.5725L27.4485 29.7485L27.2835 30.0675L27.3165 30.227L27.1515 30.26L27.1185 30.458L27.0195 30.524L26.794 30.5405L26.728 30.634L26.4915 30.722L26.2935 30.678L26.0515 30.843L25.8535 30.7715H25.65L25.4245 30.414L25.265 30.304L25.0835 29.9685L24.9955 29.49L24.8965 29.336L24.6215 29.3635L24.3795 29.2865L24.2695 29.3855L24.264 29.6275L24.3245 29.7265L24.264 29.952L23.945 30.0345L23.835 30.1555L23.736 30.128L23.56 30.4305L23.2795 30.568L22.9 30.6285L22.922 30.7825L22.7735 31.0465L22.57 31.1675L22.46 31.3325L22.3115 31.3435L22.119 31.723L21.9925 31.668L21.679 31.8055L21.569 31.778L21.459 31.877L21.316 31.855L21.14 32.0365L21.2115 32.3775L21.1125 32.515L20.7055 32.537L20.6065 32.6965L20.304 32.757L20.0125 32.691L19.886 32.7735L19.6275 32.757L19.3745 32.911L19.0555 32.9385L18.9675 33.1145L18.819 33.109L18.731 33.1915L18.6485 32.8285L18.676 32.57L18.5605 32.3665L18.302 32.141L18.0435 31.9815L17.9665 31.844L17.939 31.5855L17.796 31.404L17.5485 31.5965L17.4275 31.745L17.2185 31.866L17.048 32.119L16.9215 32.4655L16.784 32.5975L16.355 32.636L16.0965 32.9055L16.0525 33.1035L15.9535 33.186L15.8435 33.4005L15.277 33.351L15.2605 33.131L14.9085 32.79L14.87 32.5865H14.969L14.8865 32.328L14.441 31.1235L14.2815 31.1895L14.0065 31.1345L13.9625 30.8595L13.748 30.733L13.638 30.4745L13.693 30.304L13.5775 30.183L13.8745 29.996L13.7645 29.8255L13.5115 29.9025L13.3575 29.6825L13.3685 29.6L13.539 29.5065L13.3685 29.2315L13.253 29.1875L13.209 29.0225L12.7635 28.28L12.659 28.181L12.406 27.422L12.362 27.1855L12.571 27.169L12.6095 27.015L12.7195 26.9435L12.7855 26.7675L12.4885 26.74L12.406 26.806L12.384 26.6465L12.5765 26.542L12.2575 26.4705L12.2025 26.63L12.109 25.904L11.8945 26.0305L11.867 26.1845L11.6085 26.4485L11.416 26.509L11.251 26.6575L10.943 27.092L10.69 27.1855L10.558 27.488L10.4425 27.587L10.261 27.6145L10.063 27.5485L9.843 27.664L9.7495 28.6045L9.733 28.4945L9.4305 28.4175L9.2325 28.423L9.084 28.357L8.8365 28.478L8.7375 28.4725L8.754 28.313L8.6055 28.1315L8.4185 28.0875L8.2205 28.2525L8.083 28.2855L7.7475 28.247L7.5385 28.3075L7.28 28.2415L7.2635 28.3845L7.17 28.368L7.1975 28.5165L7.1095 28.632L7.005 28.5275L6.818 28.456L6.8455 28.2965L7.0655 28.0215L7.1645 28.016L7.335 27.5815L7.2965 27.521L7.236 27.1085L7.5605 26.971L7.4945 26.8115L7.6375 26.7565L7.5935 26.5915L7.192 26.3935L7.1205 26.4045L6.807 26.2065L6.7795 26.0415L6.664 25.816L6.7685 25.607L6.9775 25.6565L7.236 25.5025L7.2855 25.299L7.4835 25.1285L7.5055 24.8425L7.566 24.7435L7.5495 24.4575L7.7915 24.397L7.7035 24.0615L7.7475 23.6655L7.632 23.4235L7.7695 23.2365L7.874 22.956L7.83 22.593L7.885 22.4445L8.1765 22.2135L8.1215 22.142V21.8615L7.852 21.757L7.5825 21.35L7.5055 21.152L7.5605 20.9595L7.5275 20.459L7.016 20.4755L6.5925 20.4535L6.103 20.118L5.806 20.1565L5.5695 20.239L5.3825 20.3765L5.4815 20.4535L5.3 20.5195L5.3605 20.822L5.0415 20.943L4.882 21.0585L4.827 20.877L4.8545 20.723L4.761 20.591L4.9425 20.3875L4.629 20.327L4.618 20.1015H4.5355L4.2935 19.942L4.1835 19.8155L3.661 19.821L3.254 19.744L3.177 19.5625L3.023 19.458L2.671 19.5405L2.5225 19.3095L2.5555 19.2105L2.2805 19.1225L2.275 18.831L2.1705 18.8255L2.154 18.7375L2 18.6935L2.275 18.5395L2.517 18.468L2.7535 18.501L2.836 18.4405L2.704 18.2975L2.9845 18.083L2.9735 17.9675L3.111 17.9125L3.2815 18.1435L3.243 17.8575L3.1605 17.8465L3.21 17.6815L3.0395 17.4835L2.979 17.203L3.1385 17.2745L3.155 17.39L3.3805 17.2525L3.408 17.1205L3.5015 17.214L3.6445 17.0215L3.5235 16.884L3.7325 16.8565L3.6225 16.7355L3.705 16.4935L4.211 16.2515L4.365 16.2405L4.2935 16.103L4.376 15.993L4.497 15.982L4.508 15.641L4.5685 15.542L4.6565 15.696L4.7005 16.0205L4.75 16.0865L4.717 15.685L4.7995 15.509Z" fill="white" stroke="#0552B5"/>
</svg>
